<svg width="10" height="11" viewBox="0 0 10 11" fill="none" xmlns="http://www.w3.org/2000/svg">
<path id="&#232;&#183;&#175;&#229;&#190;&#132;" d="M9.17813 4.73516H5.60156V1.15859C5.60156 0.785937 5.32266 0.535156 4.90078 0.535156C4.48125 0.535156 4.2 0.783594 4.2 1.15859V4.7375H0.623438C0.250781 4.7375 0 5.01641 0 5.43828C0 5.85781 0.248438 6.13906 0.623438 6.13906H4.2V9.71797C4.2 10.0906 4.47891 10.3391 4.90078 10.3391C5.32031 10.3391 5.60156 10.0906 5.60156 9.71797V6.13672H9.18047C9.55313 6.13672 9.80156 5.85781 9.80156 5.43594C9.80156 5.01641 9.55078 4.73516 9.17813 4.73516Z" fill="#999999"/>
</svg>
