<svg width="10" height="10" viewBox="0 0 10 10" fill="none" xmlns="http://www.w3.org/2000/svg">
<path d="M9.37637 4.29766H5.79981V0.721094C5.79981 0.348437 5.5209 0.0976562 5.09902 0.0976562C4.67949 0.0976562 4.39824 0.346094 4.39824 0.721094V4.3H0.82168C0.449023 4.3 0.198242 4.57891 0.198242 5.00078C0.198242 5.42031 0.44668 5.70156 0.82168 5.70156H4.39824V9.28047C4.39824 9.65312 4.67715 9.90156 5.09902 9.90156C5.51856 9.90156 5.79981 9.65312 5.79981 9.28047V5.69922H9.37871C9.75137 5.69922 9.99981 5.42031 9.99981 4.99844C9.99981 4.57891 9.74902 4.29766 9.37637 4.29766Z" fill="#467CF3"/>
</svg>
