<svg width="13" height="14" viewBox="0 0 13 14" fill="none" xmlns="http://www.w3.org/2000/svg">
<path d="M6.49924 12.6704C3.37222 12.6704 0.828125 10.1263 0.828125 6.99925C0.828125 3.87223 3.3722 1.32812 6.49924 1.32812C9.62627 1.32812 12.1703 3.87222 12.1703 6.99925C12.1703 10.1263 9.62625 12.6704 6.49924 12.6704ZM6.49924 2.14359C3.82188 2.14359 1.64358 4.32189 1.64358 6.99925C1.64358 9.6766 3.82188 11.8549 6.49924 11.8549C9.17659 11.8549 11.3549 9.67659 11.3549 6.99923C11.3549 4.32188 9.17658 2.14359 6.49924 2.14359Z" fill="#467CF3"/>
<path d="M7.7813 8.72849L7.75024 8.68367L7.65272 8.64022H7.60791C7.55581 8.64022 7.49879 8.65398 7.32049 8.74146L7.03484 8.93432C6.95659 8.98385 6.8699 9.02554 6.77652 9.05818C6.67823 9.09297 6.57443 9.1205 6.46846 9.13996C6.39514 9.15352 6.33655 9.16316 6.27305 9.15981C6.18438 9.14919 6.15941 9.11439 6.15037 9.10142C6.12383 9.06427 6.11459 8.99468 6.12403 8.90523C6.13798 8.7741 6.17534 8.59422 6.23491 8.3705C6.29624 8.14147 6.35601 7.94252 6.41321 7.77424C6.47062 7.60616 6.53824 7.4306 6.61629 7.2464C6.69316 7.06435 6.75489 6.93244 6.79971 6.85381C6.8408 6.78107 6.90252 6.70047 6.98372 6.61297C7.06059 6.52903 7.24066 6.33244 7.13686 6.14351C7.08044 6.04167 6.98135 5.98054 6.82585 5.9707C6.74997 5.9707 6.66602 5.98721 6.56949 6.02084C6.46884 6.05603 6.40495 6.08276 6.37998 6.09691C6.35423 6.11086 6.31432 6.13663 6.13837 6.28072C5.9636 6.42325 5.91426 6.48046 5.8883 6.53019C5.86294 6.57816 5.84329 6.64579 5.82874 6.81957C5.82323 6.88426 5.79847 7.01303 5.70901 7.26583L5.4556 8.07756L5.25154 8.63765C5.19884 8.82893 5.17899 8.99466 5.19079 9.14368C5.20179 9.28858 5.23089 9.42383 5.27729 9.54513C5.32839 9.67979 5.39936 9.78969 5.48783 9.87146C5.58475 9.96151 5.70447 10.0175 5.83658 10.0366C5.87255 10.0431 5.91227 10.0466 5.95552 10.0466C6.06423 10.0466 6.19084 10.0248 6.343 9.97959C6.53173 9.92336 6.68743 9.86675 6.81817 9.80678C6.9495 9.74761 7.07295 9.6786 7.18599 9.60174C7.28841 9.53116 7.39438 9.45547 7.50309 9.37389C7.64247 9.2691 7.73075 9.16177 7.7738 9.0446C7.81 8.94395 7.85109 8.82953 7.7813 8.72849Z" fill="#467CF3"/>
<path d="M6.14162 5.27638C6.20716 5.33117 6.28855 5.36113 6.38574 5.36678C6.49991 5.37809 6.65871 5.30973 6.86157 5.16108C7.06388 5.01246 7.17128 4.89436 7.18258 4.80562C7.19388 4.7169 7.16392 4.58015 7.09272 4.39422C7.02097 4.20887 6.95427 4.09016 6.89154 4.03876C6.82826 3.98733 6.75422 3.95907 6.6689 3.95342C6.50275 3.94777 6.35466 4.02351 6.223 4.18004C6.09189 4.33714 6.00768 4.46316 5.9704 4.55698C5.9331 4.65135 5.915 4.7186 5.915 4.75816C5.90935 4.82709 5.92914 4.91695 5.97492 5.02827C6.02066 5.13959 6.07606 5.22269 6.14162 5.27638Z" fill="#467CF3"/>
</svg>
