<svg width="20" height="21" viewBox="0 0 20 21" fill="none" xmlns="http://www.w3.org/2000/svg">
<g clip-path="url(#clip0_2852_64741)">
<path d="M18.75 8.13281C18.75 8.07031 18.75 8.00781 18.6875 7.94531V7.88281C18.6875 7.82031 18.625 7.75781 18.5625 7.69531C18.5 7.63281 18.5 7.63281 18.4375 7.63281L15.625 6.07031V2.50781C15.625 1.50781 14.875 0.695312 13.875 0.695312H6.125C5.125 0.695312 4.375 1.50781 4.375 2.50781V6.07031L1.5625 7.69531C1.5 7.69531 1.5 7.75781 1.4375 7.75781C1.375 7.82031 1.375 7.88281 1.3125 7.94531V8.00781C1.25 8.07031 1.25 8.07031 1.25 8.13281V17.5703C1.25 18.6328 2.0625 19.4453 3.0625 19.4453H17C18 19.4453 18.8125 18.6328 18.8125 17.5703L18.75 8.13281C18.75 8.19531 18.75 8.19531 18.75 8.13281ZM16.75 8.13281L15.625 8.57031V7.44531L16.75 8.13281ZM6.125 1.94531H13.875C14.1875 1.94531 14.375 2.19531 14.375 2.50781V9.19531L10 11.0703L5.625 9.19531V2.50781C5.625 2.19531 5.8125 1.94531 6.125 1.94531ZM4.375 7.50781V8.63281L3.25 8.13281L4.375 7.50781ZM16.9375 18.1953H3.0625C2.75 18.1953 2.5 17.9453 2.5 17.5703V9.13281L9.75 12.2578C9.8125 12.3203 9.9375 12.3203 10 12.3203C10.0625 12.3203 10.1875 12.3203 10.25 12.2578L17.5 9.13281V17.5703C17.5 17.9453 17.25 18.1953 16.9375 18.1953Z" fill="#616266"/>
<path d="M7.5 5.07031H12.5C12.875 5.07031 13.125 4.82031 13.125 4.44531C13.125 4.07031 12.875 3.82031 12.5 3.82031H7.5C7.125 3.82031 6.875 4.07031 6.875 4.44531C6.875 4.82031 7.125 5.07031 7.5 5.07031ZM7.5 8.19531H10.625C11 8.19531 11.25 7.94531 11.25 7.57031C11.25 7.19531 11 6.94531 10.625 6.94531H7.5C7.125 6.94531 6.875 7.19531 6.875 7.57031C6.875 7.94531 7.125 8.19531 7.5 8.19531Z" fill="#616266"/>
</g>
<defs>
<clipPath id="clip0_2852_64741">
<rect width="20" height="20" fill="white" transform="translate(0 0.0703125)"/>
</clipPath>
</defs>
</svg>
