<svg width="17" height="17" viewBox="0 0 17 17" fill="none" xmlns="http://www.w3.org/2000/svg">
<g id="Group 1000006733">
<path id="Vector 1257 (Stroke)" fill-rule="evenodd" clip-rule="evenodd" d="M0.761328 6.16016C1.12031 6.16016 1.41133 6.45117 1.41133 6.81016V15.1992H14.8379V6.81016C14.8379 6.45117 15.1289 6.16016 15.4879 6.16016C15.8469 6.16016 16.1379 6.45117 16.1379 6.81016V15.8492C16.1379 16.2082 15.8469 16.4992 15.4879 16.4992H0.761328C0.402343 16.4992 0.111328 16.2082 0.111328 15.8492V6.81016C0.111328 6.45117 0.402343 6.16016 0.761328 6.16016Z" fill="#1F2329"/>
<path id="Vector 1258 (Stroke)" fill-rule="evenodd" clip-rule="evenodd" d="M4.01084 5.04291C4.18008 5.35949 4.06063 5.75334 3.74405 5.92258L1.0679 7.35321C0.75131 7.52245 0.357467 7.403 0.188225 7.08642C0.0189821 6.76983 0.138428 6.37599 0.455015 6.20674L3.13117 4.77612C3.44775 4.60687 3.8416 4.72632 4.01084 5.04291Z" fill="#1F2329"/>
<path id="Vector 1259 (Stroke)" fill-rule="evenodd" clip-rule="evenodd" d="M12.5292 5.04856C12.348 5.35846 12.4524 5.75657 12.7623 5.93778L15.1605 7.34011C15.4704 7.52131 15.8685 7.41699 16.0497 7.1071C16.2309 6.7972 16.1266 6.39909 15.8167 6.21788L13.4185 4.81556C13.1086 4.63435 12.7105 4.73867 12.5292 5.04856Z" fill="#1F2329"/>
<path id="Vector 1260 (Stroke)" fill-rule="evenodd" clip-rule="evenodd" d="M15.7694 6.4063C15.9019 6.73993 15.7389 7.11782 15.4052 7.25035L8.33123 10.0604C8.17635 10.1219 8.00376 10.1216 7.84911 10.0595L0.849419 7.24947C0.516277 7.11573 0.354631 6.73725 0.488372 6.40411C0.622113 6.07097 1.0006 5.90932 1.33374 6.04306L8.09254 8.75641L14.9253 6.04218C15.2589 5.90965 15.6368 6.07268 15.7694 6.4063Z" fill="#1F2329"/>
<path id="Vector 1261 (Stroke)" fill-rule="evenodd" clip-rule="evenodd" d="M3.12305 0.845312C3.12305 0.486327 3.41406 0.195312 3.77305 0.195312H12.698C13.057 0.195312 13.348 0.486327 13.348 0.845312V7.38438C13.348 7.74336 13.057 8.03438 12.698 8.03438C12.339 8.03438 12.048 7.74336 12.048 7.38438V1.49531H4.42305V7.38438C4.42305 7.74336 4.13203 8.03438 3.77305 8.03438C3.41406 8.03438 3.12305 7.74336 3.12305 7.38438V0.845312Z" fill="#1F2329"/>
<path id="Vector 1262 (Stroke)" fill-rule="evenodd" clip-rule="evenodd" d="M5.01562 3.41797C5.01562 3.14183 5.23948 2.91797 5.51562 2.91797H11.0977C11.3738 2.91797 11.5977 3.14183 11.5977 3.41797C11.5977 3.69411 11.3738 3.91797 11.0977 3.91797H5.51562C5.23948 3.91797 5.01562 3.69411 5.01562 3.41797Z" fill="#1F2329"/>
<path id="Vector 1263 (Stroke)" fill-rule="evenodd" clip-rule="evenodd" d="M5.01562 5.73047C5.01562 5.45433 5.23948 5.23047 5.51562 5.23047H8.47657C8.75271 5.23047 8.97657 5.45433 8.97657 5.73047C8.97657 6.00661 8.75271 6.23047 8.47657 6.23047H5.51562C5.23948 6.23047 5.01562 6.00661 5.01562 5.73047Z" fill="#1F2329"/>
</g>
</svg>
