<svg width="16" height="16" viewBox="0 0 16 16" fill="none" xmlns="http://www.w3.org/2000/svg">
<path fill-rule="evenodd" clip-rule="evenodd" d="M14.7141 11.9801L9.22031 2.82539C8.54843 1.70664 7.45 1.70664 6.77812 2.82539L1.2875 11.9801C0.61562 13.1004 1.16562 14.0145 2.50781 14.0145H13.4937C14.8359 14.0145 15.3844 13.1004 14.7141 11.9801ZM7.24531 5.42383C7.44218 5.21914 7.69375 5.11602 8 5.11602C8.30625 5.11602 8.55625 5.21758 8.75468 5.4207C8.95156 5.62383 9.04843 5.87695 9.04843 6.18164C9.04843 6.28514 8.98479 6.64781 8.89927 7.1352L8.89927 7.13521C8.76788 7.88397 8.58484 8.92706 8.50156 9.77695H7.51562C7.43986 8.89344 7.23586 7.80115 7.09516 7.04778L7.09516 7.04775C7.01241 6.60469 6.95156 6.27885 6.95156 6.18164C6.95156 5.88008 7.04999 5.62695 7.24531 5.42383ZM8 12.3895C8.28593 12.3895 8.53281 12.2926 8.74062 12.0973C8.94843 11.9035 9.05 11.6676 9.05 11.3926C9.05 11.1191 8.94687 10.8801 8.74062 10.6816C8.53281 10.4832 8.28593 10.3832 8 10.3832C7.71406 10.3832 7.46718 10.4832 7.25937 10.6816C7.05312 10.8801 6.95 11.1176 6.95 11.3926C6.95 11.6676 7.05312 11.9035 7.25937 12.0973C7.46718 12.2926 7.71406 12.3895 8 12.3895Z" fill="#467CF3"/>
</svg>
