<svg width="16" height="16" viewBox="0 0 16 16" fill="none" xmlns="http://www.w3.org/2000/svg">
<path d="M4.0813 13.457H2.0313C1.7563 13.457 1.53442 13.2352 1.53442 12.9602C1.53442 12.6852 1.7563 12.4633 2.0313 12.4633H4.0813C4.30786 11.5852 5.09849 10.9711 6.0063 10.9711C6.91255 10.9711 7.70474 11.5852 7.9313 12.4633H13.9563C14.2313 12.4633 14.4532 12.6852 14.4532 12.9602C14.4532 13.2352 14.2313 13.457 13.9563 13.457H7.92974C7.70317 14.3352 6.91255 14.9492 6.00474 14.9492C5.09849 14.9492 4.3063 14.3352 4.0813 13.457ZM8.05474 8.48984H2.0313C1.7563 8.48984 1.53442 8.26797 1.53442 7.99297C1.53442 7.71797 1.7563 7.49609 2.0313 7.49609H8.0563C8.28286 6.61797 9.07349 6.00391 9.9813 6.00391C10.8875 6.00391 11.6797 6.61797 11.9063 7.49609H13.9563C14.2313 7.49609 14.4532 7.71797 14.4532 7.99297C14.4532 8.26797 14.2313 8.48984 13.9563 8.48984H11.9047C11.6782 9.36797 10.8875 9.98203 9.97974 9.98203C9.07349 9.98203 8.2813 9.36797 8.05474 8.48984ZM4.0813 3.52109H2.0313C1.7563 3.52109 1.53442 3.29922 1.53442 3.02422C1.53442 2.74922 1.7563 2.52734 2.0313 2.52734H4.0813C4.30786 1.64922 5.09849 1.03516 6.0063 1.03516C6.91255 1.03516 7.70474 1.64922 7.9313 2.52734H13.9563C14.1344 2.52734 14.2985 2.62266 14.386 2.77578C14.475 2.92891 14.475 3.11953 14.386 3.27266C14.2969 3.42578 14.1329 3.52109 13.9563 3.52109H7.92974C7.70317 4.39922 6.91255 5.01328 6.00474 5.01328C5.09849 5.01328 4.3063 4.39922 4.0813 3.52109ZM6.0063 4.01797C6.36099 4.01797 6.68911 3.82891 6.86724 3.52109C7.04536 3.21328 7.04536 2.83516 6.86724 2.52734C6.68911 2.21953 6.36099 2.03047 6.0063 2.03047C5.45786 2.03047 5.01255 2.47578 5.01255 3.02422C5.01255 3.57266 5.4563 4.01797 6.0063 4.01797ZM9.97974 8.98672C10.5282 8.98672 10.9735 8.54141 10.9735 7.99297C10.9735 7.44453 10.5282 6.99922 9.97974 6.99922C9.4313 6.99922 8.98599 7.44453 8.98599 7.99297C8.98599 8.54141 9.4313 8.98672 9.97974 8.98672ZM6.0063 13.9539C6.55474 13.9539 7.00005 13.5086 7.00005 12.9602C7.00005 12.4117 6.55474 11.9664 6.0063 11.9664C5.45786 11.9664 5.01255 12.4117 5.01255 12.9602C5.01255 13.5102 5.4563 13.9539 6.0063 13.9539Z" fill="#467CF3"/>
</svg>
