<svg width="13" height="22" viewBox="0 0 13 22" fill="none" xmlns="http://www.w3.org/2000/svg">
<path d="M6.49997 16.6704C3.37295 16.6704 0.828857 14.1263 0.828857 10.9992C0.828857 7.87223 3.37294 5.32812 6.49997 5.32812C9.627 5.32812 12.1711 7.87222 12.1711 10.9992C12.1711 14.1263 9.62699 16.6704 6.49997 16.6704ZM6.49997 6.14359C3.82261 6.14359 1.64431 8.32189 1.64431 10.9992C1.64431 13.6766 3.82261 15.8549 6.49997 15.8549C9.17732 15.8549 11.3556 13.6766 11.3556 10.9992C11.3556 8.32188 9.17731 6.14359 6.49997 6.14359Z" fill="#467CF3"/>
<path d="M7.77788 12.7304L7.74682 12.6856L7.64931 12.6422H7.60449C7.55239 12.6422 7.49537 12.6559 7.31707 12.7434L7.03142 12.9363C6.95317 12.9858 6.86648 13.0275 6.7731 13.0601C6.67481 13.0949 6.57101 13.1224 6.46504 13.1419C6.39172 13.1555 6.33313 13.1651 6.26963 13.1618C6.18096 13.1511 6.156 13.1163 6.14695 13.1034C6.12041 13.0662 6.11118 12.9966 6.12061 12.9072C6.13456 12.7761 6.17192 12.5962 6.23149 12.3725C6.29282 12.1434 6.35259 11.9445 6.40979 11.7762C6.4672 11.6081 6.53482 11.4326 6.61287 11.2484C6.68974 11.0663 6.75147 10.9344 6.79629 10.8558C6.83738 10.783 6.8991 10.7024 6.9803 10.6149C7.05717 10.531 7.23724 10.3344 7.13344 10.1455C7.07702 10.0436 6.97793 9.98249 6.82243 9.97266C6.74655 9.97266 6.6626 9.98917 6.56608 10.0228C6.46542 10.058 6.40153 10.0847 6.37656 10.0989C6.35081 10.1128 6.3109 10.1386 6.13495 10.2827C5.96018 10.4252 5.91084 10.4824 5.88488 10.5321C5.85952 10.5801 5.83987 10.6477 5.82532 10.8215C5.81981 10.8862 5.79505 11.015 5.70559 11.2678L5.45218 12.0795L5.24812 12.6396C5.19543 12.8309 5.17558 12.9966 5.18737 13.1456C5.19838 13.2905 5.22748 13.4258 5.27387 13.5471C5.32497 13.6817 5.39595 13.7916 5.48442 13.8734C5.58133 13.9635 5.70106 14.0195 5.83316 14.0385C5.86914 14.045 5.90885 14.0486 5.9521 14.0486C6.06081 14.0486 6.18742 14.0268 6.33959 13.9815C6.52831 13.9253 6.68401 13.8687 6.81475 13.8087C6.94608 13.7496 7.06954 13.6806 7.18257 13.6037C7.28499 13.5331 7.39096 13.4574 7.49967 13.3758C7.63906 13.2711 7.72733 13.1637 7.77039 13.0466C7.80658 12.9459 7.84767 12.8315 7.77788 12.7304Z" fill="#467CF3"/>
<path d="M6.14235 9.27638C6.20789 9.33117 6.28928 9.36113 6.38647 9.36678C6.50064 9.37809 6.65944 9.30973 6.8623 9.16108C7.06461 9.01246 7.17201 8.89436 7.18331 8.80562C7.19461 8.7169 7.16466 8.58015 7.09345 8.39422C7.0217 8.20887 6.95501 8.09016 6.89227 8.03876C6.82899 7.98733 6.75495 7.95907 6.66963 7.95342C6.50348 7.94777 6.3554 8.02351 6.22373 8.18004C6.09262 8.33714 6.00841 8.46316 5.97113 8.55698C5.93383 8.65135 5.91574 8.7186 5.91574 8.75816C5.91008 8.82709 5.92987 8.91695 5.97565 9.02827C6.02139 9.13959 6.07679 9.22269 6.14235 9.27638Z" fill="#467CF3"/>
</svg>
