<svg width="14" height="14" viewBox="0 0 14 14" fill="none" xmlns="http://www.w3.org/2000/svg">
<path id="Vector" d="M13.7156 12.6285C14.2907 11.6311 13.9722 10.865 12.9536 10.0985C11.7563 9.19734 10.5862 8.59121 9.74483 9.56215C9.74483 9.56215 8.85195 10.6214 6.2244 8.14266C3.169 5.2402 4.45132 4.2108 4.45132 4.2108C5.51397 3.14618 4.83848 2.35196 3.94725 1.14911C3.0561 -0.0537303 2.15587 -0.434437 0.863481 0.600062C-1.62697 2.59366 1.88472 7.27469 3.66023 9.09485L3.66016 9.09498C3.66016 9.09498 6.36011 11.878 8.05913 12.8045L8.96804 13.311C10.2717 13.9776 11.7359 14.2828 12.7668 13.6638C12.7668 13.6638 13.2637 13.4091 13.7156 12.6285Z" fill="#467CF3"/>
</svg>
