<svg width="16" height="16" viewBox="0 0 16 16" fill="none" xmlns="http://www.w3.org/2000/svg">
<path d="M13.8908 1.14789C12.8221 0.572754 12.0013 0.891321 11.18 1.90985C10.2145 3.10717 9.56511 4.27729 10.6054 5.11865C10.6054 5.11865 11.7403 6.01153 9.08451 8.63908C5.97473 11.6945 4.87181 10.4122 4.87181 10.4122C3.73114 9.34951 2.88019 10.025 1.59142 10.9162C0.302669 11.8074 -0.105232 12.7076 1.00316 14C3.13916 16.4904 8.15455 12.9788 10.1047 11.2033C10.1047 11.2033 13.0867 8.50337 14.0794 6.80435L14.622 5.89544C15.3363 4.59182 15.6633 3.12754 15 2.09666C15 2.09666 14.7271 1.59974 13.8908 1.14789Z" fill="#467CF3"/>
</svg>
