<svg width="35" height="35" viewBox="0 0 35 35" fill="none" xmlns="http://www.w3.org/2000/svg">
<rect width="35" height="35" rx="4" fill="#467CF3"/>
<path d="M12.245 13.0027C12.245 10.1751 14.6022 7.875 17.5 7.875C20.3978 7.875 22.7549 10.1751 22.7549 13.0027C22.7549 15.8305 20.3978 18.1304 17.5 18.1304C14.6022 18.1304 12.245 15.8305 12.245 13.0027ZM7.875 26.2379C7.98814 24.998 8.59815 20.6045 13.2867 18.2516C14.4496 19.1423 15.9104 19.6786 17.5 19.6786C19.0983 19.6786 20.567 19.1368 21.733 18.237C26.4419 20.5801 27.0103 24.9427 27.125 26.2378C27.097 26.2642 7.90279 26.2399 7.875 26.2379Z" fill="white"/>
</svg>
