<svg width="16" height="17" viewBox="0 0 16 17" fill="none" xmlns="http://www.w3.org/2000/svg">
<g clip-path="url(#clip0_2487_47088)">
<path d="M8.0069 9.02694C7.93887 9.02701 7.87149 9.01366 7.80863 8.98766C7.74577 8.96165 7.68865 8.92351 7.64055 8.87541C7.59244 8.8273 7.5543 8.77018 7.5283 8.70732C7.50229 8.64446 7.48895 8.57708 7.48901 8.50906V1.01788C7.48901 0.733047 7.72206 0.5 8.0069 0.5C12.4193 0.5 16.0082 4.08893 16.0082 8.50129C16.0082 8.5693 15.9948 8.63664 15.9688 8.69947C15.9427 8.76231 15.9046 8.8194 15.8565 8.86749C15.8084 8.91558 15.7513 8.95372 15.6885 8.97975C15.6257 9.00578 15.5583 9.01917 15.4903 9.01917L8.0069 9.02694ZM8.52478 1.55389V7.99117L14.9517 7.98341C14.7005 4.55243 11.9532 1.80765 8.52478 1.55389Z" fill="#467CF3"/>
<path d="M14.4209 11.2073C13.3385 13.7604 10.7931 15.4643 8.0069 15.4643C4.1668 15.4643 1.04138 12.3389 1.04138 8.49875C1.04138 5.61414 2.82031 3.04286 5.48999 2.00709V0.90918C5.46151 0.914359 5.43303 0.919537 5.40454 0.929895C2.17554 2.04334 0.00561523 5.08331 0.00561523 8.49875C0.00561523 12.9111 3.59454 16.5 8.0069 16.5C11.2929 16.5 14.294 14.4415 15.4748 11.3756C15.4955 11.3212 15.5058 11.2642 15.5058 11.2073H14.4209Z" fill="#467CF3"/>
</g>
<defs>
<clipPath id="clip0_2487_47088">
<rect width="16" height="16" fill="white" transform="translate(0 0.5)"/>
</clipPath>
</defs>
</svg>
