<svg width="35" height="36" viewBox="0 0 35 36" fill="none" xmlns="http://www.w3.org/2000/svg">
<circle cx="17.5" cy="18" r="17.5" fill="#60D2BA"/>
<path d="M8.48 18.086V19.962H12.498V18.086H8.48ZM7.192 19.962V15.006C9.796 14.936 12.106 14.642 14.094 14.138L14.766 15.244C12.904 15.622 10.804 15.888 8.48 16.056V16.854H15.648V18.086H13.772V19.962H17.16V21.222H4.868V19.962H7.192ZM12.736 21.488C14.192 22.02 15.536 22.65 16.74 23.406L16.026 24.526C14.738 23.658 13.422 22.986 12.064 22.482L12.736 21.488ZM9.026 21.516L9.964 22.328C8.872 23.154 7.542 23.882 5.974 24.512L5.148 23.448C6.674 22.888 7.962 22.244 9.026 21.516ZM16.81 12.444V15.272H15.466V13.634H6.534V15.272H5.19V12.444H10.188C10.048 12.15 9.894 11.884 9.74 11.646L11.21 11.422C11.35 11.73 11.49 12.066 11.63 12.444H16.81ZM23.712 13.564H26.568V11.688H27.884V13.564H30.838V14.81H27.884V16.728H31.398V17.988H27.884V22.594H29.55V19.08H30.81V24.414H29.55V23.84H23.628V19.08H24.888V22.594H26.568V17.988H23.278V16.728H26.568V14.81H23.712V13.564ZM18.994 12.024H23.138V13.06C22.76 14.264 22.326 15.524 21.836 16.854C22.606 18.142 23.026 19.262 23.096 20.228C23.096 20.886 22.97 21.362 22.732 21.656C22.354 22.006 21.71 22.188 20.786 22.202L20.38 20.886C20.66 20.928 20.884 20.956 21.08 20.956C21.36 20.928 21.542 20.872 21.64 20.76C21.724 20.662 21.78 20.48 21.78 20.228C21.78 19.276 21.36 18.226 20.52 17.05C21.066 15.65 21.5 14.39 21.822 13.256H20.282V24.47H18.994V12.024Z" fill="#F2F2F2"/>
</svg>
