<svg width="14" height="7" viewBox="0 0 14 7" fill="none" xmlns="http://www.w3.org/2000/svg">
<path fill-rule="evenodd" clip-rule="evenodd" d="M14 0.777785C14 0.567247 13.9137 0.384741 13.741 0.230199C13.5683 0.0756798 13.363 -0.00104284 13.125 1.04904e-05H0.874994C0.638168 1.04904e-05 0.432831 0.0767326 0.259007 0.230199C0.085183 0.383688 -0.00115627 0.566194 1.16916e-05 0.777785C0.00117965 0.989308 0.0875189 1.17186 0.259007 1.32533L6.384 6.76979C6.55667 6.92328 6.76199 7 7.00001 7C7.238 7 7.44331 6.92326 7.61599 6.76979L13.741 1.32533C13.9137 1.17186 14 0.989308 14 0.777785Z" fill="#C0C4CC"/>
</svg>
