<svg width="32" height="32" viewBox="0 0 32 32" fill="none" xmlns="http://www.w3.org/2000/svg">
<path d="M0.5 6C0.5 2.96243 2.96243 0.5 6 0.5H26C29.0376 0.5 31.5 2.96243 31.5 6V26C31.5 29.0376 29.0376 31.5 26 31.5H6C2.96243 31.5 0.5 29.0376 0.5 26V6Z" fill="white"/>
<path d="M0.5 6C0.5 2.96243 2.96243 0.5 6 0.5H26C29.0376 0.5 31.5 2.96243 31.5 6V26C31.5 29.0376 29.0376 31.5 26 31.5H6C2.96243 31.5 0.5 29.0376 0.5 26V6Z" stroke="#D0D3D6"/>
<path d="M23.6607 14.7364L17.2842 8.35898C17.0474 8.1224 16.7663 7.9348 16.4569 7.80689C16.1476 7.67897 15.8161 7.61325 15.4814 7.61348L10.1598 7.61423C8.7513 7.61423 7.60779 8.75327 7.60779 10.1622V15.4813C7.60805 16.1579 7.877 16.8067 8.3555 17.2851L14.7343 23.6648C14.9711 23.9017 15.2522 24.0896 15.5617 24.2178C15.8711 24.3459 16.2027 24.4119 16.5376 24.4119C16.8725 24.4119 17.2042 24.3459 17.5136 24.2178C17.823 24.0896 18.1041 23.9017 18.3409 23.6648L23.6607 18.3441C24.6568 17.3479 24.6568 15.7326 23.6607 14.7364ZM22.8131 17.4963L17.4933 22.8171C17.3679 22.9426 17.2189 23.0421 17.055 23.11C16.891 23.178 16.7153 23.2129 16.5378 23.2129C16.3604 23.2129 16.1847 23.178 16.0207 23.11C15.8568 23.0421 15.7078 22.9426 15.5824 22.8171L9.20393 16.4373C8.95001 16.1839 8.80709 15.84 8.80657 15.4812V10.1622C8.80675 9.98474 8.8419 9.80908 8.91 9.64524C8.9781 9.4814 9.07781 9.33258 9.20345 9.2073C9.32908 9.08201 9.47817 8.98272 9.64219 8.91509C9.80621 8.84746 9.98195 8.81282 10.1594 8.81315L15.481 8.8124C15.6583 8.81215 15.8339 8.84688 15.9978 8.91462C16.1617 8.98236 16.3106 9.08178 16.436 9.20717L22.8126 15.5844C23.0662 15.8378 23.2087 16.1817 23.2088 16.5402C23.2089 16.8988 23.0666 17.2427 22.8131 17.4963Z" fill="#646A73"/>
<path d="M13.6014 11.2053C12.276 11.2053 11.2015 12.2798 11.2015 13.6054C11.2015 14.931 12.276 16.0054 13.6014 16.0054C14.9268 16.0054 16.0012 14.9309 16.0012 13.6054C16.0012 12.2798 14.9267 11.2053 13.6014 11.2053ZM14.4506 14.4547C14.2542 14.6512 13.9956 14.7735 13.7191 14.8008C13.4426 14.828 13.1652 14.7586 12.9341 14.6042C12.7031 14.4498 12.5327 14.2201 12.452 13.9541C12.3714 13.6882 12.3854 13.4025 12.4917 13.1458C12.5981 12.889 12.7901 12.6771 13.0352 12.5461C13.2802 12.4151 13.5631 12.3731 13.8356 12.4273C14.1082 12.4815 14.3535 12.6286 14.5297 12.8434C14.706 13.0582 14.8024 13.3275 14.8023 13.6054C14.8028 13.7632 14.7719 13.9195 14.7115 14.0653C14.6511 14.2111 14.5624 14.3434 14.4506 14.4547H14.4506Z" fill="#646A73"/>
</svg>
