<svg width="32" height="32" viewBox="0 0 32 32" fill="none" xmlns="http://www.w3.org/2000/svg">
<path d="M0 6C0 2.68629 2.68629 0 6 0H26C29.3137 0 32 2.68629 32 6V26C32 29.3137 29.3137 32 26 32H6C2.68629 32 0 29.3137 0 26V6Z" fill="#F0F4FF"/>
<path d="M17.2842 8.35898L23.6607 14.7364C24.6568 15.7326 24.6568 17.3479 23.6607 18.3441L18.3409 23.6648C18.1041 23.9017 17.823 24.0896 17.5136 24.2178C17.2042 24.3459 16.8725 24.4119 16.5376 24.4119C16.2027 24.4119 15.8711 24.3459 15.5617 24.2178C15.2522 24.0896 14.9711 23.9017 14.7343 23.6648L8.3555 17.2851C7.877 16.8067 7.60805 16.1579 7.60779 15.4813V10.1622C7.60779 8.75327 8.7513 7.61423 10.1598 7.61423L15.4814 7.61348C15.8161 7.61325 16.1476 7.67897 16.4569 7.80689C16.7663 7.9348 17.0474 8.1224 17.2842 8.35898Z" fill="#467CF3"/>
<path d="M13.6014 11.2053C12.276 11.2053 11.2016 12.2798 11.2016 13.6054C11.2016 14.931 12.276 16.0054 13.6014 16.0054C14.9269 16.0054 16.0012 14.9309 16.0012 13.6054C16.0012 12.2798 14.9267 11.2053 13.6014 11.2053Z" fill="#F0F4FF"/>
</svg>
