<svg width="10" height="10" viewBox="0 0 10 10" fill="none" xmlns="http://www.w3.org/2000/svg">
<path id="&#232;&#183;&#175;&#229;&#190;&#132;" d="M9.27774 4.29766H5.70117V0.721094C5.70117 0.348437 5.42227 0.0976562 5.00039 0.0976562C4.58086 0.0976562 4.29961 0.346094 4.29961 0.721094V4.3H0.723047C0.350391 4.3 0.0996094 4.57891 0.0996094 5.00078C0.0996094 5.42031 0.348047 5.70156 0.723047 5.70156H4.29961V9.28047C4.29961 9.65312 4.57852 9.90156 5.00039 9.90156C5.41992 9.90156 5.70117 9.65312 5.70117 9.28047V5.69922H9.28008C9.65274 5.69922 9.90117 5.42031 9.90117 4.99844C9.90117 4.57891 9.65039 4.29766 9.27774 4.29766Z" fill="#467CF3"/>
</svg>
