<svg width="32" height="32" viewBox="0 0 32 32" fill="none" xmlns="http://www.w3.org/2000/svg">
<path d="M0 6C0 2.68629 2.68629 0 6 0H26C29.3137 0 32 2.68629 32 6V26C32 29.3137 29.3137 32 26 32H6C2.68629 32 0 29.3137 0 26V6Z" fill="#E7EEFE"/>
<path fill-rule="evenodd" clip-rule="evenodd" d="M10.65 7.56665C10.3982 7.56665 10.1611 7.68522 10.01 7.88667L7.72663 10.9314C7.62279 11.0698 7.56665 11.2383 7.56665 11.4113V23.6333C7.56665 24.0752 7.92482 24.4333 8.36665 24.4333H23.6333C24.0752 24.4333 24.4333 24.0752 24.4333 23.6333V11.4113C24.4333 11.2383 24.3772 11.0698 24.2734 10.9314L21.99 7.88667C21.8389 7.68522 21.6018 7.56665 21.35 7.56665H10.65ZM21.2133 9.40665C21.5924 9.91207 21.2318 10.6333 20.6 10.6333H11.4C10.7682 10.6333 10.4076 9.91207 10.7867 9.40665C10.9314 9.2136 11.1587 9.09999 11.4 9.09999H20.6C20.8413 9.09999 21.0686 9.2136 21.2133 9.40665Z" fill="#467CF3"/>
<path d="M15.2335 17.5334V15.2334H16.7669V17.5334H18.3002L16.0002 19.8334L13.7002 17.5334H15.2335Z" fill="white"/>
</svg>
