<svg width="32" height="33" viewBox="0 0 32 33" fill="none" xmlns="http://www.w3.org/2000/svg">
<path d="M0.5 6.54688C0.5 3.50931 2.96243 1.04688 6 1.04688H26C29.0376 1.04688 31.5 3.50931 31.5 6.54688V26.5469C31.5 29.5844 29.0376 32.0469 26 32.0469H6C2.96243 32.0469 0.5 29.5844 0.5 26.5469V6.54688Z" fill="white"/>
<path d="M0.5 6.54688C0.5 3.50931 2.96243 1.04688 6 1.04688H26C29.0376 1.04688 31.5 3.50931 31.5 6.54688V26.5469C31.5 29.5844 29.0376 32.0469 26 32.0469H6C2.96243 32.0469 0.5 29.5844 0.5 26.5469V6.54688Z" stroke="#D0D3D6"/>
<path d="M9.90005 12.7135C9.45822 12.7135 9.10005 13.0717 9.10005 13.5135V22.6469C9.10005 23.0887 9.45822 23.4469 9.90005 23.4469H22.1001C22.5419 23.4469 22.9001 23.0887 22.9001 22.6469V13.5135C22.9001 13.0717 22.5419 12.7135 22.1001 12.7135H9.90005ZM20.6001 11.1802C21.2318 11.1802 21.5925 10.4589 21.2134 9.95353C21.0686 9.76048 20.8414 9.64686 20.6001 9.64686H11.4001C11.1587 9.64686 10.9315 9.76048 10.7867 9.95353C10.4077 10.4589 10.7683 11.1802 11.4001 11.1802H20.6001ZM10.0101 8.43355C10.1611 8.23209 10.3983 8.11353 10.6501 8.11353H21.3501C21.6019 8.11353 21.839 8.23209 21.9901 8.43355L24.2734 11.4782C24.3773 11.6167 24.4334 11.7851 24.4334 11.9582V24.1802C24.4334 24.6221 24.0752 24.9802 23.6334 24.9802H8.36671C7.92488 24.9802 7.56671 24.6221 7.56671 24.1802V11.9582C7.56671 11.7851 7.62285 11.6167 7.7267 11.4782L10.0101 8.43355Z" fill="#646A73"/>
<path d="M15.2335 18.0803V15.7803H16.7668V18.0803H18.3001L16.0001 20.3803L13.7001 18.0803H15.2335Z" fill="#646A73"/>
</svg>
