<svg width="21" height="21" viewBox="0 0 21 21" fill="none" xmlns="http://www.w3.org/2000/svg">
<rect width="21" height="21" rx="10.5" fill="#467CF3"/>
<path fill-rule="evenodd" clip-rule="evenodd" d="M7.19888 6.65187C7.19888 7.48727 7.53076 8.28847 8.1215 8.87919C8.71224 9.46991 9.51345 9.80178 10.3489 9.80178C11.1843 9.80178 11.9855 9.46991 12.5763 8.87919C13.167 8.28847 13.4989 7.48727 13.4989 6.65187C13.4989 5.81646 13.167 5.01526 12.5763 4.42454C11.9855 3.83382 11.1843 3.50195 10.3489 3.50195C9.51345 3.50195 8.71224 3.83382 8.1215 4.42454C7.53076 5.01526 7.19888 5.81646 7.19888 6.65187ZM11.3487 9.88088L10.3489 10.8807L9.34904 9.88088C6.57791 10.3233 4.40881 12.5729 4.08946 15.3831C4.04457 15.7782 4.37124 16.102 4.76888 16.102H12.8756C12.6761 15.6768 12.5646 15.2022 12.5646 14.7016C12.5646 13.2702 13.4758 12.0517 14.7499 11.5946C13.8399 10.706 12.6619 10.0905 11.3487 9.88088ZM10.3489 15.202L9.27029 14.1234L10.3489 10.8849L11.4275 14.1248L10.3489 15.202Z" fill="white"/>
<path fill-rule="evenodd" clip-rule="evenodd" d="M15.9 17.4C17.3911 17.4 18.6 16.1912 18.6 14.7C18.6 13.2088 17.3911 12 15.9 12C14.4088 12 13.2 13.2088 13.2 14.7C13.2 16.1912 14.4088 17.4 15.9 17.4ZM17.6388 15.7732V15.2902H16.1268V15.0508H17.3322V13.1272H16.7442L16.9164 12.6988L16.3536 12.6568L16.194 13.1272H15.543L15.4128 12.6526L14.8374 12.6946L14.9886 13.1272H14.4048V15.0508H15.6144V15.2902H14.0898V15.7732H15.6144V16.3864H16.1268V15.7732H17.6388ZM14.913 13.5892H15.6144V13.8748H14.913V13.5892ZM16.8198 13.5892V13.8748H16.1268V13.5892H16.8198ZM15.6144 14.593H14.913V14.3284H15.6144V14.593ZM16.8198 14.593H16.1268V14.3284H16.8198V14.593Z" fill="white"/>
</svg>
