<svg width="13" height="12" viewBox="0 0 13 12" fill="none" xmlns="http://www.w3.org/2000/svg">
<path id="Union" fill-rule="evenodd" clip-rule="evenodd" d="M2.75195 5.54136L4.33933 4.65179C4.58023 4.51679 4.88495 4.60263 5.01995 4.84353C5.15495 5.08442 5.0691 5.38914 4.82821 5.52414L2.21114 6.99076L1.77496 7.23519L1.53052 6.79901L0.0639113 4.18194C-0.0710866 3.94105 0.0147595 3.63633 0.255654 3.50133C0.496549 3.36633 0.80127 3.45218 0.936267 3.69307L1.78888 5.2145C1.93147 4.22633 2.3413 3.29027 2.98095 2.51085C3.78819 1.52723 4.91151 0.853934 6.15951 0.60569C7.40752 0.357446 8.70299 0.549611 9.82519 1.14944C10.9474 1.74927 11.8269 2.71965 12.3138 3.89525C12.8008 5.07084 12.8651 6.37891 12.4957 7.59657C12.1263 8.81423 11.3462 9.86615 10.2882 10.5731C9.23015 11.28 7.95975 11.5982 6.69342 11.4735C5.59291 11.3651 4.55465 10.928 3.71104 10.2249C3.49977 10.0488 3.50109 9.73144 3.69558 9.53695C3.89007 9.34246 4.20386 9.34496 4.41862 9.5168C5.09654 10.0592 5.91998 10.3965 6.79105 10.4823C7.82805 10.5844 8.86838 10.3238 9.73478 9.74492C10.6012 9.166 11.2401 8.30458 11.5425 7.30744C11.845 6.31029 11.7924 5.23911 11.3936 4.27641C10.9949 3.31372 10.2746 2.51907 9.35566 2.02786C8.43669 1.53666 7.37582 1.3793 6.35383 1.58259C5.33184 1.78587 4.41195 2.33723 3.7509 3.14272C3.1874 3.82935 2.84171 4.66442 2.75195 5.54136Z" fill="#EC8C4C"/>
</svg>
