<svg width="50" height="51" viewBox="0 0 50 51" fill="none" xmlns="http://www.w3.org/2000/svg">
<path d="M46.875 36.4375C46.875 38.4526 45.2441 40.083 43.229 40.083H6.771C4.75586 40.083 3.125 38.4526 3.125 36.4375V29.146C3.125 27.1309 4.75586 25.5 6.771 25.5H43.2295C45.2441 25.5 46.875 27.1309 46.875 29.146V36.4375ZM6.771 23.0771C6.09521 23.0771 5.04688 23.2866 4.42969 23.543L11.7563 12.5474C12.3506 11.6504 13.7134 10.917 14.7847 10.917H35.1802C36.2637 10.917 37.6147 11.6392 38.2202 12.5474L45.5469 23.543C44.8013 23.2632 44.0093 23.1006 43.2173 23.0771H6.771ZM29.8569 32.792C29.8569 34.1314 30.9404 35.2266 32.2915 35.2266C33.6309 35.2266 34.7261 34.1436 34.7261 32.792C34.7261 31.4526 33.6313 30.3574 32.2915 30.3574C30.9521 30.3691 29.8569 31.4526 29.8569 32.792ZM37.1489 32.792C37.1489 34.1314 38.2324 35.2266 39.5835 35.2266C40.9229 35.2266 42.0181 34.1436 42.0181 32.792C42.0181 31.4526 40.9233 30.3574 39.5835 30.3574C38.2437 30.3691 37.1489 31.4526 37.1489 32.792Z" fill="#467CF3"/>
</svg>
