<svg width="48" height="49" viewBox="0 0 48 49" fill="none" xmlns="http://www.w3.org/2000/svg">
<rect y="0.0820312" width="48" height="48" rx="6" fill="#F2F3F5"/>
<g clip-path="url(#clip0_4064_79408)">
<g clip-path="url(#clip1_4064_79408)">
<path d="M24 34.5703C26.8962 34.5703 29.5183 33.3964 31.4163 31.4983C33.3143 29.6003 34.4883 26.9783 34.4883 24.082C34.4883 21.1858 33.3143 18.5637 31.4163 16.6657C29.5183 14.7677 26.8962 13.5938 24 13.5938C21.1038 13.5938 18.4817 14.7677 16.5837 16.6657C14.6857 18.5637 13.5117 21.1858 13.5117 24.082C13.5117 26.9783 14.6857 29.6003 16.5837 31.4983C18.4817 33.3964 21.1038 34.5703 24 34.5703Z" stroke="#4E5969" stroke-width="1.5" stroke-linejoin="round"/>
<path d="M24 26.9247V23.9907C25.8445 23.9907 27.3398 22.4954 27.3398 20.6509C27.3398 18.8063 25.8445 17.311 24 17.311C22.1555 17.311 20.6602 18.8063 20.6602 20.6509" stroke="#4E5969" stroke-width="1.5" stroke-linecap="round" stroke-linejoin="round"/>
<path fill-rule="evenodd" clip-rule="evenodd" d="M23.9995 30.853C24.5612 30.853 25.0166 30.3976 25.0166 29.8359C25.0166 29.2742 24.5612 28.8188 23.9995 28.8188C23.4378 28.8188 22.9824 29.2742 22.9824 29.8359C22.9824 30.3976 23.4378 30.853 23.9995 30.853Z" fill="#4E5969"/>
</g>
</g>
<defs>
<clipPath id="clip0_4064_79408">
<rect width="24" height="24" fill="white" transform="translate(12 12.082)"/>
</clipPath>
<clipPath id="clip1_4064_79408">
<rect width="24" height="24" fill="white" transform="translate(12 12.082)"/>
</clipPath>
</defs>
</svg>
