<svg width="30" height="30" viewBox="0 0 30 30" fill="none" xmlns="http://www.w3.org/2000/svg">
<g id="&#229;&#145;&#152;&#229;&#183;&#165;&#233;&#128;&#154;&#231;&#148;&#168;&#229;&#164;&#180;&#229;&#131;&#143;">
<g id="Union">
<path d="M15 7C11.6882 7 8.99434 9.6287 8.99434 12.8603C8.99434 16.0921 11.6882 18.7205 15 18.7205C18.3117 18.7205 21.0056 16.0921 21.0056 12.8603C21.0056 9.6287 18.3117 7 15 7Z" fill="#467CF3"/>
<path fill-rule="evenodd" clip-rule="evenodd" d="M30 15C30 23.2843 23.2843 30 15 30C6.71573 30 0 23.2843 0 15C0 6.71573 6.71573 0 15 0C23.2843 0 30 6.71573 30 15ZM15.2055 27.9984C15.1371 27.9995 15.0686 28 15 28C14.9159 28 14.8319 27.9992 14.7482 27.9976C14.7581 27.9978 14.768 27.998 14.7779 27.9981L15.2055 27.9984ZM5.271 23.6227C6.15225 21.9323 7.64487 20.1336 10.1848 18.8589C11.5138 19.8769 13.1833 20.4898 15 20.4898C16.8266 20.4898 18.5052 19.8706 19.8377 18.8423C22.3926 20.1136 23.881 21.9051 24.7537 23.5947C26.7742 21.3036 28 18.2949 28 15C28 7.8203 22.1797 2 15 2C7.8203 2 2 7.8203 2 15C2 18.3083 3.23582 21.328 5.271 23.6227Z" fill="#467CF3"/>
</g>
</g>
</svg>
