<svg width="16" height="16" viewBox="0 0 16 16" fill="none" xmlns="http://www.w3.org/2000/svg">
<g clip-path="url(#clip0_1070_25301)">
<path d="M7.9942 0.0297852C3.5871 0.0297852 0.0145264 3.60236 0.0145264 8.00946C0.0145264 12.4166 3.5871 15.9891 7.9942 15.9891C12.4013 15.9891 15.9739 12.4166 15.9739 8.00946C15.9739 3.60236 12.4013 0.0297852 7.9942 0.0297852ZM7.9942 1.11793C11.8005 1.11793 14.8857 4.20346 14.8857 8.00946C14.8857 9.37425 14.489 10.6464 13.8046 11.7168C12.6574 10.5042 11.1336 9.65113 9.42025 9.34449C10.5141 8.81707 11.2703 7.7013 11.2703 6.40596C11.2703 4.60302 9.80882 3.14155 8.00589 3.14155C6.20295 3.14155 4.74148 4.60302 4.74148 6.40594C4.74148 7.70129 5.49771 8.81705 6.59153 9.34447C4.87132 9.65235 3.34215 10.5111 2.19342 11.7315C1.50315 10.658 1.10267 9.38049 1.10267 8.00946C1.10267 4.20346 4.18854 1.11793 7.9942 1.11793Z" fill="#467CF3"/>
</g>
<defs>
<clipPath id="clip0_1070_25301">
<rect width="16" height="16" fill="white"/>
</clipPath>
</defs>
</svg>
