<svg width="14" height="14" viewBox="0 0 14 14" fill="none" xmlns="http://www.w3.org/2000/svg">
<path fill-rule="evenodd" clip-rule="evenodd" d="M10.4641 11.2722C9.51849 12.0399 8.31297 12.5 7 12.5C3.96243 12.5 1.5 10.0376 1.5 7C1.5 5.74429 1.92082 4.58686 2.62912 3.66105L10.4641 11.2722ZM11.4899 10.1774L3.69391 2.60418C4.61417 1.91095 5.7591 1.5 7 1.5C10.0376 1.5 12.5 3.96243 12.5 7C12.5 8.1837 12.1261 9.28006 11.4899 10.1774ZM14 7C14 10.866 10.866 14 7 14C3.13401 14 0 10.866 0 7C0 3.13401 3.13401 0 7 0C10.866 0 14 3.13401 14 7Z" fill="#B9B9B9"/>
</svg>
