<svg width="50" height="51" viewBox="0 0 50 51" fill="none" xmlns="http://www.w3.org/2000/svg">
<path d="M14.3311 23.1514H37.4512C39.6094 23.1514 40.4493 28.3272 40.4591 34.0889C40.4688 39.8506 38.296 45.0264 36.5723 45.0264H31.294C31.0938 45.0264 30.9571 44.8262 31.0303 44.6406C31.2794 44.0059 31.6993 42.707 31.5137 41.5645C31.255 39.9824 30.7081 38.6934 30.7081 38.6934C30.7081 38.6934 31.1134 39.8604 29.4483 42.0479C27.9249 44.0498 26.5723 44.7676 26.1231 44.9629C26.0303 45.002 25.9327 45.0264 25.8301 45.0264H8.99421C7.80769 45.0264 6.84577 44.04 6.8946 42.8389C6.90925 42.4775 7.02156 42.1211 7.21199 41.8135L9.58992 37.8486C11.3233 34.9629 12.2364 31.6572 12.2364 28.293V25.2559C12.2315 24.0938 13.1739 23.1514 14.3311 23.1514ZM24.7657 15.4316V8.07324C24.7657 6.91113 25.7081 5.96875 26.8702 5.96875C28.0323 5.96875 28.9747 6.91113 28.9747 8.07324V15.4316H36.8262C37.9884 15.4316 38.9307 16.374 38.9307 17.5361V19.6406C38.9307 20.8027 37.9884 21.7451 36.8262 21.7451H15.796C14.6339 21.7451 13.6915 20.8027 13.6915 19.6406V17.5361C13.6915 16.374 14.6339 15.4316 15.796 15.4316H24.7657Z" fill="#467CF3"/>
</svg>
