<svg width="16" height="16" viewBox="0 0 16 16" fill="none" xmlns="http://www.w3.org/2000/svg">
<path d="M8.00001 6.46362L14.1455 0.318181C14.5697 -0.10606 15.2576 -0.10606 15.6818 0.318181C16.1061 0.742448 16.1061 1.43028 15.6818 1.85455L9.53636 7.99999L15.6818 14.1454C16.1061 14.5697 16.1061 15.2575 15.6818 15.6818C15.2576 16.106 14.5697 16.106 14.1455 15.6818L8.00001 9.53633L1.85457 15.6818C1.43031 16.1061 0.742474 16.1061 0.318207 15.6818C-0.106035 15.2576 -0.106035 14.5697 0.318207 14.1455L6.46367 7.99999L0.318181 1.85455C-0.10606 1.43028 -0.10606 0.742448 0.318181 0.318181C0.742448 -0.10606 1.43028 -0.10606 1.85455 0.318181L8.00001 6.46362Z" fill="#646A73"/>
</svg>
