<svg width="16" height="16" viewBox="0 0 16 16" fill="none" xmlns="http://www.w3.org/2000/svg">
<g id="status/error">
<path id="&#229;&#189;&#162;&#231;&#138;&#182;" fill-rule="evenodd" clip-rule="evenodd" d="M8 1C4.136 1 1 4.136 1 8C1 11.864 4.136 15 8 15C11.864 15 15 11.864 15 8C15 4.136 11.864 1 8 1ZM10.765 10.345C10.905 10.485 10.905 10.702 10.765 10.842C10.625 10.982 10.408 10.982 10.268 10.842L7.972 8.546L5.683 10.835C5.543 10.975 5.326 10.975 5.186 10.835C5.046 10.695 5.046 10.478 5.186 10.338L7.475 8.049L5.165 5.725C5.025 5.585 5.025 5.368 5.165 5.228C5.305 5.088 5.522 5.088 5.662 5.228L7.979 7.545L10.303 5.221C10.443 5.081 10.66 5.081 10.8 5.221C10.94 5.361 10.94 5.578 10.8 5.718L8.476 8.042L10.765 10.345Z" fill="#86909C"/>
</g>
</svg>
