<svg width="433" height="366" viewBox="0 0 433 366" fill="none" xmlns="http://www.w3.org/2000/svg">
<path opacity="0.23" d="M50.3353 56.9902C53.8591 19.326 94.7178 16.5582 112.8 20.1552C138.588 25.2884 190.86 33.2383 255.056 29.8486C347.186 24.9836 460.813 47.1139 426.002 158.229C391.215 269.356 292.939 243.629 326.726 313.933C359.721 382.592 98.8634 372.131 76.1235 341.673C74.6603 339.71 72.7582 338.1 70.7342 336.649C30.8021 308.166 -62.8646 240.739 64.6133 149.572C82.9272 137.964 47.8235 83.8271 50.3353 56.9902Z" fill="#DADADA"/>
<path d="M396.629 332.577C305.291 332.577 106.886 332.577 56.4805 332.577" stroke="#28282D" stroke-width="1.12" stroke-miterlimit="10"/>
<path d="M313.826 247.945L307.535 305.789C307.535 307.471 306.133 308.849 304.426 308.849H80.2815C78.294 308.849 76.6846 307.264 76.6846 305.313L94.2913 166.679C94.2913 157.973 101.546 150.852 110.398 150.852H153.927C155.903 150.852 157.817 151.535 159.329 152.791L173.826 165.484H193.457H202.065H304.962C313.826 165.484 321.069 172.604 321.069 181.31L316.423 224.059" stroke="#467CF3" stroke-width="1.12" stroke-miterlimit="10"/>
<path d="M22.6084 251.652C22.6084 251.652 23.9496 318.616 78.4524 306.508C78.4524 306.508 75.2822 251.322 22.6084 251.652Z" fill="#FF9052"/>
<path d="M50.7001 233.289C50.7001 233.289 38.2267 238.52 63.3565 267.052C63.3565 267.052 77.6101 266.674 50.7001 233.289Z" fill="#467CF3"/>
<path d="M64.503 306.593C64.503 306.593 37.6662 306.24 25.9854 242.312C25.9732 242.312 103.021 274.831 64.503 306.593Z" stroke="#28282D" stroke-width="1.12" stroke-miterlimit="10"/>
<path d="M292.904 280.451H177.51C169.462 280.451 162.878 273.867 162.878 265.82V101.141C162.878 93.0937 169.462 86.5095 177.51 86.5095H292.904C300.951 86.5095 307.536 93.0937 307.536 101.141V265.82C307.536 273.867 300.951 280.451 292.904 280.451Z" fill="white"/>
<g opacity="0.45">
<path d="M218.135 115.041L221.183 115.09" stroke="#0A0B1F" stroke-width="1.12" stroke-miterlimit="10"/>
<path d="M227.097 115.2L283.282 116.126" stroke="#0A0B1F" stroke-width="1.12" stroke-miterlimit="10" stroke-dasharray="3.88 3.88"/>
<path d="M286.232 116.175L289.281 116.236" stroke="#0A0B1F" stroke-width="1.12" stroke-miterlimit="10"/>
</g>
<g opacity="0.45">
<path d="M217.868 131.294L220.916 131.343" stroke="#0A0B1F" stroke-width="1.12" stroke-miterlimit="10"/>
<path d="M226.428 131.429L256.788 131.941" stroke="#0A0B1F" stroke-width="1.12" stroke-miterlimit="10" stroke-dasharray="3.62 3.62"/>
<path d="M259.544 131.989L262.592 132.038" stroke="#0A0B1F" stroke-width="1.12" stroke-miterlimit="10"/>
</g>
<path opacity="0.37" d="M204.271 137.135L191.274 136.915C189.579 136.891 188.213 135.477 188.238 133.782L188.457 120.784C188.481 119.089 189.896 117.724 191.591 117.748L204.588 117.967C206.283 117.992 207.649 119.406 207.624 121.101L207.405 134.099C207.381 135.794 205.966 137.159 204.271 137.135Z" fill="#467CF3" fill-opacity="0.41"/>
<path d="M199.188 132.258L183.324 131.989C181.63 131.965 180.264 130.551 180.288 128.856L180.557 112.993C180.581 111.298 181.995 109.932 183.69 109.957L199.553 110.225C201.248 110.249 202.614 111.664 202.589 113.358L202.321 129.222C202.297 130.916 200.882 132.282 199.188 132.258Z" fill="#467CF3"/>
<path d="M325.508 232.631C325.508 232.631 355.039 233.765 367.988 219.413C367.988 219.413 358.149 280.403 350.955 303.143C350.955 303.143 348.723 310.532 343.115 331.089H325.215C325.215 331.089 324.191 306.898 324.216 289.072C323.289 274.16 325.508 232.631 325.508 232.631Z" fill="#161413" stroke="#28282D" stroke-width="0.8" stroke-miterlimit="10"/>
<path d="M299.182 111.627C299.182 111.627 301.181 147.401 317.788 137.732L318.727 156.997C318.727 156.997 325.64 160.802 329.213 152.693C332.786 144.573 331.103 138.878 331.103 138.878L336.346 123.393L324.043 107.628L299.182 111.627Z" fill="white" stroke="#25262E" stroke-width="0.8" stroke-miterlimit="10"/>
<path d="M309.377 133.087C309.377 133.087 312.876 133.587 313.73 130.502" stroke="#25262E" stroke-width="0.8" stroke-miterlimit="10"/>
<path d="M311.981 123.013C312.5 122.929 312.837 122.349 312.735 121.718C312.633 121.086 312.13 120.642 311.612 120.726C311.093 120.81 310.756 121.389 310.858 122.021C310.96 122.652 311.463 123.097 311.981 123.013Z" fill="#0A0B1F"/>
<path d="M302.617 125.611C303.136 125.527 303.473 124.947 303.371 124.316C303.269 123.684 302.766 123.24 302.247 123.324C301.729 123.408 301.391 123.987 301.493 124.619C301.595 125.251 302.098 125.695 302.617 125.611Z" fill="#0A0B1F"/>
<path d="M364.939 229.997L375.193 225.558C376.169 235.581 366.426 145.487 346.844 140.183C346.844 140.183 342.577 137.464 330.603 139.451C330.603 139.451 332.457 153.559 323.178 154.022C323.178 154.022 318.63 154.083 318.093 144.256C318.069 143.878 317.703 143.597 317.35 143.719C313.984 144.792 305.925 141.28 294.122 173.299C291.342 180.859 260.225 187.772 260.225 187.772L259.628 205.611C259.628 205.611 308.68 207.891 310.192 183.395" fill="#FF9052"/>
<path d="M364.939 229.997L375.193 225.558C376.169 235.581 366.426 145.487 346.844 140.183C346.844 140.183 342.577 137.464 330.603 139.451C330.603 139.451 332.457 153.559 323.178 154.022C323.178 154.022 318.63 154.083 318.093 144.256C318.069 143.878 317.703 143.597 317.35 143.719C313.984 144.792 305.925 141.28 294.122 173.299C291.342 180.859 260.225 187.772 260.225 187.772L259.628 205.611C259.628 205.611 308.68 207.891 310.192 183.395" stroke="#28282D" stroke-width="0.8" stroke-miterlimit="10"/>
<path d="M364.939 229.997C364.244 230.338 344.357 234.813 342.687 234.813C341.028 234.825 337.029 234.716 331.274 233.752C323.251 232.411 312.265 230.204 312.265 230.204C315.606 224.461 313.741 212.975 313.741 212.975C314.813 201.66 310.168 183.395 310.168 183.395" fill="#FF9052"/>
<path d="M364.939 229.997C364.244 230.338 344.357 234.813 342.687 234.813C341.028 234.825 337.029 234.716 331.274 233.752C323.251 232.411 312.265 230.204 312.265 230.204C315.606 224.461 313.741 212.975 313.741 212.975C314.813 201.66 310.168 183.395 310.168 183.395" stroke="#28282D" stroke-width="0.8" stroke-miterlimit="10"/>
<path d="M353.49 144.89C353.49 144.89 388.009 181.383 316.265 236.106L302.475 218.584C302.475 218.584 344.516 188.224 342.736 167.556" fill="#FF9052"/>
<path d="M353.49 144.89C353.49 144.89 388.009 181.383 316.265 236.106L302.475 218.584C302.475 218.584 344.516 188.224 342.736 167.556" stroke="#28282D" stroke-width="0.8" stroke-miterlimit="10"/>
<path d="M366.988 181.518C371.146 185.029 378.998 181.847 381.839 174.214C383.363 170.117 378.669 167.557 381.461 163.618C383.571 160.631 386.546 160.631 385.083 158.314C383.302 155.498 376.109 148.56 377.23 141.732C378.34 134.892 370.195 128.393 364.111 126.405C358.026 124.418 343.712 120.967 341.005 115.188C338.298 109.408 323.227 92.3257 315.07 98.5198C315.07 98.5198 298.841 93.1549 296.415 116.614L302.902 115.566L306.157 110.164L306.925 114.919L315.009 114.834C315.009 114.834 322.24 110.115 321.691 117.748C321.691 117.748 326.971 114.2 326.581 120.028C326.19 125.856 324.093 125.905 324.093 125.905L328.653 132.136L331.019 138.549C331.019 138.549 330.409 146.231 334.957 152.145C339.505 158.07 345.102 154.01 348.187 160.253C351.271 166.496 359.221 175.982 363.684 173.641C368.146 171.3 363.842 178.847 366.988 181.518Z" fill="#0A0B1F"/>
<path d="M336.566 234.862C336.566 234.862 368.39 234.557 374.913 222.949C374.913 222.949 380.705 244.714 379.9 264.393C378.998 286.146 381.522 331.406 381.522 331.406H364.964L336.566 234.862Z" fill="#161413" stroke="#28282D" stroke-width="0.8" stroke-miterlimit="10"/>
<path d="M304.424 310.19H80.7559H68.0996C66.1121 310.19 64.5027 308.654 64.5027 306.764L62.6127 282.463L53.6631 167.154C53.6631 158.717 60.9179 151.803 69.77 151.803H113.299C115.274 151.803 117.189 152.474 118.701 153.681L137.258 172.446H277.868C286.732 172.446 293.975 179.347 293.975 187.797L307.509 307.24C307.534 308.861 306.131 310.19 304.424 310.19Z" fill="white"/>
<path d="M85.0742 310.19H68.1016C66.1141 310.19 64.5046 308.581 64.5046 306.593L63.261 289.718L62.127 274.306L61.5783 266.844L53.6895 160.046C53.6895 151.181 60.9443 143.939 69.7964 143.939H113.325C115.301 143.939 117.215 144.634 118.727 145.914L137.285 165.606H277.894C286.759 165.606 294.001 172.86 294.001 181.713L307.536 307.093C307.536 308.8 306.133 310.202 304.426 310.202H116.154" stroke="#467CF3" stroke-width="1.12" stroke-miterlimit="10"/>
<path opacity="0.37" d="M146.173 263.247H142.32C138.54 263.247 135.455 260.943 135.455 258.138L132.443 247.421C132.443 244.604 135.528 242.312 139.308 242.312H143.161C146.941 242.312 150.026 244.616 150.026 247.421L153.037 258.138C153.037 260.943 149.953 263.247 146.173 263.247Z" fill="#467CF3" fill-opacity="0.41"/>
<path d="M136.406 256.663H132.553C128.773 256.663 125.688 254.358 125.688 251.554L122.677 240.836C122.677 238.02 125.762 235.728 129.541 235.728H133.394C137.174 235.728 140.259 238.032 140.259 240.836L143.271 251.554C143.271 254.371 140.174 256.663 136.406 256.663Z" stroke="#4E4F57" stroke-width="0.8" stroke-miterlimit="10"/>
<path opacity="0.37" d="M189.764 263.247H185.911C182.131 263.247 179.046 260.943 179.046 258.138L176.034 247.421C176.034 244.604 179.119 242.312 182.899 242.312H186.752C190.532 242.312 193.616 244.616 193.616 247.421L196.628 258.138C196.628 260.943 193.543 263.247 189.764 263.247Z" fill="#467CF3" fill-opacity="0.41"/>
<path d="M179.997 256.663H176.144C172.364 256.663 169.279 254.358 169.279 251.554L166.268 240.836C166.268 238.02 169.352 235.728 173.132 235.728H176.985C180.765 235.728 183.85 238.032 183.85 240.836L186.862 251.554C186.862 254.371 183.777 256.663 179.997 256.663Z" stroke="#4E4F57" stroke-width="0.8" stroke-miterlimit="10"/>
<path opacity="0.37" d="M233.364 263.247H229.511C225.731 263.247 222.646 260.943 222.646 258.138L219.635 247.421C219.635 244.604 222.72 242.312 226.499 242.312H230.352C234.132 242.312 237.217 244.616 237.217 247.421L240.229 258.138C240.229 260.943 237.132 263.247 233.364 263.247Z" fill="#467CF3" fill-opacity="0.41"/>
<path d="M223.586 256.663H219.733C215.953 256.663 212.868 254.358 212.868 251.554L209.856 240.836C209.856 238.02 212.941 235.728 216.721 235.728H220.574C224.354 235.728 227.439 238.032 227.439 240.836L230.45 251.554C230.45 254.371 227.366 256.663 223.586 256.663Z" stroke="#4E4F57" stroke-width="0.8" stroke-miterlimit="10"/>
<path d="M294.853 194.844H56.2358C56.2358 194.844 55.2847 181.298 55.2847 179.311L53.6631 160.033C53.6631 151.169 60.9179 143.926 69.77 143.926H113.299C115.274 143.926 117.189 144.621 118.701 145.902L137.258 165.593H277.868C286.732 165.593 293.975 172.848 293.975 181.7L294.853 194.844Z" fill="#467CF3"/>
<path d="M262.945 74.4141H75.0144C66.967 74.4141 60.3828 67.8298 60.3828 59.7825V20.0576C60.3828 12.0103 66.967 5.42603 75.0144 5.42603H262.945C270.993 5.42603 277.577 12.0103 277.577 20.0576V59.7703C277.577 67.8298 270.993 74.4141 262.945 74.4141Z" fill="white"/>
<path d="M313.338 233.764C312.009 228.436 308.485 225.181 305.827 222.815C305.145 222.206 304.937 222.303 304.645 221.437C304.206 220.157 300.28 222.62 297.402 220.706C292.049 217.133 289.123 219.316 290.915 222.949C292.305 225.778 298.073 225.595 298.902 226.607C299.731 227.619 298.402 228.558 298.402 228.558C285.794 236.093 270.797 238.886 274.577 244.068C278.186 249.006 299.463 234.935 299.463 234.935C293.744 238.337 292.135 238.983 290.842 239.69C290.001 240.154 278.137 245.141 281.673 249.713C283.6 252.2 301.072 239.946 300.048 240.8C298.975 241.69 300.048 240.8 296.695 243.043C295.951 243.543 286.026 248.445 287.233 250.493C287.233 250.493 287.904 255.505 301.962 244.543C301.962 244.543 291.537 249.835 294.5 250.749C297.292 251.603 306.51 245.226 306.51 245.226C306.51 245.226 314.826 239.739 313.338 233.764Z" fill="white" stroke="#28282D" stroke-width="1.12" stroke-miterlimit="10"/>
<path d="M262.335 69.9758H74.3923C66.345 69.9758 59.7607 63.3916 59.7607 55.3442V15.6316C59.7607 7.58422 66.345 1 74.3923 1H262.335C270.383 1 276.967 7.58422 276.967 15.6316V29.239L285.502 35.494L276.967 39.5787V55.3564C276.967 63.3916 270.383 69.9758 262.335 69.9758Z" stroke="#467CF3" stroke-width="1.12" stroke-miterlimit="10"/>
<path opacity="0.45" d="M172.741 22.2645H196.969" stroke="#0A0B1F" stroke-width="1.12" stroke-miterlimit="10"/>
<path opacity="0.45" d="M205.113 22.2645H243.997" stroke="#0A0B1F" stroke-width="1.12" stroke-miterlimit="10"/>
<path opacity="0.45" d="M172.741 44.9313H243.997" stroke="#0A0B1F" stroke-width="1.12" stroke-miterlimit="10"/>
<path d="M87.9873 41.944L107.118 22.4596L127.31 44.5899L149.672 22.2645" stroke="#467CF3" stroke-width="1.12" stroke-miterlimit="10"/>
<path opacity="0.57" d="M87.9873 51.8936C91.0512 51.8936 93.5351 49.4098 93.5351 46.3458C93.5351 43.2818 91.0512 40.798 87.9873 40.798C84.9233 40.798 82.4395 43.2818 82.4395 46.3458C82.4395 49.4098 84.9233 51.8936 87.9873 51.8936Z" stroke="#FFAA00" stroke-width="1.12" stroke-miterlimit="10"/>
<path d="M85.6347 50.1378C88.6987 50.1378 91.1825 47.6539 91.1825 44.5899C91.1825 41.526 88.6987 39.0421 85.6347 39.0421C82.5708 39.0421 80.0869 41.526 80.0869 44.5899C80.0869 47.6539 82.5708 50.1378 85.6347 50.1378Z" fill="#FFAA00"/>
<path opacity="0.57" d="M108.667 28.6902C111.731 28.6902 114.215 26.2064 114.215 23.1424C114.215 20.0785 111.731 17.5946 108.667 17.5946C105.603 17.5946 103.119 20.0785 103.119 23.1424C103.119 26.2064 105.603 28.6902 108.667 28.6902Z" stroke="#FFAA00" stroke-width="1.12" stroke-miterlimit="10"/>
<path d="M106.326 26.9345C109.39 26.9345 111.874 24.4507 111.874 21.3867C111.874 18.3227 109.39 15.8389 106.326 15.8389C103.262 15.8389 100.778 18.3227 100.778 21.3867C100.778 24.4507 103.262 26.9345 106.326 26.9345Z" fill="#FFAA00"/>
<path opacity="0.57" d="M128.469 51.0156C131.533 51.0156 134.017 48.5317 134.017 45.4677C134.017 42.4038 131.533 39.9199 128.469 39.9199C125.405 39.9199 122.921 42.4038 122.921 45.4677C122.921 48.5317 125.405 51.0156 128.469 51.0156Z" stroke="#FFAA00" stroke-width="1.12" stroke-miterlimit="10"/>
<path d="M126.115 49.2598C129.179 49.2598 131.663 46.776 131.663 43.712C131.663 40.648 129.179 38.1642 126.115 38.1642C123.051 38.1642 120.567 40.648 120.567 43.712C120.567 46.776 123.051 49.2598 126.115 49.2598Z" fill="#FFAA00"/>
<path opacity="0.57" d="M151.636 30.5679C154.7 30.5679 157.184 28.0841 157.184 25.0201C157.184 21.9561 154.7 19.4723 151.636 19.4723C148.572 19.4723 146.088 21.9561 146.088 25.0201C146.088 28.0841 148.572 30.5679 151.636 30.5679Z" stroke="#FFAA00" stroke-width="1.12" stroke-miterlimit="10"/>
<path d="M149.282 28.8122C152.346 28.8122 154.83 26.3284 154.83 23.2644C154.83 20.2004 152.346 17.7166 149.282 17.7166C146.218 17.7166 143.734 20.2004 143.734 23.2644C143.734 26.3284 146.218 28.8122 149.282 28.8122Z" fill="#FFAA00"/>
<path opacity="0.37" d="M110.837 308.434L103.522 303.691L79.4526 262.467C79.2819 262.162 79.5867 261.711 80.1476 261.443L84.7443 259.211C85.3418 258.919 86.0002 258.943 86.1831 259.26L110.545 300.411L110.837 308.434Z" fill="#467CF3" fill-opacity="0.41"/>
<path d="M116.226 311.141L108.91 306.398L84.8413 265.174C84.6706 264.869 84.9754 264.418 85.5363 264.149L90.133 261.918C90.7305 261.625 91.3889 261.65 91.5718 261.967L115.933 303.118L116.226 311.141Z" fill="#467CF3"/>
<path d="M108.667 306.228C108.704 306.276 111.752 305.789 112.252 304.155C112.252 304.155 112.313 304.021 112.422 304.082C112.532 304.143 115.251 304.789 115.922 303.094L116.227 311.129L108.667 306.228Z" fill="#CDD8FF"/>
<path d="M266.432 297.253C266.432 297.253 228.146 293.522 231.743 329.76C231.743 329.772 264.994 338.149 266.432 297.253Z" fill="#FF9052"/>
<path d="M196.701 310.971C196.701 310.971 207.797 296.741 230.72 327.102C230.72 327.102 224.513 343.623 196.701 310.971Z" fill="#467CF3"/>
<path d="M232.219 329.26C232.219 329.26 237.498 317.628 246.424 311.141" stroke="#28282D" stroke-width="1.12" stroke-miterlimit="10"/>
<path d="M229.926 329.894C229.926 329.894 230.45 286.146 266.432 297.144C266.432 297.144 253.702 335.015 232.889 331.906H229.926V329.894Z" stroke="#28282D" stroke-width="1.12" stroke-miterlimit="10"/>
<path d="M231.646 331.601C231.646 331.601 225.245 298.448 201.651 308.922C201.651 308.922 217.197 335.1 231.646 331.601Z" stroke="#28282D" stroke-width="1.12" stroke-miterlimit="10"/>
</svg>
