<svg width="187" height="63" viewBox="0 0 187 63" fill="none" xmlns="http://www.w3.org/2000/svg">
<g filter="url(#filter0_d_2193_103771)">
<rect x="10.207" y="14.3945" width="166" height="38" rx="4" fill="#467CF3" shape-rendering="crispEdges"/>
<path d="M27.197 29.0005L26.693 29.7425H34.757V34.3625H29.227C29.0217 34.6612 28.835 34.9132 28.667 35.1185H34.813V36.0565C34.1784 36.8499 33.3664 37.5172 32.377 38.0585C33.5904 38.3479 34.9484 38.5205 36.451 38.5765L36.143 39.7945C34.1457 39.6919 32.3537 39.3559 30.767 38.7865C29.115 39.3745 27.127 39.7385 24.803 39.8785L24.271 38.7305C26.1657 38.6559 27.799 38.4459 29.171 38.1005C28.3404 37.6619 27.603 37.1812 26.959 36.6585C26.3897 37.0412 25.7784 37.3865 25.125 37.6945L24.439 36.5605C25.9137 35.9725 27.015 35.2399 27.743 34.3625H26.105V30.4425C25.713 30.8625 25.2557 31.2732 24.733 31.6745L23.935 30.6245C25.335 29.5792 26.287 28.2959 26.791 26.7745L28.093 27.0125C27.981 27.3485 27.8784 27.6332 27.785 27.8665H35.793V29.0005H27.197ZM30.781 37.5825C31.733 37.1999 32.5217 36.7332 33.147 36.1825H28.051C28.891 36.7612 29.801 37.2279 30.781 37.5825ZM33.469 33.3265V32.5285H27.407V33.3265H33.469ZM27.407 31.5485H33.469V30.7645H27.407V31.5485ZM39.517 29.8265C39.293 30.3305 39.0224 30.7599 38.705 31.1145L37.627 30.3445C38.299 29.6165 38.7237 28.6132 38.901 27.3345L40.147 27.5305C40.063 27.9972 39.9884 28.3565 39.923 28.6085H41.197V26.9565H42.513V28.6085H45.019V29.8265H42.513V31.3245H45.425V32.5705H42.513V33.7465H45.215V37.4845C45.215 38.4085 44.739 38.8705 43.787 38.8705H43.101L42.765 37.6245L43.381 37.6805C43.7637 37.6805 43.955 37.5219 43.955 37.2045V34.9785H42.513V39.8365H41.197V34.9785H39.755V38.9685H38.467V33.7465H41.197V32.5705H37.921V31.3245H41.197V29.8265H39.517ZM46.083 28.2165H47.371V36.7845H46.083V28.2165ZM46.699 39.7105L46.405 38.4365C47.077 38.4925 47.7164 38.5205 48.323 38.5205C48.687 38.5205 48.869 38.3292 48.869 37.9465V26.9565H50.185V38.2825C50.185 39.2345 49.7184 39.7105 48.785 39.7105H46.699ZM61.777 26.8165C62.4304 27.3205 62.9764 27.8152 63.415 28.3005L62.771 28.9445H64.451V30.2185H60.279C60.3817 31.8799 60.5497 33.1632 60.783 34.0685C60.8297 34.2645 60.895 34.4979 60.979 34.7685C61.567 33.7232 62.057 32.5425 62.449 31.2265L63.667 31.7445C63.0977 33.5739 62.3884 35.1045 61.539 36.3365C61.6884 36.6539 61.8424 36.9385 62.001 37.1905C62.4304 37.8159 62.757 38.1285 62.981 38.1285C63.1677 38.1285 63.3497 37.4425 63.527 36.0705L64.731 36.7145C64.3764 38.6559 63.863 39.6265 63.191 39.6265C62.575 39.6265 61.931 39.2112 61.259 38.3805C61.0537 38.1192 60.853 37.8112 60.657 37.4565C59.7237 38.5019 58.6364 39.2999 57.395 39.8505L56.639 38.7305C57.9924 38.1239 59.1264 37.2512 60.041 36.1125C59.8637 35.6459 59.691 35.0999 59.523 34.4745C59.2244 33.3639 59.0237 31.9452 58.921 30.2185H54.413V32.2625H57.843C57.815 34.7919 57.689 36.3925 57.465 37.0645C57.241 37.6432 56.765 37.9419 56.037 37.9605C55.7477 37.9605 55.3604 37.9372 54.875 37.8905L54.469 36.6865C55.2157 36.7239 55.687 36.7425 55.883 36.7425C56.1257 36.7332 56.289 36.5745 56.373 36.2665C56.4477 35.9492 56.499 35.0345 56.527 33.5225H54.413V33.6065C54.357 36.1732 53.7924 38.2499 52.719 39.8365L51.711 38.9405C52.5884 37.6619 53.0457 35.8839 53.083 33.6065V28.9445H58.851C58.8324 28.5059 58.823 27.8199 58.823 26.8865H60.167C60.167 27.3999 60.1857 28.0859 60.223 28.9445H62.379C61.9684 28.4872 61.4877 28.0485 60.937 27.6285L61.777 26.8165ZM67.797 29.4625H65.893V28.1605H71.031V29.4625H69.127V35.7485C69.911 35.4965 70.6017 35.2492 71.199 35.0065V36.3365C69.575 36.9619 67.867 37.4892 66.075 37.9185L65.739 36.5745C66.5044 36.4345 67.1904 36.2899 67.797 36.1405V29.4625ZM73.411 26.9565H74.755V29.4625H78.269C78.269 34.1479 78.199 37.0459 78.059 38.1565C77.8724 39.2019 77.065 39.7245 75.637 39.7245C75.4504 39.7245 75.007 39.7012 74.307 39.6545L73.985 38.4085C74.6104 38.4552 75.0864 38.4785 75.413 38.4785C76.2157 38.4785 76.6824 38.1612 76.813 37.5265C76.8877 36.9385 76.939 34.6799 76.967 30.7505H74.755V31.0025C74.699 35.0625 73.607 38.0445 71.479 39.9485L70.387 38.9825C72.375 37.3305 73.383 34.6705 73.411 31.0025V30.7505H71.423V29.4625H73.411V26.9565ZM81.811 36.4065C82.6324 36.4065 83.043 36.9479 83.043 38.0305C83.043 39.3652 82.427 40.3639 81.195 41.0265L80.733 40.2845C81.545 39.7805 81.9884 39.1412 82.063 38.3665C81.9697 38.3852 81.8857 38.3945 81.811 38.3945C81.531 38.3945 81.2884 38.3012 81.083 38.1145C80.887 37.9185 80.789 37.6852 80.789 37.4145C80.789 37.0972 80.8824 36.8499 81.069 36.6725C81.2557 36.4952 81.503 36.4065 81.811 36.4065ZM98.191 33.3265H101.257V30.8625H102.615V33.3265H105.849V34.6145H102.615V38.0585H106.465V39.3605H97.673V38.0585H101.257V34.6145H98.191V33.3265ZM95.797 34.4885C95.4144 34.8712 94.9757 35.2725 94.481 35.6925L93.641 34.6005C95.2557 33.2659 96.5437 31.7352 97.505 30.0085H94.145V28.7065H98.135C98.387 28.1559 98.6204 27.5165 98.835 26.7885L100.207 26.9425C100.011 27.5959 99.8104 28.1839 99.605 28.7065H106.465V30.0085H99.017C98.4664 31.1099 97.8317 32.1085 97.113 33.0045V39.8785H95.797V34.4885ZM112.163 28.8605H115.467C115.308 28.3099 115.117 27.7312 114.893 27.1245L116.251 26.9005C116.456 27.5165 116.648 28.1699 116.825 28.8605H120.255V30.1345H119.107C118.715 31.5999 118.169 32.8692 117.469 33.9425C118.477 34.8105 119.41 35.6972 120.269 36.6025L119.233 37.6385C118.505 36.7705 117.651 35.8885 116.671 34.9925C115.588 36.2152 114.244 37.1065 112.639 37.6665L111.897 36.4625C113.446 35.9679 114.711 35.1885 115.691 34.1245C114.776 33.3312 113.778 32.5285 112.695 31.7165L113.591 30.8485C114.599 31.5859 115.56 32.3325 116.475 33.0885C117.054 32.1925 117.492 31.2079 117.791 30.1345H112.163V28.8605ZM109.111 27.0545C110.054 27.7919 110.842 28.5152 111.477 29.2245L110.525 30.1765C109.956 29.4672 109.176 28.7205 108.187 27.9365L109.111 27.0545ZM117.133 39.5985C116.666 39.5985 115.845 39.5892 114.669 39.5705C113.801 39.5612 113.068 39.4819 112.471 39.3325C111.939 39.1739 111.454 38.8472 111.015 38.3525C110.838 38.1192 110.665 38.0025 110.497 38.0025C110.217 38.0025 109.718 38.6325 108.999 39.8925L108.019 38.9825C108.719 37.8439 109.349 37.1345 109.909 36.8545V32.8925H108.019V31.6605H111.155V36.9665L111.351 37.1625C111.659 37.5359 111.99 37.8159 112.345 38.0025C112.774 38.2079 113.381 38.3245 114.165 38.3525C115.21 38.3712 116.139 38.3805 116.951 38.3805C117.39 38.3805 118.085 38.3712 119.037 38.3525C119.653 38.3432 120.194 38.3199 120.661 38.2825L120.339 39.5985H117.133ZM124.469 31.3665V32.8925H127.535V31.3665H124.469ZM127.535 34.1105H123.167V27.3485H133.219V34.1105H128.879V35.4685H133.821V36.7285H128.879V38.1425H134.409V39.4305H121.991V38.1425H127.535V36.7285H122.593V35.4685H127.535V34.1105ZM128.879 32.8925H131.917V31.3665H128.879V32.8925ZM131.917 30.1345V28.5805H128.879V30.1345H131.917ZM127.535 28.5805H124.469V30.1345H127.535V28.5805ZM137.951 32.1365H141.591V29.3225C140.49 30.6199 138.782 31.6885 136.467 32.5285L135.753 31.3525C137.806 30.7925 139.365 30.1065 140.429 29.2945H136.439V28.0625H141.591V26.8865H142.879V28.0625H148.031V29.2945H144.069C145.124 30.1439 146.645 30.8205 148.633 31.3245L148.059 32.5285C145.66 31.7072 143.934 30.6339 142.879 29.3085V32.1365H146.519V37.4005H137.951V32.1365ZM145.217 36.2245V35.3565H139.239V36.2245H145.217ZM139.239 34.2225H145.217V33.3125H139.239V34.2225ZM136.159 38.2405H148.269V39.4585H136.159V38.2405ZM150.859 29.3785H155.269C155.344 29.2199 155.446 28.9819 155.577 28.6645C154.177 28.7392 152.758 28.7765 151.321 28.7765L150.943 27.6845C154.872 27.6845 158.195 27.4232 160.911 26.9005L161.527 27.9505C160.202 28.2305 158.652 28.4405 156.879 28.5805C156.786 28.8605 156.688 29.1265 156.585 29.3785H161.611V30.5125H156.053C155.717 31.0819 155.582 31.3152 155.647 31.2125H162.423V32.3885H154.863C154.788 32.4725 154.695 32.5892 154.583 32.7385L154.303 33.0885H161.093V39.8505H159.833V39.3185H153.771V39.8505H152.511V34.8945C151.923 35.4079 151.237 35.9352 150.453 36.4765L149.739 35.3425C151.092 34.4372 152.254 33.4525 153.225 32.3885H150.103V31.2125H154.177C154.401 30.8952 154.56 30.6619 154.653 30.5125H150.859V29.3785ZM153.771 35.8605V36.5185H159.833V35.8605H153.771ZM159.833 34.8525V34.1665H153.771V34.8525H159.833ZM153.771 37.5265V38.2405H159.833V37.5265H153.771Z" fill="white"/>
</g>
<g filter="url(#filter1_d_2193_103771)">
<path fill-rule="evenodd" clip-rule="evenodd" d="M48.5104 10.8377C48.9066 10.406 49.5875 10.406 49.9838 10.8377L53.2471 14.3929H45.2471L48.5104 10.8377Z" fill="#467CF3"/>
</g>
<defs>
<filter id="filter0_d_2193_103771" x="0.207031" y="4.39453" width="186" height="58" filterUnits="userSpaceOnUse" color-interpolation-filters="sRGB">
<feFlood flood-opacity="0" result="BackgroundImageFix"/>
<feColorMatrix in="SourceAlpha" type="matrix" values="0 0 0 0 0 0 0 0 0 0 0 0 0 0 0 0 0 0 127 0" result="hardAlpha"/>
<feOffset/>
<feGaussianBlur stdDeviation="5"/>
<feComposite in2="hardAlpha" operator="out"/>
<feColorMatrix type="matrix" values="0 0 0 0 0.27451 0 0 0 0 0.486275 0 0 0 0 0.952941 0 0 0 0.5 0"/>
<feBlend mode="normal" in2="BackgroundImageFix" result="effect1_dropShadow_2193_103771"/>
<feBlend mode="normal" in="SourceGraphic" in2="effect1_dropShadow_2193_103771" result="shape"/>
</filter>
<filter id="filter1_d_2193_103771" x="35.2471" y="0.515625" width="28" height="23.8789" filterUnits="userSpaceOnUse" color-interpolation-filters="sRGB">
<feFlood flood-opacity="0" result="BackgroundImageFix"/>
<feColorMatrix in="SourceAlpha" type="matrix" values="0 0 0 0 0 0 0 0 0 0 0 0 0 0 0 0 0 0 127 0" result="hardAlpha"/>
<feOffset/>
<feGaussianBlur stdDeviation="5"/>
<feColorMatrix type="matrix" values="0 0 0 0 0 0 0 0 0 0 0 0 0 0 0 0 0 0 0.1 0"/>
<feBlend mode="normal" in2="BackgroundImageFix" result="effect1_dropShadow_2193_103771"/>
<feBlend mode="normal" in="SourceGraphic" in2="effect1_dropShadow_2193_103771" result="shape"/>
</filter>
</defs>
</svg>
