<svg width="36" height="37" viewBox="0 0 36 37" fill="none" xmlns="http://www.w3.org/2000/svg">
<rect x="0.000244141" y="0.953125" width="35.1" height="35.1" rx="5.616" fill="#467CF3"/>
<path d="M10.2791 14.6109L16.4576 10.3499C16.768 10.1358 17.1913 10.358 17.1913 10.7351V27.1621C17.1913 27.4206 16.9818 27.6301 16.7233 27.6301H10.5448C10.2863 27.6301 10.0768 27.4206 10.0768 27.1621V14.9962C10.0768 14.8423 10.1524 14.6983 10.2791 14.6109Z" fill="white"/>
<path d="M25.2493 17.193L19.0708 13.7842C18.7589 13.6121 18.3767 13.8377 18.3767 14.194V27.1622C18.3767 27.4207 18.5862 27.6302 18.8447 27.6302H25.0232C25.2817 27.6302 25.4912 27.4207 25.4912 27.1622V17.6028C25.4912 17.4323 25.3985 17.2754 25.2493 17.193Z" fill="white"/>
</svg>
