<svg width="21" height="21" viewBox="0 0 21 21" fill="none" xmlns="http://www.w3.org/2000/svg">
<rect width="21" height="21" rx="10.5" fill="#467CF3"/>
<path fill-rule="evenodd" clip-rule="evenodd" d="M7.19888 6.65187C7.19888 7.48727 7.53076 8.28847 8.1215 8.87919C8.71224 9.46991 9.51345 9.80178 10.3489 9.80178C11.1843 9.80178 11.9855 9.46991 12.5763 8.87919C13.167 8.28847 13.4989 7.48727 13.4989 6.65187C13.4989 5.81646 13.167 5.01526 12.5763 4.42454C11.9855 3.83382 11.1843 3.50195 10.3489 3.50195C9.51345 3.50195 8.71224 3.83382 8.1215 4.42454C7.53076 5.01526 7.19888 5.81646 7.19888 6.65187ZM11.3487 9.88088L10.3489 10.8807L9.34904 9.88088C6.57791 10.3233 4.40881 12.5729 4.08946 15.3831C4.04457 15.7782 4.37124 16.102 4.76888 16.102H12.8756C12.6761 15.6768 12.5646 15.2022 12.5646 14.7016C12.5646 13.2702 13.4758 12.0517 14.7499 11.5946C13.8399 10.706 12.6619 10.0905 11.3487 9.88088ZM10.3489 15.202L9.27029 14.1234L10.3489 10.8849L11.4275 14.1248L10.3489 15.202Z" fill="white"/>
<path fill-rule="evenodd" clip-rule="evenodd" d="M15.4242 16.918C16.8739 16.918 18.0492 15.7427 18.0492 14.293C18.0492 12.8432 16.8739 11.668 15.4242 11.668C13.9744 11.668 12.7992 12.8432 12.7992 14.293C12.7992 15.7427 13.9744 16.918 15.4242 16.918ZM16.5875 15.2015H17.1833V14.7996H16.5875V14.474H17.0344V14.0721H16.5875V13.7464H17.0863V13.3446H16.8716L17.0067 12.863L16.6118 12.8353L16.494 13.3446H16.3139L16.2273 12.8388L15.829 12.8665L15.9433 13.3446H15.7424V13.7464H16.1892V14.0721H15.7805V14.474H16.1892V14.7996H15.6765V15.2015H16.1892V15.8944H16.5875V15.2015ZM15.6731 13.542H15.5276V12.9254H14.2356V13.2961H14.5196C14.5196 13.3284 14.5185 13.3642 14.5162 13.4035C14.5162 13.4427 14.515 13.4889 14.5127 13.542H14.1282V13.9127H14.4919C14.4873 13.9497 14.4827 13.9855 14.4781 14.0201C14.4734 14.0548 14.4677 14.0883 14.4607 14.1206H14.2217V14.4982H14.3568C14.3153 14.6137 14.2645 14.7245 14.2044 14.8308C14.1467 14.9347 14.0786 15.0421 14 15.153L14.2875 15.4371C14.3106 15.4047 14.3326 15.3736 14.3534 15.3435C14.3764 15.3112 14.3972 15.28 14.4157 15.25V15.8112H15.5657V14.6714H14.7275C14.739 14.6437 14.7482 14.616 14.7552 14.5883L14.7829 14.4982H15.5276V13.9127H15.6731V13.542ZM14.9041 13.4069C14.9041 13.3653 14.9053 13.3284 14.9076 13.2961H15.1674V13.542H14.8972C14.9018 13.4935 14.9041 13.4485 14.9041 13.4069ZM14.8764 13.9127H15.1674V14.1206H14.8556L14.8764 13.9127ZM15.1985 15.4405H14.7863V15.0352H15.1985V15.4405Z" fill="white"/>
</svg>
