<svg width="48" height="48" viewBox="0 0 48 48" fill="none" xmlns="http://www.w3.org/2000/svg">
<rect width="48" height="48" rx="6" fill="#F2F3F5"/>
<path d="M28.9019 14.7891H31.5839C32.1823 14.7891 32.6674 15.2742 32.6674 15.8726V33.7518C32.6674 34.3503 32.1823 34.8354 31.5839 34.8354H16.4137C15.8152 34.8354 15.3301 34.3503 15.3301 33.7518V15.8726C15.3301 15.2742 15.8152 14.7891 16.4137 14.7891H19.6644H20.2062V16.4144H27.7913V14.7891H28.9019Z" stroke="#4E5969" stroke-width="1.5" stroke-linejoin="round"/>
<path d="M27.7943 13.165H20.2092V16.4158H27.7943V13.165Z" stroke="#4E5969" stroke-width="1.5" stroke-linecap="round" stroke-linejoin="round"/>
<path d="M19.0527 22.3301L29.0293 22.3301" stroke="#4E5969" stroke-width="1.5" stroke-linecap="round"/>
<path d="M19.0527 27.0566L29.0293 27.0566" stroke="#4E5969" stroke-width="1.5" stroke-linecap="round"/>
<path d="M30.3263 35.3499C33.0878 35.3499 35.3265 33.1113 35.3265 30.3498C35.3265 27.5882 33.0878 25.3496 30.3263 25.3496C27.5648 25.3496 25.3262 27.5882 25.3262 30.3498C25.3262 33.1113 27.5648 35.3499 30.3263 35.3499Z" fill="#F2F3F5" stroke="#4E5969" stroke-linejoin="round"/>
<path d="M30.3284 27.3496L30.3281 30.3519L32.448 32.4718" stroke="#4E5969" stroke-linecap="round" stroke-linejoin="round"/>
</svg>
