<svg width="21" height="21" viewBox="0 0 21 21" fill="none" xmlns="http://www.w3.org/2000/svg">
<path d="M11.6236 3.81442L17.2031 9.39465C18.0746 10.2663 18.0746 11.6797 17.2031 12.5514L12.5482 17.2071C12.341 17.4143 12.095 17.5787 11.8243 17.6909C11.5536 17.803 11.2634 17.8607 10.9703 17.8607C10.6773 17.8607 10.3871 17.803 10.1164 17.6909C9.84564 17.5787 9.59964 17.4143 9.39243 17.2071L3.81099 11.6248C3.3923 11.2062 3.15697 10.6385 3.15674 10.0464V5.39222C3.15674 4.15943 4.15731 3.16276 5.38972 3.16276L10.0461 3.16211C10.339 3.16191 10.6291 3.21942 10.8997 3.33134C11.1704 3.44327 11.4164 3.60742 11.6236 3.81442Z" fill="#467CF3"/>
<path d="M8.40115 6.30469C7.2414 6.30469 6.30127 7.24493 6.30127 8.40482C6.30127 9.56471 7.2414 10.5048 8.40115 10.5048C9.5609 10.5048 10.501 9.56459 10.501 8.40476C10.501 7.24493 9.56078 6.30469 8.40115 6.30469Z" fill="#F0F4FF"/>
</svg>
