<svg width="21" height="21" viewBox="0 0 21 21" fill="none" xmlns="http://www.w3.org/2000/svg">
<path d="M10.5 4.9C8.18176 4.9 6.29604 6.74009 6.29604 9.0022C6.29604 11.2644 8.18176 13.1043 10.5 13.1043C12.8182 13.1043 14.7039 11.2644 14.7039 9.0022C14.7039 6.74009 12.8182 4.9 10.5 4.9Z" fill="#467CF3"/>
<path fill-rule="evenodd" clip-rule="evenodd" d="M21 10.5C21 16.299 16.299 21 10.5 21C4.70101 21 0 16.299 0 10.5C0 4.70101 4.70101 0 10.5 0C16.299 0 21 4.70101 21 10.5ZM10.6438 19.5989C10.596 19.5996 10.548 19.6 10.5 19.6C10.4411 19.6 10.3823 19.5994 10.3237 19.5983C10.3306 19.5985 10.3376 19.5986 10.3445 19.5987L10.6438 19.5989ZM3.6897 16.5359C4.30658 15.3526 5.35141 14.0935 7.12937 13.2012C8.05966 13.9138 9.22834 14.3429 10.5 14.3429C11.7786 14.3429 12.9536 13.9094 13.8864 13.1896C15.6748 14.0795 16.7167 15.3336 17.3276 16.5163C18.7419 14.9125 19.6 12.8064 19.6 10.5C19.6 5.47421 15.5258 1.4 10.5 1.4C5.47421 1.4 1.4 5.47421 1.4 10.5C1.4 12.8158 2.26507 14.9296 3.6897 16.5359Z" fill="#467CF3"/>
</svg>
