<svg width="16" height="16" viewBox="0 0 16 16" fill="none" xmlns="http://www.w3.org/2000/svg">
<path d="M13.078 1.51569H2.92188C2.14522 1.51569 1.51562 2.14528 1.51562 2.92194V13.078C1.51562 13.8547 2.14522 14.4843 2.92188 14.4843H13.078C13.8546 14.4843 14.4842 13.8547 14.4842 13.078V2.92194C14.4842 2.14528 13.8546 1.51569 13.078 1.51569ZM10.7341 6.51726L7.64055 9.61084L7.02183 10.2296L5.25406 8.4618L5.2657 8.45015C5.09484 8.27929 5.09484 8.0023 5.2657 7.83144C5.43656 7.66058 5.71356 7.66058 5.88442 7.83144C5.91282 7.85984 5.93717 7.89202 5.95678 7.92708L7.02183 8.99212L10.1154 5.89853C10.2863 5.72767 10.5633 5.72767 10.7341 5.89853C10.905 6.06939 10.905 6.3464 10.7341 6.51726Z" fill="#467CF3"/>
</svg>
