<svg width="20" height="20" viewBox="0 0 20 20" fill="none" xmlns="http://www.w3.org/2000/svg">
<g id="symbol/&#229;&#190;&#133;&#229;&#138;&#158;">
<path id="Vector" d="M16.3475 1.89453H3.65234C2.68152 1.89453 1.89453 2.68152 1.89453 3.65234V16.3475C1.89453 17.3183 2.68152 18.1053 3.65234 18.1053H16.3475C17.3183 18.1053 18.1053 17.3183 18.1053 16.3475V3.65234C18.1053 2.68152 17.3183 1.89453 16.3475 1.89453ZM13.4177 8.1465L9.55068 12.0135L8.77729 12.7869L6.56758 10.5772L6.58213 10.5626C6.36856 10.349 6.36856 10.0028 6.58213 9.78922C6.7957 9.57565 7.14195 9.57565 7.35553 9.78922C7.39103 9.82473 7.42146 9.86495 7.44598 9.90877L8.77729 11.2401L12.6443 7.37309C12.8579 7.15951 13.2041 7.15951 13.4177 7.37309C13.6313 7.58666 13.6313 7.93293 13.4177 8.1465Z" fill="#467CF3"/>
</g>
</svg>
