<svg width="14" height="15" viewBox="0 0 14 15" fill="none" xmlns="http://www.w3.org/2000/svg">
<path d="M9.91634 2.83337H10.9378C11.8238 2.83337 12.5413 3.55146 12.5413 4.43885V11.4361C12.5413 12.3229 11.8235 13.0417 10.9378 13.0417H3.06159C2.17551 13.0417 1.45801 12.3236 1.45801 11.4362V4.439C1.45801 3.55219 2.1758 2.83337 3.06159 2.83337H4.08301V2.39587C4.08301 2.27984 4.1291 2.16856 4.21115 2.08651C4.2932 2.00447 4.40448 1.95837 4.52051 1.95837C4.63654 1.95837 4.74782 2.00447 4.82987 2.08651C4.91191 2.16856 4.95801 2.27984 4.95801 2.39587V2.83337H9.04134V2.39587C9.04134 2.27984 9.08743 2.16856 9.16948 2.08651C9.25153 2.00447 9.36281 1.95837 9.47884 1.95837C9.59487 1.95837 9.70615 2.00447 9.7882 2.08651C9.87025 2.16856 9.91634 2.27984 9.91634 2.39587V2.83337ZM9.91634 3.70837V4.14587C9.91634 4.26191 9.87025 4.37319 9.7882 4.45523C9.70615 4.53728 9.59487 4.58337 9.47884 4.58337C9.36281 4.58337 9.25153 4.53728 9.16948 4.45523C9.08743 4.37319 9.04134 4.26191 9.04134 4.14587V3.70837H4.95801V4.14587C4.95801 4.26191 4.91191 4.37319 4.82987 4.45523C4.74782 4.53728 4.63654 4.58337 4.52051 4.58337C4.40448 4.58337 4.2932 4.53728 4.21115 4.45523C4.1291 4.37319 4.08301 4.26191 4.08301 4.14587V3.70837H3.06159C2.96579 3.70849 2.87094 3.72748 2.78247 3.76425C2.694 3.80102 2.61365 3.85486 2.54599 3.9227C2.47833 3.99053 2.4247 4.07103 2.38816 4.15959C2.35161 4.24815 2.33287 4.34305 2.33301 4.43885V11.4361C2.33276 11.5319 2.35142 11.6269 2.38792 11.7155C2.42442 11.8041 2.47805 11.8847 2.54572 11.9525C2.6134 12.0204 2.6938 12.0743 2.78232 12.111C2.87085 12.1478 2.96575 12.1667 3.06159 12.1667H10.9378C11.0336 12.1666 11.1284 12.1476 11.2169 12.1108C11.3053 12.0741 11.3857 12.0202 11.4534 11.9524C11.521 11.8846 11.5746 11.8041 11.6112 11.7155C11.6477 11.6269 11.6665 11.532 11.6663 11.4362V4.439C11.6666 4.34315 11.6479 4.2482 11.6114 4.15958C11.5749 4.07096 11.5213 3.9904 11.4536 3.92254C11.3859 3.85467 11.3055 3.80082 11.217 3.76407C11.1285 3.72732 11.0336 3.70839 10.9378 3.70837H9.91634ZM9.77051 6.77087C9.88654 6.77087 9.99782 6.81697 10.0799 6.89901C10.1619 6.98106 10.208 7.09234 10.208 7.20837C10.208 7.32441 10.1619 7.43569 10.0799 7.51773C9.99782 7.59978 9.88654 7.64587 9.77051 7.64587H4.22884C4.11281 7.64587 4.00153 7.59978 3.91948 7.51773C3.83743 7.43569 3.79134 7.32441 3.79134 7.20837C3.79134 7.09234 3.83743 6.98106 3.91948 6.89901C4.00153 6.81697 4.11281 6.77087 4.22884 6.77087H9.77051ZM8.02051 8.95837C8.13654 8.95837 8.24782 9.00447 8.32987 9.08651C8.41191 9.16856 8.45801 9.27984 8.45801 9.39587C8.45801 9.51191 8.41191 9.62319 8.32987 9.70523C8.24782 9.78728 8.13654 9.83337 8.02051 9.83337H4.22884C4.11281 9.83337 4.00153 9.78728 3.91948 9.70523C3.83743 9.62319 3.79134 9.51191 3.79134 9.39587C3.79134 9.27984 3.83743 9.16856 3.91948 9.08651C4.00153 9.00447 4.11281 8.95837 4.22884 8.95837H8.02051Z" fill="#616266"/>
</svg>
