<svg width="22" height="22" viewBox="0 0 22 22" fill="none" xmlns="http://www.w3.org/2000/svg">
<g id="&#231;&#187;&#132;&#228;&#187;&#182;/&#230;&#151;&#165;&#231;&#168;&#139;">
<path id="Vector" d="M15.5832 3.66602H17.1883C18.5807 3.66602 19.7082 4.79443 19.7082 6.18891V17.1846C19.7082 18.5781 18.5802 19.7077 17.1883 19.7077H4.81142C3.419 19.7077 2.2915 18.5793 2.2915 17.1848V6.18914C2.2915 4.79558 3.41946 3.66602 4.81142 3.66602H6.4165V2.97852C6.4165 2.79618 6.48894 2.62131 6.61787 2.49238C6.7468 2.36345 6.92167 2.29102 7.104 2.29102C7.28634 2.29102 7.46121 2.36345 7.59014 2.49238C7.71907 2.62131 7.7915 2.79618 7.7915 2.97852V3.66602H14.2082V2.97852C14.2082 2.79618 14.2806 2.62131 14.4095 2.49238C14.5385 2.36345 14.7133 2.29102 14.8957 2.29102C15.078 2.29102 15.2529 2.36345 15.3818 2.49238C15.5107 2.62131 15.5832 2.79618 15.5832 2.97852V3.66602ZM15.5832 5.04102V5.72852C15.5832 5.91085 15.5107 6.08572 15.3818 6.21465C15.2529 6.34358 15.078 6.41602 14.8957 6.41602C14.7133 6.41602 14.5385 6.34358 14.4095 6.21465C14.2806 6.08572 14.2082 5.91085 14.2082 5.72852V5.04102H7.7915V5.72852C7.7915 5.91085 7.71907 6.08572 7.59014 6.21465C7.46121 6.34358 7.28634 6.41602 7.104 6.41602C6.92167 6.41602 6.7468 6.34358 6.61787 6.21465C6.48894 6.08572 6.4165 5.91085 6.4165 5.72852V5.04102H4.81142C4.66087 5.0412 4.51183 5.07103 4.37281 5.12882C4.23378 5.18661 4.10751 5.27121 4.00119 5.37781C3.89487 5.4844 3.81059 5.6109 3.75317 5.75007C3.69574 5.88924 3.66629 6.03836 3.6665 6.18891V17.1846C3.66611 17.3352 3.69544 17.4844 3.75279 17.6236C3.81015 17.7629 3.89442 17.8895 4.00077 17.9961C4.10712 18.1028 4.23347 18.1874 4.37257 18.2452C4.51168 18.3029 4.66081 18.3327 4.81142 18.3327H17.1883C17.3388 18.3325 17.4878 18.3027 17.6269 18.2449C17.7659 18.1871 17.8922 18.1025 17.9985 17.9959C18.1048 17.8893 18.1891 17.7628 18.2465 17.6236C18.3039 17.4845 18.3334 17.3353 18.3332 17.1848V6.18914C18.3336 6.03853 18.3042 5.88932 18.2469 5.75005C18.1895 5.61079 18.1053 5.4842 17.9989 5.37755C17.8925 5.27091 17.7662 5.18628 17.6271 5.12853C17.488 5.07079 17.3389 5.04105 17.1883 5.04102H15.5832ZM15.354 9.85352C15.5363 9.85352 15.7112 9.92595 15.8401 10.0549C15.9691 10.1838 16.0415 10.3587 16.0415 10.541C16.0415 10.7234 15.9691 10.8982 15.8401 11.0272C15.7112 11.1561 15.5363 11.2285 15.354 11.2285H6.64567C6.46333 11.2285 6.28847 11.1561 6.15953 11.0272C6.0306 10.8982 5.95817 10.7234 5.95817 10.541C5.95817 10.3587 6.0306 10.1838 6.15953 10.0549C6.28847 9.92595 6.46333 9.85352 6.64567 9.85352H15.354ZM12.604 13.291C12.7863 13.291 12.9612 13.3634 13.0901 13.4924C13.2191 13.6213 13.2915 13.7962 13.2915 13.9785C13.2915 14.1609 13.2191 14.3357 13.0901 14.4647C12.9612 14.5936 12.7863 14.666 12.604 14.666H6.64567C6.46333 14.666 6.28847 14.5936 6.15953 14.4647C6.0306 14.3357 5.95817 14.1609 5.95817 13.9785C5.95817 13.7962 6.0306 13.6213 6.15953 13.4924C6.28847 13.3634 6.46333 13.291 6.64567 13.291H12.604Z" fill="#616266"/>
</g>
</svg>
