<svg width="40" height="40" viewBox="0 0 40 40" fill="none" xmlns="http://www.w3.org/2000/svg">
<rect width="39.998" height="39.998" rx="4.5712" fill="#639DF2"/>
<path d="M32.5698 31.5171H7.42821C7.11264 31.5171 6.85681 31.2613 6.85681 30.9457V30.2403C6.85681 29.4148 7.30191 28.6535 8.02124 28.2486L16.2618 23.6099C17.394 22.9725 17.6502 21.4533 16.7896 20.4799C15.4703 18.9878 14.7421 17.0648 14.7421 15.0731V13.2564C14.7421 10.3531 17.0957 7.99951 19.999 7.99951C22.9023 7.99951 25.2559 10.3531 25.2559 13.2564V15.0731C25.2559 17.0648 24.5277 18.9878 23.2085 20.4799C22.3478 21.4533 22.604 22.9725 23.7363 23.6099L31.9768 28.2486C32.6961 28.6535 33.1412 29.4148 33.1412 30.2403V30.9457C33.1412 31.2613 32.8854 31.5171 32.5698 31.5171Z" fill="white"/>
</svg>
