<svg width="25" height="25" viewBox="0 0 25 25" fill="none" xmlns="http://www.w3.org/2000/svg">
<rect width="25" height="25" rx="4" fill="#E3E7ED"/>
<path d="M11.9797 5C7.57258 5 4 8.57258 4 12.9797C4 17.3868 7.57258 20.9593 11.9797 20.9593C16.3868 20.9593 19.9593 17.3868 19.9593 12.9797C19.9593 8.57258 16.3868 5 11.9797 5ZM11.9797 6.08814C15.786 6.08814 18.8712 9.17367 18.8712 12.9797C18.8712 14.3445 18.4745 15.6166 17.79 16.687C16.6429 15.4744 15.119 14.6213 13.4057 14.3147C14.4995 13.7873 15.2558 12.6715 15.2558 11.3762C15.2558 9.57324 13.7943 8.11177 11.9914 8.11177C10.1884 8.11177 8.72695 9.57324 8.72695 11.3762C8.72695 12.6715 9.48319 13.7873 10.577 14.3147C8.8568 14.6226 7.32763 15.4813 6.17889 16.7017C5.48863 15.6282 5.08814 14.3507 5.08814 12.9797C5.08814 9.17367 8.17402 6.08814 11.9797 6.08814Z" fill="#467CF3"/>
</svg>
