<svg width="16" height="16" viewBox="0 0 16 16" fill="none" xmlns="http://www.w3.org/2000/svg">
<path fill-rule="evenodd" clip-rule="evenodd" d="M9.56664 1.87498H6.43348L6.31698 2.74996H9.68314L9.56664 1.87498ZM10.5245 2.74996H11.75C12.4405 2.74996 13 3.33749 13 4.06249V4.50005H3V4.06249C3 3.33749 3.55952 2.74996 4.24997 2.74996H5.47529L5.62173 1.65027C5.6697 1.29225 5.98961 1 6.33333 1H9.66667C10.0105 1 10.3304 1.29225 10.378 1.64977L10.5245 2.74996ZM9.66673 13.25H10.9167L11.3334 7.12505H9.66673V13.25ZM7.16679 13.25H8.83333V7.12505H7.16679V13.25ZM5.0833 13.25H6.33339V7.12505H4.66673L5.0833 13.25ZM4.04168 5.37496H11.9584C12.4165 5.37496 12.7579 5.7672 12.7165 6.24654L12.0337 14.1284C11.9926 14.6078 11.5832 15 11.125 15H4.87508C4.4169 15 4.00754 14.6079 3.96642 14.1284L3.28367 6.24654C3.24219 5.7672 3.58351 5.37496 4.04168 5.37496Z" fill="#FF5E67"/>
</svg>
