<svg width="30" height="30" viewBox="0 0 30 30" fill="none" xmlns="http://www.w3.org/2000/svg">
<rect x="0.5" y="0.5" width="29" height="29" rx="14.5" fill="#FFF0F0"/>
<path fill-rule="evenodd" clip-rule="evenodd" d="M16.5666 8.87498H13.4335L13.317 9.74996H16.6831L16.5666 8.87498ZM17.5245 9.74996H18.75C19.4405 9.74996 20 10.3375 20 11.0625V11.5H10V11.0625C10 10.3375 10.5595 9.74996 11.25 9.74996H12.4753L12.6217 8.65027C12.6697 8.29225 12.9896 8 13.3333 8H16.6667C17.0105 8 17.3304 8.29225 17.378 8.64977L17.5245 9.74996ZM16.6667 20.25H17.9167L18.3334 14.1251H16.6667V20.25ZM14.1668 20.25H15.8333V14.1251H14.1668V20.25ZM12.0833 20.25H13.3334V14.1251H11.6667L12.0833 20.25ZM11.0417 12.375H18.9584C19.4165 12.375 19.7579 12.7672 19.7165 13.2465L19.0337 21.1284C18.9926 21.6078 18.5832 22 18.125 22H11.8751C11.4169 22 11.0075 21.6079 10.9664 21.1284L10.2837 13.2465C10.2422 12.7672 10.5835 12.375 11.0417 12.375Z" fill="#FF5E67"/>
<rect x="0.5" y="0.5" width="29" height="29" rx="14.5" stroke="#FDD6D5"/>
</svg>
