<svg width="14" height="15" viewBox="0 0 14 15" fill="none" xmlns="http://www.w3.org/2000/svg">
<path fill-rule="evenodd" clip-rule="evenodd" d="M0.875 7.49985C0.875 4.12254 3.62232 1.375 7.00004 1.375C10.3773 1.375 13.125 4.12253 13.125 7.49985C13.125 10.8774 10.3773 13.625 7.00004 13.625C3.62232 13.625 0.875 10.8774 0.875 7.49985ZM9.96799 4.91103L7.47431 7.40588L9.96799 9.90023C10.094 10.0276 10.094 10.2326 9.96799 10.36L9.95419 10.3738C9.8271 10.4996 9.62231 10.4996 9.49522 10.3738L7.00154 7.87839L4.50736 10.3738C4.38027 10.4996 4.17548 10.4996 4.04838 10.3738L4.03458 10.3605C3.90857 10.2331 3.90857 10.0281 4.03458 9.90073L6.52877 7.40537L4.03458 4.91052C3.97251 4.85013 3.9375 4.76723 3.9375 4.68065C3.9375 4.59408 3.97251 4.51117 4.03458 4.45078L4.04889 4.43801C4.17598 4.31218 4.38078 4.31218 4.50787 4.43801L7.00104 6.93593L9.49521 4.4375C9.6223 4.31167 9.8271 4.31167 9.95419 4.4375L9.96799 4.45129C10.094 4.57866 10.094 4.78366 9.96799 4.91103Z" fill="#303133"/>
</svg>
