<svg width="17" height="16" viewBox="0 0 17 16" fill="none" xmlns="http://www.w3.org/2000/svg">
<g id="base/del3">
<path id="&#229;&#189;&#162;&#231;&#138;&#182;" fill-rule="evenodd" clip-rule="evenodd" d="M3.55033 3.05025C0.816924 5.78366 0.816924 10.2163 3.55033 12.9497C6.28374 15.6832 10.7164 15.6832 13.4498 12.9497C16.1832 10.2163 16.1832 5.78366 13.4498 3.05025C10.7164 0.316843 6.28374 0.316843 3.55033 3.05025ZM12.7902 12.2901C10.4214 14.659 6.57984 14.6601 4.20993 12.2901C1.84112 9.92134 1.84002 6.07976 4.20993 3.70985C6.57874 1.34104 10.4203 1.33994 12.7902 3.70985C15.159 6.07866 15.159 9.92134 12.7902 12.2901ZM6.52018 10.6406L11.1396 6.02121L10.48 5.36161L5.86058 9.981L6.52018 10.6406Z" fill="#FF5E67"/>
<path id="&#232;&#183;&#175;&#229;&#190;&#132;" fill-rule="evenodd" clip-rule="evenodd" d="M5.85798 6.02679L10.4774 10.6462L11.137 9.98658L6.51758 5.36719L5.85798 6.02679Z" fill="#F46C6C"/>
</g>
</svg>
