<svg width="36" height="36" viewBox="0 0 36 36" fill="none" xmlns="http://www.w3.org/2000/svg">
<path d="M0 17.5C-3.42448e-08 19.7981 0.452651 22.0738 1.33211 24.197C2.21157 26.3202 3.50061 28.2493 5.12563 29.8744C6.75066 31.4994 8.67984 32.7884 10.803 33.6679C12.9262 34.5473 15.2019 35 17.5 35C19.7981 35 22.0738 34.5473 24.197 33.6679C26.3202 32.7884 28.2493 31.4994 29.8744 29.8744C31.4994 28.2493 32.7884 26.3202 33.6679 24.197C34.5473 22.0738 35 19.7981 35 17.5C35 15.2019 34.5473 12.9262 33.6679 10.803C32.7884 8.67984 31.4994 6.75066 29.8744 5.12563C28.2493 3.50061 26.3202 2.21157 24.197 1.33211C22.0738 0.452651 19.7981 0 17.5 0C15.2019 0 12.9262 0.452651 10.803 1.33211C8.67984 2.21157 6.75066 3.50061 5.12563 5.12563C3.50061 6.75066 2.21157 8.67984 1.33211 10.803C0.452651 12.9262 -3.42448e-08 15.2019 0 17.5Z" fill="#467CF3"/>
<g clip-path="url(#clip0_1239_297804)">
<path d="M26.2553 20.4368H24.9428V17.1557C24.9428 16.7934 24.6489 16.4996 24.2865 16.4996H18.3806V12.5623H19.6929C20.4148 12.5623 21.0055 11.9716 21.0055 11.2498V7.31242C21.0055 6.59057 20.4148 6 19.6929 6H15.7556C15.0337 6 14.4432 6.59057 14.4432 7.31242V11.2498C14.4432 11.9717 15.0337 12.5623 15.7556 12.5623H17.068V16.4996H11.162C10.7996 16.4996 10.5057 16.7934 10.5057 17.1557V20.4369H9.19334C8.47145 20.4369 7.88086 21.0275 7.88086 21.7493V25.6867C7.88086 26.4086 8.47143 26.9993 9.19334 26.9993H13.1307C13.8525 26.9993 14.4432 26.4086 14.4432 25.6867V21.7493C14.4432 21.0275 13.8525 20.4369 13.1307 20.4369H11.8182V17.812H23.6302V20.4369H22.3179C21.5961 20.4369 21.0054 21.0275 21.0054 21.7493V25.6867C21.0054 26.4086 21.5961 26.9993 22.3179 26.9993H26.2552C26.9771 26.9993 27.5677 26.4086 27.5677 25.6867V21.7493C27.5677 21.0275 26.9771 20.4368 26.2553 20.4368ZM15.7556 7.31242H19.6929V11.2498H15.7556V7.31242ZM13.1307 25.6867H9.19334V21.7493H13.1307V25.6867ZM26.2553 25.6867H22.3179V21.7493H26.2552V25.6867H26.2553Z" fill="white"/>
</g>
<defs>
<clipPath id="clip0_1239_297804">
<rect width="21" height="21" fill="white" transform="translate(7 6)"/>
</clipPath>
</defs>
</svg>
