<svg width="30" height="30" viewBox="0 0 30 30" fill="none" xmlns="http://www.w3.org/2000/svg">
<path fill-rule="evenodd" clip-rule="evenodd" d="M15 3.77892C16.7751 3.74526 18.2428 5.13976 18.2812 6.89644L26.1609 6.89644C27.2207 6.87311 28.0994 7.70335 28.125 8.75211V21.8717H1.875V6.89644V3.77892H15Z" fill="#557CEC"/>
<path d="M4.63574 17.6964H25.3592V7.9541H4.63574V17.6964Z" fill="white"/>
<path d="M28.125 24.1913V12.2686C28.1152 11.8519 27.9381 11.4562 27.6329 11.1689C27.3277 10.8817 26.9195 10.7265 26.4984 10.7377H3.52969C3.10658 10.7202 2.6939 10.8705 2.38323 11.1553C2.07256 11.4401 1.88962 11.8359 1.875 12.2547V24.1542C1.8885 24.6698 2.10848 25.1589 2.48653 25.5139C2.86457 25.8689 3.36967 26.0607 3.89062 26.047H26.1094C27.1792 26.0734 28.0744 25.2492 28.125 24.1913Z" fill="#7DA6FF"/>
</svg>
