<svg width="30" height="30" viewBox="0 0 30 30" fill="none" xmlns="http://www.w3.org/2000/svg">
<rect width="30" height="30" rx="15" fill="#467CF3"/>
<path d="M15.0002 9.3999C16.0141 9.40005 17.0019 9.72109 17.8222 10.317C18.6425 10.913 19.2531 11.7533 19.5666 12.7175C20.4805 12.9454 21.2847 13.4885 21.8376 14.2511C22.3905 15.0137 22.6565 15.947 22.589 16.8865C22.5214 17.826 22.1245 18.7115 21.4681 19.3871C20.8118 20.0628 19.9381 20.4851 19.001 20.5799L19.0002 20.5999H11.0002V20.5799C10.0623 20.4863 9.18756 20.0645 8.53032 19.3889C7.87308 18.7132 7.47553 17.8272 7.4078 16.8871C7.34008 15.947 7.60652 15.0131 8.16014 14.2503C8.71376 13.4874 9.51898 12.9446 10.4338 12.7175C10.747 11.7531 11.3576 10.9127 12.1779 10.3167C12.9983 9.72075 13.9862 9.3998 15.0002 9.3999ZM15.0002 10.5999C14.2691 10.5998 13.5553 10.8222 12.9536 11.2376C12.352 11.6531 11.8911 12.2418 11.6322 12.9255L11.5762 13.0871L11.3698 13.7215L10.7226 13.8815C10.0957 14.0382 9.54221 14.4069 9.15598 14.925C8.76975 15.4431 8.5745 16.0788 8.60331 16.7243C8.63212 17.3699 8.88322 17.9857 9.31406 18.4673C9.7449 18.9489 10.329 19.2668 10.9674 19.3671L11.1194 19.3863L11.2634 19.3999H18.737L18.8818 19.3863C19.5459 19.3192 20.1642 19.0171 20.6253 18.5343C21.0863 18.0516 21.3597 17.42 21.3962 16.7535L21.4002 16.5999C21.4001 16.0011 21.2082 15.4181 20.8526 14.9364C20.497 14.4547 19.9964 14.0996 19.4242 13.9231L19.2778 13.8831L18.6314 13.7223L18.4258 13.0879C18.1906 12.3646 17.7325 11.7343 17.1172 11.2874C16.5018 10.8405 15.7607 10.5998 15.0002 10.5999Z" fill="white"/>
<path d="M15.0002 12.7998C15.1451 12.7998 15.2852 12.8523 15.3945 12.9476C15.5038 13.0429 15.5748 13.1746 15.5946 13.3182L15.6002 13.3998V16.0606L16.0266 15.6342C16.1291 15.5316 16.2654 15.4697 16.4101 15.4598C16.5548 15.45 16.6982 15.4929 16.8138 15.5806L16.8754 15.6342C16.9779 15.7368 17.0399 15.873 17.0497 16.0178C17.0596 16.1625 17.0167 16.3059 16.929 16.4214L16.8754 16.483L15.405 17.9534C15.3024 18.056 15.1661 18.1179 15.0214 18.1278C14.8767 18.1377 14.7333 18.0947 14.6178 18.007L14.5562 17.9534L13.085 16.483C12.9768 16.3756 12.9136 16.2311 12.9081 16.0787C12.9026 15.9264 12.9554 15.7777 13.0556 15.6628C13.1558 15.548 13.2959 15.4755 13.4476 15.4603C13.5993 15.445 13.7511 15.488 13.8722 15.5806L13.9338 15.6342L14.4002 16.1006V13.3998C14.4002 13.2407 14.4634 13.0881 14.5759 12.9755C14.6884 12.863 14.841 12.7998 15.0002 12.7998Z" fill="white"/>
</svg>
