<svg width="30" height="30" viewBox="0 0 30 30" fill="none" xmlns="http://www.w3.org/2000/svg">
<path d="M20.3621 9.92963C19.8849 8.76727 19.0728 7.77304 18.029 7.07332C16.9852 6.37361 15.757 6 14.5003 6C13.2437 6 12.0154 6.37361 10.9716 7.07332C9.92786 7.77304 9.11576 8.76727 8.63854 9.92963C7.59904 10.1747 6.67332 10.7648 6.01249 11.6037C5.35166 12.4426 4.99476 13.4807 5.00006 14.5485C5.00006 17.1676 7.13058 19.2978 9.75003 19.2978H11.5607C11.7287 19.2978 11.8898 19.2311 12.0085 19.1124C12.1273 18.9936 12.194 18.8325 12.194 18.6646C12.194 18.4966 12.1273 18.3356 12.0085 18.2168C11.8898 18.0981 11.7287 18.0313 11.5607 18.0313H9.75003C8.82651 18.0303 7.9411 17.6631 7.28807 17.0101C6.63504 16.3572 6.26772 15.4719 6.26672 14.5485C6.26257 13.718 6.55703 12.9136 7.09644 12.2819C7.63586 11.6503 8.3843 11.2335 9.20537 11.1075L9.5822 11.0486L9.7057 10.6876C10.4081 8.64098 12.3346 7.26621 14.5 7.26621C15.556 7.26591 16.5857 7.59551 17.4451 8.20894C18.3046 8.82237 18.9509 9.68898 19.2937 10.6876L19.4178 11.0486L19.7946 11.1075C20.6157 11.2335 21.3641 11.6503 21.9036 12.2819C22.443 12.9136 22.7374 13.718 22.7333 14.5485C22.7333 16.4685 21.1702 18.0313 19.25 18.0313H17.3246C17.1567 18.0313 16.9956 18.0981 16.8768 18.2168C16.758 18.3356 16.6913 18.4966 16.6913 18.6646C16.6913 18.8325 16.758 18.9936 16.8768 19.1124C16.9956 19.2311 17.1567 19.2978 17.3246 19.2978H19.25C21.8694 19.2978 23.9999 17.1676 23.9999 14.5485C24.0053 13.4808 23.6485 12.4427 22.9878 11.6039C22.3271 10.765 21.4015 10.1748 20.3621 9.92963Z" fill="#616266"/>
<path d="M17.2274 20.6835L15.1337 22.3971V13.9167C15.1337 13.7487 15.0669 13.5877 14.9482 13.4689C14.8294 13.3502 14.6683 13.2834 14.5003 13.2834C14.3324 13.2834 14.1713 13.3502 14.0525 13.4689C13.9337 13.5877 13.867 13.7487 13.867 13.9167V22.3971L11.7542 20.6671C11.6899 20.6144 11.6158 20.5749 11.5362 20.5508C11.4566 20.5268 11.373 20.5186 11.2903 20.5269C11.2076 20.5351 11.1272 20.5595 11.0539 20.5988C10.9806 20.6381 10.9158 20.6914 10.8631 20.7557C10.8104 20.82 10.7709 20.8941 10.7469 20.9737C10.7228 21.0533 10.7147 21.1368 10.7229 21.2196C10.7311 21.3023 10.7556 21.3826 10.7949 21.4559C10.8341 21.5292 10.8875 21.594 10.9518 21.6467L14.0994 24.224C14.2127 24.3168 14.3545 24.3675 14.501 24.3675C14.6474 24.3675 14.7893 24.3168 14.9025 24.224L18.0305 21.6625C18.0969 21.6105 18.1523 21.5458 18.1934 21.4721C18.2344 21.3983 18.2604 21.3172 18.2696 21.2333C18.2789 21.1495 18.2712 21.0646 18.2472 20.9837C18.2232 20.9028 18.1833 20.8276 18.1298 20.7623C18.0763 20.6971 18.0103 20.6432 17.9356 20.6038C17.861 20.5645 17.7793 20.5404 17.6952 20.5331C17.6111 20.5257 17.5265 20.5353 17.4461 20.5611C17.3658 20.5869 17.2915 20.6286 17.2274 20.6835Z" fill="#616266"/>
</svg>
