<svg width="30" height="30" viewBox="0 0 30 30" fill="none" xmlns="http://www.w3.org/2000/svg">
<rect width="30" height="30" rx="15" fill="#F5F5F5"/>
<path d="M15.0002 9.40002C16.0141 9.40017 17.0019 9.72122 17.8222 10.3172C18.6425 10.9131 19.2531 11.7534 19.5666 12.7176C20.4805 12.9456 21.2847 13.4886 21.8376 14.2513C22.3905 15.0139 22.6565 15.9471 22.589 16.8866C22.5214 17.8261 22.1245 18.7116 21.4681 19.3872C20.8118 20.0629 19.9381 20.4853 19.001 20.58L19.0002 20.6H11.0002V20.58C10.0623 20.4864 9.18756 20.0646 8.53032 19.389C7.87308 18.7134 7.47553 17.8273 7.4078 16.8872C7.34008 15.9471 7.60652 15.0132 8.16014 14.2504C8.71376 13.4875 9.51898 12.9447 10.4338 12.7176C10.747 11.7533 11.3576 10.9128 12.1779 10.3169C12.9983 9.72088 13.9862 9.39993 15.0002 9.40002ZM15.0002 10.6C14.2691 10.5999 13.5553 10.8224 12.9536 11.2378C12.352 11.6532 11.8911 12.2419 11.6322 12.9256L11.5762 13.0872L11.3698 13.7216L10.7226 13.8816C10.0957 14.0384 9.54221 14.407 9.15598 14.9251C8.76975 15.4432 8.5745 16.0789 8.60331 16.7245C8.63212 17.37 8.88322 17.9858 9.31406 18.4674C9.7449 18.9491 10.329 19.2669 10.9674 19.3672L11.1194 19.3864L11.2634 19.4H18.737L18.8818 19.3864C19.5459 19.3193 20.1642 19.0172 20.6253 18.5344C21.0863 18.0517 21.3597 17.4201 21.3962 16.7536L21.4002 16.6C21.4001 16.0013 21.2082 15.4183 20.8526 14.9365C20.497 14.4548 19.9964 14.0997 19.4242 13.9232L19.2778 13.8832L18.6314 13.7224L18.4258 13.088C18.1906 12.3647 17.7325 11.7345 17.1172 11.2875C16.5018 10.8406 15.7607 10.5999 15.0002 10.6Z" fill="#616266"/>
<path d="M15.0002 12.8C15.1451 12.8001 15.2852 12.8526 15.3945 12.9479C15.5038 13.0432 15.5748 13.1748 15.5946 13.3184L15.6002 13.4V16.0608L16.0266 15.6344C16.1291 15.5319 16.2654 15.4699 16.4101 15.4601C16.5548 15.4502 16.6982 15.4931 16.8138 15.5808L16.8754 15.6344C16.9779 15.737 17.0399 15.8733 17.0497 16.018C17.0596 16.1627 17.0167 16.3061 16.929 16.4216L16.8754 16.4832L15.405 17.9536C15.3024 18.0562 15.1661 18.1182 15.0214 18.128C14.8767 18.1379 14.7333 18.095 14.6178 18.0072L14.5562 17.9536L13.085 16.4832C12.9768 16.3758 12.9136 16.2313 12.9081 16.079C12.9026 15.9266 12.9554 15.7779 13.0556 15.6631C13.1558 15.5482 13.2959 15.4758 13.4476 15.4605C13.5993 15.4452 13.7511 15.4883 13.8722 15.5808L13.9338 15.6344L14.4002 16.1008V13.4C14.4002 13.2409 14.4634 13.0883 14.5759 12.9758C14.6884 12.8633 14.841 12.8 15.0002 12.8Z" fill="#616266"/>
</svg>
