<svg width="16" height="16" viewBox="0 0 16 16" fill="none" xmlns="http://www.w3.org/2000/svg">
<path fill-rule="evenodd" clip-rule="evenodd" d="M5.72857 10.2136L8.76142 9.35324L6.59533 7.19835L5.72857 10.2136ZM13.8313 4.31362L11.6653 2.16187L6.89736 6.89791L9.06502 9.05124L13.8313 4.31362ZM13.2005 12.2899C13.2005 13.0386 12.5949 13.6442 11.8446 13.6442H3.71193C2.96315 13.6442 2.35596 13.0386 2.35596 12.2899V4.1579C2.35596 3.40919 2.96315 2.80205 3.71193 2.80205H9.13264L10.4886 1.4462H3.25889C2.01146 1.4462 1 2.45915 1 3.70648V12.7413C1 13.9886 2.01146 15 3.25889 15H12.2976C13.545 15 14.5565 13.9886 14.5565 12.7413V5.51217L13.2006 6.86802V12.2899H13.2005ZM14.8397 2.50635L13.4853 1.15994C13.2603 0.936592 12.8843 0.949169 12.6453 1.18511L11.9956 1.83314L14.1617 3.98647L14.8129 3.34157C15.052 3.10249 15.063 2.72813 14.8397 2.50635Z" fill="#467CF3"/>
</svg>
