<svg width="30" height="30" viewBox="0 0 30 30" fill="none" xmlns="http://www.w3.org/2000/svg">
<rect x="0.5" y="0.5" width="29" height="29" rx="14.5" fill="#ECF3FF"/>
<path fill-rule="evenodd" clip-rule="evenodd" d="M21.9291 14.0135C20.9946 14.1128 20.1373 13.4604 19.9923 12.5212C19.8915 11.8672 20.161 11.2431 20.6448 10.8586C20.2476 10.3181 19.7749 9.83588 19.2407 9.42931C18.6513 10.17 17.5781 10.3181 16.8075 9.75552C16.2638 9.3584 16.0133 8.70914 16.0984 8.0851C15.7407 8.02837 15.3735 8 15 8C14.6896 8 14.3838 8.02049 14.0844 8.05988C14.2152 9.01643 13.5565 9.90522 12.6 10.0534C11.9176 10.1589 11.2652 9.85952 10.8886 9.33633C10.3386 9.73661 9.85007 10.2125 9.43719 10.753C9.44192 10.7562 9.44507 10.7593 9.4498 10.7625C10.2393 11.3408 10.4111 12.4502 9.83273 13.2398C9.41828 13.8071 8.72805 14.0561 8.08037 13.9363C8.02679 14.283 8 14.6391 8 15.0016C8 15.3309 8.02364 15.6556 8.06776 15.9739C8.08037 15.9723 8.09298 15.9692 8.10558 15.9676C9.07317 15.8179 9.97929 16.4813 10.129 17.4489C10.2362 18.1439 9.92571 18.8057 9.38361 19.1792C9.79018 19.726 10.2756 20.2098 10.8224 20.618C10.8271 20.6117 10.8318 20.6054 10.8366 20.5975C11.4149 19.808 12.5243 19.6362 13.3138 20.2145C13.8717 20.6227 14.1207 21.294 14.0167 21.9322C14.3381 21.9779 14.6659 22 15 22C15.353 22 15.6997 21.9732 16.0401 21.9228C15.9014 20.9615 16.5617 20.0664 17.523 19.9183C18.188 19.8158 18.8246 20.0964 19.206 20.5959C19.7434 20.1909 20.2208 19.7118 20.6227 19.1713C19.8773 18.5835 19.7244 17.5056 20.2902 16.7335C20.681 16.1992 21.3129 15.9487 21.9259 16.0196C21.9748 15.6871 22 15.3483 22 15.0016C21.9984 14.6643 21.9748 14.335 21.9291 14.0135ZM15.052 18.0036C13.3926 18.0036 12.0468 16.6578 12.0468 14.9984C12.0468 13.339 13.3926 11.9932 15.052 11.9932C16.7114 11.9932 18.0572 13.339 18.0572 14.9984C18.0572 16.6578 16.7114 18.0036 15.052 18.0036Z" fill="#467CF3"/>
<rect x="0.5" y="0.5" width="29" height="29" rx="14.5" stroke="#467CF3"/>
</svg>
