<svg width="14" height="14" viewBox="0 0 14 14" fill="none" xmlns="http://www.w3.org/2000/svg">
<path fill-rule="evenodd" clip-rule="evenodd" d="M4.72857 9.21363L7.76142 8.35324L5.59533 6.19835L4.72857 9.21363ZM12.8313 3.31362L10.6653 1.16187L5.89736 5.89791L8.06502 8.05124L12.8313 3.31362ZM12.2005 11.2899C12.2005 12.0386 11.5949 12.6442 10.8446 12.6442H2.71193C1.96315 12.6442 1.35596 12.0386 1.35596 11.2899V3.1579C1.35596 2.40919 1.96315 1.80205 2.71193 1.80205H8.13264L9.4886 0.446198H2.25889C1.01146 0.446198 0 1.45915 0 2.70648V11.7413C0 12.9886 1.01146 14 2.25889 14H11.2976C12.545 14 13.5565 12.9886 13.5565 11.7413V4.51217L12.2006 5.86802V11.2899H12.2005ZM13.8397 1.50635L12.4853 0.159938C12.2603 -0.0634083 11.8843 -0.0508313 11.6453 0.185106L10.9956 0.833143L13.1617 2.98647L13.8129 2.34157C14.052 2.10249 14.063 1.72813 13.8397 1.50635Z" fill="#467CF3"/>
</svg>
