<svg width="130" height="110" viewBox="0 0 130 110" fill="none" xmlns="http://www.w3.org/2000/svg">
<path d="M24.8422 49.7576L34.8002 32.7995C36.7922 29.407 34.346 25.1338 30.4119 25.1338C27.4514 25.1338 24.6377 26.4228 22.7043 28.6648L7.70758 46.0552C3.05953 51.4451 2.19168 59.1336 5.52129 65.4241L14.0209 81.4818C15.1184 83.5553 17.2722 84.8522 19.6183 84.8522C23.5706 84.8522 26.5575 81.2718 25.8488 77.3835L22.8566 60.9659C22.1543 57.1126 22.8589 53.1352 24.8422 49.7576Z" fill="#EDEEEF"/>
<path d="M105.158 61.0344L95.1998 77.9925C93.2078 81.385 95.654 85.6582 99.5881 85.6582C102.549 85.6582 105.362 84.3692 107.296 82.1272L122.292 64.7368C126.94 59.3469 127.808 51.6584 124.479 45.3679L115.979 29.3102C114.882 27.2367 112.728 25.9398 110.382 25.9398C106.429 25.9398 103.443 29.5202 104.151 33.4085L107.143 49.8261C107.846 53.6794 107.141 57.6568 105.158 61.0344Z" fill="#EDEEEF"/>
<path d="M63.3846 12.9219C64.4088 7.41577 69.2118 3.42382 74.8119 3.4242C79.6562 3.42452 83.3156 7.81911 82.4393 12.5839L66.9195 96.9661C65.8954 102.534 61.0427 106.576 55.3816 106.576C50.4856 106.575 46.7904 102.129 47.6859 97.315L63.3846 12.9219Z" fill="#EDEEEF"/>
</svg>
