<svg width="16" height="17" viewBox="0 0 16 17" fill="none" xmlns="http://www.w3.org/2000/svg">
<path fill-rule="evenodd" clip-rule="evenodd" d="M8 1.5C4.136 1.5 1 4.636 1 8.5C1 12.364 4.136 15.5 8 15.5C11.864 15.5 15 12.364 15 8.5C15 4.636 11.864 1.5 8 1.5ZM10.765 10.845C10.905 10.985 10.905 11.202 10.765 11.342C10.625 11.482 10.408 11.482 10.268 11.342L7.972 9.046L5.683 11.335C5.543 11.475 5.326 11.475 5.186 11.335C5.046 11.195 5.046 10.978 5.186 10.838L7.475 8.549L5.165 6.225C5.025 6.085 5.025 5.868 5.165 5.728C5.305 5.588 5.522 5.588 5.662 5.728L7.979 8.045L10.303 5.721C10.443 5.581 10.66 5.581 10.8 5.721C10.94 5.861 10.94 6.078 10.8 6.218L8.476 8.542L10.765 10.845Z" fill="#FF5E67"/>
</svg>
