<svg width="18" height="16" viewBox="0 0 18 16" fill="none" xmlns="http://www.w3.org/2000/svg">
<path fill-rule="evenodd" clip-rule="evenodd" d="M9.7 3.04351L11.002 4.28849L11.996 3.33802L9.021 0.5L6.053 3.33802L7.047 4.28849L8.3 3.08611V11.4839H1.65C0.716667 11.4839 0.25 11.9302 0.25 12.8226V14.1613C0.25 15.0538 0.716667 15.5 1.65 15.5H16.35C17.2833 15.5 17.75 15.0538 17.75 14.1613V12.8226C17.75 11.9302 17.2833 11.4839 16.35 11.4839H9.7V3.04351ZM9.077 2.44779L9.021 2.39424L8.9652 2.44779H9.077ZM1.65 6.12918H7.25V10.1452H1.65C0.876801 10.1452 0.25 9.5459 0.25 8.80656V7.46787C0.25 6.72854 0.876801 6.12918 1.65 6.12918ZM10.75 6.12918H16.35C17.1232 6.12918 17.75 6.72854 17.75 7.46787V8.80656C17.75 9.5459 17.1232 10.1452 16.35 10.1452H10.75V6.12918Z" fill="#467CF3"/>
</svg>
