<svg width="24" height="24" viewBox="0 0 24 24" fill="none" xmlns="http://www.w3.org/2000/svg">
<circle cx="12" cy="12" r="12" fill="url(#paint0_linear_1081_242759)"/>
<path fill-rule="evenodd" clip-rule="evenodd" d="M12.56 7.23501L13.6016 8.23099L14.3968 7.47061L12.0168 5.2002L9.64237 7.47061L10.4376 8.23099L11.44 7.26908V13.9874H6.12C5.37333 13.9874 5 14.3444 5 15.0584V16.1293C5 16.8433 5.37333 17.2003 6.12 17.2003H17.88C18.6267 17.2003 19 16.8433 19 16.1293V15.0584C19 14.3444 18.6267 13.9874 17.88 13.9874H12.56V7.23501ZM12.0615 6.7584L12.0168 6.71559L11.9722 6.7584H12.0615ZM6.12 9.70381H10.6V12.9167H6.12C5.50144 12.9167 5 12.4372 5 11.8457V10.7748C5 10.1833 5.50144 9.70381 6.12 9.70381ZM13.4 9.70381H17.88C18.4986 9.70381 19 10.1833 19 10.7748V11.8457C19 12.4372 18.4986 12.9167 17.88 12.9167H13.4V9.70381Z" fill="white"/>
<defs>
<linearGradient id="paint0_linear_1081_242759" x1="0" y1="0" x2="24" y2="24" gradientUnits="userSpaceOnUse">
<stop stop-color="#467CF3"/>
<stop offset="1" stop-color="#467CF3" stop-opacity="0.41"/>
</linearGradient>
</defs>
</svg>
