<svg width="24" height="24" viewBox="0 0 24 24" fill="none" xmlns="http://www.w3.org/2000/svg">
<path d="M6.49702 3.50002H17.8784C18.1607 3.49853 18.4376 3.5777 18.6765 3.72821C18.9154 3.87871 19.1063 4.0943 19.2269 4.34962C19.3499 4.60364 19.398 4.88749 19.3655 5.16787C19.333 5.44825 19.2212 5.71354 19.0432 5.93263L14.5372 11.5304V19.4305C14.5386 19.636 14.4801 19.8375 14.3688 20.0102C14.2575 20.183 14.0983 20.3195 13.9106 20.4032C13.7239 20.4889 13.5164 20.5186 13.3132 20.4887C13.11 20.4587 12.9198 20.3704 12.7658 20.2344L10.2029 17.9919C9.97101 17.7899 9.83859 17.4964 9.83859 17.188V11.5304L5.33219 5.93221C5.15423 5.71311 5.04242 5.44782 5.00989 5.16744C4.97736 4.88706 5.02545 4.60321 5.14851 4.34919C5.39925 3.82465 5.9161 3.50002 6.49702 3.50002Z" fill="#467CF3"/>
</svg>
