<svg width="16" height="16" viewBox="0 0 16 16" fill="none" xmlns="http://www.w3.org/2000/svg">
<path d="M13.28 1.95369L9.06567 7.18985V14.125L7.18627 12.4809V7.19023L2.97153 1.95369C2.94834 1.92652 2.93377 1.89306 2.92968 1.85757C2.9256 1.82209 2.93219 1.78619 2.9486 1.75446C2.96306 1.72195 2.98686 1.69447 3.01698 1.67553C3.0471 1.65658 3.08218 1.64703 3.11774 1.64809H13.1334C13.1691 1.64706 13.2044 1.65666 13.2346 1.67567C13.2648 1.69467 13.2888 1.72223 13.3033 1.75484C13.3195 1.78658 13.3259 1.82241 13.3218 1.85779C13.3176 1.89318 13.3031 1.92655 13.28 1.95369ZM13.1334 0.520038H3.11812C2.60692 0.520038 2.15211 0.805715 1.93147 1.26731C1.82317 1.49085 1.78086 1.74063 1.80949 1.98737C1.83811 2.2341 1.9365 2.46756 2.0931 2.66036L6.05863 7.58679V12.5655C6.05863 12.8369 6.17515 13.0951 6.37925 13.2729L8.63453 15.2463C8.77003 15.366 8.93736 15.4437 9.11618 15.47C9.29501 15.4964 9.47764 15.4703 9.64189 15.3948C9.80707 15.3212 9.9472 15.201 10.0451 15.049C10.1431 14.897 10.1946 14.7197 10.1933 14.5389V7.58679L14.1585 2.66074C14.3151 2.46794 14.4134 2.23448 14.4421 1.98774C14.4707 1.74101 14.4284 1.49122 14.3201 1.26769C14.214 1.043 14.046 0.853286 13.8358 0.720841C13.6256 0.588395 13.3819 0.51873 13.1334 0.520038Z" fill="#646A73"/>
</svg>
