<svg width="40" height="40" viewBox="0 0 40 40" fill="none" xmlns="http://www.w3.org/2000/svg">
<rect width="40" height="40" rx="20" fill="#DEDEFF"/>
<path d="M27.875 18.5529H20C19.7016 18.5529 19.4155 18.668 19.2045 18.8728C18.9935 19.0776 18.875 19.3554 18.875 19.6451V25.1058H12.125C11.8266 25.1058 11.5405 24.9908 11.3295 24.786C11.1185 24.5811 11 24.3033 11 24.0137V13.0922C11 12.8025 11.1185 12.5247 11.3295 12.3199C11.5405 12.1151 11.8266 12 12.125 12H26.75C27.0484 12 27.3345 12.1151 27.5455 12.3199C27.7565 12.5247 27.875 12.8025 27.875 13.0922V18.5529ZM14.375 25.1058L17.75 25.1113L15.3644 27.8095C15.2896 27.8941 15.1899 27.9545 15.0787 27.9825C14.9674 28.0105 14.85 28.0048 14.7423 27.9661C14.6345 27.9273 14.5415 27.8575 14.4759 27.766C14.4102 27.6744 14.375 27.5655 14.375 27.454V25.1058ZM20.5625 19.6451H28.4375C28.5867 19.6451 28.7298 19.7026 28.8352 19.805C28.9407 19.9074 29 20.0463 29 20.1912V25.6519C29 25.7236 28.9855 25.7946 28.9572 25.8609C28.9289 25.9271 28.8875 25.9873 28.8352 26.0381C28.783 26.0888 28.721 26.129 28.6528 26.1564C28.5845 26.1839 28.5114 26.198 28.4375 26.198H20.5625C20.4886 26.198 20.4155 26.1839 20.3472 26.1564C20.279 26.129 20.217 26.0888 20.1648 26.0381C20.1125 25.9873 20.0711 25.9271 20.0428 25.8609C20.0145 25.7946 20 25.7236 20 25.6519V20.1912C20 20.1194 20.0145 20.0484 20.0428 19.9822C20.0711 19.9159 20.1125 19.8557 20.1648 19.805C20.217 19.7543 20.279 19.7141 20.3472 19.6866C20.4155 19.6592 20.4886 19.6451 20.5625 19.6451ZM23.0938 24.0137C23.3175 24.0137 23.5321 23.9274 23.6904 23.7738C23.8486 23.6202 23.9375 23.4118 23.9375 23.1946C23.9375 22.9773 23.8486 22.769 23.6904 22.6154C23.5321 22.4618 23.3175 22.3755 23.0938 22.3755C22.87 22.3755 22.6554 22.4618 22.4971 22.6154C22.3389 22.769 22.25 22.9773 22.25 23.1946C22.25 23.4118 22.3389 23.6202 22.4971 23.7738C22.6554 23.9274 22.87 24.0137 23.0938 24.0137ZM25.9063 24.0137C26.13 24.0137 26.3446 23.9274 26.5029 23.7738C26.6611 23.6202 26.75 23.4118 26.75 23.1946C26.75 22.9773 26.6611 22.769 26.5029 22.6154C26.3446 22.4618 26.13 22.3755 25.9063 22.3755C25.6825 22.3755 25.4679 22.4618 25.3096 22.6154C25.1514 22.769 25.0625 22.9773 25.0625 23.1946C25.0625 23.4118 25.1514 23.6202 25.3096 23.7738C25.4679 23.9274 25.6825 24.0137 25.9063 24.0137Z" fill="#5A5AFE"/>
</svg>
