<svg width="31" height="31" viewBox="0 0 31 31" fill="none" xmlns="http://www.w3.org/2000/svg">
<rect x="0.5" y="0.5" width="30" height="30" rx="4" fill="#E3E7ED"/>
<path fill-rule="evenodd" clip-rule="evenodd" d="M15.5002 22.5876H7.75403C7.75403 21.0594 8.01751 20.0055 9.28219 19.5313L9.53238 19.4377C10.7557 18.981 12.2419 18.4261 13.1289 17.6869C14.0547 16.9 13.9639 16.8044 13.7496 16.5784L13.7496 16.5784C13.7199 16.5471 13.6879 16.5134 13.6559 16.4749C13.287 16.0534 13.2343 14.9995 13.2343 14.9995C12.1277 14.6833 12.3912 12.8917 12.6547 12.8917C12.9181 12.8917 12.9181 12.7863 12.7601 11.8378C12.5493 10.6258 12.6547 9.99345 13.2343 9.25572C13.814 8.51799 15.5002 8.4126 15.5002 8.4126C15.5002 8.4126 17.1865 8.51799 17.7661 9.25572C18.3457 9.99345 18.4511 10.6258 18.2404 11.8378C18.0823 12.7863 18.0823 12.8917 18.3457 12.8917C18.6092 12.8917 18.82 14.6833 17.7661 14.9995C17.7661 14.9995 17.7134 16.0534 17.3445 16.4749C17.3125 16.5134 17.2805 16.5471 17.2508 16.5784L17.2508 16.5784C17.0365 16.8044 16.9457 16.9 17.8715 17.6869C18.82 18.4774 20.4535 19.1097 21.7182 19.5313C22.9829 19.9528 23.2464 21.0594 23.2464 22.5876H15.5002ZM23.8261 21.7972H26.3554C26.3554 20.6906 26.1446 19.8474 25.1961 19.5313C24.2476 19.2151 23.0356 18.7409 22.3506 18.1612C21.6539 17.5574 21.7351 17.4858 21.9085 17.3329C21.9318 17.3124 21.9568 17.2904 21.9817 17.2654C22.2452 16.9492 22.2979 16.1588 22.2979 16.1588C23.0883 15.948 22.9303 14.6306 22.7195 14.6306C22.5087 14.6306 22.5087 14.5779 22.6668 13.8402C22.8249 12.9444 22.7722 12.4701 22.2979 11.9432C21.8764 11.3635 20.6117 11.3108 20.6117 11.3108C20.6117 11.3108 19.347 11.3635 18.9254 11.9432C18.8727 11.9959 18.8332 12.0617 18.7937 12.1276C18.7542 12.1935 18.7146 12.2594 18.662 12.3121C18.662 12.3121 19.1362 12.5755 19.1889 13.1025C19.2416 13.5767 19.2416 14.051 18.9781 14.736C18.7146 15.4211 18.6093 15.7899 19.1889 16.3169C19.5051 16.5804 19.2943 17.7396 19.2943 17.7396C19.2943 17.7396 20.7698 18.5301 22.3506 19.057C23.9842 19.584 23.8261 21.7972 23.8261 21.7972ZM4.64502 21.7972H7.17438C7.17438 21.7972 7.0163 19.584 8.64985 19.057C10.2307 18.5301 11.7062 17.7396 11.7062 17.7396C11.7062 17.7396 11.4954 16.5804 11.8116 16.3169C12.3912 15.7899 12.2858 15.4211 12.0223 14.736C11.7589 14.051 11.7589 13.5767 11.8116 13.1025C11.8642 12.5755 12.3385 12.3121 12.3385 12.3121C12.2858 12.2594 12.2463 12.1935 12.2068 12.1276C12.1672 12.0617 12.1277 11.9959 12.075 11.9432C11.6535 11.3635 10.3888 11.3108 10.3888 11.3108C10.3888 11.3108 9.1241 11.3635 8.70254 11.9432C8.22829 12.4701 8.17559 12.9444 8.33368 13.8402C8.49176 14.5779 8.49176 14.6306 8.28098 14.6306C8.0702 14.6306 7.91211 15.948 8.70254 16.1588C8.70254 16.1588 8.75524 16.9492 9.01871 17.2654C9.04369 17.2904 9.06868 17.3124 9.09199 17.3329C9.26539 17.4858 9.34659 17.5574 8.64985 18.1612C7.96481 18.7409 6.75282 19.2151 5.80431 19.5313C4.8558 19.8474 4.64502 20.6906 4.64502 21.7972Z" fill="#467CF3"/>
</svg>
