<svg width="20" height="20" viewBox="0 0 20 20" fill="none" xmlns="http://www.w3.org/2000/svg">
<circle cx="10" cy="10" r="10" fill="#FDB205" fill-opacity="0.13"/>
<path d="M13.0566 13.6905C13.0566 13.9403 13.2593 14.1429 13.5094 14.1429H15.6377C15.8378 14.1429 16 13.9808 16 13.781V13.5502C16 13.3073 15.8243 13.0281 15.6076 12.9225L13.614 11.951C13.3237 11.8095 13.2588 11.4966 13.4665 11.2507L13.5938 11.0999C13.8519 10.7942 14.0629 10.2195 14.0629 9.81866V9.217C14.0629 8.44039 13.4321 7.80952 12.6541 7.80952C11.8776 7.80952 11.2453 8.43958 11.2453 9.21678V9.81835C11.2453 10.2195 11.4553 10.7926 11.7144 11.0994L11.8417 11.2502C12.0066 11.4454 12.0018 11.6378 11.8501 11.7795C11.7952 11.8307 11.795 11.9293 11.8621 11.9629L12.6038 12.3333C12.8824 12.4691 13.0566 12.9258 13.0566 13.2381V13.6905Z" fill="#FDB205"/>
<path fill-rule="evenodd" clip-rule="evenodd" d="M4.45283 14.1429C4.20274 14.1429 4 13.9403 4 13.6905V13.3808C4 13.0709 4.22558 12.7097 4.5045 12.5737L7.06768 11.3241C7.43942 11.1429 7.52585 10.7415 7.25741 10.4237L7.0937 10.2298C6.7606 9.83541 6.49057 9.09858 6.49057 8.58277V7.80933C6.49057 6.81007 7.30356 6 8.30189 6C9.30225 6 10.1132 6.81111 10.1132 7.80962V8.58318C10.1132 9.09849 9.84193 9.83748 9.51008 10.2305L9.34636 10.4243C9.07941 10.7405 9.1628 11.1428 9.5361 11.3248L12.0993 12.5738C12.3779 12.7096 12.6038 13.0685 12.6038 13.3808V13.6905C12.6038 13.9403 12.401 14.1429 12.1509 14.1429H4.45283Z" fill="#FDB205"/>
</svg>
