<svg width="40" height="40" viewBox="0 0 40 40" fill="none" xmlns="http://www.w3.org/2000/svg">
<rect width="40" height="40" rx="4" fill="#FDB205"/>
<path d="M27 27.7C27 28.3075 27.4925 28.8 28.1 28.8H33.27C33.756 28.8 34.15 28.406 34.15 27.92V27.3588C34.15 26.7682 33.7233 26.0893 33.1968 25.8326L28.3541 23.4703C27.6488 23.1263 27.4912 22.3653 27.9956 21.7674L28.3049 21.4008C28.9319 20.6576 29.4444 19.26 29.4444 18.2854V16.8224C29.4444 14.934 27.9123 13.4 26.0222 13.4C24.136 13.4 22.6 14.932 22.6 16.8219V18.2846C22.6 19.2601 23.1102 20.6536 23.7395 21.3996L24.0488 21.7662C24.4494 22.241 24.4378 22.7088 24.0691 23.0533C23.9359 23.1778 23.9353 23.4177 24.0983 23.4992L25.9 24.4C26.5768 24.7301 27 25.8407 27 26.6V27.7Z" fill="white"/>
<path fill-rule="evenodd" clip-rule="evenodd" d="M6.1 28.8C5.49249 28.8 5 28.3075 5 27.7V26.947C5 26.1934 5.54797 25.3151 6.22551 24.9845L12.4519 21.9461C13.3549 21.5054 13.5649 20.5294 12.9128 19.7565L12.5151 19.2852C11.7059 18.3261 11.05 16.5344 11.05 15.2802V13.3995C11.05 10.9697 13.0249 9 15.45 9C17.8801 9 19.85 10.9723 19.85 13.4002V15.2812C19.85 16.5342 19.191 18.3311 18.3849 19.2867L17.9872 19.7581C17.3387 20.5268 17.5413 21.5052 18.4481 21.9476L24.6745 24.9847C25.3513 25.3149 25.9 26.1877 25.9 26.947V27.7C25.9 28.3075 25.4075 28.8 24.8 28.8H6.1Z" fill="white"/>
</svg>
