<svg width="16" height="10" viewBox="0 0 16 10" fill="none" xmlns="http://www.w3.org/2000/svg">
<path fill-rule="evenodd" clip-rule="evenodd" d="M8.01439 9.81248H2.65218C2.65218 8.75463 2.83457 8.02508 3.71003 7.69678L3.88322 7.63203C4.73004 7.31587 5.75885 6.93177 6.3729 6.42006C7.01376 5.87533 6.95093 5.80911 6.80256 5.6527C6.78202 5.63106 6.75985 5.60769 6.73768 5.58108C6.48233 5.28926 6.44586 4.5597 6.44586 4.5597C5.67983 4.34084 5.86221 3.1006 6.0446 3.1006C6.22699 3.1006 6.22699 3.02764 6.11756 2.37105C5.97165 1.53206 6.0446 1.09433 6.44586 0.583642C6.84711 0.0729556 8.01439 0 8.01439 0C8.01439 0 9.18168 0.0729556 9.58293 0.583642C9.98419 1.09433 10.0571 1.53206 9.91123 2.37105C9.8018 3.02764 9.8018 3.1006 9.98419 3.1006C10.1666 3.1006 10.3125 4.34084 9.58293 4.5597C9.58293 4.5597 9.54645 5.28926 9.29111 5.58108C9.26894 5.60768 9.24678 5.63104 9.22625 5.65268C9.07787 5.80909 9.01503 5.87533 9.65589 6.42006C10.3125 6.96723 11.4433 7.40496 12.3188 7.69678C13.1942 7.9886 13.3766 8.75463 13.3766 9.81248H8.01439ZM13.7779 9.26532H15.5288C15.5288 8.49929 15.3829 7.91564 14.7263 7.69678C14.0697 7.47791 13.2307 7.14961 12.7565 6.74836C12.2742 6.33036 12.3304 6.28081 12.4504 6.175C12.4666 6.16078 12.4839 6.14553 12.5012 6.12824C12.6835 5.90937 12.72 5.36221 12.72 5.36221C13.2672 5.2163 13.1578 4.30436 13.0118 4.30436C12.8659 4.30436 12.8659 4.26788 12.9754 3.75719C13.0848 3.13707 13.0483 2.80878 12.72 2.444C12.4282 2.04275 11.5527 2.00627 11.5527 2.00627C11.5527 2.00627 10.6773 2.04275 10.3855 2.444C10.349 2.48048 10.3216 2.52607 10.2943 2.57167C10.2669 2.61727 10.2395 2.66287 10.2031 2.69934C10.2031 2.69934 10.5314 2.88173 10.5678 3.24651C10.6043 3.57481 10.6043 3.9031 10.4219 4.37731C10.2395 4.85152 10.1666 5.10687 10.5678 5.47164C10.7867 5.65403 10.6408 6.45654 10.6408 6.45654C10.6408 6.45654 11.6622 7.0037 12.7565 7.36848C13.8873 7.73326 13.7779 9.26532 13.7779 9.26532ZM0.5 9.26532H2.25093C2.25093 9.26532 2.14149 7.73326 3.2723 7.36848C4.36663 7.0037 5.388 6.45654 5.388 6.45654C5.388 6.45654 5.24209 5.65403 5.46096 5.47164C5.86221 5.10687 5.78926 4.85152 5.60687 4.37731C5.42448 3.9031 5.42448 3.57481 5.46096 3.24651C5.49744 2.88173 5.82573 2.69934 5.82573 2.69934C5.78926 2.66287 5.7619 2.61727 5.73454 2.57167C5.70718 2.52607 5.67982 2.48048 5.64335 2.444C5.35152 2.04275 4.47606 2.00627 4.47606 2.00627C4.47606 2.00627 3.6006 2.04275 3.30878 2.444C2.98048 2.80878 2.944 3.13707 3.05343 3.75719C3.16287 4.26788 3.16287 4.30436 3.01696 4.30436C2.87105 4.30436 2.76161 5.2163 3.30878 5.36221C3.30878 5.36221 3.34526 5.90937 3.52764 6.12824C3.54494 6.14553 3.56223 6.16078 3.57837 6.175C3.69841 6.28081 3.75461 6.33036 3.2723 6.74836C2.79809 7.14961 1.95911 7.47791 1.30251 7.69678C0.645911 7.91564 0.5 8.49929 0.5 9.26532Z" fill="#467CF3"/>
</svg>
