<svg width="35" height="35" viewBox="0 0 35 35" fill="none" xmlns="http://www.w3.org/2000/svg">
<rect width="35" height="35" rx="4" fill="#467CF3"/>
<path fill-rule="evenodd" clip-rule="evenodd" d="M16.8634 25.7686H7.37199C7.37199 23.8962 7.69483 22.6048 9.24445 22.0237C9.34486 21.986 9.44716 21.9478 9.55101 21.9091C11.0499 21.3495 12.871 20.6696 13.9579 19.7638C15.0923 18.7996 14.9811 18.6824 14.7184 18.4056C14.6821 18.3672 14.6428 18.3259 14.6036 18.2788C14.1516 17.7622 14.087 16.4709 14.087 16.4709C12.7311 16.0835 13.0539 13.8882 13.3768 13.8882C13.6996 13.8882 13.6996 13.759 13.5059 12.5968C13.2477 11.1117 13.3768 10.3369 14.087 9.43299C14.7973 8.52904 16.8634 8.3999 16.8634 8.3999C16.8634 8.3999 18.9296 8.52904 19.6399 9.43299C20.3501 10.3369 20.4792 11.1117 20.221 12.5968C20.0273 13.759 20.0273 13.8882 20.3501 13.8882C20.6729 13.8882 20.9312 16.0835 19.6399 16.4709C19.6399 16.4709 19.5753 17.7622 19.1233 18.2788C19.0841 18.3259 19.0448 18.3672 19.0085 18.4055L19.0085 18.4056C18.7458 18.6824 18.6346 18.7996 19.769 19.7638C20.9312 20.7323 22.9328 21.5072 24.4824 22.0237C26.0321 22.5402 26.3549 23.8962 26.3549 25.7686H16.8634ZM27.0652 24.8001H30.1645C30.1645 23.4442 29.9062 22.4111 28.744 22.0237C27.5817 21.6363 26.0967 21.0552 25.2573 20.3449C24.4036 19.605 24.5031 19.5173 24.7155 19.3301C24.7441 19.3049 24.7747 19.2779 24.8053 19.2473C25.1282 18.8599 25.1927 17.8914 25.1927 17.8914C26.1613 17.6331 25.9675 16.0189 25.7093 16.0189C25.451 16.0189 25.451 15.9543 25.6447 15.0504C25.8384 13.9527 25.7738 13.3716 25.1927 12.7259C24.6762 12.0157 23.1266 11.9511 23.1266 11.9511C23.1266 11.9511 21.5769 12.0157 21.0604 12.7259C20.9958 12.7905 20.9474 12.8712 20.899 12.9519C20.8506 13.0326 20.8021 13.1133 20.7376 13.1779C20.7376 13.1779 21.3187 13.5008 21.3832 14.1464C21.4478 14.7275 21.4478 15.3087 21.125 16.148C20.8021 16.9874 20.673 17.4394 21.3832 18.0851C21.7706 18.4079 21.5124 19.8284 21.5124 19.8284C21.5124 19.8284 23.3203 20.7969 25.2573 21.4426C27.2589 22.0883 27.0652 24.8001 27.0652 24.8001ZM3.5625 24.8001H6.66175C6.66175 24.8001 6.46805 22.0883 8.46965 21.4426C10.4067 20.7969 12.2146 19.8284 12.2146 19.8284C12.2146 19.8284 11.9563 18.4079 12.3437 18.0851C13.054 17.4394 12.9248 16.9874 12.602 16.148C12.2791 15.3087 12.2791 14.7275 12.3437 14.1464C12.4083 13.5008 12.9894 13.1779 12.9894 13.1779C12.9248 13.1133 12.8764 13.0326 12.828 12.9519C12.7795 12.8712 12.7311 12.7905 12.6666 12.7259C12.15 12.0157 10.6004 11.9511 10.6004 11.9511C10.6004 11.9511 9.05076 12.0157 8.53422 12.7259C7.95311 13.3716 7.88854 13.9527 8.08224 15.0504C8.27595 15.9543 8.27595 16.0189 8.01767 16.0189C7.7594 16.0189 7.5657 17.6331 8.53422 17.8914C8.53422 17.8914 8.59878 18.8599 8.92162 19.2473C8.95223 19.2779 8.98285 19.3049 9.01142 19.3301C9.22388 19.5173 9.32337 19.605 8.46965 20.3449C7.63027 21.0552 6.14521 21.6363 4.98299 22.0237C3.82077 22.4111 3.5625 23.4442 3.5625 24.8001Z" fill="white"/>
<circle cx="25.2" cy="23.7998" r="6.5" fill="#467CF3" stroke="white"/>
<path d="M25.2 23.6295C24.8361 24.4115 24.1921 25.0749 23.268 25.6198L22.7136 25.0371C23.6492 24.4771 24.2643 23.7885 24.5589 22.9712C24.6455 22.7088 24.7119 22.4439 24.7581 22.1766H22.5316V27.2998H21.7V21.4803H24.8534C24.8938 21.0465 24.9141 20.653 24.9141 20.2998H25.7544C25.7544 20.7135 25.7371 21.107 25.7024 21.4803H28.7V26.3614C28.7 26.9315 28.3996 27.2166 27.799 27.2166H26.4388L26.2136 26.4976L27.5217 26.5355C27.7528 26.5355 27.8683 26.4245 27.8683 26.2025V22.1766H25.6158C25.5523 22.4894 25.4974 22.7366 25.4512 22.9182C26.3175 23.6144 27.0481 24.3056 27.643 24.9917L27.0106 25.5441C26.5717 24.9639 25.9681 24.3258 25.2 23.6295Z" fill="white"/>
</svg>
