<svg width="35" height="35" viewBox="0 0 35 35" fill="none" xmlns="http://www.w3.org/2000/svg">
<rect width="35" height="35" rx="4" fill="#F5BC60"/>
<path fill-rule="evenodd" clip-rule="evenodd" d="M16.8634 25.7686H7.37199C7.37199 23.8962 7.69483 22.6048 9.24445 22.0237C9.34486 21.986 9.44716 21.9478 9.55101 21.9091C11.0499 21.3495 12.871 20.6696 13.9579 19.7638C15.0923 18.7996 14.9811 18.6824 14.7184 18.4056C14.6821 18.3672 14.6428 18.3259 14.6036 18.2788C14.1516 17.7622 14.087 16.4709 14.087 16.4709C12.7311 16.0835 13.0539 13.8882 13.3768 13.8882C13.6996 13.8882 13.6996 13.759 13.5059 12.5968C13.2477 11.1117 13.3768 10.3369 14.087 9.43299C14.7973 8.52904 16.8634 8.3999 16.8634 8.3999C16.8634 8.3999 18.9296 8.52904 19.6399 9.43299C20.3501 10.3369 20.4792 11.1117 20.221 12.5968C20.0273 13.759 20.0273 13.8882 20.3501 13.8882C20.6729 13.8882 20.9312 16.0835 19.6399 16.4709C19.6399 16.4709 19.5753 17.7622 19.1233 18.2788C19.0841 18.3259 19.0448 18.3672 19.0085 18.4055L19.0085 18.4056C18.7458 18.6824 18.6346 18.7996 19.769 19.7638C20.9312 20.7323 22.9328 21.5072 24.4824 22.0237C26.0321 22.5402 26.3549 23.8962 26.3549 25.7686H16.8634ZM27.0652 24.8001H30.1644C30.1644 23.4442 29.9062 22.4111 28.744 22.0237C27.5817 21.6363 26.0967 21.0552 25.2573 20.3449C24.4036 19.605 24.5031 19.5173 24.7155 19.3301C24.7441 19.3049 24.7747 19.2779 24.8053 19.2473C25.1282 18.8599 25.1927 17.8914 25.1927 17.8914C26.1613 17.6331 25.9675 16.0189 25.7093 16.0189C25.451 16.0189 25.451 15.9543 25.6447 15.0504C25.8384 13.9527 25.7738 13.3716 25.1927 12.7259C24.6762 12.0157 23.1266 11.9511 23.1266 11.9511C23.1266 11.9511 21.5769 12.0157 21.0604 12.7259C20.9958 12.7905 20.9474 12.8712 20.899 12.9519C20.8506 13.0326 20.8021 13.1133 20.7376 13.1779C20.7376 13.1779 21.3187 13.5008 21.3832 14.1464C21.4478 14.7275 21.4478 15.3087 21.125 16.148C20.8021 16.9874 20.673 17.4394 21.3832 18.0851C21.7706 18.4079 21.5124 19.8284 21.5124 19.8284C21.5124 19.8284 23.3203 20.7969 25.2573 21.4426C27.2589 22.0883 27.0652 24.8001 27.0652 24.8001ZM3.5625 24.8001H6.66175C6.66175 24.8001 6.46805 22.0883 8.46965 21.4426C10.4067 20.7969 12.2146 19.8284 12.2146 19.8284C12.2146 19.8284 11.9563 18.4079 12.3437 18.0851C13.054 17.4394 12.9248 16.9874 12.602 16.148C12.2791 15.3087 12.2791 14.7275 12.3437 14.1464C12.4083 13.5008 12.9894 13.1779 12.9894 13.1779C12.9248 13.1133 12.8764 13.0326 12.828 12.9519C12.7795 12.8712 12.7311 12.7905 12.6666 12.7259C12.15 12.0157 10.6004 11.9511 10.6004 11.9511C10.6004 11.9511 9.05076 12.0157 8.53422 12.7259C7.95311 13.3716 7.88854 13.9527 8.08224 15.0504C8.27594 15.9543 8.27594 16.0189 8.01767 16.0189C7.7594 16.0189 7.5657 17.6331 8.53422 17.8914C8.53422 17.8914 8.59878 18.8599 8.92162 19.2473C8.95223 19.2779 8.98285 19.3049 9.01141 19.3301C9.22388 19.5173 9.32337 19.605 8.46965 20.3449C7.63027 21.0552 6.14521 21.6363 4.98299 22.0237C3.82077 22.4111 3.5625 23.4442 3.5625 24.8001Z" fill="white"/>
<path d="M33.1001 23.7998C33.1001 27.3897 30.1899 30.2998 26.6001 30.2998C23.0102 30.2998 20.1001 27.3897 20.1001 23.7998C20.1001 20.21 23.0102 17.2998 26.6001 17.2998C30.1899 17.2998 33.1001 20.21 33.1001 23.7998Z" fill="#F5BC60" stroke="white"/>
<path d="M28.4228 20.3074H29.2816V22.5571C30.0211 23.0081 30.7606 23.5097 31.5001 24.062L30.9723 24.7385C30.3282 24.1659 29.7646 23.7073 29.2816 23.3628V27.2998H28.4228V20.3074ZM24.9876 23.2944C25.4468 23.4971 25.8733 23.7352 26.2669 24.0088C26.6187 23.4058 26.8633 22.737 27.0004 22.0023H25.4081C24.9847 22.8434 24.4121 23.5477 23.6905 24.1152L23.1001 23.492C24.102 22.7015 24.7819 21.6375 25.1397 20.2998L25.9896 20.4214C25.9001 20.7558 25.8077 21.0522 25.7122 21.3107H27.8324V21.9491C27.5282 24.2495 26.2192 25.9849 23.9052 27.1554L23.3237 26.5398C24.4091 26.0229 25.259 25.3693 25.8733 24.5788C25.4558 24.29 25.0115 24.0494 24.5404 23.8568L24.9876 23.2944Z" fill="white"/>
</svg>
