<svg width="30" height="30" viewBox="0 0 30 30" fill="none" xmlns="http://www.w3.org/2000/svg">
<g id="&#229;&#173;&#152;&#230;&#161;&#163;">
<path id="Vector 1237" d="M23.5041 8.61553L19.2328 4.54917C19.0469 4.37216 18.8 4.27344 18.5433 4.27344H7.18457C6.63229 4.27344 6.18457 4.72115 6.18457 5.27344V24.7305C6.18457 25.2828 6.63229 25.7305 7.18457 25.7305H22.8146C23.3669 25.7305 23.8146 25.2828 23.8146 24.7305V9.3398C23.8146 9.06605 23.7024 8.80428 23.5041 8.61553Z" stroke="#467CF3" stroke-width="2" stroke-linejoin="round"/>
<path id="Vector 1238" d="M9.68457 4.98438V7.58984C9.68457 8.14213 10.1323 8.58984 10.6846 8.58984H16.288C16.8403 8.58984 17.288 8.14213 17.288 7.58984V4.98438" stroke="#467CF3" stroke-width="1.5" stroke-linejoin="round"/>
<path id="Vector 1239" d="M9.68457 25.7305V20.2891C9.68457 19.7368 10.1323 19.2891 10.6846 19.2891H17.5766C18.1289 19.2891 18.5766 19.7368 18.5766 20.2891V25.7305" stroke="#467CF3" stroke-width="1.5" stroke-linejoin="round"/>
</g>
</svg>
