<svg width="30" height="30" viewBox="0 0 30 30" fill="none" xmlns="http://www.w3.org/2000/svg">
<g id="&#230;&#157;&#131;&#233;&#153;&#144; 1">
<path id="Vector" d="M14.7334 16.4531C13.0811 16.4531 11.5254 15.8086 10.3594 14.6396C9.19043 13.4707 8.5459 11.918 8.5459 10.2656C8.5459 8.61328 9.19043 7.05762 10.3594 5.8916C11.5283 4.72559 13.0811 4.07812 14.7334 4.07812C16.3857 4.07812 17.9414 4.72266 19.1074 5.8916C20.2764 7.06055 20.9209 8.61328 20.9209 10.2656C20.9209 11.918 20.2764 13.4736 19.1074 14.6396C17.9414 15.8086 16.3887 16.4531 14.7334 16.4531ZM14.7334 5.95312C12.3545 5.95312 10.4209 7.88672 10.4209 10.2656C10.4209 12.6445 12.3545 14.5781 14.7334 14.5781C17.1123 14.5781 19.0459 12.6445 19.0459 10.2656C19.0459 7.88672 17.1123 5.95312 14.7334 5.95312ZM22.1602 22.2568C21.3047 22.2568 20.4521 21.9316 19.7988 21.2812C18.498 19.9805 18.498 17.8623 19.7988 16.5615C21.0996 15.2607 23.2178 15.2607 24.5186 16.5615C25.8193 17.8623 25.8193 19.9805 24.5186 21.2812C23.8682 21.9316 23.0156 22.2568 22.1602 22.2568ZM22.1602 17.458C21.7852 17.458 21.4102 17.6016 21.126 17.8857C20.5547 18.457 20.5547 19.3828 21.126 19.9541C21.6973 20.5254 22.623 20.5254 23.1943 19.9541C23.7656 19.3828 23.7656 18.457 23.1943 17.8857C22.9072 17.6016 22.5352 17.458 22.1602 17.458Z" fill="#467CF3"/>
<path id="Vector_2" d="M5.44043 25.7666C4.92187 25.7666 4.50293 25.3477 4.50293 24.8291C4.50293 23.4492 4.77246 22.1074 5.30566 20.8477C5.82129 19.6289 6.55957 18.5361 7.49707 17.5957C8.4375 16.6553 9.53027 15.9199 10.749 15.4043C12.0117 14.8711 13.3506 14.6016 14.7305 14.6016C15.249 14.6016 15.668 15.0205 15.668 15.5391C15.668 16.0576 15.249 16.4766 14.7305 16.4766C10.1221 16.4766 6.375 20.2236 6.375 24.832C6.37793 25.3477 5.95898 25.7666 5.44043 25.7666ZM19.3037 24.9463L18.1641 23.8066C17.7979 23.4404 17.7979 22.8457 18.1641 22.4795C18.5303 22.1133 19.125 22.1133 19.4912 22.4795L20.6309 23.6191C20.9971 23.9854 20.9971 24.5801 20.6309 24.9463C20.2646 25.3125 19.6699 25.3125 19.3037 24.9463Z" fill="#467CF3"/>
<path id="Vector_3" d="M20.6926 22.0081L17.0452 25.6526C16.679 26.0188 16.0842 26.0188 15.718 25.6526C15.3518 25.2864 15.3518 24.6917 15.718 24.3254L19.3655 20.6809C19.7317 20.3147 20.3264 20.3147 20.6926 20.6809C21.0559 21.0471 21.0559 21.6418 20.6926 22.0081Z" fill="#467CF3"/>
</g>
</svg>
