<svg width="30" height="30" viewBox="0 0 30 30" fill="none" xmlns="http://www.w3.org/2000/svg">
<g id="&#232;&#174;&#176;&#229;&#189;&#149;">
<path id="Subtract" fill-rule="evenodd" clip-rule="evenodd" d="M9.63031 4.96875C9.56447 5.18502 9.52905 5.41455 9.52905 5.65234C9.52905 6.14035 9.6782 6.59351 9.93339 6.96875H7.87695V24.6914H22.1233V6.96875H20.0666C20.3218 6.59351 20.4709 6.14035 20.4709 5.65234C20.4709 5.41455 20.4355 5.18502 20.3697 4.96875H22.1233C23.2279 4.96875 24.1233 5.86418 24.1233 6.96875V24.6914C24.1233 25.796 23.2279 26.6914 22.1233 26.6914H7.87695C6.77238 26.6914 5.87695 25.796 5.87695 24.6914V6.96875C5.87695 5.86418 6.77238 4.96875 7.87695 4.96875H9.63031Z" fill="#467CF3"/>
<rect id="Rectangle 17947" x="9.5293" y="3.3125" width="10.9419" height="4.6875" rx="2.34375" stroke="#467CF3" stroke-width="2"/>
<path id="Line 113" d="M10.668 11.7734H19.3316" stroke="#467CF3" stroke-width="1.5" stroke-linecap="round"/>
<path id="Line 114" d="M10.668 16.6484H19.3316" stroke="#467CF3" stroke-width="1.5" stroke-linecap="round"/>
<path id="Line 115" d="M10.668 21.5234H19.3316" stroke="#467CF3" stroke-width="1.5" stroke-linecap="round"/>
</g>
</svg>
