<svg width="30" height="30" viewBox="0 0 30 30" fill="none" xmlns="http://www.w3.org/2000/svg">
<g id="&#232;&#174;&#190;&#231;&#189;&#174;&#233;&#163;&#142;&#230;&#142;&#167;">
<g id="Group 1000006593">
<path id="Vector" d="M13.9844 15.6822C14.413 15.6822 14.788 15.3072 14.788 14.8786L15.1095 9.78911C15.1095 9.36052 15.1095 8.66406 13.9844 8.66406C12.9129 8.66406 12.8594 9.36052 12.8594 9.78911L13.1808 14.8786C13.1808 15.3072 13.5558 15.6822 13.9844 15.6822ZM13.9844 16.593C13.3951 16.593 12.8594 17.0752 12.8594 17.718C12.8594 18.3074 13.3415 18.8431 13.9844 18.8431C14.6273 18.8431 15.1095 18.3609 15.1095 17.718C15.1095 17.1287 14.5737 16.593 13.9844 16.593Z" fill="#467CF3"/>
<path id="Subtract" fill-rule="evenodd" clip-rule="evenodd" d="M14.1876 3.86462C14.0536 3.83679 13.9152 3.83679 13.7812 3.86462L5.40808 5.60272C4.94403 5.69905 4.61133 6.10791 4.61133 6.58185V20.0474C4.61133 20.3962 4.79313 20.7199 5.09105 20.9014L13.4651 26.0031C13.7847 26.1978 14.1862 26.1977 14.5058 26.003L16.1838 24.9805C15.7765 24.4539 15.4597 23.8537 15.2569 23.2033L13.9853 23.9781L6.61133 19.4856V7.39559L13.9844 5.86507L21.3576 7.39559V15.8775C22.0738 15.9633 22.749 16.1826 23.3576 16.5096V6.58185C23.3576 6.1079 23.0249 5.69905 22.5609 5.60272L14.1876 3.86462Z" fill="#467CF3"/>
<path id="Polygon 6" d="M22.6865 17.7229C22.5972 17.5682 22.4322 17.4729 22.2535 17.4729L18.5734 17.4729C18.3947 17.4729 18.2297 17.5682 18.1403 17.7229L16.3003 20.91C16.2109 21.0647 16.2109 21.2553 16.3003 21.41L18.1403 24.5972C18.2297 24.7519 18.3947 24.8472 18.5734 24.8472L22.2535 24.8472C22.4322 24.8472 22.5972 24.7519 22.6865 24.5972L24.5266 21.41C24.6159 21.2553 24.6159 21.0647 24.5266 20.91L22.6865 17.7229Z" stroke="#467CF3" stroke-linejoin="round"/>
<circle id="Ellipse 1701" cx="20.4138" cy="21.158" r="1.58306" transform="rotate(30 20.4138 21.158)" stroke="#467CF3"/>
</g>
</g>
</svg>
