<svg width="30" height="30" viewBox="0 0 30 30" fill="none" xmlns="http://www.w3.org/2000/svg">
<rect width="30" height="30" rx="15" fill="#F5F5F5"/>
<g clip-path="url(#clip0_2890_3322)">
<path d="M15.0399 24.6299C9.74994 24.6299 5.43994 20.3199 5.43994 15.0299C5.43994 9.73993 9.74994 5.42993 15.0399 5.42993C20.3299 5.42993 24.6399 9.73993 24.6399 15.0299C24.6399 20.3199 20.3299 24.6299 15.0399 24.6299ZM15.0399 6.62993C10.4099 6.62993 6.63994 10.3999 6.63994 15.0299C6.63994 19.6599 10.4099 23.4299 15.0399 23.4299C19.6699 23.4299 23.4399 19.6599 23.4399 15.0299C23.4399 10.3999 19.6699 6.62993 15.0399 6.62993Z" fill="#616266"/>
<path d="M15.06 18.8199C14.73 18.8199 14.46 18.5499 14.46 18.2199V17.1999C14.46 16.3099 15.12 15.7599 15.71 15.2799C15.84 15.1699 15.98 15.0599 16.1 14.9499C16.92 14.2099 17.3 13.3699 17.1 12.7399C16.9 12.1399 16.42 11.6799 15.76 11.4799C15.1 11.2799 14.4 11.3999 13.93 11.7699C12.85 12.6499 12.92 13.7499 12.92 13.7999C12.95 14.1299 12.71 14.4199 12.38 14.4499C12.05 14.4799 11.76 14.2299 11.73 13.8999C11.72 13.8299 11.59 12.1299 13.19 10.8399C13.97 10.2099 15.07 10.0199 16.11 10.3299C17.15 10.6399 17.93 11.3799 18.25 12.3699C18.6 13.4699 18.1 14.7599 16.91 15.8399C16.77 15.9699 16.62 16.0899 16.48 16.2099C15.97 16.6299 15.67 16.8999 15.67 17.1999V18.2099C15.66 18.5499 15.39 18.8199 15.06 18.8199Z" fill="#616266"/>
<path d="M14.34 20.1499C14.34 20.3409 14.4158 20.524 14.5508 20.659C14.6859 20.7941 14.869 20.8699 15.06 20.8699C15.2509 20.8699 15.4341 20.7941 15.5691 20.659C15.7041 20.524 15.78 20.3409 15.78 20.1499C15.78 19.959 15.7041 19.7758 15.5691 19.6408C15.4341 19.5058 15.2509 19.4299 15.06 19.4299C14.869 19.4299 14.6859 19.5058 14.5508 19.6408C14.4158 19.7758 14.34 19.959 14.34 20.1499Z" fill="#616266"/>
</g>
<defs>
<clipPath id="clip0_2890_3322">
<rect width="20" height="20" fill="white" transform="translate(5 5)"/>
</clipPath>
</defs>
</svg>
