<svg width="30" height="31" viewBox="0 0 30 31" fill="none" xmlns="http://www.w3.org/2000/svg">
<g clip-path="url(#clip0_1567_118855)">
<path d="M15.0401 25.4463C9.75006 25.4463 5.44006 21.1363 5.44006 15.8463C5.44006 10.5563 9.75006 6.24634 15.0401 6.24634C20.3301 6.24634 24.6401 10.5563 24.6401 15.8463C24.6401 21.1363 20.3301 25.4463 15.0401 25.4463ZM15.0401 7.44634C10.4101 7.44634 6.64006 11.2163 6.64006 15.8463C6.64006 20.4763 10.4101 24.2463 15.0401 24.2463C19.6701 24.2463 23.4401 20.4763 23.4401 15.8463C23.4401 11.2163 19.6701 7.44634 15.0401 7.44634Z" fill="#616266"/>
<path d="M15.0601 19.6365C14.7301 19.6365 14.4601 19.3665 14.4601 19.0365V18.0165C14.4601 17.1265 15.1201 16.5765 15.7101 16.0965C15.8401 15.9865 15.9801 15.8765 16.1001 15.7665C16.9201 15.0265 17.3001 14.1865 17.1001 13.5565C16.9001 12.9565 16.4201 12.4965 15.7601 12.2965C15.1001 12.0965 14.4001 12.2165 13.9301 12.5865C12.8501 13.4665 12.9201 14.5665 12.9201 14.6165C12.9501 14.9465 12.7101 15.2365 12.3801 15.2665C12.0501 15.2965 11.7601 15.0465 11.7301 14.7165C11.7201 14.6465 11.5901 12.9465 13.1901 11.6565C13.9701 11.0265 15.0701 10.8365 16.1101 11.1465C17.1501 11.4565 17.9301 12.1965 18.2501 13.1865C18.6001 14.2865 18.1001 15.5765 16.9101 16.6565C16.7701 16.7865 16.6201 16.9065 16.4801 17.0265C15.9701 17.4465 15.6701 17.7165 15.6701 18.0165V19.0265C15.6601 19.3665 15.3901 19.6365 15.0601 19.6365Z" fill="#616266"/>
<path d="M14.3401 20.9663C14.3401 21.1573 14.4159 21.3404 14.5509 21.4755C14.686 21.6105 14.8691 21.6863 15.0601 21.6863C15.251 21.6863 15.4341 21.6105 15.5692 21.4755C15.7042 21.3404 15.7801 21.1573 15.7801 20.9663C15.7801 20.7754 15.7042 20.5922 15.5692 20.4572C15.4341 20.3222 15.251 20.2463 15.0601 20.2463C14.8691 20.2463 14.686 20.3222 14.5509 20.4572C14.4159 20.5922 14.3401 20.7754 14.3401 20.9663Z" fill="#616266"/>
</g>
<defs>
<clipPath id="clip0_1567_118855">
<rect width="20" height="20" fill="white" transform="translate(5.00006 5.81641)"/>
</clipPath>
</defs>
</svg>
