<svg width="18" height="34" viewBox="0 0 18 34" fill="none" xmlns="http://www.w3.org/2000/svg">
<mask id="path-1-inside-1_1931_108705" fill="white">
<path d="M0 4C0 1.79086 1.79086 0 4 0H18V34H4C1.79086 34 0 32.2091 0 30V4Z"/>
</mask>
<path d="M0 4C0 1.79086 1.79086 0 4 0H18V34H4C1.79086 34 0 32.2091 0 30V4Z" fill="white"/>
<path fill-rule="evenodd" clip-rule="evenodd" d="M11.3988 20.7968L7.46738 17.2227C7.32988 17.1127 7.32988 16.8928 7.46738 16.7828L11.3988 13.2087C11.4813 13.1537 11.5088 13.0438 11.5088 12.9612C11.5088 12.6588 11.1514 12.5214 10.9314 12.7138L6.69756 16.5628C6.42266 16.8103 6.42266 17.2227 6.69756 17.4426L10.9314 21.2916C11.1514 21.4841 11.5088 21.3191 11.5088 21.0442C11.5088 20.9342 11.4813 20.8518 11.3988 20.7968Z" fill="#606266" stroke="#606266" stroke-width="0.5"/>
<path d="M-1 4C-1 1.23858 1.23858 -1 4 -1H18V1H4C2.34315 1 1 2.34315 1 4H-1ZM18 35H4C1.23858 35 -1 32.7614 -1 30H1C1 31.6569 2.34315 33 4 33H18V35ZM4 35C1.23858 35 -1 32.7614 -1 30V4C-1 1.23858 1.23858 -1 4 -1V1C2.34315 1 1 2.34315 1 4V30C1 31.6569 2.34315 33 4 33V35ZM18 0V34V0Z" fill="#D0D3D6" mask="url(#path-1-inside-1_1931_108705)"/>
</svg>
