<svg width="16" height="16" viewBox="0 0 16 16" fill="none" xmlns="http://www.w3.org/2000/svg">
<path d="M7.9991 3.95692C10.4837 3.95692 12.4976 6.11146 12.4976 8.76951V12.2845C12.4976 12.4125 12.45 12.5353 12.3654 12.6258C12.2808 12.7164 12.166 12.7672 12.0463 12.7672H3.95142C3.83174 12.7672 3.71696 12.7164 3.63234 12.6258C3.54771 12.5353 3.50017 12.4125 3.50017 12.2845V8.76951C3.50017 6.11146 5.51453 3.95692 7.9991 3.95692ZM7.60426 1.30176H8.39394C8.42386 1.30176 8.45255 1.31447 8.47371 1.33711C8.49486 1.35974 8.50675 1.39044 8.50675 1.42245V2.87072C8.50675 2.90272 8.49486 2.93342 8.47371 2.95606C8.45255 2.97869 8.42386 2.9914 8.39394 2.9914H7.60426C7.57434 2.9914 7.54564 2.97869 7.52449 2.95606C7.50333 2.93342 7.49145 2.90272 7.49145 2.87072V1.42245C7.49145 1.39044 7.50333 1.35974 7.52449 1.33711C7.54564 1.31447 7.57434 1.30176 7.60426 1.30176ZM3.27861 3.16713C3.28909 3.15589 3.30154 3.14697 3.31524 3.14089C3.32895 3.1348 3.34364 3.13167 3.35848 3.13167C3.37332 3.13167 3.38801 3.1348 3.40172 3.14089C3.41542 3.14697 3.42787 3.15589 3.43835 3.16713L4.39544 4.19154C4.41652 4.21416 4.42836 4.2448 4.42836 4.27674C4.42836 4.30869 4.41652 4.33933 4.39544 4.36195L3.83725 4.9596C3.82677 4.97084 3.81432 4.97976 3.80062 4.98584C3.78691 4.99193 3.77222 4.99506 3.75738 4.99506C3.74254 4.99506 3.72785 4.99193 3.71414 4.98584C3.70044 4.97976 3.68799 4.97084 3.67751 4.9596L2.72042 3.93519C2.69934 3.91257 2.6875 3.88193 2.6875 3.84999C2.6875 3.81804 2.69934 3.7874 2.72042 3.76478L3.27861 3.16713ZM12.7209 3.16713L13.2796 3.76478C13.3007 3.7874 13.3125 3.81804 13.3125 3.84999C13.3125 3.88193 13.3007 3.91257 13.2796 3.93519L12.322 4.9596C12.3009 4.98215 12.2723 4.99482 12.2424 4.99482C12.2125 4.99482 12.1839 4.98215 12.1627 4.9596L11.6041 4.36195C11.583 4.33933 11.5712 4.30869 11.5712 4.27674C11.5712 4.2448 11.583 4.21416 11.6041 4.19154L12.5617 3.16713C12.5828 3.14458 12.6114 3.13191 12.6413 3.13191C12.6712 3.13191 12.6998 3.14458 12.7209 3.16713ZM3.48663 13.7327H12.5116C12.6312 13.7327 12.746 13.7836 12.8306 13.8741C12.9153 13.9647 12.9628 14.0875 12.9628 14.2155V14.5776C12.9628 14.6096 12.9509 14.6403 12.9298 14.6629C12.9086 14.6855 12.8799 14.6982 12.85 14.6982H3.1482C3.11828 14.6982 3.08959 14.6855 3.06843 14.6629C3.04727 14.6403 3.03539 14.6096 3.03539 14.5776V14.2155C3.03539 14.0875 3.08293 13.9647 3.16755 13.8741C3.25218 13.7836 3.36696 13.7327 3.48663 13.7327ZM5.75739 10.0504V12.7672H6.34268V10.0103L5.75739 10.0504Z" fill="#EA4C4C"/>
<path d="M5.55524 9.50586C5.55524 9.22972 5.77909 9.00586 6.05524 9.00586C6.33138 9.00586 6.55524 9.22972 6.55524 9.50586V13H5.55524V9.50586Z" fill="white"/>
</svg>
