<svg width="14" height="14" viewBox="0 0 14 14" fill="none" xmlns="http://www.w3.org/2000/svg">
<path fill-rule="evenodd" clip-rule="evenodd" d="M7 14C10.866 14 14 10.866 14 7C14 3.13401 10.866 0 7 0C3.13401 0 0 3.13401 0 7C0 10.866 3.13401 14 7 14ZM7.00303 10.22C7.26937 10.22 7.49854 10.1344 7.68801 9.96216C7.88551 9.78908 7.98 9.58228 7.98 9.33538C7.98 9.09395 7.88551 8.88034 7.68801 8.7086C7.49805 8.52957 7.26937 8.44349 7.00303 8.44349C6.73666 8.44349 6.50197 8.52958 6.3115 8.7086C6.11449 8.88034 6.02 9.09395 6.02 9.33538C6.02 9.58228 6.11449 9.78908 6.3115 9.96216C6.50197 10.1344 6.73666 10.22 7.00303 10.22ZM7.00303 3.78C6.71858 3.78 6.48287 3.872 6.29944 4.05012C6.11501 4.23414 6.02001 4.4587 6.02001 4.72336C6.02001 4.8068 6.07553 5.08639 6.15135 5.46821C6.28373 6.13486 6.47799 7.11317 6.5467 7.90327H7.46688C7.54655 7.15454 7.71661 6.2365 7.83914 5.57501C7.91989 5.13907 7.98 4.81456 7.98 4.72336C7.98 4.4528 7.88551 4.22822 7.70763 4.05012C7.52368 3.86609 7.28848 3.78 7.00303 3.78Z" fill="#F41313"/>
</svg>
