<svg width="14" height="14" viewBox="0 0 14 14" fill="none" xmlns="http://www.w3.org/2000/svg">
<path fill-rule="evenodd" clip-rule="evenodd" d="M7 14C10.866 14 14 10.866 14 7C14 3.13401 10.866 0 7 0C3.13401 0 0 3.13401 0 7C0 10.866 3.13401 14 7 14ZM7.00305 10.2203C7.26939 10.2203 7.49856 10.1346 7.68803 9.96241C7.88553 9.78934 7.98002 9.58254 7.98002 9.33564C7.98002 9.09421 7.88553 8.88059 7.68803 8.70885C7.49807 8.52982 7.26939 8.44375 7.00305 8.44375C6.73668 8.44375 6.50199 8.52984 6.31152 8.70885C6.1145 8.88059 6.02002 9.09421 6.02002 9.33564C6.02002 9.58254 6.1145 9.78934 6.31152 9.96241C6.50199 10.1346 6.73668 10.2203 7.00305 10.2203ZM7.00305 3.78125C6.7186 3.78125 6.48289 3.87325 6.29946 4.05137C6.11503 4.23539 6.02003 4.45995 6.02003 4.72461C6.02003 4.80805 6.07555 5.08764 6.15137 5.46946C6.28375 6.13611 6.47801 7.11442 6.54672 7.90452H7.4669C7.54657 7.15579 7.71662 6.23775 7.83916 5.57626C7.91991 5.14032 7.98002 4.81581 7.98002 4.72461C7.98002 4.45405 7.88553 4.22947 7.70765 4.05137C7.5237 3.86734 7.2885 3.78125 7.00305 3.78125Z" fill="#F41313"/>
</svg>
