<svg width="16" height="16" viewBox="0 0 16 16" fill="none" xmlns="http://www.w3.org/2000/svg">
<path fill-rule="evenodd" clip-rule="evenodd" d="M8.00005 1C4.13979 1 1 4.14005 1 7.99983C1 11.8599 4.13979 15 8.00005 15C11.8598 15 15 11.8599 15 7.99983C15 4.14004 11.8597 1 8.00005 1ZM8.00005 13.9955C4.69367 13.9955 2.00436 11.3055 2.00436 7.99988C2.00436 4.69401 4.69367 2.00459 8.00005 2.00459C11.3053 2.00459 13.9957 4.69398 13.9957 7.99988C13.9957 11.3055 11.3053 13.9955 8.00005 13.9955ZM7.36406 11.8188C6.72813 11.8188 6.72813 11.1828 6.72813 11.1828L7.36406 8C7.36406 8 7.36406 7.36406 6.72813 7.36406C6.72813 7.36406 6.09219 7.36406 6.09219 6.72813H8C8 6.72813 8.63594 6.72813 8.63594 7.36406C8.63594 8 8 9.90938 8 10.5453C8 11.1813 8.63594 11.1812 8.63594 11.1812H9.27188C9.27188 11.1812 9.27188 11.8188 7.36406 11.8188ZM8.63594 5.45469C8.28438 5.45469 8 5.17031 8 4.81875C8 4.46719 8.28438 4.18281 8.63594 4.18281C8.9875 4.18281 9.27188 4.46719 9.27188 4.81875C9.27344 5.17031 8.9875 5.45469 8.63594 5.45469Z" fill="#467CF3"/>
</svg>
