<svg width="16" height="16" viewBox="0 0 16 16" fill="none" xmlns="http://www.w3.org/2000/svg">
<g id="form/search2">
<path id="&#229;&#189;&#162;&#231;&#138;&#182;" fill-rule="evenodd" clip-rule="evenodd" d="M14.6959 13.2236L12.7169 11.2417C13.4821 10.1794 13.9329 8.87564 13.9329 7.46651C13.9329 3.8951 11.0378 1 7.46651 1C3.89509 1 1 3.89512 1 7.46651C1 11.0379 3.89509 13.933 7.46651 13.933C8.87809 13.933 10.184 13.4806 11.2473 12.713L13.2266 14.6953C13.6323 15.1016 14.2901 15.1016 14.6959 14.6953C15.1014 14.289 15.1014 13.6301 14.6959 13.2236ZM7.46653 12.3164C4.78786 12.3164 2.61653 10.145 2.61653 7.4665C2.61653 4.78796 4.78786 2.61661 7.46653 2.61661C10.145 2.61661 12.3164 4.78796 12.3164 7.4665C12.3164 10.145 10.145 12.3164 7.46653 12.3164Z" fill="#646A73"/>
</g>
</svg>
