<svg width="20" height="20" viewBox="0 0 20 20" fill="none" xmlns="http://www.w3.org/2000/svg">
<circle cx="10" cy="10" r="10" fill="#E7EEFD"/>
<path d="M8.23223 9.26765C7.76339 8.79882 7.5 8.16295 7.5 7.49993C7.5 6.83691 7.76339 6.20104 8.23223 5.73221C8.70107 5.26338 9.33696 5 10 5C10.663 5 11.2989 5.26338 11.7678 5.73221C12.2366 6.20104 12.5 6.83691 12.5 7.49993C12.5 8.16295 12.2366 8.79882 11.7678 9.26765C11.2989 9.73648 10.663 9.99986 10 9.99986C9.33696 9.99986 8.70107 9.73648 8.23223 9.26765Z" fill="#467CF3"/>
<path fill-rule="evenodd" clip-rule="evenodd" d="M10 10.8561L10.7935 10.0626C12.8651 10.3933 14.5128 11.9966 14.909 14.0456C15.0096 14.5661 14.5702 15 14.04 15H5.96C5.42981 15 4.99037 14.5661 5.09103 14.0456C5.48723 11.9966 7.1349 10.3933 9.20647 10.0626L10 10.8561ZM9.14397 13.4297L10 14.2857L10.856 13.4308L10 10.8595L9.14397 13.4297Z" fill="#467CF3"/>
</svg>
