<svg width="16" height="16" viewBox="0 0 16 16" fill="none" xmlns="http://www.w3.org/2000/svg">
<path fill-rule="evenodd" clip-rule="evenodd" d="M10.1683 8.97425C10.169 8.813 10.1412 8.65275 10.0857 8.5H10.104C12.5312 9.10125 14.5 10.6045 14.5 12.362V13.4925C14.4975 14.3225 13.7732 14.9952 12.8775 15H3.1225C2.22675 14.9952 1.5025 14.3225 1.5 13.4925V12.362C1.5 10.6175 3.46875 9.10125 5.89125 8.5C5.83975 8.6535 5.8135 8.8135 5.81375 8.97425V10.4775C5.81225 10.877 5.98275 11.2605 6.28725 11.5433C6.59175 11.826 7.00525 11.985 7.43625 11.985H8.54525C8.9765 11.985 9.39 11.826 9.6945 11.5433C9.99875 11.2605 10.1693 10.877 10.1683 10.4775V8.97425ZM8.00001 7.99999C7.99734 8 7.99467 8 7.992 8H8.008C8.00534 8 8.00267 8 8.00001 7.99999ZM11.5 4.50175C11.5 6.42909 9.93383 7.99568 8.00001 7.99999C6.0739 7.99568 4.5 6.43258 4.5 4.50175C4.5 2.56825 6.0705 1 8.008 1C9.94525 1 11.5 2.57175 11.5 4.50175ZM7.25 9.335C7.25 8.87375 7.58575 8.5 8 8.5H8.01675C8.20975 8.506 8.3935 8.59325 8.531 8.744C8.6715 8.90075 8.75025 9.11325 8.75 9.335V10.165C8.75 10.6263 8.41425 11 8 11C7.58575 11 7.25 10.6263 7.25 10.165V9.335Z" fill="#467CF3"/>
</svg>
