<svg width="21" height="22" viewBox="0 0 21 22" fill="none" xmlns="http://www.w3.org/2000/svg">
<rect y="0.5" width="21" height="21" rx="10.5" fill="#467CF3"/>
<path d="M8.35642 9.38937C7.71842 8.75139 7.36 7.88612 7.36 6.98389C7.36 6.08166 7.71842 5.21638 8.35642 4.57841C8.99441 3.94044 9.85972 3.58203 10.762 3.58203C11.6643 3.58203 12.5296 3.94044 13.1676 4.57841C13.8056 5.21638 14.164 6.08166 14.164 6.98389C14.164 7.88612 13.8056 8.75139 13.1676 9.38937C12.5296 10.0273 11.6643 10.3857 10.762 10.3857C9.85972 10.3857 8.99441 10.0273 8.35642 9.38937Z" fill="white"/>
<path fill-rule="evenodd" clip-rule="evenodd" d="M10.762 11.551L11.8418 10.4712C14.8064 10.9444 17.133 13.3328 17.5119 16.3278C17.5717 16.8012 17.1791 17.1898 16.702 17.1898H4.822C4.34483 17.1898 3.95224 16.8012 4.01212 16.3278C4.39097 13.3328 6.71758 10.9444 9.68216 10.4712L10.762 11.551ZM9.59711 15.0531L10.762 16.2179L11.9269 15.0546L10.762 11.5555L9.59711 15.0531Z" fill="white"/>
</svg>
