<svg width="40" height="40" viewBox="0 0 40 40" fill="none" xmlns="http://www.w3.org/2000/svg">
<rect width="40" height="40" rx="20" fill="#D0F9FF"/>
<path fill-rule="evenodd" clip-rule="evenodd" d="M22.7103 21.2178C22.7113 21.0162 22.6766 20.8159 22.6072 20.625H22.63C25.6641 21.3766 28.125 23.2556 28.125 25.4525V26.8656C28.1219 27.9031 27.2166 28.7441 26.0969 28.75H13.9031C12.7834 28.7441 11.8781 27.9031 11.875 26.8656V25.4525C11.875 23.2719 14.3359 21.3766 17.3641 20.625C17.2997 20.8169 17.2669 21.0169 17.2672 21.2178V23.0969C17.2653 23.5962 17.4784 24.0756 17.8591 24.4291C18.2397 24.7825 18.7566 24.9812 19.2953 24.9812H20.6816C21.2206 24.9812 21.7375 24.7825 22.1181 24.4291C22.4984 24.0756 22.7116 23.5962 22.7103 23.0969V21.2178ZM20 20C19.9967 20 19.9933 20 19.99 20H20.01C20.0067 20 20.0033 20 20 20ZM24.375 15.6272C24.375 18.0364 22.4173 19.9946 20 20C17.5924 19.9946 15.625 18.0407 15.625 15.6272C15.625 13.2103 17.5881 11.25 20.01 11.25C22.4316 11.25 24.375 13.2147 24.375 15.6272ZM19.0625 21.6687C19.0625 21.0922 19.4822 20.625 20 20.625H20.0209C20.2622 20.6325 20.4919 20.7416 20.6637 20.93C20.8394 21.1259 20.9378 21.3916 20.9375 21.6687V22.7063C20.9375 23.2828 20.5178 23.75 20 23.75C19.4822 23.75 19.0625 23.2828 19.0625 22.7063V21.6687Z" fill="#05E1FF"/>
</svg>
