<svg width="48" height="48" viewBox="0 0 48 48" fill="none" xmlns="http://www.w3.org/2000/svg">
<rect width="48" height="48" rx="6" fill="#F2F3F5"/>
<path d="M23.9999 23.4527C26.3276 23.4527 28.2146 21.5657 28.2146 19.238C28.2146 16.9104 26.3276 15.0234 23.9999 15.0234C21.6723 15.0234 19.7853 16.9104 19.7853 19.238C19.7853 21.5657 21.6723 23.4527 23.9999 23.4527Z" stroke="#4E5969" stroke-width="1.5" stroke-linecap="round" stroke-linejoin="round"/>
<path d="M14.7031 32.6473V32.6473C14.7031 32.9897 14.9807 33.2672 15.323 33.2672H32.6799C33.0223 33.2672 33.2998 32.9897 33.2998 32.6473V32.6473C33.2998 30.3328 33.2998 29.1756 32.8494 28.2916C32.4532 27.514 31.8209 26.8818 31.0433 26.4856C30.1593 26.0352 29.0021 26.0352 26.6876 26.0352H21.3153C19.0008 26.0352 17.8436 26.0352 16.9596 26.4856C16.182 26.8818 15.5498 27.514 15.1536 28.2916C14.7031 29.1756 14.7031 30.3328 14.7031 32.6473Z" stroke="#4E5969" stroke-width="1.5" stroke-linecap="round" stroke-linejoin="round"/>
</svg>
