<svg width="35" height="35" viewBox="0 0 35 35" fill="none" xmlns="http://www.w3.org/2000/svg">
<rect width="35" height="35" rx="4" fill="#EDF2F8"/>
<path fill-rule="evenodd" clip-rule="evenodd" d="M17.5 10.0194C18.6834 9.997 19.6619 10.9267 19.6875 12.0978H24.9406C25.6471 12.0822 26.2329 12.6357 26.25 13.3349V22.0813H8.75V12.0978V10.0194H17.5Z" fill="#557CEC"/>
<path d="M10.5908 19.2978H24.4064V12.803H10.5908V19.2978Z" fill="white"/>
<path d="M26.25 23.6277V15.6793C26.2435 15.4014 26.1254 15.1376 25.9219 14.9461C25.7185 14.7546 25.4463 14.6512 25.1656 14.6586H9.85312C9.57105 14.6469 9.29593 14.7471 9.08882 14.937C8.88171 15.1269 8.75975 15.3907 8.75 15.67V23.603C8.759 23.9467 8.90566 24.2728 9.15769 24.5095C9.40971 24.7461 9.74645 24.874 10.0938 24.8648H24.9062C25.6194 24.8824 26.2162 24.333 26.25 23.6277Z" fill="#7DA6FF"/>
</svg>
