<svg width="16" height="16" viewBox="0 0 16 16" fill="none" xmlns="http://www.w3.org/2000/svg">
<path fill-rule="evenodd" clip-rule="evenodd" d="M8 2.01546C8.9467 1.9975 9.7295 2.74124 9.75 3.67814H13.9525C14.5177 3.66569 14.9864 4.10849 15 4.66783V11.6649H1V3.67814V2.01546H8Z" fill="#E27A00"/>
<path d="M2.47253 9.43819H13.525V4.24231H2.47253V9.43819Z" fill="white"/>
<path d="M15 12.9021V6.54331C14.9948 6.32105 14.9003 6.11 14.7375 5.95679C14.5748 5.80359 14.3571 5.72083 14.1325 5.72681H1.8825C1.65684 5.71745 1.43674 5.79761 1.27106 5.94952C1.10537 6.10142 1.0078 6.31249 1 6.53588V12.8823C1.0072 13.1573 1.12453 13.4181 1.32615 13.6075C1.52777 13.7968 1.79716 13.8991 2.075 13.8918H13.925C14.4956 13.9058 14.973 13.4663 15 12.9021Z" fill="#EBAE00"/>
</svg>
