<svg width="16" height="16" viewBox="0 0 16 16" fill="none" xmlns="http://www.w3.org/2000/svg">
<path d="M12.1089 13.9542H1.3888C1.27044 13.9518 1.15981 13.893 1.08906 13.7949C1.01831 13.6968 0.99538 13.5704 1.02693 13.4525L3.46211 6.36754C3.50367 6.19575 3.65262 6.07492 3.82398 6.07397H14.544C14.7899 6.07397 14.9052 6.32375 14.9052 6.57569L12.47 13.6607C12.4285 13.8322 12.2799 13.953 12.1089 13.9542Z" fill="#EBAE00"/>
<path d="M3.46142 6.36754C3.50299 6.19575 3.65194 6.07492 3.82329 6.07398H13.7078V3.78577H3.16901L1.73193 5.311V11.3997L3.46142 6.36754Z" fill="#F4EFDC"/>
<path d="M1.73189 5.31102L3.16896 3.78579H7.00093L5.80418 2.00647H1.42836C1.19644 2.01001 1.011 2.20678 1.0137 2.44645V13.3083L1.06302 13.3111L1.73258 11.3739V5.31102H1.73189Z" fill="#E27A00"/>
<path fill-rule="evenodd" clip-rule="evenodd" d="M3.16901 3.78577V5.311H1.73193L3.16901 3.78577ZM5.06172 5.05691H4.36715V6.07398H5.06172V5.05691ZM8.41443 5.05691H7.71985V6.07398H8.41443V5.05691ZM10.0911 5.05691H9.39655V6.07398H10.0911V5.05691ZM11.0733 5.05691H11.7678V6.07398H11.0733V5.05691ZM6.04315 5.05691H6.73773V6.07398H6.04315V5.05691Z" fill="#909399"/>
</svg>
