<svg width="35" height="36" viewBox="0 0 35 36" fill="none" xmlns="http://www.w3.org/2000/svg">
<rect y="0.953125" width="35" height="35" rx="4" fill="#EDF2F8"/>
<path fill-rule="evenodd" clip-rule="evenodd" d="M17.5 10.9724C18.6834 10.95 19.6619 11.8797 19.6875 13.0508H24.9406C25.6471 13.0352 26.2329 13.5887 26.25 14.2879V23.0343H8.75V13.0508V10.9724H17.5Z" fill="#557CEC"/>
<path d="M10.5906 20.2508H24.4062V13.7559H10.5906V20.2508Z" fill="white"/>
<path d="M26.25 24.5807V16.6323C26.2435 16.3544 26.1254 16.0906 25.9219 15.8991C25.7185 15.7076 25.4463 15.6042 25.1656 15.6116H9.85312C9.57105 15.5999 9.29593 15.7001 9.08882 15.89C8.88171 16.0799 8.75975 16.3437 8.75 16.623V24.556C8.759 24.8997 8.90566 25.2258 9.15769 25.4625C9.40971 25.6991 9.74645 25.827 10.0938 25.8178H24.9062C25.6194 25.8354 26.2162 25.286 26.25 24.5807Z" fill="#7DA6FF"/>
</svg>
