<svg width="304" height="20" viewBox="0 0 304 20" fill="none" xmlns="http://www.w3.org/2000/svg">
<path d="M122.938 4.668H125.248V3.492H126.606V4.668H131.394V3.492H132.752V4.668H135.062V5.914H132.752V11.99H135.328V13.222H122.686V11.99H125.248V5.914H122.938V4.668ZM126.606 11.99H131.394V10.674H126.606V11.99ZM126.606 9.54H131.394V8.294H126.606V9.54ZM126.606 7.16H131.394V5.914H126.606V7.16ZM127.866 14.216C126.746 15.056 125.365 15.7887 123.722 16.414L122.882 15.336C124.487 14.776 125.836 14.1227 126.928 13.376L127.866 14.216ZM130.904 13.432C132.444 13.936 133.849 14.5473 135.118 15.266L134.39 16.414C133.037 15.574 131.651 14.916 130.232 14.44L130.904 13.432ZM141.348 3.954C141.021 5.00867 140.611 5.98867 140.116 6.894V16.47H138.8V8.98C138.483 9.4 138.058 9.90867 137.526 10.506L137.106 9.148C138.497 7.47733 139.509 5.55933 140.144 3.394L141.348 3.954ZM143.462 16.176C142.314 16.176 141.74 15.5833 141.74 14.398V9.162L140.62 9.512V8.168L141.74 7.818V4.808H143.07V7.398L144.806 6.852V3.506H146.136V6.432L149.188 5.466C149.188 8.50867 149.113 10.38 148.964 11.08C148.824 11.724 148.217 12.046 147.144 12.046H146.976L146.584 10.758C146.995 10.7767 147.275 10.786 147.424 10.786C147.62 10.786 147.737 10.632 147.774 10.324C147.811 9.99733 147.835 8.98467 147.844 7.286L146.136 7.818V13.404H144.806V8.224L143.07 8.756V14.216C143.07 14.6733 143.308 14.902 143.784 14.902H147.928C148.236 14.902 148.465 14.8133 148.614 14.636C148.754 14.4493 148.843 13.782 148.88 12.634L150.126 13.054C150.042 14.51 149.869 15.3967 149.608 15.714C149.328 16.022 148.843 16.176 148.152 16.176H143.462ZM152.212 5.48H158.106C157.835 4.92933 157.523 4.40667 157.168 3.912L158.428 3.45C158.82 4.04733 159.165 4.724 159.464 5.48H164.658V6.768H157.378L157.266 8.966H163.034C162.987 11.99 162.857 13.88 162.642 14.636C162.334 15.756 161.629 16.33 160.528 16.358C160.136 16.358 159.599 16.3347 158.918 16.288L158.526 15.084C159.515 15.1213 160.141 15.14 160.402 15.14C160.99 15.112 161.368 14.6827 161.536 13.852C161.611 13.432 161.662 12.2233 161.69 10.226H157.112C156.907 11.3367 156.561 12.326 156.076 13.194C155.395 14.3887 154.433 15.4947 153.192 16.512L152.226 15.588C153.71 14.3373 154.69 13.1847 155.166 12.13C155.633 11.0753 155.903 9.88533 155.978 8.56C156.006 7.776 156.034 7.17867 156.062 6.768H152.212V5.48ZM166.982 5.914H173.688C173.651 5.242 173.632 4.45333 173.632 3.548H175.004C175.004 4.45333 175.023 5.242 175.06 5.914H177.244C176.889 5.26067 176.488 4.65867 176.04 4.108L177.132 3.59C177.608 4.206 178.023 4.81733 178.378 5.424L177.384 5.914H179.26V7.202H175.13C175.298 9.33933 175.62 11.136 176.096 12.592C176.684 14.1507 177.174 14.93 177.566 14.93C177.781 14.9113 178.014 14.16 178.266 12.676L179.47 13.292C179.05 15.3733 178.443 16.4187 177.65 16.428C176.306 16.344 175.214 14.7573 174.374 11.668C174.075 10.352 173.87 8.86333 173.758 7.202H166.982V5.914ZM167.178 9.246H173.198V10.492H170.846V13.726C171.826 13.53 172.792 13.306 173.744 13.054V14.356C171.663 14.86 169.469 15.2753 167.164 15.602L166.856 14.342C167.771 14.23 168.662 14.104 169.53 13.964V10.492H167.178V9.246Z" fill="#8F9396"/>
<path d="M303 10H201" stroke="#D4D4D4" stroke-linecap="round"/>
<path d="M103 10H1" stroke="#D4D4D4" stroke-linecap="round"/>
</svg>
