<svg width="279" height="14" viewBox="0 0 279 14" fill="none" xmlns="http://www.w3.org/2000/svg">
<rect x="0.5" y="6.5" width="98" height="1" fill="#DBDFE6"/>
<path d="M104.376 2.336H106.428V1.16H107.076V2.336H111.924V1.16H112.572V2.336H114.624V2.96H112.572V8.672H114.852V9.284H104.16V8.672H106.428V2.96H104.376V2.336ZM107.076 8.672H111.924V7.112H107.076V8.672ZM107.076 6.548H111.924V5.036H107.076V6.548ZM107.076 4.46H111.924V2.96H107.076V4.46ZM108.444 10.112C107.436 10.88 106.2 11.552 104.736 12.128L104.328 11.6C105.776 11.048 106.996 10.412 107.988 9.692L108.444 10.112ZM110.964 9.704C112.324 10.216 113.56 10.84 114.672 11.576L114.312 12.14C113.104 11.324 111.876 10.676 110.628 10.196L110.964 9.704ZM119.316 1.412C119.02 2.324 118.652 3.196 118.212 4.028V12.2H117.564V5.12C117.132 5.776 116.64 6.404 116.088 7.004L115.884 6.332C117.204 4.796 118.152 3.064 118.728 1.136L119.316 1.412ZM121.344 11.936C120.504 11.936 120.084 11.512 120.084 10.664V5.684L118.944 6.044V5.396L120.084 5.024V2.336H120.744V4.808L122.712 4.172V1.208H123.372V3.956L125.976 3.116C125.976 5.532 125.924 7.02 125.82 7.58C125.708 8.1 125.264 8.36 124.488 8.36H124.272L124.08 7.724L124.62 7.736C124.94 7.736 125.136 7.588 125.208 7.292C125.272 7.02 125.312 5.924 125.328 4.004L123.372 4.628V9.74H122.712V4.844L120.744 5.468V10.58C120.744 11.068 121 11.312 121.512 11.312H125.172C125.508 11.312 125.764 11.224 125.94 11.048C126.092 10.848 126.192 10.192 126.24 9.08L126.852 9.284C126.78 10.524 126.64 11.28 126.432 11.552C126.216 11.808 125.832 11.936 125.28 11.936H121.344ZM128.352 3.056H133.584C133.36 2.504 133.056 1.96 132.672 1.424L133.296 1.196C133.648 1.724 133.964 2.344 134.244 3.056H138.768V3.692H132.396L132.264 6.044H137.268C137.244 8.284 137.168 9.74 137.04 10.412C136.84 11.484 136.264 12.04 135.312 12.08C134.928 12.08 134.464 12.068 133.92 12.044L133.728 11.444C134.528 11.476 135.032 11.492 135.24 11.492C135.936 11.46 136.356 10.972 136.5 10.028C136.572 9.452 136.608 8.332 136.608 6.668H132.192C132.048 7.66 131.76 8.572 131.328 9.404C130.744 10.388 129.924 11.316 128.868 12.188L128.388 11.732C129.668 10.644 130.528 9.636 130.968 8.708C131.368 7.796 131.604 6.752 131.676 5.576C131.716 4.712 131.74 4.084 131.748 3.692H128.352V3.056ZM140.292 3.44H146.268C146.228 2.848 146.208 2.116 146.208 1.244H146.88C146.88 2.124 146.9 2.856 146.94 3.44H150.708V4.088H146.976C147.12 6.232 147.452 8.008 147.972 9.416C148.484 10.728 148.96 11.396 149.4 11.42C149.696 11.356 149.976 10.636 150.24 9.26L150.828 9.56C150.468 11.264 150.004 12.12 149.436 12.128C148.444 12.08 147.588 10.756 146.868 8.156C146.588 7.02 146.4 5.664 146.304 4.088H140.292V3.44ZM140.496 6.26H145.512V6.884H143.328V10.256C144.12 10.112 145.008 9.916 145.992 9.668V10.316C144.28 10.732 142.424 11.08 140.424 11.36L140.268 10.736C141.084 10.64 141.888 10.52 142.68 10.376V6.884H140.496V6.26ZM148.68 1.328C149.128 1.848 149.52 2.38 149.856 2.924L149.304 3.2C148.936 2.616 148.548 2.08 148.14 1.592L148.68 1.328ZM154.248 6.296H160.8V9.092H154.248V6.296ZM160.14 8.504V6.872H154.908V8.504H160.14ZM155.184 9.464C155.6 9.936 155.976 10.504 156.312 11.168H158.772C159.172 10.608 159.516 10.012 159.804 9.38L160.416 9.608C160.104 10.232 159.784 10.752 159.456 11.168H162.6V11.792H152.376V11.168H155.652C155.364 10.64 155.004 10.148 154.572 9.692L155.184 9.464ZM153.252 2.9C153.94 3.388 154.516 3.86 154.98 4.316C155.62 3.74 156.128 3.084 156.504 2.348H153.324V1.736H157.236V2.228C156.868 3.084 156.348 3.848 155.676 4.52H159.768C158.864 3.64 158.172 2.684 157.692 1.652L158.232 1.34C158.464 1.852 158.76 2.36 159.12 2.864C159.704 2.456 160.2 1.984 160.608 1.448L161.076 1.868C160.668 2.388 160.136 2.876 159.48 3.332C159.8 3.716 160.144 4.068 160.512 4.388C161.136 3.932 161.664 3.416 162.096 2.84L162.564 3.26C162.108 3.836 161.58 4.34 160.98 4.772C161.588 5.268 162.296 5.716 163.104 6.116L162.672 6.596C161.568 6.012 160.624 5.344 159.84 4.592V5.132H155.496V4.7C154.664 5.468 153.66 6.1 152.484 6.596L152.088 6.08C153.048 5.672 153.86 5.212 154.524 4.7C154.084 4.284 153.512 3.824 152.808 3.32L153.252 2.9ZM165.588 1.724H172.404V5.636H174.612V6.248H169.752V7.7C170.032 8.044 170.376 8.4 170.784 8.768C171.68 8.28 172.452 7.576 173.1 6.656L173.604 7.076C172.924 7.972 172.128 8.66 171.216 9.14C172.208 9.948 173.356 10.636 174.66 11.204L174.324 11.768C172.404 10.88 170.88 9.776 169.752 8.456V11.216C169.752 11.856 169.468 12.176 168.9 12.176H167.532L167.388 11.564C167.996 11.596 168.424 11.612 168.672 11.612C168.96 11.612 169.104 11.428 169.104 11.06V8.516C167.84 9.708 166.32 10.772 164.544 11.708L164.28 11.108C166.152 10.204 167.76 9.108 169.104 7.82V6.248H164.4V5.636H171.744V4.292H165.996V3.716H171.744V2.324H165.588V1.724ZM165.588 6.848C166.332 7.376 166.956 7.892 167.46 8.396L167.028 8.828C166.564 8.34 165.936 7.82 165.144 7.268L165.588 6.848Z" fill="#909399"/>
<rect x="180.5" y="6.5" width="98" height="1" fill="#DBDFE6"/>
</svg>
