<svg width="30" height="31" viewBox="0 0 30 31" fill="none" xmlns="http://www.w3.org/2000/svg">
<path d="M15.4 5.81641C10.0981 5.81641 5.80005 10.1145 5.80005 15.4164C5.80005 20.7183 10.0981 25.0164 15.4 25.0164C20.702 25.0164 25 20.7183 25 15.4164C25 10.1145 20.702 5.81641 15.4 5.81641ZM15.4 7.18783C19.9372 7.18783 23.6286 10.8793 23.6286 15.4164C23.6286 19.9535 19.9372 23.645 15.4 23.645C10.8629 23.645 7.17148 19.9535 7.17148 15.4164C7.17148 10.8793 10.8629 7.18783 15.4 7.18783ZM13.1148 15.4617C13.1083 15.1539 13.1643 14.848 13.2793 14.5625C13.3943 14.277 13.566 14.0177 13.784 13.8004C14.0013 13.5823 14.2606 13.4106 14.5461 13.2956C14.8316 13.1805 15.1375 13.1246 15.4453 13.1311L19.9253 10.8911L17.6853 15.3712C17.6918 15.6789 17.6358 15.9848 17.5208 16.2703C17.4058 16.5558 17.2341 16.8151 17.0161 17.0324C16.7987 17.2505 16.5394 17.4223 16.2538 17.5374C15.9682 17.6524 15.6622 17.7083 15.3543 17.7017L10.8743 19.9417L13.1148 15.4617ZM15.4 14.5021C15.1626 14.5096 14.9373 14.6092 14.772 14.7799C14.6067 14.9505 14.5142 15.1788 14.5142 15.4164C14.5142 15.654 14.6067 15.8823 14.772 16.0529C14.9373 16.2236 15.1626 16.3232 15.4 16.3307C15.6375 16.3232 15.8628 16.2236 16.0281 16.0529C16.1934 15.8823 16.2859 15.654 16.2859 15.4164C16.2859 15.1788 16.1934 14.9505 16.0281 14.7799C15.8628 14.6092 15.6375 14.5096 15.4 14.5021Z" fill="#616266"/>
</svg>
