<svg width="41" height="40" viewBox="0 0 41 40" fill="none" xmlns="http://www.w3.org/2000/svg">
<rect x="0.5" width="40" height="40" rx="20" fill="#467CF3"/>
<path fill-rule="evenodd" clip-rule="evenodd" d="M15.5002 16.25C15.5002 13.4886 17.7387 11.25 20.5002 11.25C23.2616 11.25 25.5002 13.4886 25.5002 16.25C25.5002 19.0114 23.2616 21.25 20.5002 21.25C17.7387 21.25 15.5002 19.0114 15.5002 16.25ZM17.1668 16.25C17.1668 18.0909 18.6592 19.5833 20.5002 19.5833C22.3411 19.5833 23.8335 18.0909 23.8335 16.25C23.8335 14.4091 22.3411 12.9167 20.5002 12.9167C18.6592 12.9167 17.1668 14.4091 17.1668 16.25ZM25.5002 27.0833V28.75H27.1668V27.0833C27.1668 24.7822 25.3013 22.9167 23.0002 22.9167H18.0001C15.6989 22.9167 13.8334 24.7822 13.8335 27.0833V28.75H15.5002V27.0833C15.5002 25.7026 16.6194 24.5833 18.0002 24.5833H23.0002C24.3809 24.5833 25.5002 25.7026 25.5002 27.0833Z" fill="white"/>
</svg>
