<svg width="24" height="24" viewBox="0 0 24 24" fill="none" xmlns="http://www.w3.org/2000/svg">
<path d="M18.045 5.12917L13.2558 11.0794V18.9602L11.12 17.0919V11.0798L6.33043 5.12917C6.30407 5.0983 6.28752 5.06027 6.28288 5.01995C6.27824 4.97962 6.28572 4.93883 6.30437 4.90278C6.3208 4.86583 6.34785 4.8346 6.38208 4.81308C6.41631 4.79155 6.45617 4.7807 6.49659 4.78189H17.8784C17.9189 4.78073 17.9589 4.79164 17.9933 4.81323C18.0277 4.83483 18.0549 4.86614 18.0714 4.9032C18.0898 4.93928 18.0971 4.97998 18.0924 5.0202C18.0877 5.06041 18.0712 5.09833 18.045 5.12917ZM17.8784 3.50002H6.49702C5.9161 3.50002 5.39925 3.82465 5.14851 4.34919C5.02545 4.60321 4.97736 4.88706 5.00989 5.16744C5.04242 5.44782 5.15423 5.71311 5.33219 5.93221L9.83859 11.5304V17.188C9.83859 17.4964 9.97101 17.7899 10.2029 17.9919L12.7658 20.2344C12.9198 20.3704 13.11 20.4587 13.3132 20.4887C13.5164 20.5186 13.7239 20.4889 13.9106 20.4032C14.0983 20.3195 14.2575 20.183 14.3688 20.0102C14.4801 19.8375 14.5386 19.636 14.5372 19.4305V11.5304L19.0432 5.93263C19.2212 5.71354 19.333 5.44825 19.3655 5.16787C19.398 4.88749 19.3499 4.60364 19.2269 4.34962C19.1063 4.0943 18.9154 3.87871 18.6765 3.72821C18.4376 3.5777 18.1607 3.49853 17.8784 3.50002Z" fill="#646A73"/>
</svg>
