<svg width="35" height="35" viewBox="0 0 35 35" fill="none" xmlns="http://www.w3.org/2000/svg">
<circle cx="17.5" cy="17.5" r="17.5" fill="#467CF3"/>
<g clip-path="url(#clip0_2257_369165)">
<path d="M19.3688 26.9054L19.7031 24.9621L18.2923 23.5863C17.8026 23.1121 17.6277 22.4709 17.822 21.8762C18.0163 21.2816 18.5332 20.8696 19.2056 20.7724L20.9118 20.5237C20.8379 20.4732 20.7719 20.4227 20.7097 20.3682C20.4959 20.1817 20.3443 19.9835 20.2511 19.7814C20.1578 19.5793 20.1034 19.3694 20.0917 19.1673C20.0801 18.9613 20.0917 18.7592 20.1306 18.561C20.1578 18.4017 20.2005 18.2656 20.2511 18.1529C20.3016 18.0402 20.3677 17.9469 20.4493 17.8653C20.5309 17.7876 20.6203 17.7099 20.7291 17.6399C20.8379 17.5661 20.9467 17.4806 21.0672 17.3717C21.1722 17.2785 21.2654 17.1502 21.3548 16.9831C21.4364 16.8199 21.5142 16.6489 21.5802 16.4778C21.6463 16.2835 21.7085 16.0736 21.759 15.8638C21.8912 15.8249 22.0155 15.755 22.136 15.6461C22.241 15.5529 22.3342 15.4246 22.4236 15.2575C22.5052 15.0904 22.5713 14.8727 22.6102 14.5929C22.6374 14.3791 22.6335 14.2042 22.6024 14.0565C22.5713 13.9089 22.5247 13.7923 22.4741 13.699C22.4236 13.5902 22.3498 13.5086 22.2565 13.458C22.2682 12.9295 22.2371 12.397 22.1554 11.8684C22.0933 11.4176 21.9767 10.9396 21.8096 10.4304C21.6424 9.9213 21.3937 9.45492 21.0633 9.03129C20.9157 8.84473 20.7252 8.66207 20.4842 8.48329C20.2511 8.30451 19.9751 8.14516 19.672 7.99747C19.3649 7.84979 19.0385 7.73319 18.6887 7.63991C18.3389 7.54664 17.9658 7.5 17.5849 7.5C17.2779 7.5 16.9631 7.53109 16.6405 7.58162C16.314 7.63991 15.9953 7.7293 15.6766 7.86145C15.3579 7.99359 15.0431 8.17625 14.7322 8.40944C14.4213 8.64264 14.1415 8.93801 13.8888 9.29557C13.6246 9.67645 13.4225 10.1079 13.2825 10.5859C13.1426 11.0639 13.0455 11.5148 12.9949 11.9384C12.925 12.4436 12.9017 12.9489 12.9133 13.4503C12.8045 13.5863 12.7229 13.7223 12.6724 13.87C12.6179 14.0021 12.583 14.1576 12.5635 14.3364C12.5402 14.5152 12.5635 14.7211 12.6296 14.9427C12.6996 15.1681 12.7773 15.3391 12.8706 15.4596C12.9638 15.5801 13.0493 15.6733 13.131 15.7394C13.2242 15.8094 13.3175 15.8521 13.4108 15.8793C13.4769 16.0892 13.5429 16.2952 13.609 16.4934C13.6751 16.6644 13.745 16.8315 13.8267 16.9986C13.9083 17.1658 13.9977 17.294 14.1065 17.3873C14.3358 17.5738 14.534 17.7526 14.7128 17.9236C14.8916 18.0946 14.9926 18.3395 15.0198 18.6582C15.0315 18.8603 15.0392 19.0468 15.0392 19.2178C15.0392 19.3927 15.0082 19.556 14.9499 19.7153C14.8916 19.8747 14.7827 20.034 14.6312 20.1934C14.4796 20.3527 14.2658 20.5198 13.986 20.6908C13.644 20.9162 13.2437 21.0873 12.7851 21.2077C12.3265 21.3282 10.3288 22.0161 9.89739 22.1638C9.46987 22.3076 9.09288 22.5058 8.77418 22.7585C8.45937 23.0072 8.26116 23.3803 8.17955 23.87C8.0474 24.7173 8.0202 24.8533 8.09016 25.3974C8.16011 25.9376 8.26894 26.2602 8.41662 26.369C8.53711 26.4584 8.87912 26.5672 9.45044 26.6955C10.0218 26.8237 13.6129 27.5 17.7831 27.5C18.3272 27.5 18.8519 27.4883 19.3572 27.465C19.3338 27.2824 19.3377 27.0958 19.3688 26.9054Z" fill="white"/>
<path d="M27.6154 22.1172L25.5361 21.814C25.2174 21.7674 24.8404 21.4953 24.6966 21.2038L23.7678 19.3189C23.6978 19.1751 23.6006 19.1012 23.5074 19.1012C23.4141 19.1012 23.3208 19.1751 23.247 19.3189L22.3181 21.2038C22.1743 21.4914 21.7973 21.7674 21.4786 21.814L19.3993 22.1172C19.0806 22.1638 19.0068 22.3853 19.24 22.6108L20.744 24.076C20.9733 24.3014 21.1172 24.7445 21.0627 25.0632L20.7091 27.1347C20.6702 27.364 20.7596 27.5 20.9189 27.5C20.9811 27.5 21.0511 27.4806 21.1288 27.4378L22.9866 26.4584C23.1304 26.3846 23.3169 26.3457 23.5035 26.3457C23.69 26.3457 23.8805 26.3846 24.0204 26.4584L25.8781 27.4378C25.9559 27.4806 26.0297 27.5 26.088 27.5C26.2473 27.5 26.3367 27.364 26.2979 27.1347L25.9442 25.0632C25.8898 24.7445 26.0336 24.3014 26.2629 24.076L27.767 22.6108C28.0041 22.3853 27.9341 22.1638 27.6154 22.1172Z" fill="white"/>
</g>
<defs>
<clipPath id="clip0_2257_369165">
<rect width="20" height="20" fill="white" transform="translate(8 7.5)"/>
</clipPath>
</defs>
</svg>
