<svg width="116" height="42" viewBox="0 0 116 42" fill="none" xmlns="http://www.w3.org/2000/svg">
<rect x="5.25781" y="5.84375" width="30" height="30" rx="2.4" fill="#467CF3"/>
<g filter="url(#filter0_d_3179_125885)">
<rect x="11.0586" y="11.6406" width="18.4" height="18.4" rx="2.4" fill="white"/>
</g>
<path d="M15.4196 20.4574L16.7113 18.2608C16.9438 17.8655 16.6588 17.3672 16.2002 17.3672C15.8555 17.3672 15.5278 17.5171 15.3025 17.778L13.1927 20.2209C12.8693 20.5955 12.8089 21.1301 13.0407 21.5673L14.2903 23.9246C14.4183 24.1661 14.6692 24.3171 14.9425 24.3171C15.4032 24.3171 15.7514 23.8996 15.6687 23.4464L15.2735 21.2812C15.2218 20.998 15.2736 20.7056 15.4196 20.4574Z" fill="#467CF3"/>
<path d="M25.0453 21.3238L23.7535 23.5204C23.521 23.9158 23.8061 24.4141 24.2647 24.4141C24.6094 24.4141 24.937 24.2641 25.1623 24.0032L27.2721 21.5603C27.5956 21.1858 27.6559 20.6511 27.4242 20.2139L26.1746 17.8566C26.0466 17.6152 25.7956 17.4642 25.5224 17.4642C25.0616 17.4642 24.7135 17.8816 24.7962 18.3349L25.1914 20.5001C25.2431 20.7833 25.1912 21.0757 25.0453 21.3238Z" fill="#467CF3"/>
<path d="M20.045 15.9509C20.1645 15.3091 20.7246 14.8438 21.3774 14.8438C21.9419 14.8439 22.3682 15.3558 22.2659 15.911L20.4576 25.7282C20.3381 26.3773 19.7722 26.8484 19.1123 26.8483C18.5417 26.8483 18.1113 26.3303 18.2158 25.7694L20.045 15.9509Z" fill="#467CF3"/>
<path d="M56.1038 14.2797C55.7225 14.7491 55.2091 15.2844 54.5638 15.8857C53.9185 16.4724 53.1998 17.0737 52.4078 17.6897C51.6158 18.3057 50.7798 18.9217 49.8998 19.5377C49.0198 20.1537 48.1471 20.7184 47.2818 21.2317L45.6978 18.7237C46.6805 18.1957 47.6338 17.6237 48.5578 17.0077C49.4965 16.3771 50.3691 15.7244 51.1758 15.0497C51.9825 14.3751 52.7158 13.6857 53.3758 12.9817C54.0358 12.2777 54.6005 11.5811 55.0698 10.8917H57.1158C58.1278 12.3584 59.4111 13.7517 60.9658 15.0717C62.5351 16.3771 64.3245 17.5797 66.3338 18.6797L64.8378 21.3197C64.0018 20.8797 63.1511 20.3591 62.2858 19.7577C61.4205 19.1564 60.5918 18.5331 59.7998 17.8877C59.0225 17.2424 58.3111 16.6044 57.6658 15.9737C57.0205 15.3431 56.4998 14.7784 56.1038 14.2797ZM57.7978 27.6997H65.1458V30.4278H46.6878V27.6997H49.2178V20.4617L51.9238 20.5717V27.6997H55.0258V17.1837L57.7978 17.2937V21.2317H63.2098V24.0037H57.7978V27.6997ZM79.4321 27.2157C79.4321 27.9051 79.3954 28.4697 79.3221 28.9098C79.2634 29.3644 79.1241 29.7311 78.9041 30.0098C78.6841 30.2884 78.3541 30.4938 77.9141 30.6258C77.4887 30.7724 76.9021 30.8824 76.1541 30.9558L74.1521 31.1538L73.2501 28.1617L74.9881 27.9857C75.3107 27.9564 75.5674 27.9124 75.7581 27.8537C75.9487 27.7951 76.0954 27.6997 76.1981 27.5677C76.3007 27.4211 76.3594 27.2231 76.3741 26.9737C76.4034 26.7244 76.4181 26.4017 76.4181 26.0057V11.6397L79.4101 11.7497L79.4321 27.2157ZM80.4441 16.3257L83.2161 15.3137C83.6561 16.2377 84.0814 17.1324 84.4921 17.9977C84.9027 18.8631 85.3061 19.7431 85.7021 20.6377C86.0981 21.5324 86.4867 22.4637 86.8681 23.4317C87.2494 24.3997 87.6234 25.4411 87.9901 26.5557L85.1081 27.8537C84.6974 26.6071 84.3087 25.4851 83.9421 24.4877C83.5901 23.4757 83.2307 22.5224 82.8641 21.6277C82.4974 20.7331 82.1161 19.8604 81.7201 19.0097C81.3241 18.1591 80.8987 17.2644 80.4441 16.3257ZM74.5701 16.4357C74.2767 17.4477 73.9834 18.4084 73.6901 19.3177C73.3967 20.2271 73.0814 21.1291 72.7441 22.0237C72.4214 22.9037 72.0621 23.7984 71.6661 24.7077C71.2701 25.6171 70.8227 26.5631 70.3241 27.5457L67.5081 26.3357C67.9921 25.4411 68.4321 24.5611 68.8281 23.6957C69.2241 22.8304 69.5907 21.9651 69.9281 21.0997C70.2654 20.2344 70.5734 19.3617 70.8521 18.4817C71.1307 17.5871 71.3947 16.6631 71.6441 15.7097L74.5701 16.4357ZM108.59 20.0877C108.59 20.1611 108.576 20.3884 108.546 20.7697C108.532 21.1511 108.51 21.6131 108.48 22.1557C108.451 22.6837 108.422 23.2484 108.392 23.8497C108.363 24.4511 108.334 25.0231 108.304 25.5657C108.275 26.0937 108.246 26.5484 108.216 26.9297C108.202 27.3111 108.194 27.5384 108.194 27.6117C108.136 28.2424 108.048 28.7557 107.93 29.1518C107.828 29.5478 107.666 29.8631 107.446 30.0978C107.226 30.3471 106.933 30.5304 106.566 30.6478C106.214 30.7651 105.76 30.8458 105.202 30.8898L103.244 31.0658L102.452 28.6017L104.234 28.4477C104.469 28.4331 104.66 28.3964 104.806 28.3377C104.968 28.2791 105.092 28.1911 105.18 28.0737C105.268 27.9417 105.334 27.7804 105.378 27.5897C105.437 27.3844 105.481 27.1351 105.51 26.8417C105.525 26.7244 105.54 26.4604 105.554 26.0497C105.584 25.6391 105.613 25.2064 105.642 24.7517C105.672 24.2824 105.694 23.8424 105.708 23.4317C105.738 23.0211 105.752 22.7571 105.752 22.6397H98.1843L98.9103 15.2257L101.55 15.3797L101.132 20.0877H103.596L104.146 14.5657H98.4263V11.9697H107.116L106.39 20.0877H108.59ZM90.3303 12.3217H97.7003V14.9617H95.1923C95.031 15.6071 94.8623 16.2231 94.6863 16.8097C94.525 17.3964 94.3416 17.9684 94.1363 18.5257H97.5463V29.6358H91.3423V23.7397C91.225 23.9011 91.1076 24.0624 90.9903 24.2237C90.8876 24.3851 90.7776 24.5464 90.6603 24.7077L88.8343 22.4197C89.1716 22.0531 89.5236 21.5911 89.8903 21.0337C90.257 20.4764 90.609 19.8677 90.9463 19.2077C91.2836 18.5331 91.5916 17.8364 91.8703 17.1177C92.149 16.3844 92.369 15.6657 92.5303 14.9617H90.3303V12.3217ZM95.0383 21.1877H93.8283V27.0397H95.0383V21.1877ZM104.872 26.8197H97.9863V24.1797H104.872V26.8197Z" fill="black"/>
<defs>
<filter id="filter0_d_3179_125885" x="6.55859" y="7.14062" width="27.3984" height="27.3984" filterUnits="userSpaceOnUse" color-interpolation-filters="sRGB">
<feFlood flood-opacity="0" result="BackgroundImageFix"/>
<feColorMatrix in="SourceAlpha" type="matrix" values="0 0 0 0 0 0 0 0 0 0 0 0 0 0 0 0 0 0 127 0" result="hardAlpha"/>
<feOffset/>
<feGaussianBlur stdDeviation="2.25"/>
<feComposite in2="hardAlpha" operator="out"/>
<feColorMatrix type="matrix" values="0 0 0 0 0 0 0 0 0 0.305829 0 0 0 0 0.9925 0 0 0 0.22 0"/>
<feBlend mode="normal" in2="BackgroundImageFix" result="effect1_dropShadow_3179_125885"/>
<feBlend mode="normal" in="SourceGraphic" in2="effect1_dropShadow_3179_125885" result="shape"/>
</filter>
</defs>
</svg>
