<svg width="91" height="93" viewBox="0 0 91 93" fill="none" xmlns="http://www.w3.org/2000/svg">
<g opacity="0.5">
<rect y="0.799805" width="80" height="80" rx="6.4" fill="#467CF3"/>
<g filter="url(#filter0_d_537_25525)">
<rect x="15.4668" y="16.2666" width="49.0667" height="49.0667" rx="6.4" fill="white"/>
</g>
<path d="M27.1022 39.7758L30.547 33.9182C31.1669 32.864 30.4068 31.5352 29.1838 31.5352C28.2647 31.5352 27.391 31.935 26.7902 32.6307L21.164 39.1452C20.3015 40.1439 20.1405 41.5696 20.7585 42.7355L24.0908 49.0217C24.4321 49.6656 25.1013 50.0682 25.83 50.0682C27.0587 50.0682 27.9871 48.955 27.7665 47.7463L26.7126 41.9725C26.5748 41.2172 26.7131 40.4376 27.1022 39.7758Z" fill="#467CF3"/>
<path d="M52.7689 42.0748L49.3241 47.9324C48.7042 48.9866 49.4643 50.3154 50.6873 50.3154C51.6064 50.3154 52.4801 49.9156 53.0809 49.2199L58.7071 42.7054C59.5696 41.7067 59.7306 40.281 59.1126 39.1151L55.7803 32.8289C55.439 32.185 54.7698 31.7824 54.0411 31.7824C52.8124 31.7824 51.884 32.8956 52.1046 34.1043L53.1585 39.8781C53.2963 40.6334 53.158 41.413 52.7689 42.0748Z" fill="#467CF3"/>
<path d="M39.433 27.7482C39.7518 26.0369 41.2454 24.796 42.9862 24.7961C44.4916 24.7962 45.6282 26.1614 45.3555 27.6419L40.5334 53.8212C40.2146 55.5519 38.7057 56.8082 36.9459 56.8082C35.4244 56.8081 34.2767 55.4267 34.5553 53.931L39.433 27.7482Z" fill="#467CF3"/>
<circle cx="68.6314" cy="71.7515" r="17.3316" fill="white"/>
<path d="M68.6314 54.4199C59.0218 54.4199 51.2998 62.1419 51.2998 71.7515C51.2998 81.3611 59.0218 89.2547 68.6314 89.2547C78.241 89.2547 85.963 81.5327 85.963 71.9231C85.963 62.1419 78.241 54.4199 68.6314 54.4199ZM68.6314 87.5387C59.8798 87.5387 52.8442 80.5031 52.8442 71.7515C52.8442 67.6331 54.3886 64.0295 56.9626 61.1123L79.2706 83.4203C76.3534 85.9943 72.7498 87.5387 68.6314 87.5387ZM80.3002 82.3907L57.9922 60.0827C60.7378 57.5087 64.513 55.9643 68.6314 55.9643C77.383 55.9643 84.4186 62.9999 84.4186 71.7515C84.4186 75.8699 82.8742 79.6451 80.3002 82.3907Z" fill="#94BFFF"/>
</g>
<defs>
<filter id="filter0_d_537_25525" x="3.4668" y="4.2666" width="73.0664" height="73.0669" filterUnits="userSpaceOnUse" color-interpolation-filters="sRGB">
<feFlood flood-opacity="0" result="BackgroundImageFix"/>
<feColorMatrix in="SourceAlpha" type="matrix" values="0 0 0 0 0 0 0 0 0 0 0 0 0 0 0 0 0 0 127 0" result="hardAlpha"/>
<feOffset/>
<feGaussianBlur stdDeviation="6"/>
<feComposite in2="hardAlpha" operator="out"/>
<feColorMatrix type="matrix" values="0 0 0 0 0 0 0 0 0 0.305829 0 0 0 0 0.9925 0 0 0 0.22 0"/>
<feBlend mode="normal" in2="BackgroundImageFix" result="effect1_dropShadow_537_25525"/>
<feBlend mode="normal" in="SourceGraphic" in2="effect1_dropShadow_537_25525" result="shape"/>
</filter>
</defs>
</svg>
