<svg width="35" height="35" viewBox="0 0 35 35" fill="none" xmlns="http://www.w3.org/2000/svg">
<circle cx="17.5" cy="17.5" r="17.5" fill="#467CF3"/>
<path d="M17.25 7C17.3471 7 17.4458 7.03771 17.5275 7.10843C18.4216 7.89571 21.4279 10.2073 26.0775 10.3409C26.3119 10.3503 26.503 10.5451 26.5 10.7934V20.0114C26.5 24.1364 20.543 29 17.25 29C13.8645 29 8 24.1364 8 20.0114V10.7887C8 10.542 8.19117 10.3456 8.4255 10.3393C13.0767 10.2073 16.0845 7.89571 16.9725 7.10529C17.05 7.03817 17.1482 7.00092 17.25 7ZM16.7366 13.0846L13.9924 18.8926H18.2968L16.7335 22.312L18.3153 23.0631L21.0348 17.1106H16.7721L18.3106 13.8546L16.7366 13.0846Z" fill="white"/>
</svg>
