<svg width="40" height="40" viewBox="0 0 40 40" fill="none" xmlns="http://www.w3.org/2000/svg">
<rect width="40" height="40" rx="20" fill="#FEDCFF"/>
<path d="M24.9941 15.9485C25.2844 14.1053 24.4134 12.333 22.6715 11.4823C21.0021 10.6316 18.8973 10.9152 17.5908 12.2621C16.2843 13.6091 15.9214 15.594 16.7924 17.2245C17.6634 18.855 19.5505 19.7766 21.4376 19.4221C21.8005 19.3513 22.0908 19.2804 22.3812 19.1386C22.6715 18.9259 23.0344 18.7132 23.3247 18.5715C24.1957 17.9334 24.8489 17.0118 24.9941 15.9485ZM19.986 23.7465C19.986 22.6832 20.2763 21.6198 20.857 20.7691C19.6231 20.7691 18.3166 20.4146 17.3005 19.7057C16.9376 19.4221 16.3569 19.4222 15.9214 19.6348C13.4536 21.1944 12.002 23.8883 12.002 26.724C12.002 26.724 11.9294 28 12.6552 28H21.9457C20.7844 26.9366 19.986 25.4479 19.986 23.7465ZM27.8974 21.2653C27.8248 20.9818 27.607 20.7691 27.3893 20.5564C27.1715 20.3437 26.8812 20.202 26.5183 20.0602C26.1554 19.9184 25.7199 19.8475 25.2844 19.8475C24.9215 19.8475 24.5586 19.9184 24.1957 20.0602C23.9054 20.202 23.615 20.4146 23.3247 20.6273C23.107 20.84 22.8892 21.1235 22.8167 21.478C22.6715 21.7616 22.5989 22.3996 22.5989 22.4705C22.5989 22.5414 22.5989 22.6832 22.6715 22.754C22.7441 22.8249 22.8167 22.8958 22.9618 22.8958H24.3409C24.5586 22.8958 24.7038 22.754 24.7038 22.5414C24.7038 22.3996 24.7038 22.2578 24.7764 22.1869C24.7764 22.116 24.8489 21.9742 24.9215 21.9033C24.9941 21.8325 24.9941 21.7616 25.0667 21.7616C25.1393 21.6907 25.2118 21.6907 25.357 21.6907C25.5747 21.6907 25.6473 21.7616 25.7199 21.7616C25.7925 21.8325 25.7925 22.0451 25.7925 22.116C25.7925 22.1869 25.7925 22.2578 25.7199 22.3287L25.5022 22.5414C25.4296 22.6123 25.2844 22.6832 25.2118 22.8249C25.0667 22.8958 24.9215 23.0376 24.7764 23.1794C24.6312 23.3212 24.5586 23.5338 24.4134 23.7465C24.3409 23.9592 24.2683 24.2428 24.1957 24.5263V24.9517C24.1957 25.1643 24.3409 25.3061 24.5586 25.3061H25.8651C26.0828 25.3061 26.228 25.1643 26.228 24.9517V24.6681C26.228 24.5263 26.3006 24.4554 26.3731 24.3845C26.4457 24.3137 26.5183 24.1719 26.6635 24.101C26.8086 24.0301 26.8812 23.8883 27.0264 23.8174L27.4619 23.3921C27.607 23.2503 27.7522 23.0376 27.8248 22.8249C27.8974 22.6123 27.9699 22.3287 27.9699 21.9742C28.0425 21.7616 27.9699 21.5489 27.8974 21.2653ZM25.7199 25.8733H24.9941C24.5586 25.8733 24.2683 26.1568 24.2683 26.5822V27.2911C24.2683 27.7164 24.5586 28 24.9941 28H25.7199C26.1554 28 26.4457 27.7164 26.4457 27.2911V26.5822C26.4457 26.1568 26.0828 25.8733 25.7199 25.8733Z" fill="#FB40FF"/>
</svg>
