<svg width="50" height="50" viewBox="0 0 50 50" fill="none" xmlns="http://www.w3.org/2000/svg">
<rect width="50" height="50" rx="4" fill="#ECF3FF"/>
<path d="M26.0432 15.751C24.1403 15.7536 22.6044 17.2468 22.5991 19.0915C22.6044 20.9368 24.1403 22.4281 26.0432 22.4314C27.943 22.4281 29.4831 20.9368 29.4845 19.0915C29.4831 17.2467 27.943 15.7536 26.0432 15.751Z" fill="#B5CBFA"/>
<path d="M29.1567 24.4352H29.0589C31.0027 23.4006 32.3223 21.3959 32.3223 19.0918C32.3223 15.7273 29.5114 13 26.0445 13C22.7797 13 20.0956 15.4212 19.7961 18.5134C19.0032 17.3403 17.6386 16.5629 16.0858 16.5629C13.6302 16.5629 11.6438 18.4919 11.6438 20.8737C11.6438 22.3541 12.4145 23.6598 13.5851 24.4352H13.4786C12.1092 24.4352 11 25.5119 11 26.8404V34.5955C11 35.9233 12.1092 37 13.4786 37H29.1567C30.5248 37 31.6351 35.9233 31.6351 34.5955V26.8404C31.6351 25.5118 30.5247 24.4352 29.1567 24.4352ZM18.5562 24.4352C19.4874 23.8245 20.1743 22.8911 20.4211 21.7897C20.9969 22.9172 21.9287 23.8366 23.0655 24.4352H18.5562ZM21.6631 19.0918C21.6631 16.7443 23.6245 14.8427 26.0431 14.8427C28.4622 14.8427 30.4222 16.7443 30.4256 19.0918C30.4222 21.4394 28.4622 23.3424 26.0431 23.3424C23.6245 23.3424 21.6631 21.4395 21.6631 19.0918ZM32.7518 29.3259V32.6223L39 35.7974V25.8667L32.7518 29.3259Z" fill="#467CF3"/>
</svg>
