<svg width="32" height="32" viewBox="0 0 32 32" fill="none" xmlns="http://www.w3.org/2000/svg">
<rect x="0.5" y="0.5" width="31" height="31" rx="3.5" fill="white"/>
<rect x="0.5" y="0.5" width="31" height="31" rx="3.5" stroke="#467CF3"/>
<path d="M13.9259 15.1111C15.5556 15.1111 16.8889 13.7778 16.8889 12.1481C16.8889 10.5185 15.5556 9.18519 13.9259 9.18519C12.2963 9.18519 10.963 10.5185 10.963 12.1481C10.963 13.7778 12.2963 15.1111 13.9259 15.1111ZM11.6148 15.5852C10.4889 14.8444 9.77778 13.5704 9.77778 12.1481C9.77778 9.86667 11.6444 8 13.9259 8C16.2074 8 18.0741 9.86667 18.0741 12.1481C18.0741 13.5704 17.363 14.8444 16.237 15.5852C18.3704 16.4741 19.8519 18.5778 19.8519 21.037V22.2222C19.8519 23.2 19.0519 24 18.0741 24H9.77778C8.8 24 8 23.2 8 22.2222V21.037C8 18.5778 9.48148 16.4741 11.6148 15.5852ZM18.0741 22.8148C18.4 22.8148 18.6667 22.5481 18.6667 22.2222V21.037C18.6667 18.4296 16.5333 16.2963 13.9259 16.2963C11.3185 16.2963 9.18519 18.4296 9.18519 21.037V22.2222C9.18519 22.5481 9.45185 22.8148 9.77778 22.8148H18.0741ZM19.2889 9.48148C21.0667 9.51111 22.5185 10.963 22.5185 12.7407C22.5185 13.7778 22.0444 14.6667 21.3037 15.2889C22.9037 16.0296 24 17.6593 24 19.5556V20.7407C24 21.7185 23.2 22.5185 22.2222 22.5185H21.3333C21.0074 22.5185 20.7407 22.2519 20.7407 21.9259C20.7407 21.6 21.0074 21.3333 21.3333 21.3333H22.2222C22.5481 21.3333 22.8148 21.0667 22.8148 20.7407V19.5556C22.8148 17.6 21.2444 16.0296 19.2889 16H19.2593C18.9333 16 18.6667 15.7333 18.6667 15.4074C18.6667 15.0815 18.9333 14.8148 19.2593 14.8148H19.2889C20.4148 14.7852 21.3333 13.8667 21.3333 12.7407C21.3333 11.6148 20.4148 10.6963 19.2889 10.6667H19.2593C18.9333 10.6667 18.6667 10.4 18.6667 10.0741C18.6667 9.74815 18.9333 9.48148 19.2593 9.48148H19.2889Z" fill="#467CF3"/>
</svg>
