<svg width="32" height="32" viewBox="0 0 32 32" fill="none" xmlns="http://www.w3.org/2000/svg">
<g clip-path="url(#clip0_127_5080)">
<rect x="0.5" y="0.5" width="31" height="31" rx="3.5" stroke="#E3E7ED"/>
<path d="M15.4886 16.3838C18.659 16.3838 21.3822 16.8485 23.3708 17.7652C25.6645 18.8232 27 20.5013 27 22.6465C27 24.8346 25.6225 26.3232 23.2349 27.1237C21.3847 27.7449 18.8788 28 15.4886 28H15.3577C12.0348 27.9937 9.57591 27.7374 7.7537 27.1237C5.37238 26.3207 4 24.8333 4 22.6465C4 20.5013 5.33298 18.8232 7.62155 17.7664C9.60641 16.8485 12.3232 16.3838 15.4886 16.3838ZM15.4886 18.9091C9.87834 18.9091 6.54144 20.4508 6.54144 22.6465C6.54144 23.6111 7.12724 24.2462 8.56823 24.7323C10.0893 25.2437 12.355 25.4747 15.4886 25.4747H15.6118C18.6831 25.4684 20.9158 25.2361 22.4216 24.7311C23.8702 24.2462 24.4586 23.6086 24.4586 22.6465C24.4586 20.452 21.1102 18.9091 15.4886 18.9091ZM15.5635 3C16.3812 2.99995 17.191 3.15994 17.9464 3.47084C18.7019 3.78173 19.3884 4.23744 19.9666 4.81195C20.5448 5.38646 21.0035 6.06852 21.3164 6.81917C21.6294 7.56982 21.7904 8.37436 21.7904 9.18687C21.7904 9.99937 21.6294 10.8039 21.3164 11.5546C21.0035 12.3052 20.5448 12.9873 19.9666 13.5618C19.3884 14.1363 18.7019 14.592 17.9464 14.9029C17.191 15.2138 16.3812 15.3738 15.5635 15.3737C13.9122 15.3736 12.3286 14.7218 11.161 13.5615C9.99336 12.4013 9.33741 10.8277 9.33741 9.18687C9.33741 7.54608 9.99336 5.97248 11.161 4.81223C12.3286 3.65198 13.9122 3.0001 15.5635 3ZM15.5635 5.52525C15.0796 5.52521 14.6004 5.61989 14.1532 5.80389C13.7061 5.98789 13.2998 6.25759 12.9576 6.59761C12.6154 6.93763 12.3439 7.34129 12.1587 7.78556C11.9735 8.22983 11.8782 8.70599 11.8782 9.18687C11.8782 9.66774 11.9735 10.1439 12.1587 10.5882C12.3439 11.0324 12.6154 11.4361 12.9576 11.7761C13.2998 12.1161 13.7061 12.3859 14.1532 12.5698C14.6004 12.7538 15.0796 12.8485 15.5635 12.8485C16.5408 12.8484 17.4781 12.4626 18.1691 11.7759C18.8601 11.0892 19.2483 10.1579 19.2483 9.18687C19.2483 8.2158 18.8601 7.2845 18.1691 6.59782C17.4781 5.91114 16.5408 5.52533 15.5635 5.52525Z" fill="#C0C4CC"/>
</g>
<defs>
<clipPath id="clip0_127_5080">
<rect width="32" height="32" fill="white"/>
</clipPath>
</defs>
</svg>
