<svg width="48" height="48" viewBox="0 0 48 48" fill="none" xmlns="http://www.w3.org/2000/svg">
<rect width="48" height="48" rx="6" fill="#F2F3F5"/>
<g clip-path="url(#clip0_4064_79390)">
<path fill-rule="evenodd" clip-rule="evenodd" d="M14.3457 23.9999C14.3457 18.6686 18.6676 14.3467 23.9989 14.3467C29.3302 14.3467 33.6521 18.6686 33.6521 23.9999C33.6521 29.3312 29.3302 33.6531 23.9989 33.6531C22.6132 33.6531 21.2975 33.3616 20.1083 32.8372L20.1009 32.8539L16.1962 33.2721L17.3191 30.9837L17.3158 30.982L17.324 30.9734C15.4877 29.2153 14.3457 26.7416 14.3457 23.9999ZM15.5197 31.2456C13.8531 29.297 12.8457 26.7656 12.8457 23.9999C12.8457 17.8401 17.8392 12.8467 23.9989 12.8467C30.1587 12.8467 35.1521 17.8401 35.1521 23.9999C35.1521 30.1596 30.1587 35.1531 23.9989 35.1531C22.5593 35.1531 21.1819 34.88 19.9168 34.3822L15.184 34.8891C14.5186 34.9604 14.0356 34.2704 14.3304 33.6696L15.5197 31.2456Z" fill="#4E5969"/>
<path d="M23.2141 25.9555C23.2476 26.1385 23.3442 26.3039 23.4871 26.4229C23.63 26.542 23.8101 26.6072 23.996 26.6072C24.182 26.6072 24.3621 26.542 24.505 26.4229C24.6478 26.3039 24.7445 26.1385 24.778 25.9555L25.2993 18.7876C25.2986 18.4422 25.161 18.1111 24.9168 17.8669C24.6725 17.6226 24.3415 17.4851 23.996 17.4844C23.815 17.4888 23.6368 17.53 23.4721 17.6053C23.3074 17.6806 23.1596 17.7885 23.0378 17.9225C22.916 18.0565 22.8226 18.2138 22.7633 18.3849C22.704 18.556 22.68 18.7373 22.6928 18.918L23.2141 25.9555ZM23.996 27.9104C23.7383 27.9104 23.4863 27.9869 23.272 28.1301C23.0577 28.2733 22.8906 28.4768 22.792 28.7149C22.6933 28.9531 22.6675 29.2151 22.7178 29.4679C22.7681 29.7207 22.8922 29.953 23.0745 30.1352C23.2568 30.3175 23.489 30.4416 23.7418 30.4919C23.9946 30.5422 24.2566 30.5164 24.4948 30.4177C24.7329 30.3191 24.9365 30.1521 25.0797 29.9377C25.2229 29.7234 25.2993 29.4714 25.2993 29.2137C25.3098 29.0398 25.2833 28.8657 25.2215 28.7028C25.1597 28.5399 25.0641 28.392 24.9409 28.2688C24.8177 28.1456 24.6698 28.05 24.5069 27.9882C24.3441 27.9264 24.1699 27.8999 23.996 27.9104Z" fill="#4E5969"/>
</g>
<defs>
<clipPath id="clip0_4064_79390">
<rect width="24" height="24" fill="white" transform="translate(12 12)"/>
</clipPath>
</defs>
</svg>
