<svg width="16" height="16" viewBox="0 0 16 16" fill="none" xmlns="http://www.w3.org/2000/svg">
<path d="M15 8C15 11.866 11.866 15 8 15C4.13401 15 1 11.866 1 8C1 4.13401 4.13401 1 8 1C11.866 1 15 4.13401 15 8Z" fill="#FFC70C"/>
<path d="M6.98993 8.99906H5.31284C5.09389 8.99906 4.94284 8.7799 5.02076 8.57542L6.68722 4.20125C6.70976 4.14207 6.74976 4.09114 6.8019 4.0552C6.85404 4.01926 6.91587 4.00001 6.9792 4H9.79128C10.0132 4 10.1644 4.22479 10.0807 4.43031L9.11034 6.81198H10.937C11.2057 6.81198 11.349 7.12865 11.1718 7.33052L6.69326 12.4336C6.47555 12.6818 6.07191 12.4668 6.15639 12.1477L6.98993 8.99906Z" fill="white"/>
</svg>
