<svg width="74" height="21" viewBox="0 0 74 21" fill="none" xmlns="http://www.w3.org/2000/svg">
<path fill-rule="evenodd" clip-rule="evenodd" d="M18.2754 4.375H17.2776C16.7266 4.375 16.2799 4.7938 16.2799 5.31041V13.4173C16.2799 13.9339 16.7266 14.3527 17.2776 14.3527H18.2754C18.8265 14.3527 19.2732 13.9339 19.2732 13.4173V5.31041C19.2732 4.7938 18.8265 4.375 18.2754 4.375ZM12.2877 6.37098H13.2855C13.8365 6.37098 14.2832 6.79983 14.2832 7.32884V13.3953C14.2832 13.9243 13.8365 14.3531 13.2855 14.3531H12.2877C11.7366 14.3531 11.2899 13.9243 11.2899 13.3953V7.32884C11.2899 6.79983 11.7366 6.37098 12.2877 6.37098ZM8.29798 8.36696H7.30021C6.74916 8.36696 6.30245 8.81367 6.30245 9.36472V13.3558C6.30245 13.9068 6.74916 14.3536 7.30021 14.3536H8.29798C8.84903 14.3536 9.29575 13.9068 9.29575 13.3558V9.36472C9.29575 8.81367 8.84903 8.36696 8.29798 8.36696ZM3.30804 10.3629H2.31027C1.75922 10.3629 1.3125 10.8097 1.3125 11.3607V13.3562C1.3125 13.9073 1.75922 14.354 2.31027 14.354H3.30804C3.85909 14.354 4.3058 13.9073 4.3058 13.3562V11.3607C4.3058 10.8097 3.85909 10.3629 3.30804 10.3629Z" fill="#1F2329"/>
<path fill-rule="evenodd" clip-rule="evenodd" d="M36.8992 7.06672C39.5183 7.06683 42.0373 8.0732 43.9355 9.87782C44.0784 10.0171 44.3069 10.0154 44.4477 9.87388L45.814 8.49492C45.8853 8.42315 45.925 8.32593 45.9244 8.22478C45.9238 8.12363 45.883 8.02688 45.8109 7.95595C40.8288 3.18135 32.9689 3.18135 27.9868 7.95595C27.9147 8.02683 27.8737 8.12355 27.8731 8.2247C27.8724 8.32585 27.9121 8.4231 27.9833 8.49492L29.35 9.87388C29.4907 10.0156 29.7194 10.0174 29.8622 9.87782C31.7606 8.07308 34.2799 7.06671 36.8992 7.06672ZM36.9009 11.5547C38.34 11.5546 39.7276 12.0894 40.7943 13.0554C40.9386 13.1924 41.1659 13.1895 41.3065 13.0487L42.6713 11.6697C42.7431 11.5974 42.783 11.4992 42.782 11.3973C42.781 11.2953 42.7391 11.198 42.6658 11.1272C39.4175 8.10562 34.3871 8.10562 31.1389 11.1272C31.0655 11.198 31.0236 11.2954 31.0227 11.3974C31.0217 11.4994 31.0617 11.5975 31.1337 11.6697L32.4981 13.0487C32.6388 13.1895 32.866 13.1924 33.0103 13.0554C34.0763 12.0901 35.4629 11.5552 36.9009 11.5547ZM39.6329 14.5711C39.6349 14.6734 39.5948 14.7719 39.5218 14.8436L37.161 17.226C37.0918 17.296 36.9974 17.3354 36.899 17.3354C36.8005 17.3354 36.7062 17.296 36.637 17.226L34.2758 14.8436C34.2029 14.7719 34.1627 14.6733 34.1649 14.571C34.1671 14.4688 34.2113 14.372 34.2872 14.3034C35.7949 13.0282 38.003 13.0282 39.5107 14.3034C39.5866 14.372 39.6308 14.4689 39.6329 14.5711Z" fill="#1F2329"/>
<g clip-path="url(#clip0_2679_103001)">
<path opacity="0.35" d="M53.4881 9.01337C53.4881 7.32528 54.8565 5.95682 56.5446 5.95682H68.5518C70.2399 5.95682 71.6084 7.32528 71.6084 9.01337V12.0193C71.6084 13.7074 70.2399 15.0758 68.5518 15.0758H56.5446C54.8565 15.0758 53.4881 13.7074 53.4881 12.0193V9.01337Z" fill="#1F2329" stroke="white" stroke-width="0.632389"/>
<path opacity="0.4" d="M72.4121 9.39844V12.3989C73.0157 12.1447 73.4083 11.5536 73.4083 10.8987C73.4083 10.2437 73.0157 9.65256 72.4121 9.39844Z" fill="#1F2329"/>
<path d="M54.8984 9.077C54.8984 8.14564 55.6535 7.39062 56.5848 7.39062H68.3642C69.2956 7.39062 70.0506 8.14564 70.0506 9.077V11.9527C70.0506 12.884 69.2956 13.639 68.3642 13.639H56.5848C55.6535 13.639 54.8984 12.884 54.8984 11.9527V9.077Z" fill="#1F2329"/>
</g>
<defs>
<clipPath id="clip0_2679_103001">
<rect width="20.2365" height="20.2365" fill="white" transform="translate(53.4082 0.703125)"/>
</clipPath>
</defs>
</svg>
