<svg width="40" height="40" viewBox="0 0 40 40" fill="none" xmlns="http://www.w3.org/2000/svg">
<rect width="40" height="40" rx="1" fill="#6237B4"/>
<g clip-path="url(#clip0_2416_45723)">
<path d="M18.792 14.1667L15.9587 10.8333H12.7503L15.5837 14.1667H18.792ZM27.1253 14.1667L24.292 10.8333H21.0837L23.917 14.1667H27.1253ZM22.9587 14.1667L20.1253 10.8333H16.917L19.7503 14.1667H22.9587ZM28.3337 10.8333H25.2503L28.0837 14.1667H29.5837V12.0833C29.5837 11.375 29.042 10.8333 28.3337 10.8333ZM11.792 10.8333H11.667C10.9587 10.8333 10.417 11.375 10.417 12.0833V14.1667H14.6253L11.792 10.8333ZM10.417 27.9167C10.417 28.625 10.9587 29.1667 11.667 29.1667H28.3337C29.042 29.1667 29.5837 28.625 29.5837 27.9167V15H10.417V27.9167ZM17.0837 18.75C17.0837 18.0417 17.667 17.7083 18.3337 17.7083C18.542 17.7083 18.792 17.75 19.0003 17.875L23.7503 20.625C24.5837 21.0833 24.5837 22.25 23.7503 22.7083L19.0003 25.4583C18.792 25.5833 18.5837 25.625 18.3337 25.625C17.667 25.625 17.0837 25.2917 17.0837 24.5833V18.75Z" fill="white"/>
</g>
<defs>
<clipPath id="clip0_2416_45723">
<rect width="20" height="20" fill="white" transform="translate(10 10)"/>
</clipPath>
</defs>
</svg>
