<svg width="20" height="20" viewBox="0 0 20 20" fill="none" xmlns="http://www.w3.org/2000/svg">
<circle cx="10" cy="10" r="10" fill="#E7EEFD"/>
<path d="M10.0163 14.9183C9.66182 14.9306 9.30736 14.8929 8.9634 14.8063C8.23728 14.5946 6.78999 14.7528 5.62851 14.9835C5.62851 14.9835 5.52828 15 5.52202 15C5.44303 15.0007 5.36492 14.9833 5.29368 14.9492C5.22245 14.915 5.15998 14.865 5.11107 14.803C5.06216 14.7409 5.02811 14.6685 5.01153 14.5913C4.99494 14.514 4.99627 14.434 5.01541 14.3574C5.2631 13.235 5.35863 11.9013 5.16627 10.998C4.95147 9.99531 5.05276 8.95073 5.45619 8.00803C5.85962 7.06533 6.54536 6.27086 7.41898 5.73401C8.29261 5.19715 9.31117 4.94431 10.3344 5.01028C11.3577 5.07625 12.3354 5.45779 13.1328 6.10239C13.9303 6.74698 14.5083 7.62292 14.7874 8.60962C15.0664 9.59632 15.0327 10.6453 14.691 11.612C14.3492 12.5788 13.7162 13.4158 12.879 14.0079C12.0418 14.6001 11.0417 14.9181 10.0163 14.9183ZM7.8998 11.5252H10.5099C10.6137 11.5252 10.7133 11.4839 10.7867 11.4105C10.8601 11.3371 10.9014 11.2375 10.9014 11.1337C10.9014 11.0298 10.8601 10.9303 10.7867 10.8568C10.7133 10.7834 10.6137 10.7422 10.5099 10.7422H7.8998C7.79596 10.7422 7.69638 10.7834 7.62296 10.8568C7.54953 10.9303 7.50829 11.0298 7.50829 11.1337C7.50829 11.2375 7.54953 11.3371 7.62296 11.4105C7.69638 11.4839 7.79596 11.5252 7.8998 11.5252ZM12.0759 8.65411H7.8998C7.79596 8.65411 7.69638 8.69535 7.62296 8.76878C7.54953 8.8422 7.50829 8.94178 7.50829 9.04562C7.50829 9.14945 7.54953 9.24903 7.62296 9.32246C7.69638 9.39588 7.79596 9.43713 7.8998 9.43713H12.0759C12.1798 9.43713 12.2793 9.39588 12.3528 9.32246C12.4262 9.24903 12.4674 9.14945 12.4674 9.04562C12.4674 8.94178 12.4262 8.8422 12.3528 8.76878C12.2793 8.69535 12.1798 8.65411 12.0759 8.65411Z" fill="#467CF3"/>
</svg>
