<svg width="263" height="62" viewBox="0 0 263 62" fill="none" xmlns="http://www.w3.org/2000/svg">
<path d="M0.25 5.6C0.25 2.50721 2.75721 0 5.85 0H257.15C260.243 0 262.75 2.50721 262.75 5.6V61.6H0.25V5.6Z" fill="#3975C6"/>
<path fill-rule="evenodd" clip-rule="evenodd" d="M239.3 47.5998C240.074 47.5998 240.7 46.973 240.7 46.1998C240.7 45.4266 240.074 44.7998 239.3 44.7998C238.527 44.7998 237.9 45.4266 237.9 46.1998C237.9 46.973 238.527 47.5998 239.3 47.5998ZM245.95 46.1998C245.95 46.973 245.323 47.5998 244.55 47.5998C243.777 47.5998 243.15 46.973 243.15 46.1998C243.15 45.4266 243.777 44.7998 244.55 44.7998C245.323 44.7998 245.95 45.4266 245.95 46.1998ZM251.2 46.1998C251.2 46.973 250.573 47.5998 249.8 47.5998C249.027 47.5998 248.4 46.973 248.4 46.1998C248.4 45.4266 249.027 44.7998 249.8 44.7998C250.573 44.7998 251.2 45.4266 251.2 46.1998Z" fill="white"/>
<path d="M94.8337 41.0537H95.6667C97.1661 42.684 98.8797 43.9692 100.831 44.8974L100.212 45.9922C98.2728 44.9926 96.6187 43.6836 95.2502 42.0652C93.9888 43.5884 92.3109 44.8974 90.2403 46.0041L89.6334 44.9093C91.7159 43.8859 93.4533 42.6007 94.8337 41.0537ZM95.0241 44.2548H96.1546V46.8014H99.3081V47.8843H96.1546V50.5023H100.165V51.5971H90.1927V50.5023H91.9063V45.9684H93.0249V50.5023H95.0241V44.2548ZM106.496 51.8946H104.746L104.473 50.7165C105.044 50.7641 105.567 50.7998 106.067 50.7998C106.519 50.7998 106.757 50.5618 106.757 50.0977V41.2203H107.936V50.3952C107.936 51.3948 107.448 51.8946 106.496 51.8946ZM103.556 43.9811L104.687 44.4333C104.139 46.7776 103.414 48.5745 102.521 49.8121L101.533 48.9434C102.438 47.7058 103.116 46.0517 103.556 43.9811ZM110.72 43.6836C111.577 45.778 112.243 47.5987 112.707 49.1695L111.684 49.8716C111.184 48.2175 110.518 46.373 109.685 44.3262L110.72 43.6836ZM117.729 45.1354V51.4067H116.682V50.8236H115.659V51.6328H114.611V47.1465C114.421 47.4559 114.231 47.7534 114.028 48.039L113.469 47.1346C114.29 45.8256 114.838 44.35 115.123 42.7078H113.814V41.613H117.943V42.7078H116.194C116.039 43.5765 115.825 44.3857 115.552 45.1354H117.729ZM115.659 49.7883H116.682V46.1588H115.659V49.7883ZM119.074 43.2195L120.181 43.2909L119.681 46.1469H121.954L122.489 42.5174H118.419V41.4464H123.727L123.096 46.1469H124.31C124.31 49.1219 124.131 50.8355 123.798 51.2877C123.453 51.7399 122.727 51.966 121.632 51.966C121.299 51.966 120.942 51.9422 120.585 51.9184L120.276 50.8236C120.799 50.8831 121.156 50.9188 121.359 50.9188C122.251 50.9188 122.787 50.7403 122.953 50.3833C123.144 50.0144 123.239 48.9553 123.239 47.206H118.431L119.074 43.2195ZM118.158 48.4555H122.584V49.5265H118.158V48.4555ZM130.534 41.018H131.367C132.866 42.6602 134.58 43.9573 136.531 44.9093L135.912 46.0041C135.198 45.6352 134.544 45.2306 133.925 44.7784V45.6709H128.011V44.7308C127.368 45.183 126.678 45.6114 125.94 46.016L125.333 44.9212C127.416 43.874 129.153 42.5769 130.534 41.018ZM128.189 44.5999H133.687C132.664 43.8383 131.747 42.9815 130.95 42.0295C130.177 42.9696 129.26 43.8264 128.189 44.5999ZM126.143 46.9918H135.782V48.0866H130.236C129.701 49.0743 129.082 49.9311 128.38 50.6689C130.093 50.5737 131.736 50.4309 133.33 50.2405C132.973 49.7764 132.58 49.3123 132.152 48.8363L133.033 48.277C134.116 49.4551 134.949 50.4785 135.544 51.3472L134.603 52.0136C134.401 51.7042 134.187 51.3829 133.961 51.0616C132.116 51.3472 129.796 51.5733 127.011 51.7399L126.702 50.7641C126.976 50.6927 127.166 50.5856 127.285 50.4547C127.928 49.705 128.475 48.9196 128.927 48.0866H126.143V46.9918ZM141.148 44.4214H144.302V42.803C143.493 42.8744 142.624 42.9101 141.708 42.9101L141.375 41.8986C143.79 41.8986 145.825 41.6368 147.479 41.1251L148.027 42.0652C147.265 42.327 146.408 42.5293 145.444 42.6721V44.4214H148.419V45.5162H145.444V47.1703H147.682V51.9898H146.563V51.4662H143.207V51.9898H142.089V47.1703H144.302V45.5162H141.148V44.4214ZM143.207 50.4071H146.563V48.2056H143.207V50.4071ZM138.959 41.137C139.732 41.7201 140.387 42.3032 140.922 42.8982L140.149 43.6836C139.673 43.1243 139.018 42.5293 138.173 41.9105L138.959 41.137ZM137.352 44.588H140.101V49.6455C140.458 49.3361 140.839 48.991 141.244 48.5983L141.541 49.7883C140.791 50.4904 139.994 51.1211 139.149 51.6685L138.721 50.657C138.911 50.4904 139.018 50.2881 139.018 50.0501V45.6709H137.352V44.588ZM149.728 42.1247H152.87C153.013 41.732 153.132 41.3512 153.239 40.9704L154.381 41.1013C154.286 41.4464 154.179 41.7915 154.072 42.1247H160.01V43.2314H153.632C153.191 44.231 152.656 45.1711 152.013 46.0279V52.0374H150.906V47.3488C150.597 47.682 150.276 47.9914 149.943 48.2889L149.24 47.3845C150.597 46.1826 151.656 44.8022 152.406 43.2314H149.728V42.1247ZM152.81 47.7177H156.166V46.7538C156.797 46.3968 157.404 45.9803 157.987 45.5043H153.715V44.469H159.403V45.5043C158.772 46.0993 158.07 46.6705 157.285 47.206V47.7177H160.165V48.8125H157.285V50.7522C157.285 51.5733 156.88 51.9898 156.071 51.9898H154.595L154.298 50.9188C154.703 50.9426 155.143 50.9545 155.619 50.9545C155.976 50.9545 156.166 50.7641 156.166 50.3952V48.8125H152.81V47.7177ZM165.615 45.0759H168.138V41.0537H169.292V45.0759H171.72V52.0255H170.601V51.5971H165.436V50.4904H170.601V48.8601H165.912V47.7891H170.601V46.1707H165.615V45.0759ZM171.029 41.6368L172.029 42.1128C171.708 42.9696 171.291 43.8145 170.791 44.6237L169.827 44.1239C170.327 43.2909 170.732 42.4579 171.029 41.6368ZM166.353 41.7201C166.769 42.446 167.162 43.2433 167.543 44.1239L166.567 44.6118C166.186 43.7074 165.781 42.9101 165.353 42.208L166.353 41.7201ZM163.996 46.2064V51.9779H162.866V46.4563C162.509 47.4559 162.069 48.3841 161.545 49.2171L161.057 47.9914C161.878 46.9204 162.473 45.7185 162.842 44.3619H161.343V43.279H162.866V41.0537H163.996V43.279H165.317V44.3619H163.996V44.9093C164.532 45.4805 165.067 46.1112 165.603 46.7776L164.948 47.7296C164.591 47.1346 164.27 46.6229 163.996 46.2064Z" fill="white"/>
<path opacity="0.35" d="M235.801 13.9995C235.801 13.1618 236.48 12.4828 237.318 12.4828H248.985C249.822 12.4828 250.501 13.1618 250.501 13.9995V18.1995C250.501 19.0371 249.822 19.7161 248.985 19.7161H237.318C236.48 19.7161 235.801 19.0371 235.801 18.1995V13.9995Z" stroke="white" stroke-width="0.7"/>
<path opacity="0.4" d="M251.551 14.6997V17.4997C252.114 17.2626 252.48 16.7109 252.48 16.0997C252.48 15.4885 252.114 14.9369 251.551 14.6997Z" fill="white"/>
<path d="M236.852 14.466C236.852 13.9506 237.269 13.5327 237.785 13.5327H248.518C249.034 13.5327 249.452 13.9506 249.452 14.466V17.7327C249.452 18.2482 249.034 18.666 248.518 18.666H237.785C237.269 18.666 236.852 18.2482 236.852 17.7327V14.466Z" fill="white"/>
<path fill-rule="evenodd" clip-rule="evenodd" d="M226.582 13.725C228.133 13.7251 229.625 14.3211 230.749 15.3898C230.834 15.4723 230.969 15.4713 231.052 15.3875L231.862 14.5708C231.904 14.5283 231.927 14.4707 231.927 14.4108C231.927 14.3509 231.902 14.2936 231.86 14.2516C228.909 11.4239 224.254 11.4239 221.304 14.2516C221.261 14.2936 221.237 14.3509 221.236 14.4108C221.236 14.4707 221.259 14.5283 221.302 14.5708L222.111 15.3875C222.194 15.4714 222.33 15.4725 222.414 15.3898C223.539 14.321 225.031 13.725 226.582 13.725ZM226.582 16.382C227.434 16.3819 228.256 16.6987 228.888 17.2707C228.973 17.3519 229.108 17.3501 229.191 17.2668L229.999 16.4501C230.042 16.4073 230.066 16.3491 230.065 16.2888C230.064 16.2284 230.04 16.1708 229.996 16.1288C228.072 14.3393 225.093 14.3393 223.169 16.1288C223.126 16.1708 223.101 16.2284 223.101 16.2888C223.1 16.3492 223.124 16.4073 223.166 16.4501L223.974 17.2668C224.058 17.3501 224.192 17.3519 224.278 17.2707C224.909 16.6991 225.73 16.3823 226.582 16.382ZM228.201 18.1696C228.202 18.2302 228.178 18.2886 228.135 18.331L226.737 19.742C226.696 19.7834 226.64 19.8068 226.582 19.8068C226.524 19.8068 226.468 19.7834 226.427 19.742L225.028 18.331C224.985 18.2885 224.961 18.2301 224.963 18.1696C224.964 18.109 224.99 18.0517 225.035 18.0111C225.928 17.2559 227.236 17.2559 228.129 18.0111C228.174 18.0517 228.2 18.1091 228.201 18.1696Z" fill="white"/>
<path fill-rule="evenodd" clip-rule="evenodd" d="M217.018 12.3662H216.318C215.932 12.3662 215.618 12.6796 215.618 13.0662V19.1329C215.618 19.5195 215.932 19.8329 216.318 19.8329H217.018C217.405 19.8329 217.718 19.5195 217.718 19.1329V13.0662C217.718 12.6796 217.405 12.3662 217.018 12.3662ZM213.051 13.9997H213.751C214.138 13.9997 214.451 14.3131 214.451 14.6997V19.133C214.451 19.5196 214.138 19.833 213.751 19.833H213.051C212.665 19.833 212.351 19.5196 212.351 19.133V14.6997C212.351 14.3131 212.665 13.9997 213.051 13.9997ZM210.485 15.6328H209.785C209.399 15.6328 209.085 15.9462 209.085 16.3328V19.1328C209.085 19.5194 209.399 19.8328 209.785 19.8328H210.485C210.872 19.8328 211.185 19.5194 211.185 19.1328V16.3328C211.185 15.9462 210.872 15.6328 210.485 15.6328ZM207.218 17.0329H206.518C206.132 17.0329 205.818 17.3463 205.818 17.7329V19.1329C205.818 19.5195 206.132 19.8329 206.518 19.8329H207.218C207.605 19.8329 207.918 19.5195 207.918 19.1329V17.7329C207.918 17.3463 207.605 17.0329 207.218 17.0329Z" fill="white"/>
<path d="M26.374 19.7793C28.2556 19.7793 29.3733 18.3079 29.3733 15.8162C29.3733 14.8779 29.1938 14.0884 28.8503 13.4783C28.353 12.5298 27.4968 12.0171 26.415 12.0171C24.8052 12.0171 23.667 13.0989 23.667 14.6165C23.667 16.0417 24.6924 17.0774 26.1023 17.0774C26.9688 17.0774 27.6711 16.6724 28.0198 15.97H28.0352C28.0352 15.97 28.0557 15.97 28.0608 15.97C28.071 15.97 28.1069 15.97 28.1069 15.97C28.1069 17.6619 27.4661 18.6719 26.3843 18.6719C25.7485 18.6719 25.2563 18.3232 25.0872 17.7644H23.7695C23.99 18.9795 25.0205 19.7793 26.374 19.7793ZM26.4202 16.0264C25.5691 16.0264 24.9641 15.4214 24.9641 14.5754C24.9641 13.75 25.5999 13.1194 26.4253 13.1194C27.2507 13.1194 27.8865 13.7603 27.8865 14.5959C27.8865 15.4214 27.2661 16.0264 26.4202 16.0264Z" fill="white"/>
<path d="M31.5371 19.7075C32.0241 19.7075 32.3574 19.3589 32.3574 18.8975C32.3574 18.4309 32.0241 18.0874 31.5371 18.0874C31.0551 18.0874 30.7168 18.4309 30.7168 18.8975C30.7168 19.3589 31.0551 19.7075 31.5371 19.7075ZM31.5371 15.8623C32.0241 15.8623 32.3574 15.5188 32.3574 15.0574C32.3574 14.5908 32.0241 14.2473 31.5371 14.2473C31.0551 14.2473 30.7168 14.5908 30.7168 15.0574C30.7168 15.5188 31.0551 15.8623 31.5371 15.8623Z" fill="white"/>
<path d="M37.1564 19.5999H38.4228V18.2207H39.4225V17.103H38.4228V12.2017H36.5566C35.2492 14.1704 34.2084 15.8162 33.5419 17.0415V18.2207H37.1564V19.5999ZM34.7673 17.0569C35.6286 15.5393 36.3976 14.3242 37.1051 13.2783H37.1769V17.1338H34.7673V17.0569Z" fill="white"/>
<path d="M42.2426 19.5999H43.5653V12.2017H42.2477L40.3148 13.5552V14.8267L42.1554 13.5347H42.2426V19.5999Z" fill="white"/>
</svg>
