<svg width="16" height="16" viewBox="0 0 16 16" fill="none" xmlns="http://www.w3.org/2000/svg">
<path fill-rule="evenodd" clip-rule="evenodd" d="M11.384 4.47891C11.384 2.54797 9.79252 0.982422 7.82916 0.982422C5.86639 0.982422 4.27435 2.54752 4.27437 4.47891C4.27437 6.41026 5.86587 7.97587 7.82916 7.97587C9.79253 7.97587 11.384 6.41025 11.384 4.47891ZM9.45914 9.14171H6.49618C3.95994 9.14171 1.90433 11.1634 1.9043 13.6582V13.9492C1.9043 14.9683 3.95993 14.9697 6.49618 14.9697H9.45914C9.74431 14.9697 10.0234 14.9693 10.2942 14.967C9.51244 14.4255 9.0004 13.5221 9.0004 12.4991C9.0004 11.0503 10.0275 9.84132 11.3932 9.56059C10.8054 9.29177 10.1501 9.14171 9.45914 9.14171Z" fill="#467CF3"/>
<path d="M13.3858 11.1153C13.4589 11.1886 13.5 11.2879 13.5 11.3915C13.5 11.495 13.4589 11.5943 13.3858 11.6676L12.5563 12.4968L13.3858 13.3275C13.4571 13.4013 13.4965 13.5001 13.4957 13.6027C13.4948 13.7052 13.4536 13.8033 13.3811 13.8758C13.3085 13.9484 13.2104 13.9895 13.1078 13.9904C13.0052 13.9913 12.9064 13.9519 12.8326 13.8806L12.003 13.0514L11.1727 13.8806C11.1366 13.918 11.0935 13.9478 11.0457 13.9683C10.998 13.9888 10.9466 13.9995 10.8947 14C10.8427 14.0005 10.7912 13.9906 10.7431 13.9709C10.695 13.9512 10.6513 13.9222 10.6146 13.8855C10.5779 13.8487 10.5488 13.8051 10.5291 13.757C10.5095 13.7089 10.4996 13.6574 10.5 13.6055C10.5005 13.5536 10.5113 13.5022 10.5318 13.4545C10.5523 13.4068 10.5821 13.3636 10.6195 13.3275L11.4498 12.4968L10.6195 11.6676C10.5482 11.5938 10.5087 11.495 10.5096 11.3925C10.5105 11.2899 10.5517 11.1918 10.6242 11.1193C10.6968 11.0468 10.7949 11.0056 10.8975 11.0048C11.0001 11.0039 11.0989 11.0433 11.1727 11.1145L12.003 11.9437L12.8326 11.1145C12.9059 11.0412 13.0054 11 13.1092 11C13.2129 11 13.3125 11.042 13.3858 11.1153Z" fill="#467CF3"/>
</svg>
