<svg width="18" height="18" viewBox="0 0 18 18" fill="none" xmlns="http://www.w3.org/2000/svg">
<g clip-path="url(#clip0_1306_77047)">
<path d="M0 9C-1.71224e-08 10.1491 0.226325 11.2869 0.666054 12.3485C1.10578 13.4101 1.7503 14.3747 2.56282 15.1872C3.37533 15.9997 4.33992 16.6442 5.40152 17.0839C6.46312 17.5237 7.60093 17.75 8.75 17.75C9.89907 17.75 11.0369 17.5237 12.0985 17.0839C13.1601 16.6442 14.1247 15.9997 14.9372 15.1872C15.7497 14.3747 16.3942 13.4101 16.8339 12.3485C17.2737 11.2869 17.5 10.1491 17.5 9C17.5 7.85093 17.2737 6.71312 16.8339 5.65152C16.3942 4.58992 15.7497 3.62533 14.9372 2.81282C14.1247 2.0003 13.1601 1.35578 12.0985 0.916054C11.0369 0.476325 9.89907 0.25 8.75 0.25C7.60093 0.25 6.46312 0.476325 5.40152 0.916054C4.33992 1.35578 3.37533 2.0003 2.56282 2.81282C1.7503 3.62533 1.10578 4.58992 0.666054 5.65152C0.226325 6.71312 -1.71224e-08 7.85093 0 9Z" fill="#467CF3"/>
<g clip-path="url(#clip1_1306_77047)">
<path d="M12.932 11.2679H12.294V9.67291C12.294 9.49679 12.1511 9.35397 11.975 9.35397H9.10404V7.43999H9.74196C10.0929 7.43999 10.38 7.15288 10.38 6.80198V4.88798C10.38 4.53708 10.0929 4.25 9.74196 4.25H7.82799C7.47707 4.25 7.19001 4.53708 7.19001 4.88798V6.80199C7.19001 7.15289 7.47707 7.44 7.82799 7.44H8.46597V9.35398H5.595C5.41884 9.35398 5.27597 9.4968 5.27597 9.67292V11.2679H4.63801C4.28709 11.2679 4 11.555 4 11.9059V13.8199C4 14.1709 4.28708 14.458 4.63801 14.458H6.552C6.9029 14.458 7.19001 14.1709 7.19001 13.8199V11.9059C7.19001 11.555 6.9029 11.2679 6.552 11.2679H5.91399V9.99195H11.6559V11.2679H11.018C10.6671 11.2679 10.38 11.555 10.38 11.9059V13.8199C10.38 14.1709 10.6671 14.458 11.018 14.458H12.932C13.2829 14.458 13.57 14.1709 13.57 13.8199V11.9059C13.57 11.555 13.2829 11.2679 12.932 11.2679ZM7.82799 4.88798H9.74195V6.80199H7.82799V4.88798ZM6.552 13.8199H4.63801V11.9059H6.552V13.8199ZM12.932 13.8199H11.018V11.9059H12.932V13.8199H12.932Z" fill="white"/>
</g>
</g>
<defs>
<clipPath id="clip0_1306_77047">
<rect width="17.5" height="17.5" fill="white" transform="translate(0 0.25)"/>
</clipPath>
<clipPath id="clip1_1306_77047">
<rect width="10.2083" height="10.2083" fill="white" transform="translate(4 4.25)"/>
</clipPath>
</defs>
</svg>
