<svg width="40" height="40" viewBox="0 0 40 40" fill="none" xmlns="http://www.w3.org/2000/svg">
<rect width="40" height="40" rx="1" fill="#B14049"/>
<path d="M10 14V25H11.1601V20.7171H13.1291C14.9491 20.7171 15.8644 19.5924 15.8644 17.3431C15.8644 15.1092 14.9597 14 13.1504 14H10ZM11.1601 15.4328H13.0546C13.6187 15.4328 14.0338 15.5868 14.2998 15.895C14.5659 16.1723 14.7043 16.6653 14.7043 17.3431C14.7043 18.021 14.5659 18.514 14.3105 18.8221C14.0444 19.1303 13.6293 19.2843 13.0546 19.2843H11.1601V15.4328Z" fill="white"/>
<path d="M17.076 14V25H19.822C21.0459 25 21.9719 24.507 22.6105 23.521C23.2171 22.5658 23.5258 21.2255 23.5258 19.5C23.5258 17.7591 23.2278 16.4188 22.6318 15.4944C21.9932 14.493 21.0672 14 19.8433 14H17.076ZM18.2361 15.4328H19.6304C20.5883 15.4328 21.2907 15.7563 21.7377 16.4188C22.1635 17.0658 22.387 18.0826 22.387 19.5C22.387 20.8866 22.1635 21.9034 21.7271 22.5658C21.2801 23.2283 20.567 23.5672 19.6091 23.5672H18.2361V15.4328Z" fill="white"/>
<path d="M24.8381 14V25H25.9982V20.07H29.7765V18.6373H25.9982V15.4328H30V14H24.8381Z" fill="white"/>
</svg>
