<svg width="16" height="17" viewBox="0 0 16 17" fill="none" xmlns="http://www.w3.org/2000/svg">
<g clip-path="url(#clip0_2487_47105)">
<path d="M5.2081 8.124C3.8081 8.124 2.0481 7.94 1.2001 7.084C-0.303904 5.58 -0.303904 3.14 1.2001 1.636C2.7041 0.132 5.1441 0.132 6.6481 1.636C8.0881 3.076 7.6321 7.116 7.5681 7.58L7.5201 7.98L7.1201 8.028C6.9441 8.028 6.1761 8.124 5.2081 8.124ZM3.9201 1.524C3.2001 1.524 2.4641 1.804 1.9121 2.356C0.808096 3.46 0.808096 5.26 1.9121 6.364C2.6641 7.116 5.0401 7.196 6.6081 7.036C6.7441 5.468 6.6881 3.092 5.9361 2.34C5.3841 1.796 4.6561 1.524 3.9201 1.524ZM10.8001 8.124C9.8481 8.124 9.0641 8.028 8.8641 8.02L8.4641 7.972L8.4161 7.572C8.3521 7.108 7.9121 3.076 9.3521 1.628C10.8561 0.124 13.2961 0.124 14.8001 1.628C16.3041 3.132 16.3041 5.572 14.8001 7.076C13.9601 7.94 12.1921 8.124 10.8001 8.124ZM9.40009 7.044C10.9681 7.18 13.3441 7.124 14.0961 6.372C14.6321 5.836 14.9281 5.132 14.9281 4.364C14.9281 3.612 14.6401 2.892 14.0961 2.356C13.5521 1.82 12.8561 1.524 12.0881 1.524C11.3361 1.524 10.6161 1.812 10.0801 2.356C9.3281 3.1 9.24809 5.468 9.40009 7.044ZM3.9201 16.452C2.9361 16.452 1.9361 16.084 1.1841 15.332C0.464096 14.612 0.0480957 13.644 0.0480957 12.596C0.0480957 11.564 0.448096 10.604 1.1841 9.86C2.6241 8.42 6.6641 8.876 7.1281 8.924L7.5281 8.972L7.5761 9.372C7.6401 9.836 8.0801 13.868 6.6561 15.316C5.9041 16.084 4.9201 16.452 3.9201 16.452ZM5.2721 9.868C3.9201 9.868 2.4801 10.052 1.9281 10.604C0.824096 11.708 0.824096 13.508 1.9281 14.612C3.0321 15.716 4.8321 15.716 5.9361 14.612C6.6881 13.86 6.7681 11.484 6.6081 9.916C6.2081 9.884 5.7521 9.868 5.2721 9.868ZM12.0881 16.452C11.1041 16.452 10.1041 16.084 9.3521 15.332C7.9121 13.892 8.3681 9.852 8.4161 9.388L8.4641 8.988L8.8641 8.94C9.3281 8.876 13.3601 8.436 14.8081 9.876C16.3121 11.38 16.3121 13.82 14.8081 15.324C14.0561 16.084 13.0721 16.452 12.0881 16.452ZM9.40009 9.916C9.2641 11.484 9.3201 13.86 10.0721 14.612C10.6081 15.148 11.3121 15.444 12.0801 15.444C12.8321 15.444 13.5521 15.156 14.0881 14.612C14.6241 14.076 14.9201 13.372 14.9201 12.604C14.9201 11.852 14.6321 11.132 14.0881 10.596C13.3281 9.852 10.9681 9.78 9.40009 9.916Z" fill="#467CF3"/>
</g>
<defs>
<clipPath id="clip0_2487_47105">
<rect width="16" height="16" fill="white" transform="translate(0 0.5)"/>
</clipPath>
</defs>
</svg>
