<svg width="19" height="22" viewBox="0 0 19 22" fill="none" xmlns="http://www.w3.org/2000/svg">
<g id="mima">
<path id="&#232;&#183;&#175;&#229;&#190;&#132;" d="M4.71574 8.9988H4.71574C4.52237 9.01021 4.33342 8.93978 4.19793 8.80581H4.19793C4.06078 8.67036 3.98933 8.48504 4.00129 8.29577V5.20286C4.0453 2.34731 6.38624 0.0425565 9.28619 0H9.71508C12.6159 0.0425771 14.9569 2.3464 15 5.20286V5.20286C15.0031 5.58744 14.6839 5.90191 14.2864 5.90589C13.8886 5.90238 13.5689 5.58777 13.572 5.20286V5.20286C13.5777 4.19783 13.1732 3.23124 12.4465 2.5131V2.5131C11.7277 1.80257 10.7426 1.40331 9.71506 1.40603H9.2862L9.2862 1.40603C8.25862 1.40332 7.27354 1.80258 6.55479 2.5131C5.82841 3.23139 5.42429 4.19796 5.43022 5.20286V8.29577L5.43022 8.29577C5.44217 8.48504 5.37072 8.67036 5.23356 8.80581C5.098 8.93968 4.90909 9.01008 4.71574 8.9988L4.71574 8.9988Z" fill="#646A73"/>
<path id="&#229;&#189;&#162;&#231;&#138;&#182;" fill-rule="evenodd" clip-rule="evenodd" d="M3.62635 21.9996H15.3737L15.3737 21.9996C16.3417 22.0076 17.2713 21.6257 17.9482 20.9418C18.6322 20.2512 19.0104 19.3205 18.9998 18.3544V11.6463C19.0106 10.6799 18.6323 9.74879 17.9482 9.05799C17.2713 8.37408 16.3418 7.99211 15.3737 8.00012H3.62636C2.65829 7.9921 1.72868 8.37406 1.05177 9.05798C0.367943 9.74855 -0.0103015 10.6792 0.000228543 11.6454L0.000228703 11.6454V18.3534C-0.0106594 19.3199 0.367614 20.251 1.05176 20.9418C1.72868 21.6257 2.65829 22.0076 3.62635 21.9996ZM1.45108 11.6463C1.47961 10.4503 2.43794 9.48737 3.62635 9.45822V9.45824H15.3737C16.5631 9.48737 17.5214 10.4503 17.5499 11.6454V18.3534C17.5204 19.5494 16.5631 20.5124 15.3737 20.5415H3.62635C2.43699 20.5124 1.4796 19.5494 1.45108 18.3544V11.6463Z" fill="#646A73"/>
<path id="&#232;&#183;&#175;&#229;&#190;&#132;_2" d="M9.66501 14.4007V17.221C9.64198 17.6391 9.357 17.9711 9 17.9991C8.81397 18.0095 8.63428 17.9299 8.51699 17.7851C8.38679 17.6274 8.32138 17.4261 8.33401 17.222V14.4007H8.33401C8.21909 14.3652 8.10736 14.32 8 14.2657C7.38101 13.9527 7 13.3757 7 12.7496C7 12.1245 7.38098 11.5465 8.00002 11.2345L8.00002 11.2345C8.63004 10.9218 9.36998 10.9218 10 11.2345C10.619 11.5465 11 12.1245 11 12.7496C11 13.3746 10.619 13.9527 9.99998 14.2657C9.89199 14.3197 9.77999 14.3657 9.66501 14.4007L9.66501 14.4007Z" fill="#646A73"/>
</g>
</svg>
