<svg width="14" height="14" viewBox="0 0 14 14" fill="none" xmlns="http://www.w3.org/2000/svg">
<path fill-rule="evenodd" clip-rule="evenodd" d="M7.00005 10.5055C6.58571 10.5055 6.24996 10.8413 6.24996 11.2555C6.24996 11.6696 6.58573 12.0056 7.00005 12.0056C7.41409 12.0056 7.74976 11.6696 7.74976 11.2555C7.74976 10.8413 7.41407 10.5055 7.00005 10.5055ZM7.00005 0C3.13979 0 0 3.14005 0 6.99983C0 10.8599 3.13979 14 7.00005 14C10.8598 14 14 10.8599 14 6.99983C14 3.14004 10.8597 0 7.00005 0ZM7.00005 12.9955C3.69367 12.9955 1.00436 10.3055 1.00436 6.99988C1.00436 3.69401 3.69367 1.00459 7.00005 1.00459C10.3053 1.00459 12.9957 3.69398 12.9957 6.99988C12.9957 10.3055 10.3053 12.9955 7.00005 12.9955ZM6.99975 2.51855C5.6215 2.51855 4.49968 3.63014 4.49968 4.99599C4.49968 5.27193 4.72401 5.49604 4.99974 5.49604C5.2761 5.49604 5.49985 5.27194 5.49985 4.99599C5.49985 4.1675 6.15918 3.51845 7.00006 3.51845C7.82678 3.51845 8.49996 4.19651 8.49996 5.03006C8.49996 5.36348 8.08165 5.78148 7.67697 6.18655C7.12488 6.73798 6.49987 7.36294 6.49987 8.18109V9.02646C6.49987 9.30264 6.7241 9.52657 7.00005 9.52657C7.27577 9.52657 7.49993 9.30199 7.49993 9.02598V8.18054C7.49993 7.77703 7.94898 7.32802 8.38399 6.89401C8.9324 6.3456 9.50013 5.77846 9.50013 5.0299C9.5001 3.64501 8.37878 2.51855 6.99975 2.51855Z" fill="#C0C4CC"/>
</svg>
