<svg width="41" height="40" viewBox="0 0 41 40" fill="none" xmlns="http://www.w3.org/2000/svg">
<path d="M20.5 0.00927734C31.5039 0.00927734 40.4219 8.92725 40.4219 19.9312C40.4219 30.9351 31.5039 39.853 20.5 39.853C9.49609 39.853 0.578125 30.9351 0.578125 19.9312C0.578125 8.92725 9.49609 0.00927734 20.5 0.00927734ZM26.7422 26.5835C26.5859 26.7358 26.5859 26.9819 26.7344 27.1343C26.75 27.1538 26.7695 27.1694 26.793 27.1812C27.6562 27.978 28.2148 29.0522 28.3711 30.2163C28.6133 31.0913 29.5312 31.6108 30.418 31.3687C31.2969 31.1382 31.8203 30.2397 31.5898 29.3647C31.5898 29.3608 31.5859 29.3569 31.5859 29.3491C31.4023 28.6929 30.832 28.2124 30.1523 28.146C29.0586 27.9468 28.0625 27.396 27.3086 26.5796C27.1484 26.4312 26.8984 26.4312 26.7422 26.5835ZM17.9258 7.71631C14.9414 8.04053 12.2305 9.30225 10.2852 11.271C9.52734 12.0288 8.89844 12.9038 8.41797 13.8608C6.94531 16.7866 7.19141 20.2827 9.0625 22.9702C9.58984 23.7593 10.4609 24.7437 11.2539 25.4429L10.8945 28.228L10.8555 28.3452C10.8438 28.3804 10.8438 28.4194 10.8398 28.4546L10.832 28.5444L10.8398 28.6343C10.8867 29.1304 11.3281 29.4937 11.8242 29.4507C11.9609 29.439 12.0898 29.396 12.207 29.3296H12.2227L12.2773 29.2905L13.1367 28.8687L15.6953 27.5991C16.9102 27.9429 18.1719 28.1147 19.4375 28.1069C21 28.1108 22.5547 27.8452 24.0273 27.3179C23.293 27.0835 22.8203 26.3687 22.8945 25.5991C21.3711 26.0835 19.7617 26.2397 18.1758 26.064L17.9219 26.0288C17.3477 25.9546 16.7812 25.8374 16.2266 25.6812C15.9219 25.5874 15.5977 25.6226 15.3164 25.7749L15.2461 25.8101L13.1406 27.0327L13.0508 27.0874C13 27.1147 12.9766 27.1265 12.9492 27.1265C12.8711 27.1226 12.8125 27.0562 12.8164 26.978L12.8945 26.6577L12.9883 26.3101L13.1406 25.7358L13.3164 25.0952C13.4336 24.7358 13.3047 24.3452 12.9961 24.1265C12.1719 23.521 11.4531 22.7827 10.8711 21.939C9.39062 19.8218 9.19141 17.064 10.3516 14.7593C10.7383 13.9976 11.2461 13.2983 11.8516 12.6929C13.4492 11.0679 15.6914 10.0327 18.1758 9.76709C19.0352 9.67334 19.9023 9.67334 20.7617 9.76709C23.2305 10.0483 25.4648 11.0952 27.0547 12.7124C27.6562 13.3257 28.1562 14.0249 28.5352 14.7905C29.0234 15.7593 29.2773 16.8335 29.2812 17.9194C29.2812 18.0327 29.2695 18.146 29.2656 18.2554C29.9219 17.8569 30.7656 17.9546 31.3125 18.4937L31.3867 18.5835C31.5156 16.9741 31.1992 15.3608 30.4766 13.9155C30.0039 12.9585 29.3789 12.0874 28.6289 11.3257C26.5781 9.29443 23.8867 8.03271 21.0156 7.74365C19.9844 7.61084 18.9492 7.60693 17.9258 7.71631ZM34.2617 23.5522C33.9805 23.6265 33.7227 23.7749 33.5117 23.9819H33.5078C33.2383 24.2476 33.0703 24.5952 33.0312 24.9702C32.8281 26.0562 32.2695 27.0444 31.4492 27.7827C31.293 27.9312 31.2891 28.1772 31.4375 28.3335L31.4414 28.3374C31.5977 28.4937 31.8516 28.4976 32.0117 28.3413C32.0312 28.3218 32.0469 28.3062 32.0586 28.2827C32.875 27.4272 33.9609 26.8765 35.1328 26.728C36.0234 26.4897 36.5469 25.5874 36.3086 24.7124C36.0664 23.8335 35.1523 23.314 34.2617 23.5522ZM27.9961 21.9116L27.9688 21.939C27.1523 22.8257 26.0469 23.396 24.8477 23.5483C23.9648 23.7788 23.4336 24.6694 23.668 25.5444C23.7422 25.8296 23.8984 26.0913 24.1094 26.2983C24.7617 26.939 25.8164 26.939 26.4688 26.2944C26.7344 26.0288 26.9023 25.6812 26.9453 25.3101C27.1523 24.2241 27.7109 23.2358 28.5352 22.4976C28.6953 22.353 28.7109 22.1069 28.5703 21.9468L28.5664 21.9429C28.4102 21.7788 28.1602 21.7671 27.9961 21.9116ZM29.543 18.9194C29.2656 18.9937 29.0117 19.1421 28.8125 19.3413C28.1719 19.9741 28.1641 21.0054 28.7969 21.646L28.8164 21.6655C29.0859 21.9312 29.4375 22.0952 29.8125 22.1382C30.9062 22.3374 31.9062 22.8843 32.6602 23.6968C32.8164 23.853 33.0664 23.853 33.2227 23.7007C33.3789 23.5522 33.3828 23.3062 33.2344 23.1499C33.2148 23.1304 33.1914 23.1108 33.168 23.0952C32.3047 22.2983 31.7461 21.228 31.5898 20.064C31.3516 19.189 30.4336 18.6772 29.543 18.9194Z" fill="#467CF3"/>
</svg>
