<svg width="48" height="48" viewBox="0 0 48 48" fill="none" xmlns="http://www.w3.org/2000/svg">
<rect width="48" height="48" rx="6" fill="#F2F3F5"/>
<path d="M30.3839 15.1309C30.3839 14.5786 29.9362 14.1309 29.3839 14.1309H13.8418C13.2895 14.1309 12.8418 14.5786 12.8418 15.1309V26.8129C12.8418 27.3652 13.2895 27.8129 13.8418 27.8129H14.9348C15.4743 27.8129 15.9117 28.2503 15.9117 28.7898V28.7898C15.9117 29.557 16.7554 30.0248 17.406 29.6184L20.0541 27.9647C20.213 27.8655 20.3965 27.8129 20.5838 27.8129H29.3839C29.9362 27.8129 30.3839 27.3652 30.3839 26.8129L30.3839 15.1309Z" stroke="#4E5969" stroke-width="1.5" stroke-linecap="round" stroke-linejoin="round"/>
<path d="M29.0198 32.4075C28.8323 32.22 28.5779 32.1146 28.3127 32.1146H23.2948C22.7425 32.1146 22.2948 31.6669 22.2948 31.1146V28.8219C22.2948 28.2696 22.7425 27.8219 23.2948 27.8219H29.4811C30.0334 27.8219 30.4811 27.3742 30.4811 26.8219V23.7588C30.4811 23.2065 30.9289 22.7588 31.4811 22.7588H34.159C34.7113 22.7588 35.159 23.2065 35.159 23.7588V31.1146C35.159 31.6669 34.7113 32.1146 34.159 32.1146H32.6496C32.3843 32.1146 32.13 32.22 31.9425 32.4075L31.1882 33.1617C30.7977 33.5522 30.1646 33.5522 29.774 33.1617L29.0198 32.4075Z" stroke="#4E5969" stroke-width="1.5" stroke-linecap="round" stroke-linejoin="round"/>
<path d="M25.3496 21.0391H26.6807" stroke="#4E5969" stroke-width="1.5" stroke-linecap="round"/>
<path d="M20.9473 21.0391H22.2783" stroke="#4E5969" stroke-width="1.5" stroke-linecap="round"/>
<path d="M16.5428 21.0391H17.8739" stroke="#4E5969" stroke-width="1.5" stroke-linecap="round"/>
</svg>
