<svg width="266" height="197" viewBox="0 0 266 197" fill="none" xmlns="http://www.w3.org/2000/svg">
<g clip-path="url(#clip0_1249_306853)">
<path d="M265.204 172.949H0.00390625V173.081H265.204V172.949Z" fill="#EBEBEB"/>
<path d="M45.395 181.447H27.8281V181.579H45.395V181.447Z" fill="#EBEBEB"/>
<path d="M95.3801 182.885H71.7773V183.017H95.3801V182.885Z" fill="#EBEBEB"/>
<path d="M83.2726 176.547H45.9219V176.679H83.2726V176.547Z" fill="#EBEBEB"/>
<path d="M238.633 177.433H231.902V177.565H238.633V177.433Z" fill="#EBEBEB"/>
<path d="M227.175 177.433H207.641V177.565H227.175V177.433Z" fill="#EBEBEB"/>
<path d="M163.537 179.662H147.031V179.794H163.537V179.662Z" fill="#EBEBEB"/>
<path d="M125.712 149.393H23.2967C22.4944 149.391 21.7254 149.073 21.1586 148.508C20.5918 147.942 20.2734 147.176 20.2734 146.377V3.01676C20.2804 2.22242 20.6019 1.46289 21.1679 0.903159C21.734 0.343429 22.499 0.0287045 23.2967 0.0273438H125.712C126.515 0.0273438 127.285 0.345082 127.853 0.91066C128.421 1.47624 128.74 2.24332 128.74 3.04317V146.377C128.74 147.177 128.421 147.944 127.853 148.509C127.285 149.075 126.515 149.393 125.712 149.393ZM23.2967 0.132977C22.5296 0.134376 21.7943 0.43882 21.2524 0.979483C20.7104 1.52015 20.406 2.25285 20.406 3.01676V146.377C20.406 147.141 20.7104 147.874 21.2524 148.414C21.7943 148.955 22.5296 149.259 23.2967 149.261H125.712C126.479 149.259 127.215 148.955 127.758 148.415C128.301 147.874 128.606 147.141 128.608 146.377V3.01676C128.606 2.25237 128.301 1.51967 127.758 0.979161C127.215 0.438648 126.479 0.134374 125.712 0.132977H23.2967Z" fill="#EBEBEB"/>
<path d="M240.445 149.393H138.025C137.222 149.391 136.452 149.073 135.885 148.508C135.317 147.943 134.997 147.176 134.996 146.377V3.01676C135.004 2.22193 135.327 1.46241 135.894 0.902828C136.461 0.343244 137.226 0.0286897 138.025 0.0273438H240.445C241.242 0.0300926 242.005 0.345431 242.57 0.905012C243.135 1.46459 243.456 2.22333 243.463 3.01676V146.377C243.463 147.175 243.145 147.94 242.58 148.506C242.014 149.071 241.246 149.39 240.445 149.393ZM138.025 0.132977C137.257 0.134374 136.521 0.438648 135.978 0.979161C135.436 1.51967 135.13 2.25237 135.129 3.01676V146.377C135.13 147.141 135.436 147.874 135.978 148.415C136.521 148.955 137.257 149.259 138.025 149.261H240.445C241.213 149.259 241.948 148.955 242.491 148.415C243.034 147.874 243.339 147.141 243.341 146.377V3.01676C243.339 2.25237 243.034 1.51967 242.491 0.979161C241.948 0.438648 241.213 0.134374 240.445 0.132977H138.025Z" fill="#EBEBEB"/>
<path d="M168.434 120.449V7.2627L28.705 7.2627V120.449L168.434 120.449Z" fill="#EBEBEB"/>
<path d="M169.277 120.456V7.26953H168.434V120.456H169.277Z" fill="#E0E0E0"/>
<path d="M35.5889 113.594L161.543 113.594V14.1295L35.5889 14.1295L35.5889 113.594Z" fill="#F5F5F5"/>
<path d="M92.96 113.594H109.869L81.6996 14.1299H64.7852L92.96 113.594Z" fill="white"/>
<path d="M79.3805 113.594H89.1611L60.9915 14.1299H51.2109L79.3805 113.594Z" fill="white"/>
<path d="M133.588 113.594H137.64L109.47 14.1299H105.418L133.588 113.594Z" fill="white"/>
<path d="M225.886 168.607H78.4352C77.9282 168.609 77.426 168.51 76.9586 168.314C76.4913 168.118 76.0685 167.83 75.7158 167.468C75.363 167.105 75.0875 166.675 74.9059 166.204C74.7242 165.732 74.6402 165.229 74.6588 164.725L78.1488 59.736C78.1923 58.697 78.6348 57.7143 79.385 56.9909C80.1351 56.2675 81.1356 55.8586 82.1799 55.8487H229.663C230.17 55.8469 230.673 55.9472 231.14 56.1435C231.607 56.3399 232.03 56.6282 232.383 56.9913C232.735 57.3543 233.011 57.7846 233.192 58.2562C233.374 58.7279 233.458 59.2312 233.439 59.736L229.949 164.725C229.903 165.768 229.455 166.753 228.698 167.476C227.942 168.199 226.935 168.604 225.886 168.607Z" fill="#E0E0E0"/>
<g opacity="0.6">
<path d="M224.687 168.606H77.236C76.729 168.608 76.2267 168.509 75.7594 168.313C75.2921 168.117 74.8693 167.829 74.5165 167.467C74.1638 167.104 73.8883 166.674 73.7066 166.203C73.525 165.731 73.441 165.228 73.4596 164.724L76.9125 59.735C76.9559 58.696 77.3984 57.7133 78.1486 56.9899C78.8988 56.2665 79.8993 55.8576 80.9435 55.8477H228.395C228.902 55.8459 229.404 55.9462 229.872 56.1426C230.339 56.3389 230.762 56.6273 231.114 56.9903C231.467 57.3534 231.743 57.7836 231.924 58.2552C232.106 58.7269 232.19 59.2302 232.171 59.735L228.681 164.724C228.636 165.755 228.197 166.731 227.455 167.452C226.713 168.173 225.724 168.585 224.687 168.606Z" fill="#FAFAFA"/>
</g>
<path d="M222.77 168.416H44.683C43.8025 168.416 42.94 168.664 42.1949 169.132C41.4498 169.599 40.8524 170.266 40.4716 171.057C40.3748 171.262 40.3317 171.489 40.3466 171.715C40.3615 171.941 40.4338 172.16 40.5567 172.351C40.6796 172.542 40.8492 172.699 41.0495 172.807C41.2498 172.915 41.4744 172.971 41.7022 172.969H225.751C225.979 172.972 226.204 172.917 226.405 172.809C226.606 172.701 226.777 172.545 226.9 172.353C227.024 172.162 227.097 171.943 227.112 171.716C227.127 171.489 227.084 171.263 226.987 171.057C226.606 170.265 226.007 169.598 225.261 169.13C224.515 168.663 223.652 168.415 222.77 168.416Z" fill="#E0E0E0"/>
<path opacity="0.6" d="M44.683 168.416H186.83C187.71 168.417 188.572 168.665 189.316 169.132C190.06 169.6 190.656 170.267 191.036 171.057C191.135 171.262 191.179 171.489 191.165 171.716C191.15 171.943 191.078 172.162 190.955 172.354C190.832 172.545 190.662 172.702 190.461 172.81C190.259 172.917 190.034 172.972 189.806 172.969H41.7022C41.4744 172.971 41.2498 172.915 41.0495 172.807C40.8492 172.699 40.6796 172.542 40.5567 172.351C40.4338 172.16 40.3615 171.941 40.3466 171.715C40.3317 171.489 40.3748 171.262 40.4716 171.057C40.8524 170.266 41.4498 169.599 42.1949 169.132C42.94 168.664 43.8025 168.416 44.683 168.416Z" fill="#FAFAFA"/>
<path opacity="0.3" d="M129.637 171.302H92.6627C92.2238 171.302 91.8028 171.475 91.4925 171.784C91.1822 172.093 91.0078 172.513 91.0078 172.95H131.292C131.292 172.513 131.117 172.093 130.807 171.784C130.497 171.475 130.076 171.302 129.637 171.302Z" fill="#E0E0E0"/>
<path opacity="0.9" d="M76.9656 160.927L80.2064 63.5334C80.2241 63.1252 80.3996 62.7396 80.6961 62.4571C80.9926 62.1747 81.3872 62.0172 81.7976 62.0176H227.217C227.415 62.0167 227.611 62.0557 227.793 62.1323C227.975 62.2088 228.14 62.3213 228.277 62.463C228.414 62.6046 228.521 62.7725 228.592 62.9565C228.662 63.1405 228.694 63.3367 228.687 63.5334L225.451 160.927C225.432 161.335 225.256 161.719 224.96 162C224.663 162.282 224.269 162.438 223.86 162.438H78.4348C78.2378 162.438 78.0428 162.399 77.8613 162.322C77.6799 162.246 77.5158 162.134 77.3787 161.993C77.2416 161.852 77.1344 161.685 77.0635 161.502C76.9925 161.319 76.9592 161.123 76.9656 160.927Z" fill="white"/>
<path d="M80.817 156.782L83.8032 67.5538C83.8183 67.0611 84.0256 66.5936 84.3811 66.2505C84.7366 65.9074 85.2122 65.7156 85.7073 65.7158H222.927C223.183 65.7157 223.436 65.7669 223.672 65.8664C223.908 65.966 224.121 66.1118 224.298 66.2952C224.476 66.4786 224.615 66.6959 224.707 66.9339C224.798 67.1719 224.84 67.4259 224.831 67.6806L221.866 156.893C221.848 157.385 221.639 157.852 221.283 158.193C220.927 158.535 220.452 158.726 219.957 158.726H82.7424C82.4865 158.729 82.2326 158.68 81.9959 158.583C81.7593 158.486 81.5447 158.343 81.3649 158.161C81.1852 157.98 81.0441 157.764 80.9499 157.527C80.8558 157.29 80.8106 157.037 80.817 156.782Z" fill="#F0F0F0"/>
<path d="M192.778 162.443H216.89L189.103 62.0176H164.996L192.778 162.443Z" fill="white"/>
<path d="M177.417 162.443H186.089L158.306 62.0176H149.629L177.417 162.443Z" fill="white"/>
<path d="M128.049 162.443H136.727L108.939 62.0176H100.262L128.049 162.443Z" fill="white"/>
<path opacity="0.4" d="M155.732 119.499C155.721 119.804 155.593 120.092 155.374 120.305C155.154 120.518 154.861 120.638 154.555 120.64C154.406 120.642 154.258 120.613 154.12 120.556C153.982 120.498 153.858 120.414 153.754 120.307C153.65 120.2 153.57 120.074 153.517 119.935C153.464 119.796 153.44 119.648 153.446 119.499C153.459 119.194 153.588 118.906 153.809 118.693C154.029 118.481 154.323 118.361 154.629 118.358C154.778 118.358 154.925 118.387 155.062 118.444C155.199 118.502 155.323 118.587 155.426 118.693C155.53 118.8 155.61 118.926 155.662 119.065C155.715 119.204 155.739 119.351 155.732 119.499Z" fill="white"/>
<path d="M132.597 196.801C189.394 196.801 235.436 194.125 235.436 190.823C235.436 187.521 189.394 184.844 132.597 184.844C75.8005 184.844 29.7578 187.521 29.7578 190.823C29.7578 194.125 75.8005 196.801 132.597 196.801Z" fill="#F5F5F5"/>
<path opacity="0.5" d="M83.7998 122.969C75.4856 114.69 69.8234 104.142 67.5293 92.6591C65.2352 81.1759 66.4122 69.2732 70.9115 58.4562C75.4108 47.6392 83.0303 38.3936 92.8065 31.8888C102.583 25.384 114.076 21.9121 125.834 21.9121C137.592 21.9121 149.085 25.384 158.861 31.8888C168.638 38.3936 176.257 47.6392 180.756 58.4562C185.256 69.2732 186.433 81.1759 184.139 92.6591C181.845 104.142 176.182 114.69 167.868 122.969C156.719 134.068 141.599 140.304 125.834 140.304C110.069 140.304 94.9489 134.068 83.7998 122.969Z" fill="white"/>
<path d="M211.989 156.149C211.783 155.089 211.317 154.096 210.631 153.259C209.263 151.796 207.799 150.429 206.356 149.034C204.913 147.64 203.439 146.288 201.938 144.951C200.437 143.615 198.941 142.284 197.419 140.974C194.353 138.37 191.219 135.841 187.962 133.427C186.477 132.334 184.976 131.256 183.438 130.21C183.801 129.231 183.875 128.169 183.65 127.15C183.425 126.13 182.912 125.196 182.17 124.459L179.937 122.235C179.546 121.846 179.099 121.516 178.611 121.258C188.841 107.926 193.6 91.2194 191.923 74.5239C190.246 57.8283 182.258 42.3918 169.578 31.3416C156.899 20.2913 140.475 14.4536 123.634 15.0112C106.794 15.5687 90.7958 22.4797 78.8812 34.3442C66.9665 46.2086 60.0263 62.1393 59.4664 78.9089C58.9065 95.6785 64.7689 112.033 75.8659 124.659C86.9628 137.286 102.465 145.24 119.231 146.91C135.997 148.58 152.774 143.841 166.162 133.654C166.419 134.141 166.748 134.586 167.138 134.974L169.377 137.203C170.119 137.94 171.057 138.45 172.08 138.673C173.103 138.897 174.169 138.825 175.153 138.466C176.214 139.992 177.274 141.487 178.383 142.966C180.807 146.208 183.347 149.335 185.957 152.383C187.278 153.899 188.609 155.414 189.956 156.888C191.303 158.362 192.672 159.835 194.056 161.282C195.441 162.73 196.83 164.177 198.299 165.545C199.144 166.223 200.141 166.685 201.206 166.891C202.674 167.168 204.187 167.11 205.63 166.722C207.129 166.357 208.5 165.59 209.592 164.503C210.684 163.416 211.457 162.052 211.825 160.559C212.212 159.12 212.268 157.612 211.989 156.149ZM82.0729 124.675C73.4134 116.056 67.5153 105.074 65.1247 93.1164C62.734 81.1592 63.958 68.7646 68.6421 57.5002C73.3261 46.2358 81.2597 36.6077 91.4393 29.8337C101.619 23.0596 113.587 19.444 125.831 19.444C138.074 19.444 150.043 23.0596 160.222 29.8337C170.402 36.6077 178.336 46.2358 183.02 57.5002C187.704 68.7646 188.928 81.1592 186.537 93.1164C184.146 105.074 178.248 116.056 169.589 124.675C157.982 136.229 142.243 142.72 125.831 142.72C109.419 142.72 93.6794 136.229 82.0729 124.675Z" fill="#467CF3"/>
<path opacity="0.2" d="M211.989 156.149C211.783 155.089 211.317 154.096 210.631 153.259C209.263 151.796 207.799 150.429 206.356 149.034C204.913 147.64 203.439 146.288 201.938 144.951C200.437 143.615 198.941 142.284 197.419 140.974C194.353 138.37 191.219 135.841 187.962 133.427C186.477 132.334 184.976 131.256 183.438 130.21C183.801 129.231 183.875 128.169 183.65 127.15C183.425 126.13 182.912 125.196 182.17 124.459L179.937 122.235C179.546 121.846 179.099 121.516 178.611 121.258C188.841 107.926 193.6 91.2194 191.923 74.5239C190.246 57.8283 182.258 42.3918 169.578 31.3416C156.899 20.2913 140.475 14.4536 123.634 15.0112C106.794 15.5687 90.7958 22.4797 78.8812 34.3442C66.9665 46.2086 60.0263 62.1393 59.4664 78.9089C58.9065 95.6785 64.7689 112.033 75.8659 124.659C86.9628 137.286 102.465 145.24 119.231 146.91C135.997 148.58 152.774 143.841 166.162 133.654C166.419 134.141 166.748 134.586 167.138 134.974L169.377 137.203C170.119 137.94 171.057 138.45 172.08 138.673C173.103 138.897 174.169 138.825 175.153 138.466C176.214 139.992 177.274 141.487 178.383 142.966C180.807 146.208 183.347 149.335 185.957 152.383C187.278 153.899 188.609 155.414 189.956 156.888C191.303 158.362 192.672 159.835 194.056 161.282C195.441 162.73 196.83 164.177 198.299 165.545C199.144 166.223 200.141 166.685 201.206 166.891C202.674 167.168 204.187 167.11 205.63 166.722C207.129 166.357 208.5 165.59 209.592 164.503C210.684 163.416 211.457 162.052 211.825 160.559C212.212 159.12 212.268 157.612 211.989 156.149ZM82.0729 124.675C73.4134 116.056 67.5153 105.074 65.1247 93.1164C62.734 81.1592 63.958 68.7646 68.6421 57.5002C73.3261 46.2358 81.2597 36.6077 91.4393 29.8337C101.619 23.0596 113.587 19.444 125.831 19.444C138.074 19.444 150.043 23.0596 160.222 29.8337C170.402 36.6077 178.336 46.2358 183.02 57.5002C187.704 68.7646 188.928 81.1592 186.537 93.1164C184.146 105.074 178.248 116.056 169.589 124.675C157.982 136.229 142.243 142.72 125.831 142.72C109.419 142.72 93.6794 136.229 82.0729 124.675Z" fill="black"/>
<path opacity="0.3" d="M175.156 138.465L183.441 130.21C183.441 130.21 181.24 136.495 175.156 138.465Z" fill="black"/>
<path d="M187.903 53.9016C187.112 52.1005 186.232 50.3153 185.288 48.6199L185.786 48.3505C186.736 50.0829 187.627 51.8787 188.438 53.6956L187.903 53.9016ZM182.991 44.7326C180.354 40.6174 177.273 36.8008 173.805 33.3506L174.208 32.9492C177.704 36.4306 180.809 40.2808 183.469 44.4316L182.991 44.7326Z" fill="#407BFF"/>
<path opacity="0.2" d="M187.903 53.9016C187.112 52.1005 186.232 50.3153 185.288 48.6199L185.786 48.3505C186.736 50.0829 187.627 51.8787 188.438 53.6956L187.903 53.9016ZM182.991 44.7326C180.354 40.6174 177.273 36.8008 173.805 33.3506L174.208 32.9492C177.704 36.4306 180.809 40.2808 183.469 44.4316L182.991 44.7326Z" fill="black"/>
<path d="M101.459 137.694C99.7193 136.965 98.0008 136.147 96.3301 135.254C93.8088 133.887 91.3845 132.35 89.0742 130.654C92.1293 125.531 94.8131 121.617 96.6749 120.059C96.7226 119.985 96.765 119.979 96.765 119.979L101.459 137.694Z" fill="#263238"/>
<path opacity="0.3" d="M101.459 137.694C99.7193 136.965 98.0008 136.147 96.3301 135.254C93.8088 133.887 91.3845 132.35 89.0742 130.654C92.1293 125.531 94.8131 121.617 96.6749 120.059C96.7226 119.985 96.765 119.979 96.765 119.979L101.459 137.694Z" fill="white"/>
<path d="M170.412 111.998C170.635 113.884 170.847 115.833 170.991 117.835C171.012 117.923 171.022 118.013 171.022 118.104C171.156 119.72 171.193 121.343 171.134 122.963C170.073 124.088 169.012 125.181 167.877 126.195C159.445 134.029 148.967 139.337 137.644 141.512C137.342 141.576 137.018 141.639 136.711 141.676C135.173 141.977 133.656 142.204 132.128 142.336C130.121 142.549 128.105 142.655 126.087 142.653C123.045 142.687 120.005 142.481 116.996 142.035C114.006 141.615 111.052 140.971 108.159 140.107C104.706 134.53 101.795 127.151 99.466 119.203C93.5415 98.979 91.282 75.0055 93.2392 67.3947C94.0772 64.1729 98.3098 62.113 104.224 60.856C104.627 60.7556 105.014 60.6817 105.417 60.6025L106.006 60.4915C113.506 59.1341 123.175 58.8648 131.995 58.9968C132.526 58.9968 133.056 58.9968 133.56 59.0496C135.316 59.0866 136.987 59.1394 138.62 59.1975C141.018 59.2979 143.251 59.4088 145.277 59.5408C147.345 59.6623 149.202 59.8049 150.74 59.9053C153.752 60.1324 155.556 60.3278 155.556 60.3278C155.556 60.6394 155.556 60.951 155.556 61.2679C156.208 68.2556 166.938 83.2291 170.412 111.998Z" fill="#263238"/>
<path d="M175.971 112.528C175.696 114.45 175.441 116.325 175.176 118.132C173.92 119.809 172.571 121.416 171.134 122.943C170.073 124.068 169.012 125.161 167.877 126.175C159.445 134.009 148.967 139.317 137.645 141.492C137.342 141.556 137.019 141.619 136.711 141.656C135.173 141.957 133.656 142.184 132.128 142.316C130.122 142.529 128.105 142.635 126.087 142.633C123.045 142.667 120.005 142.461 116.996 142.015C114.006 141.595 111.052 140.951 108.16 140.087C105.878 139.42 103.639 138.615 101.455 137.679C99.7157 136.95 97.9972 136.131 96.3265 135.239C96.2681 134.626 96.1992 134.05 96.1514 133.496C95.0906 122.547 96.3265 120.424 96.6818 120.043C96.7296 119.97 96.772 119.964 96.772 119.964C96.772 119.964 97.7638 119.663 99.477 119.183C103.72 118.005 112.207 115.697 120.375 114.112L121.876 113.822C123.181 113.61 124.528 113.415 125.817 113.22C131.9 112.375 138.042 111.804 144.2 111.551C146.009 111.45 147.812 111.413 149.637 111.376C150.979 111.345 152.321 111.313 153.641 111.308C159.253 111.265 164.833 111.498 170.423 111.984C172.269 112.137 174.12 112.343 175.971 112.528Z" fill="#263238"/>
<path opacity="0.3" d="M175.971 112.528C175.696 114.45 175.441 116.325 175.176 118.132C173.92 119.809 172.571 121.416 171.134 122.943C170.073 124.068 169.012 125.161 167.877 126.175C159.445 134.009 148.967 139.317 137.645 141.492C137.342 141.556 137.019 141.619 136.711 141.656C135.173 141.957 133.656 142.184 132.128 142.316C130.122 142.529 128.105 142.635 126.087 142.633C123.045 142.667 120.005 142.461 116.996 142.015C114.006 141.595 111.052 140.951 108.16 140.087C105.878 139.42 103.639 138.615 101.455 137.679C99.7157 136.95 97.9972 136.131 96.3265 135.239C96.2681 134.626 96.1992 134.05 96.1514 133.496C95.0906 122.547 96.3265 120.424 96.6818 120.043C96.7296 119.97 96.772 119.964 96.772 119.964C96.772 119.964 97.7638 119.663 99.477 119.183C103.72 118.005 112.207 115.697 120.375 114.112L121.876 113.822C123.181 113.61 124.528 113.415 125.817 113.22C131.9 112.375 138.042 111.804 144.2 111.551C146.009 111.45 147.812 111.413 149.637 111.376C150.979 111.345 152.321 111.313 153.641 111.308C159.253 111.265 164.833 111.498 170.423 111.984C172.269 112.137 174.12 112.343 175.971 112.528Z" fill="white"/>
<path d="M147.401 119.451L156.693 127.136C156.693 127.136 145.025 132.418 136.713 141.671C135.175 141.972 133.658 142.199 132.131 142.331C130.124 142.544 128.107 142.65 126.089 142.648C123.047 142.683 120.007 142.476 116.998 142.03C113.694 138.898 110.368 136.131 107.981 135.016C107.981 135.016 112.506 128.15 118.483 123.735C114.234 122.823 109.892 122.41 105.547 122.504C110.304 119.399 115.254 116.596 120.366 114.111C122.308 113.187 124.286 112.321 126.201 111.618C128.214 110.863 130.298 110.309 132.422 109.965C135.708 109.422 139.027 109.106 142.357 109.02C146.242 108.951 150.095 109.731 153.644 111.307C156.473 112.645 159.029 114.491 161.186 116.752L147.401 119.451Z" fill="white"/>
<path d="M147.28 114.148C147.237 114.263 147.182 114.373 147.116 114.476C146.976 114.664 146.854 114.864 146.75 115.073C146.7 115.115 146.667 115.173 146.654 115.236C144.426 119.023 136.895 132.101 132.126 142.331C130.12 142.544 128.103 142.65 126.085 142.648C124.276 136.986 122.372 128.552 122.903 119.256C122.945 118.284 123.019 117.28 123.136 116.272L147.28 114.148Z" fill="#407BFF"/>
<path d="M129.481 126.186C144.04 121.375 147.281 114.15 147.281 114.15C136.058 107.093 140.916 90.1338 140.916 90.1338L123.594 96.9999C124.501 99.4083 125.229 101.88 125.774 104.394C128.044 115.232 123.122 116.299 123.122 116.299C121.122 122.774 129.481 126.186 129.481 126.186Z" fill="#EEC1BB"/>
<path opacity="0.2" d="M123.582 96.9716C124.489 99.38 125.218 101.851 125.762 104.366C137.908 102.005 140.905 90.1055 140.905 90.1055L123.582 96.9716Z" fill="black"/>
<path d="M123.703 44.9846C107.913 47.1764 104.004 56.2979 105.113 72.6658C106.497 93.1216 113.016 106.886 132.163 99.8241C158.158 90.2326 149.932 41.3508 123.703 44.9846Z" fill="#EEC1BB"/>
<path d="M115.189 70.374C115.189 70.374 113.598 74.7842 111.508 77.5307C112.061 78.1169 112.765 78.5395 113.544 78.752C114.323 78.9645 115.145 78.9586 115.921 78.7349L115.189 70.374Z" fill="#D4827D"/>
<path d="M124.683 67.75C124.832 69.044 125.659 70.0158 126.529 69.9155C127.399 69.8151 127.977 68.6848 127.823 67.3855C127.67 66.0862 126.853 65.1197 125.983 65.22C125.113 65.3204 124.535 66.4507 124.683 67.75Z" fill="#263238"/>
<path d="M126.354 65.2412L123.395 64.4648C123.395 64.4648 125.076 66.6726 126.354 65.2412Z" fill="#263238"/>
<path d="M108.466 69.3335C108.614 70.6328 109.436 71.6047 110.306 71.5043C111.176 71.404 111.754 70.2737 111.606 68.9744C111.457 67.6751 110.63 66.7086 109.765 66.8089C108.901 66.9093 108.312 68.0395 108.466 69.3335Z" fill="#263238"/>
<path d="M110.135 66.8315L107.176 66.0498C107.176 66.0498 108.862 68.2628 110.135 66.8315Z" fill="#263238"/>
<path d="M123.32 56.8636C123.32 56.8636 127.675 55.6753 130.502 58.295" stroke="#263238" stroke-width="0.528" stroke-linecap="round" stroke-linejoin="round"/>
<path d="M111.744 57.7932C111.744 57.7932 108.811 57.1488 105.629 59.9587" stroke="#263238" stroke-width="0.528" stroke-linecap="round" stroke-linejoin="round"/>
<path d="M119.094 84.6039C120.087 86.2748 120.958 88.0153 121.698 89.8116C122.032 89.7377 122.372 89.6637 122.7 89.5739C127.235 88.4754 128.97 86.4736 129.521 84.5881C129.773 83.6637 129.796 82.6925 129.59 81.7571C129.488 81.2205 129.31 80.7011 129.06 80.2148C127.007 82.2272 122.86 83.574 120.616 84.2025C119.693 84.4771 119.094 84.6039 119.094 84.6039Z" fill="#263238"/>
<path d="M120.629 84.2025L121.435 85.7183C125.705 84.662 128.564 83.368 129.587 81.7571C129.485 81.2205 129.307 80.7011 129.057 80.2148C127.02 82.2272 122.872 83.574 120.629 84.2025Z" fill="white"/>
<path d="M122.691 89.5718C127.226 88.4732 128.961 86.4715 129.512 84.5859C127.803 85.04 126.188 85.7891 124.739 86.7989C123.783 87.4883 123.067 88.4577 122.691 89.5718Z" fill="#DE5753"/>
<path d="M144.665 69.102C144.665 69.102 135.473 57.2024 135.197 47.0722C135.197 47.0722 102.121 38.6796 104.996 70.5281C104.996 70.5281 98.0158 42.8627 125.077 38.4737C152.138 34.0846 157.548 73.6548 145.174 87.3818C145.174 87.3818 150.361 76.5492 144.665 69.102Z" fill="#263238"/>
<path d="M142.552 72.7783C142.302 70.2326 144.328 65.5847 149.129 65.4421C154.098 65.2942 157.827 74.9808 145.989 79.0688C144.27 79.6603 143.066 78.097 142.552 72.7783Z" fill="#EEC1BB"/>
<path d="M130.733 46.333C130.733 46.333 132.016 66.0125 147.032 81.192C158.414 92.7007 150.591 106.253 150.591 106.253C150.591 106.253 170.041 95.0247 155.163 67.3171C155.163 67.3171 159.799 39.0707 139.124 35.7327C139.124 35.7327 137.437 27.7257 120.289 32.643C103.141 37.5602 92.0136 55.1904 93.0691 74.6903C94.1246 94.1902 108.201 113.41 108.201 113.41C108.201 113.41 84.4554 48.208 130.733 46.333Z" fill="#263238"/>
<path d="M130.899 46.3475C130.746 48.7535 130.835 51.1686 131.164 53.557C131.477 55.9547 131.939 58.3308 132.548 60.6714C133.821 65.3435 135.573 69.8727 137.778 74.1872C139.964 78.5175 142.663 82.5711 145.819 86.261C147.41 88.093 149.137 89.8038 150.985 91.379C152.819 92.9687 154.836 94.3356 156.994 95.4511C154.825 94.3481 152.795 92.9917 150.948 91.4107C149.09 89.8432 147.352 88.1395 145.75 86.3139C142.566 82.6372 139.837 78.5923 137.624 74.2664C135.389 69.9515 133.611 65.4165 132.32 60.7348C131.69 58.3889 131.21 56.0056 130.883 53.5992C130.534 51.1862 130.43 48.7442 130.575 46.3105L130.899 46.3475Z" fill="#263238"/>
<path d="M177.405 115.016C176.698 116.097 175.955 117.143 175.177 118.153C173.921 119.831 172.572 121.438 171.136 122.965C170.075 124.09 169.014 125.183 167.879 126.197C168.474 123.266 169.525 120.445 170.992 117.836C172.218 115.714 173.923 113.906 175.973 112.555C175.973 112.555 176.482 113.437 177.405 115.016Z" fill="#263238"/>
<path opacity="0.3" d="M177.405 115.016C176.698 116.097 175.955 117.143 175.177 118.153C173.921 119.831 172.572 121.438 171.136 122.965C170.075 124.09 169.014 125.183 167.879 126.197C168.474 123.266 169.525 120.445 170.992 117.836C172.218 115.714 173.923 113.906 175.973 112.555C175.973 112.555 176.482 113.437 177.405 115.016Z" fill="white"/>
</g>
<defs>
<clipPath id="clip0_1249_306853">
<rect width="265.2" height="196.8" fill="white"/>
</clipPath>
</defs>
</svg>
