<svg width="302" height="42" viewBox="0 0 302 42" fill="none" xmlns="http://www.w3.org/2000/svg">
<mask id="mask0_3436_169635" style="mask-type:luminance" maskUnits="userSpaceOnUse" x="1" y="1" width="300" height="40">
<mask id="mask1_3436_169635" style="mask-type:luminance" maskUnits="userSpaceOnUse" x="1" y="1" width="300" height="40">
<path d="M1.5 40.5V1.5H300.5V40.5H1.5Z" fill="white" stroke="white"/>
</mask>
<g mask="url(#mask1_3436_169635)">
<path d="M5 1.5H297C297.928 1.5 298.818 1.86875 299.475 2.52512C300.131 3.1815 300.5 4.07174 300.5 5V37C300.5 37.9283 300.131 38.8185 299.475 39.4749C298.818 40.1313 297.928 40.5 297 40.5H5C4.07174 40.5 3.1815 40.1313 2.52512 39.4749C1.86875 38.8185 1.5 37.9283 1.5 37V5C1.5 4.07174 1.86875 3.1815 2.52512 2.52512C3.1815 1.86875 4.07174 1.5 5 1.5Z" fill="white" stroke="white"/>
</g>
</mask>
<g mask="url(#mask0_3436_169635)">
<path d="M5 1.5H297C297.928 1.5 298.818 1.86875 299.475 2.52512C300.131 3.1815 300.5 4.07174 300.5 5V37C300.5 37.9283 300.131 38.8185 299.475 39.4749C298.818 40.1313 297.928 40.5 297 40.5H5C4.07174 40.5 3.1815 40.1313 2.52512 39.4749C1.86875 38.8185 1.5 37.9283 1.5 37V5C1.5 4.07174 1.86875 3.1815 2.52512 2.52512C3.1815 1.86875 4.07174 1.5 5 1.5Z" fill="white" stroke="#467CF3"/>
<path d="M5 1H297C298.061 1 299.078 1.42142 299.828 2.17157C300.579 2.92172 301 3.93913 301 5V37C301 38.0609 300.579 39.0783 299.828 39.8284C299.078 40.5786 298.061 41 297 41H5C3.93913 41 2.92172 40.5786 2.17157 39.8284C1.42142 39.0783 1 38.0609 1 37V5C1 3.93913 1.42142 2.92172 2.17157 2.17157C2.92172 1.42142 3.93913 1 5 1Z" stroke="#467CF3" stroke-width="2" stroke-miterlimit="10"/>
</g>
<path d="M124.359 13.9691C122.387 16.137 120.009 17.8969 117.359 19.149L118.169 20.619C120.743 19.3174 123.033 17.5195 124.909 15.329C126.767 17.5116 129.037 19.3059 131.589 20.6091L132.419 19.1391C129.792 17.878 127.433 16.1227 125.469 13.9691H124.359ZM124.619 18.269V26.7191H121.929V20.619H120.429V26.7191H118.119V28.1891H131.529V26.7191H126.139V23.1891H130.379V21.7191H126.139V18.2891L124.619 18.269ZM139.469 14.079V26.6591H134.819V28.149H149.099V26.6591H144.429V14.079H142.909V26.6591H140.999V14.079H139.469ZM147.419 17.079C146.89 19.5314 146.095 21.9188 145.049 24.1991L146.409 24.679C147.453 22.3641 148.244 19.9435 148.769 17.459L147.419 17.079ZM136.419 17.079L135.119 17.4991C135.972 19.8783 136.67 22.31 137.209 24.7791L138.599 24.429C138.039 21.9329 137.31 19.4773 136.419 17.079ZM163.129 17.8391H164.409C164.386 19.4896 164.164 21.1313 163.749 22.7291C163.354 21.4909 163.057 20.2237 162.859 18.9391C162.949 18.5891 163.029 18.2191 163.129 17.8391ZM163.129 24.4091C162.631 25.5901 161.872 26.6431 160.909 27.489L161.709 28.769C162.561 27.9913 163.274 27.0751 163.819 26.0591C164.254 27.0332 164.857 27.9234 165.599 28.6891L166.459 27.3891C165.606 26.616 164.925 25.6723 164.459 24.619C165.238 22.4433 165.637 20.1499 165.639 17.8391H166.199V16.4091H163.369C163.499 15.7091 163.589 14.9691 163.689 14.1991L162.359 13.9791C162.182 16.4012 161.636 18.782 160.739 21.0391V19.9491H155.649V21.2891H160.649L160.569 21.4691L161.399 22.5291C161.689 22.0055 161.947 21.4645 162.169 20.9091C162.417 22.0986 162.751 23.2684 163.169 24.4091H163.129ZM159.189 27.869C160.129 27.2536 160.985 26.5211 161.739 25.6891L161.429 24.429C161.029 24.849 160.629 25.2091 160.249 25.5691V22.239H156.139V24.329C156.218 25.5647 155.808 26.7818 154.999 27.7191L156.119 28.7191C157.169 27.514 157.7 25.9437 157.599 24.3491V23.6291H158.999V26.149C158.981 26.2514 158.939 26.3483 158.879 26.433C158.818 26.5177 158.74 26.588 158.649 26.6391L159.269 27.8891L159.189 27.869ZM157.689 14.0091V17.549H156.889V14.869H155.639V18.869H160.999V14.869H159.769V17.549H158.999V14.0091H157.689ZM153.979 14.0091C153.437 15.4136 152.59 16.6806 151.499 17.7191L151.959 19.1991C153.439 17.9435 154.592 16.3479 155.319 14.549L154.029 13.9491L153.979 14.0091ZM154.059 18.299C153.517 19.8053 152.646 21.1718 151.509 22.299L151.999 23.7191C152.429 23.3191 152.829 22.9191 153.199 22.5091V28.7191H154.619V20.459C154.911 19.931 155.165 19.383 155.379 18.8191L154.099 18.2191L154.059 18.299ZM170.279 20.299V28.7191H171.769V17.899C172.34 16.7962 172.812 15.645 173.179 14.459L171.749 13.7891C171.085 16.1509 169.964 18.3593 168.449 20.2891L168.949 21.9191C169.429 21.3791 169.859 20.8291 170.279 20.2891V20.299ZM172.889 15.899V17.3191H183.399V15.899H179.079C178.879 15.212 178.622 14.5429 178.309 13.899L176.859 14.299C177.132 14.8139 177.372 15.3449 177.579 15.8891L172.889 15.899ZM174.339 18.299V19.6591H182.039V18.299H174.339ZM174.339 20.549V21.929H182.039V20.549H174.339ZM182.339 22.9391H173.999V28.7191H175.479V27.8891H180.999V28.7191H182.469V22.929L182.339 22.9391ZM175.429 26.4791V24.3491H180.999V26.4791H175.429ZM188.429 20.6691V24.7191H197.579V20.6391L188.429 20.6691ZM196.059 23.399H189.949V21.9991H196.059V23.399ZM190.119 24.9191L188.679 25.4491C189.148 25.8698 189.568 26.3429 189.929 26.8591H186.059V28.299H199.999V26.8591H196.379C196.748 26.3837 197.082 25.8824 197.379 25.3591L195.959 24.8591C195.6 25.5494 195.199 26.2173 194.759 26.8591H191.699C191.301 26.158 190.821 25.5067 190.269 24.9191H190.119ZM187.599 16.1091L186.599 17.1091C187.295 17.5869 187.963 18.1044 188.599 18.6591C187.685 19.2884 186.702 19.8117 185.669 20.2191L186.579 21.4191C187.975 20.8563 189.272 20.0729 190.419 19.0991V19.6091H196.279V18.9991C197.312 19.9123 198.438 20.7135 199.639 21.3891L200.639 20.2191C199.794 19.794 198.988 19.2954 198.229 18.7291C198.883 18.225 199.474 17.6442 199.989 16.9991L198.999 16.019C198.492 16.6864 197.897 17.2818 197.229 17.7891C196.87 17.4828 196.536 17.1484 196.229 16.7891C196.895 16.3192 197.497 15.7645 198.019 15.1391L196.949 14.1991C196.488 14.7592 195.968 15.2687 195.399 15.7191C195.005 15.169 194.67 14.5791 194.399 13.959L193.159 14.6591C193.733 15.9622 194.532 17.1538 195.519 18.179H191.299C191.971 17.4053 192.505 16.5226 192.879 15.5691V14.4391H187.409V15.829H191.149C190.751 16.528 190.256 17.1676 189.679 17.7291C189.051 17.1368 188.383 16.5888 187.679 16.0891L187.599 16.1091ZM204.719 14.4691V15.829H212.619V17.0991H205.259V18.4091H212.619V19.6391H203.109V21.0391H209.109V22.8391C207.231 24.4786 205.118 25.827 202.839 26.8391L203.449 28.2491C205.482 27.2112 207.383 25.932 209.109 24.4391V26.7191C209.109 27.1491 208.969 27.369 208.699 27.369C208.169 27.369 207.609 27.3191 207.019 27.2591L207.349 28.6991H209.209C210.139 28.6991 210.619 28.1591 210.619 27.0691V24.299C212.196 25.9604 214.081 27.2987 216.169 28.239L216.939 26.8891C215.45 26.2629 214.037 25.4676 212.729 24.519C213.853 23.8959 214.839 23.0524 215.629 22.0391L214.459 21.0391C213.751 22.1099 212.803 23.0003 211.689 23.6391C211.313 23.3095 210.956 22.959 210.619 22.5891V20.959H216.999V19.5591H214.239V14.3891L204.719 14.4691ZM205.039 21.369L204.039 22.369C204.906 22.9517 205.71 23.6219 206.439 24.369L207.439 23.369C206.703 22.6523 205.907 21.9999 205.059 21.4191L205.039 21.369Z" fill="#467CF3"/>
<mask id="mask2_3436_169635" style="mask-type:luminance" maskUnits="userSpaceOnUse" x="83" y="11" width="20" height="19">
<mask id="mask3_3436_169635" style="mask-type:luminance" maskUnits="userSpaceOnUse" x="1" y="1" width="300" height="40">
<path d="M301 1H1V41H301V1Z" fill="white"/>
</mask>
<g mask="url(#mask3_3436_169635)">
<path d="M102.17 16.24C101.767 15.4444 101.248 14.7131 100.63 14.07C98.924 12.3715 96.6852 11.3122 94.29 11.07C93.855 11.0226 93.4176 10.9992 92.98 11C92.559 10.999 92.1383 11.0224 91.72 11.07C89.3089 11.2967 87.0525 12.3577 85.34 14.07C84.7108 14.706 84.1875 15.4386 83.79 16.24C83.2725 17.2846 83.0022 18.4343 83 19.6C83.0085 21.1271 83.4715 22.6171 84.33 23.88C84.8549 24.6408 85.4656 25.3387 86.15 25.96L85.85 28.3V28.39C85.8451 28.4232 85.8451 28.4569 85.85 28.49C85.85 28.49 85.85 28.49 85.85 28.56C85.85 28.63 85.85 28.61 85.85 28.64C85.8698 28.8274 85.9586 29.0008 86.099 29.1264C86.2395 29.2521 86.4215 29.3211 86.61 29.32C86.743 29.3188 86.8736 29.2844 86.99 29.22H87.04L87.75 28.87L89.89 27.8C90.9057 28.084 91.9553 28.2287 93.01 28.23C93.4478 28.2273 93.8851 28.2006 94.32 28.15C95.1756 28.0504 96.0174 27.8559 96.83 27.57L96.58 27.46C96.3491 27.3283 96.1612 27.1328 96.0388 26.8968C95.9164 26.6609 95.8647 26.3946 95.89 26.13C95.307 26.3141 94.7075 26.4414 94.1 26.51C93.738 26.5494 93.3742 26.5695 93.01 26.57C92.6558 26.57 92.3019 26.55 91.95 26.51H91.74C91.2601 26.4491 90.7854 26.3521 90.32 26.22C90.2239 26.2047 90.1261 26.2047 90.03 26.22C89.8692 26.2225 89.7115 26.2636 89.57 26.34H89.51L87.75 27.34H87.68H87.6C87.5682 27.34 87.5376 27.3274 87.5151 27.3049C87.4926 27.2824 87.48 27.2519 87.48 27.22L87.55 26.95C87.55 26.88 87.55 26.78 87.63 26.65C87.71 26.52 87.71 26.34 87.75 26.17C87.79 26 87.85 25.79 87.9 25.63C87.9062 25.5568 87.9062 25.4832 87.9 25.41C87.9017 25.2947 87.8752 25.1807 87.823 25.0779C87.7707 24.9751 87.6942 24.8866 87.6 24.82L87.31 24.59L86.87 24.21C86.4968 23.8377 86.1618 23.429 85.87 22.99C85.192 21.9927 84.8265 20.816 84.82 19.6101C84.8193 18.6895 85.0351 17.7817 85.45 16.96C85.7675 16.3173 86.1861 15.7299 86.69 15.22C88.1096 13.8173 89.9725 12.9512 91.96 12.77C92.3055 12.7347 92.6527 12.7181 93 12.72C93.3641 12.7206 93.728 12.7406 94.09 12.78C96.0713 12.9776 97.9246 13.8496 99.34 15.25C99.841 15.76 100.256 16.3476 100.57 16.99C100.976 17.8074 101.188 18.7074 101.19 19.62C101.19 19.71 101.19 19.81 101.19 19.9C101.455 19.7389 101.766 19.6711 102.074 19.7073C102.382 19.7436 102.67 19.8818 102.89 20.1C102.89 20.1 102.89 20.15 102.96 20.17C102.96 19.98 102.96 19.79 102.96 19.59C102.96 18.4316 102.693 17.2887 102.18 16.25" fill="white"/>
</g>
</mask>
<g mask="url(#mask2_3436_169635)">
<path d="M107.95 6H78V34.31H107.95V6Z" fill="#2584DD"/>
</g>
<mask id="mask4_3436_169635" style="mask-type:luminance" maskUnits="userSpaceOnUse" x="98" y="26" width="6" height="5">
<mask id="mask5_3436_169635" style="mask-type:luminance" maskUnits="userSpaceOnUse" x="1" y="1" width="300" height="40">
<path d="M301 1H1V41H301V1Z" fill="white"/>
</mask>
<g mask="url(#mask5_3436_169635)">
<path d="M102.004 28.2699H101.844C100.995 28.1108 100.215 27.6996 99.6039 27.0899L99.4639 26.9499C99.4332 26.9187 99.3966 26.894 99.3562 26.8771C99.3159 26.8603 99.2726 26.8516 99.2289 26.8516C99.1852 26.8516 99.1418 26.8603 99.1015 26.8771C99.0612 26.894 99.0246 26.9187 98.9939 26.9499C98.9376 27.0093 98.9063 27.0881 98.9062 27.1699C98.9063 27.2517 98.9376 27.3305 98.9939 27.3899H99.0439L99.1339 27.4799C99.7353 28.069 100.146 28.8248 100.314 29.6499C100.309 29.6964 100.309 29.7434 100.314 29.7899V29.9299C100.376 30.1622 100.501 30.3731 100.674 30.5399C100.825 30.6908 101.009 30.8045 101.211 30.8722C101.414 30.9399 101.629 30.9598 101.841 30.9301C102.052 30.9005 102.254 30.8222 102.43 30.7014C102.606 30.5807 102.751 30.4207 102.855 30.2341C102.959 30.0475 103.018 29.8394 103.028 29.6262C103.037 29.4129 102.997 29.2003 102.911 29.0051C102.825 28.8098 102.694 28.6373 102.53 28.5011C102.365 28.3648 102.172 28.2686 101.964 28.2199" fill="white"/>
</g>
</mask>
<g mask="url(#mask4_3436_169635)">
<path d="M108.118 21.8398H93.9375V35.9998H108.118V21.8398Z" fill="#FA6A07"/>
</g>
<mask id="mask6_3436_169635" style="mask-type:luminance" maskUnits="userSpaceOnUse" x="102" y="24" width="5" height="5">
<mask id="mask7_3436_169635" style="mask-type:luminance" maskUnits="userSpaceOnUse" x="1" y="1" width="300" height="40">
<path d="M301 1H1V41H301V1Z" fill="white"/>
</mask>
<g mask="url(#mask7_3436_169635)">
<path d="M106.592 24.7198C106.418 24.543 106.199 24.4166 105.959 24.3537C105.719 24.2907 105.466 24.2938 105.228 24.3623C104.989 24.4309 104.774 24.5625 104.604 24.7434C104.434 24.9242 104.316 25.1475 104.262 25.3898C104.262 25.3898 104.262 25.4398 104.262 25.4698C104.262 25.4998 104.262 25.4698 104.262 25.5498C104.109 26.3973 103.697 27.1765 103.082 27.7798L102.942 27.9098C102.911 27.9405 102.886 27.9771 102.869 28.0174C102.852 28.0578 102.844 28.101 102.844 28.1448C102.844 28.1885 102.852 28.2318 102.869 28.2721C102.886 28.3125 102.911 28.3491 102.942 28.3798C103.005 28.4327 103.085 28.4617 103.167 28.4617C103.249 28.4617 103.329 28.4327 103.392 28.3798V28.3298L103.482 28.2398C104.08 27.6419 104.843 27.2348 105.672 27.0698H105.802H105.952C106.183 27.0036 106.393 26.8797 106.562 26.7098C106.692 26.583 106.796 26.4315 106.867 26.264C106.937 26.0965 106.974 25.9166 106.974 25.7348C106.974 25.553 106.937 25.373 106.867 25.2055C106.796 25.0381 106.692 24.8865 106.562 24.7598" fill="white"/>
</g>
</mask>
<g mask="url(#mask6_3436_169635)">
<path d="M112 19.3594H97.8203V33.5194H112V19.3594Z" fill="#0080ED"/>
</g>
<mask id="mask8_3436_169635" style="mask-type:luminance" maskUnits="userSpaceOnUse" x="100" y="20" width="5" height="5">
<mask id="mask9_3436_169635" style="mask-type:luminance" maskUnits="userSpaceOnUse" x="1" y="1" width="300" height="40">
<path d="M301 1H1V41H301V1Z" fill="white"/>
</mask>
<g mask="url(#mask9_3436_169635)">
<path d="M100.732 20.7695C100.473 21.0283 100.328 21.3789 100.328 21.7445C100.328 22.1101 100.473 22.4608 100.732 22.7195C100.914 22.9037 101.147 23.029 101.402 23.0795H101.482H101.562C102.411 23.2368 103.192 23.6483 103.802 24.2596L103.942 24.3995C103.971 24.4317 104.007 24.4577 104.046 24.4762C104.086 24.4946 104.129 24.505 104.172 24.5069C104.216 24.5088 104.26 24.502 104.301 24.487C104.342 24.472 104.379 24.4491 104.412 24.4196C104.444 24.39 104.47 24.3544 104.488 24.3148C104.507 24.2752 104.517 24.2323 104.519 24.1887C104.521 24.145 104.514 24.1015 104.499 24.0604C104.484 24.0194 104.461 23.9817 104.432 23.9496H104.382L104.282 23.8596C103.686 23.2674 103.279 22.5124 103.112 21.6895C103.112 21.6395 103.112 21.5995 103.112 21.5495V21.4095C103.047 21.178 102.923 20.9675 102.752 20.7995C102.622 20.6652 102.467 20.5585 102.295 20.4855C102.123 20.4126 101.938 20.375 101.752 20.375C101.565 20.375 101.38 20.4126 101.208 20.4855C101.037 20.5585 100.881 20.6652 100.752 20.7995" fill="white"/>
</g>
</mask>
<g mask="url(#mask8_3436_169635)">
<path d="M109.5 15.3691H95.3203V29.5291H109.5V15.3691Z" fill="#33BD00"/>
</g>
<mask id="mask10_3436_169635" style="mask-type:luminance" maskUnits="userSpaceOnUse" x="96" y="22" width="5" height="5">
<mask id="mask11_3436_169635" style="mask-type:luminance" maskUnits="userSpaceOnUse" x="1" y="1" width="300" height="40">
<path d="M301 1H1V41H301V1Z" fill="white"/>
</mask>
<g mask="url(#mask11_3436_169635)">
<path d="M99.2023 25.8502C99.1974 25.8204 99.1974 25.79 99.2023 25.7602C99.3579 24.9164 99.7699 24.1411 100.382 23.5402L100.522 23.4001C100.553 23.3703 100.578 23.3346 100.594 23.2951C100.611 23.2556 100.62 23.2131 100.62 23.1702C100.62 23.1272 100.611 23.0848 100.594 23.0453C100.578 23.0057 100.553 22.97 100.522 22.9402C100.461 22.888 100.383 22.8594 100.302 22.8594C100.222 22.8594 100.144 22.888 100.082 22.9402L99.9923 23.0402C99.3934 23.6353 98.6311 24.0391 97.8023 24.2002H97.6723H97.5223C97.2923 24.2626 97.0823 24.3831 96.9123 24.5501C96.6537 24.8154 96.511 25.1725 96.5157 25.5428C96.5204 25.9132 96.6721 26.2666 96.9373 26.5251C97.2025 26.7837 97.5596 26.9264 97.93 26.9217C98.3003 26.917 98.6537 26.7654 98.9123 26.5002C99.0934 26.318 99.2214 26.0897 99.2823 25.8401C99.2823 25.8401 99.2823 25.7802 99.2823 25.7602" fill="white"/>
</g>
</mask>
<g mask="url(#mask10_3436_169635)">
<path d="M105.618 17.8496H91.4375V32.0096H105.618V17.8496Z" fill="#FCC935"/>
</g>
</svg>
