<svg width="96" height="24" viewBox="0 0 96 24" fill="none" xmlns="http://www.w3.org/2000/svg">
<g clip-path="url(#clip0_411_330810)">
<path d="M9.20727 17.0194L6.85091 19.3758C6.24 19.9867 5.41091 20.3358 4.53818 20.3358C3.66545 20.3358 2.83636 19.9867 2.22545 19.3758C0.96 18.1103 0.96 16.0158 2.22545 14.7503L6.41455 10.5612C7.02545 9.9503 7.85455 9.60121 8.72727 9.60121C9.6 9.60121 10.4291 9.9503 11.04 10.5612C11.3018 10.823 11.6945 10.823 11.9127 10.5612C12.1745 10.2994 12.1745 9.90667 11.9127 9.68849C10.1673 7.94303 7.28727 7.94303 5.49818 9.68849L1.30909 13.8776C0.436364 14.7503 0 15.8848 0 17.063C0 18.2848 0.48 19.4194 1.30909 20.2921C2.18182 21.1648 3.36 21.6012 4.49455 21.6012C5.67273 21.6012 6.80727 21.1648 7.68 20.2921L10.0364 17.9358C10.2982 17.6739 10.2982 17.2812 10.0364 17.063C9.86182 16.7576 9.46909 16.7576 9.20727 17.0194Z" fill="#467CF3"/>
<path d="M17.8937 3.70899C16.1483 1.96354 13.2683 1.96354 11.4792 3.70899L9.12284 6.06536C8.86102 6.32717 8.86102 6.7199 9.12284 6.93808C9.38466 7.1999 9.77739 7.1999 9.99557 6.93808L12.3519 4.58172C12.9628 3.97081 13.7919 3.62172 14.6647 3.62172C15.5374 3.62172 16.3665 3.97081 16.9774 4.58172C18.2428 5.84717 18.2428 7.94172 16.9774 9.20717L12.7883 13.3963C12.1774 14.0072 11.3483 14.3563 10.4756 14.3563C9.60284 14.3563 8.77375 14.0072 8.16284 13.3963C7.90102 13.1344 7.5083 13.1344 7.29011 13.3963C7.0283 13.6581 7.0283 14.0508 7.29011 14.269C8.16284 15.1417 9.34102 15.5781 10.4756 15.5781C11.6538 15.5781 12.7883 15.1417 13.661 14.269L17.8501 10.0799C18.7228 9.20717 19.1592 8.07263 19.1592 6.89445C19.2028 5.71627 18.7228 4.58172 17.8937 3.70899Z" fill="#467CF3"/>
</g>
<path d="M33.2344 3.84768H34.444C36.6213 6.21504 39.1096 8.08128 41.9435 9.42912L41.045 11.0189C38.2283 9.56736 35.8264 7.66656 33.8392 5.31648C32.0075 7.52832 29.5711 9.42912 26.5643 11.0362L25.6831 9.4464C28.7071 7.96032 31.2299 6.09408 33.2344 3.84768ZM33.5109 8.496H35.1525V12.1939H39.7317V13.7664H35.1525V17.568H40.9759V19.1578H26.4952V17.568H28.9835V10.9843H30.6079V17.568H33.5109V8.496ZM48.4235 3.96864H50.0651V17.5507H52.1387V3.96864H53.7803V17.5507H58.8261V19.1578H43.4123V17.5507H48.4235V3.96864ZM57.0117 7.18272L58.4632 7.59744C57.8066 10.5696 56.9599 13.1616 55.9231 15.3907L54.4543 14.8723C55.4219 12.8678 56.2859 10.2931 57.0117 7.18272ZM45.1576 7.14816C46.0389 9.46368 46.8165 12.1075 47.5077 15.0797L46.0043 15.4598C45.4168 12.7469 44.6565 10.1203 43.7579 7.59744L45.1576 7.14816ZM72.8747 7.96032C72.7711 8.37504 72.6847 8.77248 72.581 9.15264C72.8229 10.6733 73.1512 12.0384 73.5487 13.248C73.9634 11.7101 74.2053 9.94752 74.2571 7.96032H72.8747ZM72.9093 15.0624C72.4946 13.9219 72.149 12.6605 71.8725 11.2781C71.6133 11.9174 71.3368 12.505 71.0431 13.0234L70.1445 11.8829C70.1791 11.8138 70.1963 11.7619 70.2309 11.6928H64.8568V10.2413H70.3519V11.4163C71.1986 9.46368 71.7861 6.92352 72.0971 3.79584L73.5314 4.03776C73.4277 4.8672 73.324 5.66208 73.1858 6.4224H76.2443V7.96032H75.6395C75.5704 10.8288 75.1384 13.2653 74.3608 15.287C74.9656 16.5658 75.6741 17.5507 76.5035 18.2765L75.5704 19.6762C74.8447 18.9504 74.2053 18 73.6523 16.8422C73.0303 17.9827 72.2699 18.9504 71.3714 19.7626L70.5074 18.3802C71.5096 17.5334 72.3045 16.4275 72.9093 15.0624ZM68.6584 18.7949L67.9845 17.447C68.1919 17.3261 68.3128 17.1533 68.3647 16.9114V14.1984H66.8786V14.976C66.844 17.0842 66.3083 18.6566 65.2715 19.6934L64.0619 18.6394C64.9087 17.7926 65.3407 16.5658 65.3579 14.976V12.7123H69.7989V16.3066C70.2136 15.9264 70.6456 15.529 71.0776 15.0797L71.4059 16.4448C70.5074 17.4125 69.5915 18.1901 68.6584 18.7949ZM67.0341 3.8304H68.3992V7.64928H69.2459V4.76352H70.5765V9.03168H64.8223V4.76352H66.1701V7.64928H67.0341V3.8304ZM63.0251 3.84768L64.4248 4.50432C63.6991 6.35328 62.4895 8.02944 60.796 9.51552L60.2949 7.92576C61.5218 6.75072 62.4376 5.40288 63.0251 3.84768ZM63.1115 8.47872L64.4939 9.13536C64.2693 9.74016 63.9928 10.3277 63.6818 10.8979V19.8144H62.1439V13.0579C61.7464 13.5072 61.3144 13.9392 60.8479 14.3712L60.364 12.7987C61.6082 11.5546 62.524 10.1203 63.1115 8.47872ZM79.5103 10.6733C79.061 11.2608 78.5944 11.8483 78.076 12.4358L77.5403 10.6733C79.1301 8.6688 80.3224 6.31872 81.1 3.6576L82.6379 4.38336C82.2405 5.66208 81.7394 6.90624 81.1173 8.09856V19.8144H79.5103V10.6733ZM82.3269 5.92128H87.3899C87.1653 5.33376 86.9061 4.76352 86.6123 4.21056L88.1848 3.77856C88.5477 4.55616 88.8242 5.26464 89.0143 5.92128H93.6799V7.4592H82.3269V5.92128ZM83.8994 8.51328H92.2111V9.98208H83.8994V8.51328ZM83.8994 10.9498H92.2111V12.4358H83.8994V10.9498ZM92.5739 13.5245V19.7798H90.9842V18.8813H85.109V19.7798H83.5192V13.5245H92.5739ZM85.109 17.3434H90.9842V15.0451H85.109V17.3434Z" fill="#467CF3"/>
<defs>
<clipPath id="clip0_411_330810">
<rect width="19.2" height="19.2" fill="white" transform="translate(0 2.3999)"/>
</clipPath>
</defs>
</svg>
