<svg width="35" height="36" viewBox="0 0 35 36" fill="none" xmlns="http://www.w3.org/2000/svg">
<circle cx="17.5" cy="18" r="17.5" fill="#467CF3"/>
<g filter="url(#filter0_d_10_364)">
<path d="M8 11.0536C8 9.64328 9.14328 8.5 10.5536 8.5H25.0239C26.4342 8.5 27.5775 9.64328 27.5775 11.0536V25.5239C27.5775 26.9342 26.4342 28.0775 25.0239 28.0775H10.5536C9.14328 28.0775 8 26.9342 8 25.5239V11.0536Z" fill="white"/>
</g>
<path d="M12.8202 17.6459L14.0446 15.5638C14.2901 15.1463 13.9891 14.6201 13.5048 14.6201C13.1408 14.6201 12.7948 14.7785 12.5569 15.0539L10.7173 17.1841C10.1416 17.8506 10.0341 18.8022 10.4466 19.5803L11.488 21.5448C11.6232 21.7998 11.8881 21.9592 12.1767 21.9592C12.6633 21.9592 13.0309 21.5184 12.9436 21.0397L12.5757 19.0243C12.4892 18.5504 12.576 18.0612 12.8202 17.6459Z" fill="#477DF3"/>
<path d="M22.7049 19.0313L21.4804 21.1134C21.2349 21.5309 21.5359 22.0571 22.0202 22.0571C22.3842 22.0571 22.7302 21.8987 22.9681 21.6232L24.8078 19.4931C25.3834 18.8265 25.4909 17.875 25.0784 17.0968L24.0371 15.1324C23.9019 14.8774 23.6369 14.718 23.3483 14.718C22.8618 14.718 22.4941 15.1588 22.5815 15.6375L22.9494 17.6529C23.0359 18.1268 22.9491 18.616 22.7049 19.0313Z" fill="#477DF3"/>
<path d="M17.5635 13.1204C17.6897 12.4426 18.2812 11.9512 18.9705 11.9513C19.5667 11.9513 20.0168 12.492 19.9088 13.0782L17.9992 23.4453C17.873 24.1306 17.2754 24.6281 16.5786 24.6281C15.9761 24.6281 15.5216 24.081 15.6319 23.4887L17.5635 13.1204Z" fill="#477DF3"/>
<defs>
<filter id="filter0_d_10_364" x="0.871999" y="1.372" width="33.8335" height="33.8335" filterUnits="userSpaceOnUse" color-interpolation-filters="sRGB">
<feFlood flood-opacity="0" result="BackgroundImageFix"/>
<feColorMatrix in="SourceAlpha" type="matrix" values="0 0 0 0 0 0 0 0 0 0 0 0 0 0 0 0 0 0 127 0" result="hardAlpha"/>
<feOffset/>
<feGaussianBlur stdDeviation="3.564"/>
<feComposite in2="hardAlpha" operator="out"/>
<feColorMatrix type="matrix" values="0 0 0 0 0 0 0 0 0 0.305829 0 0 0 0 0.9925 0 0 0 0.22 0"/>
<feBlend mode="normal" in2="BackgroundImageFix" result="effect1_dropShadow_10_364"/>
<feBlend mode="normal" in="SourceGraphic" in2="effect1_dropShadow_10_364" result="shape"/>
</filter>
</defs>
</svg>
