<svg width="40" height="40" viewBox="0 0 40 40" fill="none" xmlns="http://www.w3.org/2000/svg">
<path d="M35.1726 35.1206C35.1726 37.0247 33.6282 38.5669 31.7254 38.5669H9.36199C7.45918 38.5669 5.91699 37.0244 5.91699 35.1206V4.23748C5.91699 2.33342 7.45918 0.789978 9.36199 0.789978H31.7254C33.6282 0.789978 35.1726 2.33342 35.1726 4.23748V35.1206Z" fill="#E9C86E"/>
<path d="M9.36352 0.789978C7.4607 0.789978 5.91602 2.33342 5.91602 4.23748V35.1206C5.91602 37.0247 7.46039 38.5669 9.36352 38.5669H31.727" fill="#E9C86E"/>
<path d="M20.5367 13.4083C27.5486 13.4083 33.4476 10.0642 35.1726 5.52454V4.23736C35.1726 2.33329 33.6282 0.789856 31.7254 0.789856H9.36199C7.45918 0.789856 5.91699 2.33329 5.91699 4.23736V5.57986C7.66824 10.0908 13.5489 13.4083 20.5367 13.4083Z" fill="#F7DF9A"/>
<path fill-rule="evenodd" clip-rule="evenodd" d="M22.5563 22.4L24.2626 19.5442C24.3418 19.4117 24.3941 19.2648 24.4166 19.1121C24.439 18.9593 24.4311 18.8036 24.3934 18.6539C24.3556 18.5042 24.2887 18.3634 24.1965 18.2395C24.1043 18.1157 23.9886 18.0112 23.856 17.932C23.7235 17.8527 23.5767 17.8003 23.4239 17.7778C23.2711 17.7553 23.1154 17.7631 22.9656 17.8009C22.8159 17.8387 22.675 17.9056 22.5512 17.9979C22.4273 18.0901 22.3229 18.2059 22.2438 18.3386L20.6065 21.079C20.5858 21.0779 20.565 21.0774 20.5442 21.0774C20.5241 21.0774 20.504 21.0779 20.484 21.0789L18.8467 18.3386C18.7676 18.2059 18.6632 18.0901 18.5393 17.9979C18.4155 17.9056 18.2747 17.8387 18.1249 17.8009C17.9752 17.7631 17.8194 17.7553 17.6666 17.7778C17.5138 17.8003 17.367 17.8527 17.2345 17.932C16.9668 18.092 16.7737 18.3516 16.6974 18.654C16.6212 18.9563 16.6681 19.2765 16.8279 19.5442L18.5342 22.4H16.9759C16.664 22.4 16.3648 22.5239 16.1443 22.7445C15.9237 22.9651 15.7998 23.2642 15.7998 23.5761C15.7998 23.888 15.9237 24.1872 16.1443 24.4077C16.3648 24.6283 16.664 24.7522 16.9759 24.7522H19.3683V26.2997H16.9759C16.664 26.2997 16.3648 26.4236 16.1443 26.6442C15.9237 26.8647 15.7998 27.1639 15.7998 27.4758C15.7998 27.7877 15.9237 28.0869 16.1443 28.3074C16.3648 28.528 16.664 28.6519 16.9759 28.6519H19.3683V32.4989C19.3682 32.6534 19.3985 32.8064 19.4576 32.9491C19.5167 33.0918 19.6033 33.2215 19.7125 33.3307C19.8217 33.44 19.9514 33.5266 20.0941 33.5857C20.2368 33.6448 20.3897 33.6752 20.5442 33.6752C20.6987 33.6752 20.8516 33.6448 20.9943 33.5857C21.137 33.5266 21.2667 33.44 21.3759 33.3307C21.4851 33.2215 21.5717 33.0918 21.6308 32.9491C21.6899 32.8064 21.7202 32.6534 21.7201 32.4989V28.6519H24.19C24.3444 28.652 24.4974 28.6216 24.6401 28.5625C24.7829 28.5034 24.9126 28.4168 25.0218 28.3075C25.131 28.1983 25.2176 28.0686 25.2766 27.9259C25.3357 27.7831 25.366 27.6301 25.3659 27.4757C25.366 27.3212 25.3356 27.1682 25.2766 27.0255C25.2175 26.8828 25.1309 26.7532 25.0217 26.644C24.9124 26.5347 24.7828 26.4481 24.6401 26.3891C24.4974 26.33 24.3444 26.2996 24.19 26.2997H21.7201V24.7522H24.19C24.84 24.7522 25.3659 24.226 25.3659 23.576C25.3659 22.926 24.84 22.4 24.19 22.4H22.5563Z" fill="#E96A53"/>
</svg>
