<svg width="16" height="16" viewBox="0 0 16 16" fill="none" xmlns="http://www.w3.org/2000/svg">
<g id="tools/refresh1">
<path id="&#229;&#189;&#162;&#231;&#138;&#182;" fill-rule="evenodd" clip-rule="evenodd" d="M2.47653 7.99992C2.47653 4.93742 4.95092 2.48739 7.94632 2.48739V4.15038C7.94632 4.45669 8.20692 4.71915 8.51069 4.71915C8.81447 4.71915 9.29281 4.15038 9.29281 4.15038L12.3309 1H7.94582C4.12562 1 1 4.15004 1 8.00008C1 9.83765 1.69458 11.5001 2.86667 12.7689L3.90854 11.7189C2.99738 10.7119 2.47653 9.44379 2.47653 7.99992ZM13.0251 3.23126L11.9833 4.28127C12.8514 5.24374 13.4159 6.55621 13.4159 8.00008C13.4161 11.0624 10.9417 13.5119 7.94632 13.5119V11.85C7.94632 11.5436 7.6859 11.2812 7.38195 11.2812C7.07801 11.2812 6.60051 11.85 6.60051 11.85L3.56175 15H7.94682C11.767 15 14.8926 11.85 14.8926 7.99992C14.8926 6.16235 14.1981 4.49987 13.026 3.23109" fill="white"/>
</g>
</svg>
