<svg width="16" height="16" viewBox="0 0 16 16" fill="none" xmlns="http://www.w3.org/2000/svg">
<path fill-rule="evenodd" clip-rule="evenodd" d="M4.85714 3.94L5.71429 5.06L1 5.48L2.42857 1L3.57143 2.4C4.85714 1.56 6.28571 1 7.85714 1C11.8571 1 15 4.22 15 8C15 11.92 11.7143 15 7.85714 15C4.85714 15 2.14286 13.18 1.14286 10.52C1 10.24 1 9.96 1.14286 9.82C1.28572 9.54 1.42857 9.4 1.71429 9.26C2.28571 9.12 2.85714 9.26 3 9.82C3.71429 11.78 5.71429 13.04 7.85714 13.04C10.7143 13.04 13 10.8 13 8C13 5.2 10.7143 2.96 7.85714 2.96C6.71429 2.96 5.71428 3.24 4.85714 3.94Z" fill="#467CF3"/>
</svg>
