<svg width="54" height="54" viewBox="0 0 54 54" fill="none" xmlns="http://www.w3.org/2000/svg">
<path d="M54 27C54 41.9117 41.9117 54 27 54C12.0883 54 0 41.9117 0 27C0 12.0883 12.0883 0 27 0C41.9117 0 54 12.0883 54 27Z" fill="#F6F7FB"/>
<g filter="url(#filter0_d_4064_79299)">
<g filter="url(#filter1_ii_4064_79299)">
<path d="M16.8607 23.3921C16.8607 21.8328 16.8797 20.2721 16.8519 18.7128C16.8402 18.0324 17.1147 17.6747 17.7717 17.5126C20.7268 16.7855 23.6761 16.0307 26.6312 15.3065C26.8998 15.2408 27.2166 15.2759 27.4926 15.343C30.3396 16.038 33.1838 16.7461 36.0279 17.4542C37.0207 17.7024 37.1477 17.8703 37.1477 18.9011C37.1492 21.7044 37.1536 24.5061 37.1463 27.3094C37.1375 30.4441 35.8921 32.9714 33.4699 34.9672C31.6653 36.455 29.8111 37.8464 27.5831 38.6319C27.2385 38.7531 26.7728 38.7662 26.4385 38.6363C23.4308 37.4756 20.8889 35.6272 18.8098 33.1816C17.5425 31.6909 16.96 29.8776 16.8826 27.9343C16.8227 26.4217 16.8709 24.9062 16.8709 23.3921H16.8607Z" fill="#7DA2FF"/>
</g>
<g filter="url(#filter2_di_4064_79299)">
<path d="M26.8953 23.8913V19.8727C26.8953 19.4493 26.3235 19.3162 26.1365 19.6961L22.3385 27.4122C22.2077 27.678 22.4011 27.9888 22.6974 27.9888H26.4953C26.7163 27.9888 26.8953 28.1679 26.8953 28.3888V32.6505C26.8953 33.0709 27.4609 33.2067 27.6517 32.8321L31.7073 24.8729C31.8429 24.6067 31.6496 24.2913 31.3509 24.2913H27.2953C27.0744 24.2913 26.8953 24.1122 26.8953 23.8913Z" fill="white"/>
</g>
</g>
<defs>
<filter id="filter0_d_4064_79299" x="8.22527" y="11.4396" width="37.5495" height="37.5495" filterUnits="userSpaceOnUse" color-interpolation-filters="sRGB">
<feFlood flood-opacity="0" result="BackgroundImageFix"/>
<feColorMatrix in="SourceAlpha" type="matrix" values="0 0 0 0 0 0 0 0 0 0 0 0 0 0 0 0 0 0 127 0" result="hardAlpha"/>
<feMorphology radius="0.346154" operator="dilate" in="SourceAlpha" result="effect1_dropShadow_4064_79299"/>
<feOffset dy="3.21429"/>
<feGaussianBlur stdDeviation="3.21429"/>
<feColorMatrix type="matrix" values="0 0 0 0 0.222986 0 0 0 0 0.4732 0 0 0 0 0.704167 0 0 0 0.4 0"/>
<feBlend mode="normal" in2="BackgroundImageFix" result="effect1_dropShadow_4064_79299"/>
<feBlend mode="normal" in="SourceGraphic" in2="effect1_dropShadow_4064_79299" result="shape"/>
</filter>
<filter id="filter1_ii_4064_79299" x="16.8516" y="12.137" width="20.2988" height="26.5915" filterUnits="userSpaceOnUse" color-interpolation-filters="sRGB">
<feFlood flood-opacity="0" result="BackgroundImageFix"/>
<feBlend mode="normal" in="SourceGraphic" in2="BackgroundImageFix" result="shape"/>
<feColorMatrix in="SourceAlpha" type="matrix" values="0 0 0 0 0 0 0 0 0 0 0 0 0 0 0 0 0 0 127 0" result="hardAlpha"/>
<feOffset dy="-3.13447"/>
<feGaussianBlur stdDeviation="1.95904"/>
<feComposite in2="hardAlpha" operator="arithmetic" k2="-1" k3="1"/>
<feColorMatrix type="matrix" values="0 0 0 0 0.0716667 0 0 0 0 0.136167 0 0 0 0 0.716667 0 0 0 0.35 0"/>
<feBlend mode="normal" in2="shape" result="effect1_innerShadow_4064_79299"/>
<feColorMatrix in="SourceAlpha" type="matrix" values="0 0 0 0 0 0 0 0 0 0 0 0 0 0 0 0 0 0 127 0" result="hardAlpha"/>
<feOffset dy="-1.17543"/>
<feGaussianBlur stdDeviation="0.783617"/>
<feComposite in2="hardAlpha" operator="arithmetic" k2="-1" k3="1"/>
<feColorMatrix type="matrix" values="0 0 0 0 1 0 0 0 0 1 0 0 0 0 1 0 0 0 0.25 0"/>
<feBlend mode="normal" in2="effect1_innerShadow_4064_79299" result="effect2_innerShadow_4064_79299"/>
</filter>
<filter id="filter2_di_4064_79299" x="14.8623" y="16.0923" width="24.3237" height="28.4482" filterUnits="userSpaceOnUse" color-interpolation-filters="sRGB">
<feFlood flood-opacity="0" result="BackgroundImageFix"/>
<feColorMatrix in="SourceAlpha" type="matrix" values="0 0 0 0 0 0 0 0 0 0 0 0 0 0 0 0 0 0 127 0" result="hardAlpha"/>
<feOffset dy="4.05522"/>
<feGaussianBlur stdDeviation="3.71728"/>
<feColorMatrix type="matrix" values="0 0 0 0 0 0 0 0 0 0.0450001 0 0 0 0 0.45 0 0 0 0.25 0"/>
<feBlend mode="normal" in2="BackgroundImageFix" result="effect1_dropShadow_4064_79299"/>
<feBlend mode="normal" in="SourceGraphic" in2="effect1_dropShadow_4064_79299" result="shape"/>
<feColorMatrix in="SourceAlpha" type="matrix" values="0 0 0 0 0 0 0 0 0 0 0 0 0 0 0 0 0 0 127 0" result="hardAlpha"/>
<feOffset dy="-1.02458"/>
<feGaussianBlur stdDeviation="1.68967"/>
<feComposite in2="hardAlpha" operator="arithmetic" k2="-1" k3="1"/>
<feColorMatrix type="matrix" values="0 0 0 0 0.690196 0 0 0 0 0.776941 0 0 0 0 1 0 0 0 0.6 0"/>
<feBlend mode="normal" in2="shape" result="effect2_innerShadow_4064_79299"/>
</filter>
</defs>
</svg>
