<svg width="30" height="30" viewBox="0 0 30 30" fill="none" xmlns="http://www.w3.org/2000/svg">
<rect x="0.5" y="0.5" width="29" height="29" rx="14.5" fill="#ECF3FF"/>
<path fill-rule="evenodd" clip-rule="evenodd" d="M12.3079 19.1962H14.0058V21.9335H12.3079V19.1962ZM21.6799 8H8.32014C8.14333 8 8 8.1424 8 8.31807V19.81L10.1408 21.9092H11.1185V21.9074V21.4348V17.8537H17.5578V21.9074H17.5478V21.9092H21.6799C21.8567 21.9092 22 21.7668 22 21.5912V8.31807C22 8.1424 21.8567 8 21.6799 8ZM19.7655 14.9998H10.2346V8.76133H19.7655V14.9998ZM12.3079 21.9075H14.0058V22.0075H12.3079V21.9075Z" fill="#467CF3"/>
<rect x="0.5" y="0.5" width="29" height="29" rx="14.5" stroke="#467CF3"/>
</svg>
