<svg width="20" height="21" viewBox="0 0 20 21" fill="none" xmlns="http://www.w3.org/2000/svg">
<path id="&#229;&#189;&#162;&#231;&#138;&#182;&#231;&#187;&#147;&#229;&#144;&#136;" fill-rule="evenodd" clip-rule="evenodd" d="M15.8783 16.6802C12.0648 20.0186 6.24916 19.8136 2.68461 16.1394C-0.985304 12.3565 -0.879374 6.32877 2.92121 2.67598C6.72179 -0.9768 12.7778 -0.871364 16.4477 2.91148C19.9288 6.49973 20.0126 12.1079 16.7683 15.7929L19.8233 18.9419C19.9796 19.103 20.0376 19.3348 19.9755 19.5501C19.9135 19.7653 19.7408 19.9312 19.5225 19.9853C19.3042 20.0395 19.0734 19.9736 18.9172 19.8125L15.8783 16.6802ZM15.3369 15.4714C17.5002 13.4256 18.3949 10.382 17.6807 7.49818C16.9665 4.61434 14.7532 2.33332 11.8825 1.52251C9.01173 0.7117 5.92463 1.49569 3.7951 3.57635C0.566826 6.76161 0.510057 11.9379 3.6677 15.1925C6.82535 18.4472 12.0247 18.5715 15.3357 15.4714H15.3369Z" fill="#999999"/>
</svg>
