<svg width="40" height="40" viewBox="0 0 40 40" fill="none" xmlns="http://www.w3.org/2000/svg">
<rect width="40" height="40" rx="20" fill="#DEE8FF"/>
<path d="M16.3221 17.5206C16.3221 18.4088 16.6749 19.2605 17.3029 19.8886C17.9309 20.5166 18.7827 20.8694 19.6708 20.8694C20.559 20.8694 21.4107 20.5166 22.0387 19.8886C22.6667 19.2605 23.0196 18.4088 23.0196 17.5206C23.0196 16.6325 22.6667 15.7807 22.0387 15.1527C21.4107 14.5247 20.559 14.1719 19.6708 14.1719C18.7827 14.1719 17.9309 14.5247 17.3029 15.1527C16.6749 15.7807 16.3221 16.6325 16.3221 17.5206Z" fill="#B5CBFA"/>
<path d="M13.4109 16.9004C13.4129 16.8716 13.415 16.8449 13.4171 16.8161C13.6636 13.7858 16.2399 11.4109 19.2846 11.4109C22.3971 11.4109 24.9507 13.8393 25.1582 16.9004H25.5691C25.3637 13.6133 22.6251 11 19.2846 11C16.0283 11 13.2712 13.5393 13.0082 16.7812C13.0041 16.8203 13.0021 16.8593 13 16.8983H13.4109V16.9004ZM25.1336 17.9584C24.8049 20.8942 22.3067 23.1849 19.2846 23.1849C16.2625 23.1849 13.7663 20.9456 13.4355 17.9584H13.0226C13.3575 21.1757 16.0365 23.5958 19.2846 23.5958C22.5347 23.5958 25.2158 21.1223 25.5465 17.9584H25.1336Z" fill="#467CF3"/>
<path d="M19.2846 12.7275C16.7638 12.7275 14.7134 14.7779 14.7134 17.2987C14.7134 19.8195 16.7638 21.8698 19.2846 21.8698C21.8054 21.8698 23.8557 19.8195 23.8557 17.2987C23.8537 14.7779 21.8033 12.7275 19.2846 12.7275ZM19.2846 21.0974C17.187 21.0974 15.4859 19.3963 15.4859 17.2987C15.4859 15.2011 17.187 13.5 19.2846 13.5C21.3822 13.5 23.0832 15.2011 23.0832 17.2987C23.0832 19.3963 21.3822 21.0974 19.2846 21.0974Z" fill="#467CF3"/>
<path d="M19.2845 19.9272C17.8361 19.9272 16.6569 18.7479 16.6569 17.2995C16.6569 15.8511 17.8361 14.6719 19.2845 14.6719C20.7329 14.6719 21.9122 15.8511 21.9122 17.2995C21.9122 18.7479 20.7329 19.9272 19.2845 19.9272ZM19.2845 15.6272C18.3621 15.6272 17.6122 16.3771 17.6122 17.2995C17.6122 18.222 18.3621 18.9718 19.2845 18.9718C20.207 18.9718 20.9569 18.222 20.9569 17.2995C20.9569 16.3771 20.2049 15.6272 19.2845 15.6272Z" fill="#467CF3"/>
<path d="M18.2532 21.0174C18.2532 19.9593 18.2491 18.8992 18.2553 17.8412C18.2594 17.0995 18.6251 16.6702 19.2455 16.666C19.905 16.6619 20.3549 17.1303 20.359 17.8535C20.3673 19.0328 20.359 20.212 20.3632 21.3913C20.3652 22.0179 20.507 22.172 21.1747 22.2315C22.5162 22.3487 23.8578 22.4596 25.1993 22.5603C26.0478 22.624 26.3847 22.9814 26.2183 23.756C25.8814 25.3256 25.5116 26.891 25.1685 28.4586C25.0761 28.8859 24.7946 29.0852 24.3529 29.1037C23.7468 29.1304 23.1387 29.1448 22.5306 29.1468C20.8213 29.153 19.112 29.1509 17.4027 29.1468C16.7391 29.1468 16.5254 29.0092 16.3179 28.4339C15.7447 26.8458 15.1777 25.2557 14.6086 23.6676C14.4422 23.2054 14.6908 22.6959 15.1716 22.5171C15.6276 22.3487 16.2542 22.5746 16.4535 23.0143C16.6795 23.5156 16.885 24.0271 17.0719 24.5408C17.1829 24.8448 17.3513 25.0893 17.7211 25.0338C18.1156 24.9722 18.2614 24.6887 18.2594 24.3271C18.2491 23.2238 18.2512 22.1206 18.2532 21.0174Z" fill="#467CF3"/>
</svg>
