<svg width="20" height="20" viewBox="0 0 20 20" fill="none" xmlns="http://www.w3.org/2000/svg">
<circle cx="10" cy="10" r="10" fill="#FFE5E2"/>
<path d="M10.0045 4C10.0571 4 10.1105 4.02057 10.1547 4.05914C10.6384 4.48857 12.2649 5.74943 14.7805 5.82229C14.9073 5.82743 15.0107 5.93371 15.0091 6.06914V11.0971C15.0091 13.3471 11.7862 16 10.0045 16C8.17288 16 5 13.3471 5 11.0971V6.06657C5 5.932 5.10343 5.82486 5.23021 5.82143C7.74666 5.74943 9.37396 4.48857 9.8544 4.05743C9.89636 4.02082 9.94949 4.0005 10.0045 4ZM9.72678 7.31886L8.24211 10.4869H10.5709L9.72512 12.352L10.5809 12.7617L12.0522 9.51486H9.74597L10.5784 7.73886L9.72678 7.31886Z" fill="#FF5F49"/>
</svg>
