<svg width="21" height="21" viewBox="0 0 21 21" fill="none" xmlns="http://www.w3.org/2000/svg">
<rect width="21" height="21" rx="10.5" fill="#467CF3"/>
<path fill-rule="evenodd" clip-rule="evenodd" d="M15.5415 6.56717L15.0392 6.55901C15.027 6.55901 13.9026 6.5345 12.74 6.06349C11.5475 5.58022 10.7798 5.02481 10.773 5.018L10.4694 4.79883L10.1686 5.018C10.1618 5.02344 9.39265 5.57886 8.20153 6.06349C7.04036 6.5345 5.91459 6.55901 5.9037 6.55901L5.40002 6.56717V11.6775C5.40002 14.2436 8.6984 16.9567 10.4708 16.9567C12.2445 16.9567 15.5429 14.2436 15.5429 11.6775C15.5443 11.6803 15.5415 6.56717 15.5415 6.56717ZM10.249 11.9445C10.1861 11.8921 10.1435 11.8193 10.1287 11.7387L9.89914 8.63913C9.89353 8.55957 9.9041 8.47969 9.93021 8.40434C9.95633 8.32898 9.99746 8.2597 10.0511 8.20068C10.1048 8.14166 10.1698 8.09414 10.2424 8.06098C10.3149 8.02781 10.3934 8.0097 10.4731 8.00773C10.6253 8.00805 10.7711 8.06863 10.8786 8.17621C10.9862 8.28378 11.0468 8.42959 11.0471 8.58173L10.8175 11.7387C10.8027 11.8193 10.7602 11.8921 10.6973 11.9445C10.6343 11.997 10.555 12.0257 10.4731 12.0257C10.3912 12.0257 10.3119 11.997 10.249 11.9445ZM10.1542 12.6964C10.2486 12.6333 10.3596 12.5997 10.4731 12.5997C10.5497 12.595 10.6264 12.6067 10.6981 12.6339C10.7699 12.6611 10.835 12.7033 10.8893 12.7575C10.9435 12.8118 10.9856 12.8769 11.0128 12.9487C11.04 13.0204 11.0517 13.0971 11.0471 13.1737C11.0471 13.2872 11.0134 13.3982 10.9504 13.4926C10.8873 13.587 10.7977 13.6605 10.6928 13.704C10.5879 13.7474 10.4725 13.7588 10.3611 13.7366C10.2498 13.7145 10.1475 13.6598 10.0673 13.5795C9.98699 13.4993 9.93232 13.397 9.91017 13.2856C9.88803 13.1743 9.89939 13.0589 9.94284 12.954C9.98628 12.8491 10.0598 12.7595 10.1542 12.6964Z" fill="white"/>
</svg>
