<svg width="16" height="16" viewBox="0 0 16 16" fill="none" xmlns="http://www.w3.org/2000/svg">
<path fill-rule="evenodd" clip-rule="evenodd" d="M14.9291 7.01351C13.9946 7.11279 13.1373 6.46038 12.9923 5.52116C12.8915 4.86718 13.161 4.24313 13.6448 3.85862C13.2476 3.3181 12.7749 2.83588 12.2407 2.42931C11.6513 3.16997 10.5781 3.3181 9.80752 2.75552C9.26385 2.3584 9.01328 1.70914 9.09838 1.0851C8.74066 1.02837 8.37348 1 8 1C7.68955 1 7.38384 1.02049 7.08442 1.05988C7.21522 2.01643 6.55651 2.90522 5.59996 3.05335C4.9176 3.15894 4.2652 2.85952 3.88856 2.33633C3.33859 2.73661 2.85007 3.21252 2.43719 3.75304C2.44192 3.75619 2.44507 3.75934 2.4498 3.76249C3.23931 4.34084 3.41108 5.45025 2.83273 6.23976C2.41828 6.80707 1.72805 7.05606 1.08037 6.93629C1.02679 7.28298 1 7.63913 1 8.00158C1 8.33093 1.02364 8.65556 1.06776 8.97389C1.08037 8.97231 1.09298 8.96916 1.10558 8.96758C2.07317 8.81787 2.97929 9.48132 3.129 10.4489C3.23615 11.1439 2.92571 11.8057 2.38361 12.1792C2.79018 12.726 3.27555 13.2098 3.82238 13.618C3.8271 13.6117 3.83183 13.6054 3.83656 13.5975C4.4149 12.808 5.52431 12.6362 6.31382 13.2145C6.87168 13.6227 7.12067 14.294 7.01666 14.9322C7.33814 14.9779 7.66592 15 8 15C8.35299 15 8.69969 14.9732 9.04007 14.9228C8.9014 13.9615 9.56168 13.0664 10.523 12.9183C11.188 12.8158 11.8246 13.0964 12.206 13.5959C12.7434 13.1909 13.2208 12.7118 13.6227 12.1713C12.8773 11.5835 12.7244 10.5056 13.2902 9.73345C13.681 9.19923 14.3129 8.94867 14.9259 9.01959C14.9748 8.68708 15 8.34827 15 8.00158C14.9984 7.66434 14.9748 7.33498 14.9291 7.01351ZM8.052 11.0036C6.39262 11.0036 5.04683 9.65781 5.04683 7.99842C5.04683 6.33904 6.39262 4.99325 8.052 4.99325C9.71139 4.99325 11.0572 6.33904 11.0572 7.99842C11.0572 9.65781 9.71139 11.0036 8.052 11.0036Z" fill="#909399"/>
</svg>
