<svg width="14" height="14" viewBox="0 0 14 14" fill="none" xmlns="http://www.w3.org/2000/svg">
<path fill-rule="evenodd" clip-rule="evenodd" d="M13.9291 6.01351C12.9946 6.11279 12.1373 5.46038 11.9923 4.52116C11.8915 3.86718 12.161 3.24313 12.6448 2.85862C12.2476 2.3181 11.7749 1.83588 11.2407 1.42931C10.6513 2.16997 9.57812 2.3181 8.80752 1.75552C8.26385 1.3584 8.01328 0.70914 8.09838 0.0850968C7.74066 0.0283656 7.37348 0 7 0C6.68955 0 6.38384 0.0204863 6.08442 0.0598829C6.21522 1.01643 5.55651 1.90522 4.59996 2.05335C3.9176 2.15894 3.2652 1.85952 2.88856 1.33633C2.33859 1.73661 1.85007 2.21252 1.43719 2.75304C1.44192 2.75619 1.44507 2.75934 1.4498 2.76249C2.23931 3.34084 2.41108 4.45025 1.83273 5.23976C1.41828 5.80707 0.72805 6.05606 0.0803692 5.93629C0.0267897 6.28298 0 6.63913 0 7.00158C0 7.33093 0.023638 7.65556 0.0677623 7.97389C0.0803692 7.97231 0.0929761 7.96916 0.105583 7.96758C1.07317 7.81787 1.97929 8.48132 2.129 9.4489C2.23615 10.1439 1.92571 10.8057 1.38361 11.1792C1.79018 11.726 2.27555 12.2098 2.82238 12.618C2.8271 12.6117 2.83183 12.6054 2.83656 12.5975C3.4149 11.808 4.52431 11.6362 5.31382 12.2145C5.87168 12.6227 6.12067 13.294 6.01666 13.9322C6.33814 13.9779 6.66592 14 7 14C7.35299 14 7.69969 13.9732 8.04007 13.9228C7.9014 12.9615 8.56168 12.0664 9.52296 11.9183C10.188 11.8158 10.8246 12.0964 11.206 12.5959C11.7434 12.1909 12.2208 11.7118 12.6227 11.1713C11.8773 10.5835 11.7244 9.50563 12.2902 8.73345C12.681 8.19923 13.3129 7.94867 13.9259 8.01959C13.9748 7.68708 14 7.34827 14 7.00158C13.9984 6.66434 13.9748 6.33498 13.9291 6.01351ZM7.052 10.0036C5.39262 10.0036 4.04683 8.65781 4.04683 6.99842C4.04683 5.33904 5.39262 3.99325 7.052 3.99325C8.71139 3.99325 10.0572 5.33904 10.0572 6.99842C10.0572 8.65781 8.71139 10.0036 7.052 10.0036Z" fill="#467CF3"/>
</svg>
