<svg width="14" height="14" viewBox="0 0 14 14" fill="none" xmlns="http://www.w3.org/2000/svg">
<path fill-rule="evenodd" clip-rule="evenodd" d="M8.2016e-05 0.876547C-0.00330257 0.526829 0.201431 0.208533 0.521068 0.0665813C0.837242 -0.0691196 1.20449 0.00672479 1.44104 0.256573L7.00289 6.03233L12.5647 0.257573C12.7205 0.0961179 12.9355 0.00533352 13.1598 0.00627767C13.3841 0.00722182 13.5983 0.0998125 13.7527 0.262573C14.0805 0.607827 14.0827 1.14862 13.7577 1.49652L8.04787 7.42727C7.77598 7.71375 7.39836 7.87598 7.00339 7.87598C6.60843 7.87598 6.23081 7.71375 5.95892 7.42727L0.247075 1.49652C0.087532 1.32967 -0.00101662 1.1074 8.2016e-05 0.876547ZM8.2016e-05 7.00029C-0.00330257 6.65057 0.201431 6.33228 0.521068 6.19033C0.837242 6.05463 1.20449 6.13047 1.44104 6.38032L7.00289 12.1551L12.5647 6.37932C12.7206 6.21799 12.9357 6.12739 13.16 6.12852C13.3843 6.12965 13.5985 6.22243 13.7527 6.38532C14.0805 6.73057 14.0827 7.27137 13.7577 7.61927L8.04787 13.549C7.77087 13.838 7.39488 14 7.00289 14C6.61091 14 6.23592 13.838 5.95892 13.55L0.247075 7.61927C0.0876827 7.45272 -0.000862122 7.23082 8.2016e-05 7.00029Z" fill="#C0C4CC"/>
</svg>
