<svg width="16" height="16" viewBox="0 0 16 16" fill="none" xmlns="http://www.w3.org/2000/svg">
<g id="arrow/more2">
<path id="&#229;&#189;&#162;&#231;&#138;&#182;" fill-rule="evenodd" clip-rule="evenodd" d="M1.00008 4.87655C0.996697 4.52683 1.20143 4.20853 1.52107 4.06658C1.83724 3.93088 2.20449 4.00672 2.44104 4.25657L8.00289 10.0313L13.5647 4.25557C13.7206 4.09425 13.9357 4.00364 14.16 4.00478C14.3843 4.00591 14.5985 4.09868 14.7527 4.26157C15.0805 4.60683 15.0827 5.14762 14.7577 5.49552L9.04787 11.4253C8.77087 11.7143 8.39488 11.8763 8.00289 11.8763C7.61091 11.8763 7.23592 11.7143 6.95892 11.4263L1.24708 5.49552C1.08768 5.32897 0.999138 5.10707 1.00008 4.87655Z" fill="#9D9D9D"/>
</g>
</svg>
