<svg width="18" height="34" viewBox="0 0 18 34" fill="none" xmlns="http://www.w3.org/2000/svg">
<mask id="path-1-inside-1_1931_101568" fill="white">
<path d="M18 4C18 1.79086 16.2091 0 14 0H0V34H14C16.2091 34 18 32.2091 18 30V4Z"/>
</mask>
<path d="M18 4C18 1.79086 16.2091 0 14 0H0V34H14C16.2091 34 18 32.2091 18 30V4Z" fill="white"/>
<path fill-rule="evenodd" clip-rule="evenodd" d="M6.60117 20.7968L10.5326 17.2227C10.6701 17.1127 10.6701 16.8928 10.5326 16.7828L6.60117 13.2087C6.51865 13.1537 6.49121 13.0438 6.49121 12.9612C6.49121 12.6588 6.84863 12.5214 7.06855 12.7138L11.3024 16.5628C11.5773 16.8103 11.5773 17.2227 11.3024 17.4426L7.06855 21.2916C6.84863 21.4841 6.49121 21.3191 6.49121 21.0442C6.49121 20.9342 6.51865 20.8518 6.60117 20.7968Z" fill="#606266" stroke="#606266" stroke-width="0.5"/>
<path d="M19 4C19 1.23858 16.7614 -1 14 -1H0V1H14C15.6569 1 17 2.34315 17 4H19ZM0 35H14C16.7614 35 19 32.7614 19 30H17C17 31.6569 15.6569 33 14 33H0V35ZM14 35C16.7614 35 19 32.7614 19 30V4C19 1.23858 16.7614 -1 14 -1V1C15.6569 1 17 2.34315 17 4V30C17 31.6569 15.6569 33 14 33V35ZM0 0V34V0Z" fill="#D0D3D6" mask="url(#path-1-inside-1_1931_101568)"/>
</svg>
