<svg width="21" height="20" viewBox="0 0 21 20" fill="none" xmlns="http://www.w3.org/2000/svg">
<g id="sideNav/shrink">
<path id="&#229;&#189;&#162;&#231;&#138;&#182;" fill-rule="evenodd" clip-rule="evenodd" d="M18.5306 10.4872L15.1373 12.8506C14.7263 13.1384 14.2015 12.8506 14.2015 12.3884V7.60931C14.2015 7.48723 14.2453 7.36514 14.3152 7.26049C14.5076 7.00757 14.8749 6.95524 15.1373 7.14711L18.5306 9.51049C18.8192 9.73723 18.8192 10.1994 18.5306 10.4872ZM1.9555 3.89534H18.0475C18.4323 3.89534 18.7471 3.58138 18.7471 3.19767C18.7471 2.81395 18.4323 2.5 18.0475 2.5H1.9555C1.5707 2.5 1.25586 2.81395 1.25586 3.19767C1.25586 3.58138 1.5707 3.89534 1.9555 3.89534ZM1.9555 17.5H18.0475C18.4323 17.5 18.7471 17.186 18.7471 16.8023C18.7471 16.4186 18.4323 16.1047 18.0475 16.1047H1.9555C1.5707 16.1047 1.25586 16.4186 1.25586 16.8023C1.25586 17.186 1.5707 17.5 1.9555 17.5ZM1.9555 8.42661H12.1004C12.4852 8.42661 12.8001 8.11265 12.8001 7.72894C12.8001 7.34522 12.4852 7.03125 12.1004 7.03125H1.9555C1.5707 7.03125 1.25586 7.3452 1.25586 7.72894C1.25586 8.11267 1.5707 8.42661 1.9555 8.42661ZM1.9555 12.9657H12.1092C12.494 12.9657 12.8088 12.6517 12.8088 12.268C12.8088 11.8842 12.494 11.5703 12.1092 11.5703H1.9555C1.5707 11.5703 1.25586 11.8843 1.25586 12.268V12.2767C1.25586 12.6517 1.5707 12.9657 1.9555 12.9657Z" fill="#2B2F36"/>
</g>
</svg>
