<svg width="20" height="20" viewBox="0 0 20 20" fill="none" xmlns="http://www.w3.org/2000/svg">
<g id="sideNav/shrink">
<path id="&#229;&#189;&#162;&#231;&#138;&#182;" fill-rule="evenodd" clip-rule="evenodd" d="M1.47738 10.4884L4.87069 12.8517C5.28173 13.1395 5.80647 12.8517 5.80647 12.3895V7.61046C5.80647 7.48837 5.76274 7.36628 5.69277 7.26163C5.50038 7.00871 5.13306 6.95639 4.87069 7.14825L1.47738 9.51163C1.18877 9.73837 1.18877 10.2006 1.47738 10.4884ZM1.94964 3.89534H18.0416C18.4264 3.89534 18.7412 3.58138 18.7412 3.19767C18.7412 2.81395 18.4264 2.5 18.0416 2.5H1.94964C1.56484 2.5 1.25 2.81395 1.25 3.19767C1.25 3.58138 1.56484 3.89534 1.94964 3.89534ZM1.94964 17.5H18.0416C18.4264 17.5 18.7412 17.186 18.7412 16.8023C18.7412 16.4186 18.4264 16.1047 18.0416 16.1047H1.94964C1.56484 16.1047 1.25 16.4186 1.25 16.8023C1.25 17.186 1.56484 17.5 1.94964 17.5ZM7.89666 8.43023H18.0416C18.4264 8.43023 18.7412 8.11628 18.7412 7.73256C18.7412 7.34885 18.4264 7.03487 18.0416 7.03487H7.89666C7.51186 7.03487 7.19702 7.34883 7.19702 7.73256C7.19702 8.1163 7.51186 8.43023 7.89666 8.43023ZM7.89666 12.9651H18.0503C18.4352 12.9651 18.75 12.6512 18.75 12.2674C18.75 11.8837 18.4352 11.5698 18.0503 11.5698H7.89666C7.51186 11.5698 7.19702 11.8837 7.19702 12.2674V12.2762C7.19702 12.6512 7.51186 12.9651 7.89666 12.9651Z" fill="#2B2F36"/>
</g>
</svg>
