<svg width="14" height="14" viewBox="0 0 14 14" fill="none" xmlns="http://www.w3.org/2000/svg">
<path fill-rule="evenodd" clip-rule="evenodd" d="M3.85714 2.94L4.71429 4.06L0 4.48L1.42857 0L2.57143 1.4C3.85714 0.56 5.28571 0 6.85714 0C10.8571 0 14 3.22 14 7C14 10.92 10.7143 14 6.85714 14C3.85714 14 1.14286 12.18 0.142858 9.52C0 9.24 0 8.96 0.142858 8.82C0.285715 8.54 0.428572 8.4 0.714286 8.26C1.28571 8.12 1.85714 8.26 2 8.82C2.71429 10.78 4.71429 12.04 6.85714 12.04C9.71429 12.04 12 9.8 12 7C12 4.2 9.71429 1.96 6.85714 1.96C5.71429 1.96 4.71428 2.24 3.85714 2.94Z" fill="#626D7F"/>
</svg>
