<svg width="40" height="40" viewBox="0 0 40 40" fill="none" xmlns="http://www.w3.org/2000/svg">
<rect width="40" height="40" rx="20" fill="#CCF5EF"/>
<g clip-path="url(#clip0_3615_71853)">
<path d="M28.1749 25.7341C29.3575 24.0476 29.9805 22.0714 29.9805 20C29.9805 14.4841 25.4963 10 19.9805 10C14.4646 10 9.98047 14.4841 9.98047 20C9.98047 25.5159 14.4646 30 19.9805 30C21.5638 30 23.1313 29.623 24.5321 28.9048L28.6948 29.9802C28.7463 29.9921 28.8019 30 28.8535 30C29.0321 30 29.2067 29.9246 29.3297 29.7897C29.4884 29.6111 29.536 29.3611 29.4527 29.1389L28.1749 25.7341ZM16.9924 21.0119C16.6313 21.2222 16.1828 21.2222 15.8217 21.0119C15.4606 20.8016 15.2384 20.4167 15.2384 20C15.2384 19.5833 15.4606 19.1944 15.8217 18.9881C16.1828 18.7778 16.6313 18.7778 16.9924 18.9881C17.3535 19.1984 17.5757 19.5833 17.5757 20C17.5797 20.4167 17.3535 20.8056 16.9924 21.0119ZM20.5638 21.0119C20.2027 21.2222 19.7543 21.2222 19.3932 21.0119C19.0321 20.8016 18.8098 20.4167 18.8098 20C18.8098 19.5833 19.0321 19.1944 19.3932 18.9881C19.7543 18.7778 20.2027 18.7778 20.5638 18.9881C20.9249 19.1984 21.1471 19.5833 21.1471 20C21.1511 20.4167 20.9289 20.8056 20.5638 21.0119ZM24.1392 21.0119C23.7781 21.2222 23.3297 21.2222 22.9686 21.0119C22.6075 20.8016 22.3852 20.4167 22.3852 20C22.3852 19.5833 22.6075 19.1944 22.9686 18.9881C23.3297 18.7778 23.7781 18.7778 24.1392 18.9881C24.5003 19.1984 24.7225 19.5833 24.7225 20C24.7225 20.4167 24.5003 20.8056 24.1392 21.0119Z" fill="#1BD0AB"/>
</g>
<defs>
<clipPath id="clip0_3615_71853">
<rect width="20.0391" height="20" fill="white" transform="translate(9.98047 10)"/>
</clipPath>
</defs>
</svg>
