<svg width="60" height="60" viewBox="0 0 60 60" fill="none" xmlns="http://www.w3.org/2000/svg">
<rect width="60" height="60" rx="2" fill="#F5BD50"/>
<path fill-rule="evenodd" clip-rule="evenodd" d="M22.8768 19.7607C21.9077 19.1345 20.8137 18.791 19.7284 19.1383C18.6687 19.4774 18.062 20.3363 17.7229 21.0719C17.0558 22.5189 16.9568 24.4756 17.0137 25.7365L17.0137 25.7365L17.0141 25.7454C17.1777 28.9471 17.7023 33.5728 18.7888 36.9053C19.0635 37.748 19.3865 38.5475 19.7705 39.2375C20.1474 39.9148 20.6301 40.5728 21.2626 41.039C21.9342 41.534 22.7714 41.804 23.7025 41.6407C24.5685 41.4888 25.3309 40.9936 25.996 40.3485C26.9273 39.4981 28.5237 37.625 29.6093 35.1693C30.7834 37.654 32.5185 39.5405 33.5155 40.3857C34.2303 41.0296 35.0258 41.5008 35.9034 41.6437C36.8338 41.7953 37.6808 41.5492 38.3818 41.0694C39.6548 40.1981 40.4724 38.5442 41.0366 36.9372C42.2106 33.5935 42.7763 28.9571 42.9528 25.7513L42.9533 25.7417L42.9533 25.7417C43.0149 24.4729 42.9081 22.4963 42.1816 21.0329C41.8052 20.2748 41.1562 19.4488 40.0802 19.1291C38.9996 18.808 37.8897 19.1163 36.8596 19.7344C34.895 20.9132 33.1215 23.0835 31.7448 25.1377C30.9186 26.3705 30.1914 27.6291 29.6083 28.7377C29.0708 27.6401 28.4029 26.3977 27.6453 25.1802C26.3709 23.1323 24.7201 20.9519 22.8768 19.7607ZM21.641 35.9754C20.6782 33.0222 20.1699 28.7117 20.0104 25.5969C19.9603 24.4748 20.0873 23.1088 20.4473 22.3279C20.5386 22.1299 20.6115 22.0405 20.648 22.0043C20.7245 22.0141 20.9122 22.0631 21.2486 22.2804C22.5039 23.0916 23.8657 24.7847 25.0982 26.7653C26.1851 28.5118 27.0762 30.3245 27.6147 31.5756C27.0476 34.6548 24.9488 37.2488 23.9604 38.1447L23.9395 38.1637L23.9193 38.1834C23.4918 38.6013 23.2461 38.675 23.1841 38.6858L23.1821 38.6865C23.1737 38.6898 23.1465 38.7007 23.0426 38.6241C22.8893 38.5111 22.6594 38.2594 22.392 37.7788C22.1316 37.3109 21.8787 36.7044 21.641 35.9754ZM20.6069 22.0029C20.6068 22.0027 20.6102 22.0021 20.6174 22.002C20.6105 22.0032 20.607 22.0032 20.6069 22.0029ZM38.206 35.9434C39.2389 33.0016 39.7855 28.7021 39.957 25.5914C40.0106 24.4773 39.874 23.1313 39.4945 22.367C39.41 22.1968 39.3341 22.0995 39.2832 22.0491C39.2592 22.0253 39.243 22.0142 39.2357 22.0098C39.2294 22.0059 39.2267 22.0051 39.2258 22.0048L39.2257 22.0048L39.2256 22.0048C39.2246 22.0045 39.2156 22.0018 39.1943 22.0012C39.1719 22.0006 39.1303 22.0023 39.0661 22.0158C38.9335 22.0435 38.7158 22.1192 38.4032 22.3068C37.0308 23.1303 35.56 24.8336 34.2369 26.8078C33.075 28.5416 32.1214 30.3399 31.5415 31.5876C32.1561 34.6257 34.3929 37.203 35.4687 38.1085L35.4902 38.1265L35.5109 38.1454C35.9726 38.5644 36.263 38.6628 36.3857 38.6828C36.4642 38.6956 36.5422 38.6931 36.6874 38.5937C37.1068 38.3066 37.6666 37.48 38.206 35.9434Z" fill="white"/>
</svg>
