<svg width="40" height="40" viewBox="0 0 40 40" fill="none" xmlns="http://www.w3.org/2000/svg">
<rect width="40" height="40" fill="#F5BD50"/>
<path fill-rule="evenodd" clip-rule="evenodd" d="M12.8768 9.76073C11.9077 9.13447 10.8137 8.79099 9.72839 9.13829C8.66865 9.47741 8.06204 10.3363 7.72289 11.0719C7.05584 12.5189 6.95678 14.4756 7.01369 15.7365L7.01367 15.7365L7.01412 15.7454C7.17774 18.9471 7.70235 23.5728 8.78877 26.9053C9.06353 27.748 9.38654 28.5475 9.7705 29.2375C10.1474 29.9148 10.6301 30.5728 11.2626 31.039C11.9342 31.534 12.7714 31.804 13.7025 31.6407C14.5685 31.4888 15.3309 30.9936 15.996 30.3485C16.9273 29.4981 18.5237 27.625 19.6093 25.1693C20.7834 27.654 22.5185 29.5405 23.5155 30.3857C24.2303 31.0296 25.0258 31.5008 25.9034 31.6437C26.8338 31.7953 27.6808 31.5492 28.3818 31.0694C29.6548 30.1981 30.4724 28.5442 31.0366 26.9372C32.2106 23.5935 32.7763 18.9571 32.9528 15.7513L32.9533 15.7417L32.9533 15.7417C33.0149 14.4729 32.9081 12.4963 32.1816 11.0329C31.8052 10.2748 31.1562 9.44881 30.0802 9.12906C28.9996 8.80799 27.8897 9.11625 26.8596 9.73436C24.895 10.9132 23.1215 13.0835 21.7448 15.1377C20.9186 16.3705 20.1914 17.6291 19.6083 18.7377C19.0708 17.6401 18.4029 16.3977 17.6453 15.1802C16.3709 13.1323 14.7201 10.9519 12.8768 9.76073ZM11.641 25.9754C10.6782 23.0222 10.1699 18.7117 10.0104 15.5969C9.96029 14.4748 10.0873 13.1088 10.4473 12.3279C10.5386 12.1299 10.6115 12.0405 10.648 12.0043C10.7245 12.0141 10.9122 12.0631 11.2486 12.2804C12.5039 13.0916 13.8657 14.7847 15.0982 16.7653C16.1851 18.5118 17.0762 20.3245 17.6147 21.5756C17.0476 24.6548 14.9488 27.2488 13.9604 28.1447L13.9395 28.1637L13.9193 28.1834C13.4918 28.6013 13.2461 28.675 13.1841 28.6858L13.1821 28.6865C13.1737 28.6898 13.1465 28.7007 13.0426 28.6241C12.8893 28.5111 12.6594 28.2594 12.392 27.7788C12.1316 27.3109 11.8787 26.7044 11.641 25.9754ZM10.6069 12.0029C10.6068 12.0027 10.6102 12.0021 10.6174 12.002C10.6105 12.0032 10.607 12.0032 10.6069 12.0029ZM28.206 25.9434C29.2389 23.0016 29.7855 18.7021 29.957 15.5914C30.0106 14.4773 29.874 13.1313 29.4945 12.367C29.41 12.1968 29.3341 12.0995 29.2832 12.0491C29.2592 12.0253 29.243 12.0142 29.2357 12.0098C29.2294 12.0059 29.2267 12.0051 29.2258 12.0048L29.2257 12.0048L29.2256 12.0048C29.2246 12.0045 29.2156 12.0018 29.1943 12.0012C29.1719 12.0006 29.1303 12.0023 29.0661 12.0158C28.9335 12.0435 28.7158 12.1192 28.4032 12.3068C27.0308 13.1303 25.56 14.8336 24.2369 16.8078C23.075 18.5416 22.1214 20.3399 21.5415 21.5876C22.1561 24.6257 24.3929 27.203 25.4687 28.1085L25.4902 28.1265L25.5109 28.1454C25.9726 28.5644 26.263 28.6628 26.3857 28.6828C26.4642 28.6956 26.5422 28.6931 26.6874 28.5937C27.1068 28.3066 27.6666 27.48 28.206 25.9434Z" fill="white"/>
</svg>
