<svg width="14" height="14" viewBox="0 0 14 14" fill="none" xmlns="http://www.w3.org/2000/svg">
<mask id="path-1-inside-1_1233_296738" fill="white">
<path fill-rule="evenodd" clip-rule="evenodd" d="M7 14C10.866 14 14 10.866 14 7C14 3.13401 10.866 0 7 0C3.13401 0 0 3.13401 0 7C0 10.866 3.13401 14 7 14ZM10.5645 5.49389C10.8372 5.18216 10.8056 4.70834 10.4939 4.43558C10.1822 4.16282 9.70836 4.1944 9.43559 4.50613L6.40816 7.96605L4.46855 6.41436C4.1451 6.1556 3.67313 6.20804 3.41438 6.53149C3.15562 6.85494 3.20806 7.3269 3.53151 7.58566L6.59189 10.034L10.5645 5.49389Z"/>
</mask>
<path fill-rule="evenodd" clip-rule="evenodd" d="M7 14C10.866 14 14 10.866 14 7C14 3.13401 10.866 0 7 0C3.13401 0 0 3.13401 0 7C0 10.866 3.13401 14 7 14ZM10.5645 5.49389C10.8372 5.18216 10.8056 4.70834 10.4939 4.43558C10.1822 4.16282 9.70836 4.1944 9.43559 4.50613L6.40816 7.96605L4.46855 6.41436C4.1451 6.1556 3.67313 6.20804 3.41438 6.53149C3.15562 6.85494 3.20806 7.3269 3.53151 7.58566L6.59189 10.034L10.5645 5.49389Z" fill="#4BCF82"/>
<path d="M10.4939 4.43558L9.50615 5.56444L9.50615 5.56444L10.4939 4.43558ZM10.5645 5.49389L11.6933 6.48165L11.6933 6.48164L10.5645 5.49389ZM9.43559 4.50613L8.30673 3.51837L8.30673 3.51837L9.43559 4.50613ZM6.40816 7.96605L5.47112 9.13735L6.59189 10.034L7.53703 8.95381L6.40816 7.96605ZM4.46855 6.41436L3.53151 7.58566H3.53151L4.46855 6.41436ZM3.41438 6.53149L4.58568 7.46853L4.58568 7.46853L3.41438 6.53149ZM3.53151 7.58566L4.46855 6.41436L3.53151 7.58566ZM6.59189 10.034L5.65485 11.2053L6.77562 12.1019L7.72076 11.0217L6.59189 10.034ZM12.5 7C12.5 10.0376 10.0376 12.5 7 12.5V15.5C11.6944 15.5 15.5 11.6944 15.5 7H12.5ZM7 1.5C10.0376 1.5 12.5 3.96243 12.5 7H15.5C15.5 2.30558 11.6944 -1.5 7 -1.5V1.5ZM1.5 7C1.5 3.96243 3.96243 1.5 7 1.5V-1.5C2.30558 -1.5 -1.5 2.30558 -1.5 7H1.5ZM7 12.5C3.96243 12.5 1.5 10.0376 1.5 7H-1.5C-1.5 11.6944 2.30558 15.5 7 15.5V12.5ZM9.50615 5.56444C9.19442 5.29168 9.16284 4.81786 9.43559 4.50613L11.6933 6.48164C12.5116 5.54646 12.4168 4.125 11.4817 3.30671L9.50615 5.56444ZM10.5645 5.49389C10.2917 5.80561 9.81788 5.8372 9.50615 5.56444L11.4817 3.30671C10.5465 2.48843 9.12502 2.58319 8.30673 3.51837L10.5645 5.49389ZM7.53703 8.95381L10.5645 5.49389L8.30673 3.51837L5.2793 6.97829L7.53703 8.95381ZM3.53151 7.58566L5.47112 9.13735L7.34521 6.79475L5.40559 5.24306L3.53151 7.58566ZM4.58568 7.46853C4.32692 7.79198 3.85495 7.84442 3.53151 7.58566L5.40559 5.24306C4.43525 4.46678 3.01934 4.62411 2.24307 5.59445L4.58568 7.46853ZM4.46855 6.41436C4.792 6.67312 4.84444 7.14509 4.58568 7.46853L2.24307 5.59445C1.4668 6.56479 1.62412 7.98069 2.59446 8.75697L4.46855 6.41436ZM7.52893 8.86267L4.46855 6.41436L2.59446 8.75696L5.65485 11.2053L7.52893 8.86267ZM9.4356 4.50613L5.46303 9.04621L7.72076 11.0217L11.6933 6.48165L9.4356 4.50613Z" fill="#4BCF82" mask="url(#path-1-inside-1_1233_296738)"/>
</svg>
