<svg xmlns="http://www.w3.org/2000/svg" xmlns:xlink="http://www.w3.org/1999/xlink" fill="none" version="1.1" width="12" height="12" viewBox="0 0 12 12"><g style="mix-blend-mode:passthrough"><g style="opacity:0;mix-blend-mode:passthrough"><path d="M12,0C12,0,0,0,0,0C0,0,0,12,0,12C0,12,12,12,12,12C12,12,12,0,12,0C12,0,12,0,12,0Z" fill="#FFFFFF" fill-opacity="1"/></g><g style="mix-blend-mode:passthrough"><path d="M6,0C9.31371,0,12,2.68629,12,6C12,9.31371,9.31371,12,6,12C2.68629,12,0,9.31371,0,6C0,2.68629,2.68629,0,6,0C6,0,6,0,6,0Z" fill-rule="evenodd" fill="#00B42A" fill-opacity="1"/></g><g style="mix-blend-mode:passthrough"><g style="mix-blend-mode:passthrough" transform="matrix(0.7660444378852844,0.6427875757217407,-0.6427875757217407,0.7660444378852844,4.217067521375668,-4.489608002665548)"><path d="M8.750384515716553,3.548344909209061C8.750384515716553,3.548344909209061,9.223090515716553,3.548344909209061,9.223090515716553,3.548344909209061C9.484162515716553,3.548216207540161,9.695792515716553,3.759853850540161,9.695792515716553,4.020921850540161C9.695792515716553,4.020964850540161,9.695792515716553,4.021007850540161,9.695662515716553,4.021050850540161C9.695662515716553,4.021050850540161,9.694332515716553,8.937784850540162,9.694332515716553,8.937784850540162C9.694132515716554,9.19879485054016,9.482512515716552,9.41035485054016,9.221493515716553,9.410484850540161C9.221493515716553,9.410484850540161,8.276082515716553,9.410484850540161,8.276082515716553,9.410484850540161C8.276082515716553,9.410484850540161,8.277550345716552,4.021050850540161,8.277550345716552,4.021050850540161C8.277750155716554,3.7600328505401612,8.489366515716553,3.548473636540161,8.750384515716553,3.548344909209061C8.750384515716553,3.548344909209061,8.750384515716553,3.548344909209061,8.750384515716553,3.548344909209061Z" fill-rule="evenodd" fill="#E8FFEA" fill-opacity="1"/></g><g style="mix-blend-mode:passthrough" transform="matrix(0.669130802154541,-0.7431446313858032,0.7431449890136719,0.6691304445266724,-3.995372702165014,4.432157418405978)"><path d="M3.452415194732666,6.702953577041626C3.452415194732666,6.702953577041626,3.926415194732666,6.702953577041626,3.926415194732666,6.702953577041626C4.183368194732666,6.702953577041626,4.393258194732666,6.908202577041626,4.398998194732666,7.165086577041626C4.398998194732666,7.165086577041626,4.464608194732666,10.097933577041626,4.464608194732666,10.097933577041626C4.464608194732666,10.097933577041626,3.518898194732666,10.135433577041626,3.518898194732666,10.135433577041626C3.258035194732666,10.145783577041627,3.038178494732666,9.942693577041625,3.027835094732666,9.681833577041626C3.027707494732666,9.678613577041626,3.027613094732666,9.675393577041627,3.027551294732666,9.672173577041626C3.027551294732666,9.672173577041626,2.979797063632666,7.184732577041626,2.979797063632666,7.184732577041626C2.974785994732666,6.923712577041626,3.182322194732666,6.708051797041626,3.443342194732666,6.703040733041626C3.446366194732666,6.702982672241626,3.449390194732666,6.702953577041626,3.452415194732666,6.702953577041626C3.452415194732666,6.702953577041626,3.452415194732666,6.702953577041626,3.452415194732666,6.702953577041626Z" fill-rule="evenodd" fill="#E8FFEA" fill-opacity="1"/></g></g></g></svg>