<svg width="30" height="30" viewBox="0 0 30 30" fill="none" xmlns="http://www.w3.org/2000/svg">
<path d="M7.58929 13.1083C7.91071 13.1083 8.17857 12.894 8.26786 12.5904C9.26786 9.8404 11.9107 7.85826 15 7.85826C18.4464 7.85826 21.3393 10.3225 22 13.5725H20.7143L22.8929 15.7333L25 13.5725H23.4464C22.7679 9.51897 19.25 6.42969 15 6.42969C11.2679 6.42969 8.08929 8.82254 6.91071 12.1618C6.89286 12.2333 6.875 12.3047 6.875 12.394C6.875 12.7868 7.19643 13.1083 7.58929 13.1083ZM22.4107 16.894C22.0893 16.894 21.8214 17.1083 21.7321 17.4118C20.7321 20.1618 18.0893 22.144 15 22.144C11.5536 22.144 8.66071 19.6797 8 16.4297H9.26786L7.10714 14.269L5 16.4297H6.55357C7.23214 20.4833 10.75 23.5725 15 23.5725C18.7321 23.5725 21.9107 21.1797 23.0893 17.8404C23.1071 17.769 23.125 17.6975 23.125 17.6083C23.125 17.2154 22.8036 16.894 22.4107 16.894Z" fill="#616266"/>
</svg>
