<svg width="38" height="34" viewBox="0 0 38 34" fill="none" xmlns="http://www.w3.org/2000/svg">
<g id="Group 1000006562">
<rect id="Rectangle 17940" x="6" y="4" width="26" height="30" rx="2" fill="#C75344"/>
<g id="Intersect" filter="url(#filter0_d_2717_58376)">
<path fill-rule="evenodd" clip-rule="evenodd" d="M6 15.0454V6C6 4.89543 6.89543 4 8 4H30C31.1046 4 32 4.89543 32 6V14.5752C28.3497 16.4006 23.6405 17.5 18.5 17.5C13.8173 17.5 9.49248 16.5877 6 15.0454Z" fill="#D35E50"/>
</g>
<circle id="Ellipse 1696" cx="19" cy="17.25" r="4.75" fill="#E7CC98"/>
<path id="Vector" d="M19.5615 18.0125V18.1592H20.2541C20.3596 18.1592 20.4574 18.1966 20.5475 18.2714C20.6376 18.3462 20.6851 18.4516 20.6904 18.5877C20.6955 18.7239 20.6515 18.8322 20.5584 18.9127C20.4652 18.9933 20.3637 19.0335 20.2541 19.0335H19.5615V19.4362C19.5615 19.5473 19.5154 19.6581 19.4233 19.7683C19.3312 19.8786 19.193 19.937 19.0088 19.9438C18.8245 19.9505 18.6853 19.8968 18.5911 19.7827C18.4968 19.6686 18.4498 19.5531 18.4498 19.4362V19.0335H17.7697C17.6641 19.0335 17.5642 18.9942 17.47 18.9156C17.3758 18.837 17.3297 18.7306 17.3318 18.5964C17.3318 18.4717 17.3773 18.3677 17.4684 18.2843C17.5595 18.2009 17.6599 18.1592 17.7697 18.1592H18.4498V18.0125H17.7697C17.662 18.0125 17.5611 17.9728 17.4669 17.8932C17.3727 17.8136 17.3266 17.7077 17.3287 17.5754C17.3287 17.4488 17.3747 17.3477 17.4669 17.2719C17.559 17.1962 17.6599 17.1583 17.7697 17.1583H18.3473L17.1734 15.8958C17.1009 15.821 17.06 15.7179 17.0507 15.5866C17.0414 15.4553 17.1025 15.3397 17.234 15.24C17.3654 15.1403 17.4984 15.1077 17.633 15.1422C17.7676 15.1767 17.869 15.2304 17.9373 15.3033L19.0367 16.5083L20.0987 15.2831C20.1567 15.216 20.2534 15.1613 20.3891 15.1192C20.5246 15.077 20.6613 15.1105 20.799 15.2198C20.9367 15.3291 20.9977 15.449 20.9822 15.5793C20.9667 15.7098 20.9268 15.8094 20.8626 15.8784L19.6795 17.1583H20.254C20.3616 17.1583 20.462 17.1966 20.5552 17.2733C20.6484 17.35 20.6954 17.4526 20.6965 17.5811C20.6975 17.7095 20.6499 17.8136 20.5536 17.8931C20.4574 17.9727 20.3575 18.0125 20.254 18.0125H19.5616L19.5615 18.0125Z" fill="#DA8948"/>
</g>
<defs>
<filter id="filter0_d_2717_58376" x="0" y="0" width="38" height="25.5" filterUnits="userSpaceOnUse" color-interpolation-filters="sRGB">
<feFlood flood-opacity="0" result="BackgroundImageFix"/>
<feColorMatrix in="SourceAlpha" type="matrix" values="0 0 0 0 0 0 0 0 0 0 0 0 0 0 0 0 0 0 127 0" result="hardAlpha"/>
<feOffset dy="2"/>
<feGaussianBlur stdDeviation="3"/>
<feComposite in2="hardAlpha" operator="out"/>
<feColorMatrix type="matrix" values="0 0 0 0 0 0 0 0 0 0 0 0 0 0 0 0 0 0 0.1 0"/>
<feBlend mode="normal" in2="BackgroundImageFix" result="effect1_dropShadow_2717_58376"/>
<feBlend mode="normal" in="SourceGraphic" in2="effect1_dropShadow_2717_58376" result="shape"/>
</filter>
</defs>
</svg>
