<svg width="16" height="16" viewBox="0 0 16 16" fill="none" xmlns="http://www.w3.org/2000/svg">
<g clip-path="url(#clip0_2859_65691)">
<path d="M13.5489 8.07711L7.04886 1.57711C6.97165 1.49949 6.87982 1.43795 6.77867 1.39605C6.67752 1.35416 6.56907 1.33274 6.45959 1.33305H0.833336C0.612399 1.33329 0.400581 1.42117 0.244355 1.5774C0.0881283 1.73362 0.000251258 1.94544 3.12629e-06 2.16638V7.79263C-0.000297726 7.90211 0.0211183 8.01056 0.0630115 8.11171C0.104905 8.21286 0.166443 8.30469 0.244066 8.3819L6.74407 14.8819C6.82145 14.9593 6.91332 15.0207 7.01442 15.0626C7.11553 15.1044 7.2239 15.126 7.33334 15.126C7.44277 15.126 7.55114 15.1044 7.65225 15.0626C7.75336 15.0207 7.84522 14.9593 7.92261 14.8819L13.5489 9.25565C13.7049 9.09923 13.7925 8.88732 13.7925 8.66638C13.7925 8.44544 13.7049 8.23352 13.5489 8.07711ZM5.33334 5.33305C5.33334 5.59675 5.25514 5.85454 5.10863 6.07381C4.96212 6.29307 4.75388 6.46397 4.51025 6.56488C4.26661 6.6658 3.99852 6.69221 3.73988 6.64076C3.48124 6.58931 3.24366 6.46232 3.05719 6.27585C2.87072 6.08938 2.74374 5.85181 2.69229 5.59317C2.64084 5.33452 2.66725 5.06644 2.76816 4.8228C2.86908 4.57917 3.03998 4.37093 3.25924 4.22442C3.47851 4.07791 3.73629 3.99971 4 3.99971C4.35351 4.0001 4.69242 4.1407 4.94239 4.39066C5.19235 4.64063 5.33295 4.97954 5.33334 5.33305ZM15.5489 9.25565L9.56907 15.2354C9.50655 15.298 9.42175 15.3331 9.33334 15.3331C9.24492 15.3331 9.16013 15.298 9.09761 15.2354C9.03509 15.1729 8.99996 15.0881 8.99996 14.9997C8.99996 14.9113 9.03509 14.8265 9.09761 14.764L15.0774 8.78419C15.1086 8.75294 15.1262 8.71056 15.1262 8.66638C15.1262 8.6222 15.1086 8.57982 15.0774 8.54857L8.43094 1.90211C8.36842 1.83959 8.3333 1.75479 8.3333 1.66638C8.3333 1.57796 8.36842 1.49317 8.43094 1.43065C8.49346 1.36813 8.57825 1.33301 8.66667 1.33301C8.75508 1.33301 8.83988 1.36813 8.9024 1.43065L15.5489 8.07711C15.7049 8.23352 15.7925 8.44544 15.7925 8.66638C15.7925 8.88732 15.7049 9.09923 15.5489 9.25565Z" fill="#467CF3"/>
</g>
<defs>
<clipPath id="clip0_2859_65691">
<rect width="16" height="16" fill="white"/>
</clipPath>
</defs>
</svg>
