<svg width="35" height="35" viewBox="0 0 35 35" fill="none" xmlns="http://www.w3.org/2000/svg">
<rect width="35" height="35" rx="4" fill="#F0F3F8"/>
<path d="M26.0023 18.525L19.3587 25.1687C19.2892 25.2381 19.195 25.2772 19.0968 25.2772C18.9985 25.2772 18.9043 25.2381 18.8349 25.1687C18.7654 25.0992 18.7264 25.005 18.7264 24.9068C18.7264 24.8085 18.7654 24.7143 18.8349 24.6449L25.4785 18.0012C25.5132 17.9665 25.5327 17.9194 25.5327 17.8703C25.5327 17.8213 25.5132 17.7742 25.4785 17.7394L18.0942 10.3551C18.0247 10.2857 17.9857 10.1915 17.9857 10.0932C17.9857 9.99499 18.0247 9.90078 18.0942 9.83132C18.1637 9.76186 18.2579 9.72284 18.3561 9.72284C18.4543 9.72284 18.5485 9.76186 18.618 9.83132L26.0023 17.2157C26.1757 17.3894 26.273 17.6249 26.273 17.8703C26.273 18.1158 26.1757 18.3512 26.0023 18.525Z" fill="#557CEC"/>
<path d="M23.7799 17.2156L16.5583 9.994C16.4726 9.90776 16.3705 9.83939 16.2581 9.79285C16.1458 9.7463 16.0253 9.72251 15.9036 9.72284H9.65278C9.40731 9.72312 9.17198 9.82075 8.99841 9.99432C8.82484 10.1679 8.72721 10.4032 8.72693 10.6487V16.8996C8.7266 17.0212 8.75039 17.1417 8.79694 17.2541C8.84348 17.3664 8.91185 17.4685 8.99809 17.5542L16.2197 24.7759C16.3057 24.8618 16.4077 24.93 16.5201 24.9766C16.6324 25.0231 16.7528 25.047 16.8744 25.047C16.996 25.047 17.1164 25.0231 17.2287 24.9766C17.341 24.93 17.4431 24.8618 17.5291 24.7759L23.7799 18.525C23.9533 18.3512 24.0507 18.1158 24.0507 17.8703C24.0507 17.6248 23.9533 17.3894 23.7799 17.2156ZM14.6524 14.1669C14.6524 14.4599 14.5655 14.7463 14.4027 14.9899C14.2399 15.2335 14.0086 15.4234 13.7379 15.5355C13.4672 15.6476 13.1694 15.677 12.882 15.6198C12.5946 15.5626 12.3307 15.4216 12.1235 15.2144C11.9164 15.0072 11.7753 14.7433 11.7181 14.4559C11.6609 14.1686 11.6903 13.8707 11.8024 13.6C11.9145 13.3293 12.1044 13.098 12.348 12.9352C12.5916 12.7724 12.878 12.6856 13.171 12.6856C13.5637 12.686 13.9403 12.8422 14.218 13.1199C14.4957 13.3976 14.6519 13.7742 14.6524 14.1669Z" fill="#7DA6FF"/>
</svg>
