<svg width="18" height="16" viewBox="0 0 18 16" fill="none" xmlns="http://www.w3.org/2000/svg">
<g id="Group 427319228">
<path id="Vector" d="M17.501 9.02875L10.8573 15.6724C10.7879 15.7419 10.6937 15.7809 10.5954 15.7809C10.4972 15.7809 10.403 15.7419 10.3335 15.6724C10.2641 15.6029 10.2251 15.5087 10.2251 15.4105C10.2251 15.3123 10.2641 15.2181 10.3335 15.1486L16.9772 8.50496C17.0119 8.47023 17.0314 8.42315 17.0314 8.37406C17.0314 8.32498 17.0119 8.27789 16.9772 8.24317L9.59286 0.858843C9.5234 0.789383 9.48437 0.695175 9.48438 0.596944C9.48438 0.498712 9.5234 0.404505 9.59286 0.335045C9.66232 0.265585 9.75653 0.226563 9.85476 0.226563C9.95299 0.226562 10.0472 0.265585 10.1167 0.335045L17.501 7.71937C17.6743 7.89315 17.7717 8.1286 17.7717 8.37406C17.7717 8.61953 17.6743 8.85497 17.501 9.02875Z" fill="#557CEC"/>
<path id="Vector_2" d="M15.2796 7.71933L8.05796 0.497724C7.97219 0.411484 7.87016 0.343114 7.75778 0.296569C7.6454 0.250025 7.52491 0.226232 7.40327 0.226566H1.15241C0.906948 0.226842 0.671615 0.324475 0.498045 0.498045C0.324475 0.671615 0.226842 0.906948 0.226566 1.15241V7.40327C0.226232 7.52491 0.250025 7.6454 0.296569 7.75778C0.343114 7.87016 0.411484 7.97219 0.497724 8.05796L7.71934 15.2796C7.80531 15.3656 7.90738 15.4338 8.01971 15.4803C8.13204 15.5268 8.25244 15.5508 8.37402 15.5508C8.49561 15.5508 8.61601 15.5268 8.72834 15.4803C8.84067 15.4338 8.94274 15.3656 9.02872 15.2796L15.2796 9.02872C15.4529 8.85493 15.5503 8.61949 15.5503 8.37403C15.5503 8.12856 15.4529 7.89312 15.2796 7.71933ZM6.15199 4.67063C6.15199 4.96362 6.06511 5.25002 5.90234 5.49363C5.73956 5.73724 5.50821 5.92711 5.23752 6.03923C4.96684 6.15135 4.66899 6.18069 4.38164 6.12353C4.09428 6.06637 3.83033 5.92528 3.62316 5.71811C3.41599 5.51094 3.2749 5.24699 3.21774 4.95963C3.16058 4.67228 3.18992 4.37443 3.30204 4.10374C3.41416 3.83306 3.60403 3.60171 3.84764 3.43893C4.09124 3.27616 4.37765 3.18928 4.67063 3.18928C5.06338 3.18971 5.43992 3.34592 5.71764 3.62363C5.99535 3.90135 6.15156 4.27789 6.15199 4.67063Z" fill="#7DA6FF"/>
</g>
</svg>
