<svg width="16" height="16" viewBox="0 0 16 16" fill="none" xmlns="http://www.w3.org/2000/svg">
<g clip-path="url(#clip0_2859_65703)">
<path d="M13.6963 4.07627L4.95241 3.98626C4.84827 3.98491 4.7449 4.00423 4.64828 4.04309C4.55166 4.08196 4.46371 4.1396 4.38951 4.21268L0.566303 7.95798C0.416334 8.10523 0.330896 8.30594 0.328733 8.5161C0.326569 8.72626 0.407858 8.9287 0.554763 9.07899L4.30006 12.9022C4.37274 12.9768 4.45949 13.0362 4.55529 13.0771C4.65109 13.1179 4.75404 13.1394 4.85818 13.1402L13.6021 13.2302C13.7062 13.2312 13.8095 13.2118 13.906 13.173C14.0026 13.1341 14.0906 13.0766 14.165 13.0038C14.2394 12.9309 14.2986 12.8441 14.3395 12.7484C14.3803 12.6526 14.4019 12.5497 14.4029 12.4456L14.4808 4.87713C14.4827 4.66697 14.4012 4.46463 14.2541 4.3145C14.1071 4.16436 13.9065 4.07869 13.6963 4.07627ZM6.28692 7.68053C6.46247 7.85973 6.58093 8.08696 6.62734 8.33348C6.67374 8.58001 6.646 8.83476 6.54762 9.06552C6.44924 9.29628 6.28465 9.49268 6.07465 9.6299C5.86464 9.76711 5.61867 9.83897 5.36783 9.83639C5.11698 9.83381 4.87254 9.7569 4.66541 9.61539C4.45828 9.47388 4.29776 9.27413 4.20415 9.0414C4.11054 8.80866 4.08805 8.55339 4.13952 8.30787C4.19099 8.06236 4.31411 7.83761 4.4933 7.66207C4.73378 7.42701 5.05768 7.29694 5.39393 7.3004C5.73019 7.30386 6.05134 7.44057 6.28692 7.68053ZM15.8399 3.54576L15.7571 11.5899C15.7562 11.674 15.722 11.7543 15.6619 11.8131C15.6018 11.872 15.5208 11.9046 15.4367 11.9037C15.3526 11.9028 15.2723 11.8686 15.2134 11.8085C15.1546 11.7484 15.122 11.6674 15.1229 11.5833L15.2057 3.53923C15.2061 3.4972 15.1898 3.45673 15.1604 3.4267C15.131 3.39668 15.0909 3.37956 15.0488 3.37912L6.10792 3.28708C6.02382 3.28622 5.94351 3.25198 5.88465 3.19189C5.82579 3.13181 5.79321 3.05081 5.79408 2.96671C5.79495 2.88261 5.82919 2.8023 5.88927 2.74344C5.94935 2.68458 6.03035 2.652 6.11445 2.65287L15.0554 2.7449C15.2655 2.74732 15.4661 2.833 15.6132 2.98313C15.7603 3.13326 15.8418 3.3356 15.8399 3.54576Z" fill="#467CF3"/>
</g>
<defs>
<clipPath id="clip0_2859_65703">
<rect width="16" height="16" fill="white"/>
</clipPath>
</defs>
</svg>
