<svg width="20" height="20" viewBox="0 0 20 20" fill="none" xmlns="http://www.w3.org/2000/svg">
<path d="M18.501 11.0248L11.8573 17.6685C11.7879 17.738 11.6937 17.777 11.5954 17.777C11.4972 17.777 11.403 17.738 11.3335 17.6685C11.2641 17.599 11.2251 17.5048 11.2251 17.4066C11.2251 17.3084 11.2641 17.2142 11.3335 17.1447L17.9772 10.501C18.0119 10.4663 18.0314 10.4192 18.0314 10.3702C18.0314 10.3211 18.0119 10.274 17.9772 10.2393L10.5929 2.85494C10.5234 2.78548 10.4844 2.69127 10.4844 2.59304C10.4844 2.49481 10.5234 2.4006 10.5929 2.33114C10.6623 2.26168 10.7565 2.22266 10.8548 2.22266C10.953 2.22266 11.0472 2.26168 11.1167 2.33114L18.501 9.71547C18.6743 9.88925 18.7717 10.1247 18.7717 10.3702C18.7717 10.6156 18.6743 10.8511 18.501 11.0248Z" fill="#557CEC"/>
<path d="M16.2796 9.71543L9.05796 2.49382C8.97219 2.40758 8.87016 2.33921 8.75778 2.29266C8.6454 2.24612 8.52491 2.22233 8.40327 2.22266H2.15241C1.90695 2.22294 1.67162 2.32057 1.49804 2.49414C1.32447 2.66771 1.22684 2.90304 1.22657 3.14851V9.39937C1.22623 9.521 1.25003 9.64149 1.29657 9.75387C1.34311 9.86625 1.41148 9.96828 1.49772 10.0541L8.71934 17.2757C8.80531 17.3616 8.90738 17.4298 9.01971 17.4764C9.13204 17.5229 9.25244 17.5469 9.37402 17.5469C9.49561 17.5469 9.61601 17.5229 9.72834 17.4764C9.84067 17.4298 9.94274 17.3616 10.0287 17.2757L16.2796 11.0248C16.4529 10.851 16.5503 10.6156 16.5503 10.3701C16.5503 10.1247 16.4529 9.88921 16.2796 9.71543ZM7.15199 6.66673C7.15199 6.95971 7.06511 7.24612 6.90234 7.48973C6.73956 7.73333 6.50821 7.9232 6.23752 8.03532C5.96684 8.14744 5.66899 8.17678 5.38164 8.11962C5.09428 8.06246 4.83033 7.92138 4.62316 7.71421C4.41599 7.50703 4.2749 7.24308 4.21774 6.95573C4.16058 6.66837 4.18992 6.37052 4.30204 6.09984C4.41416 5.82916 4.60403 5.5978 4.84764 5.43503C5.09124 5.27225 5.37765 5.18537 5.67063 5.18537C6.06338 5.1858 6.43992 5.34201 6.71764 5.61972C6.99535 5.89744 7.15156 6.27398 7.15199 6.66673Z" fill="#7DA6FF"/>
</svg>
