<svg width="40" height="40" viewBox="0 0 40 40" fill="none" xmlns="http://www.w3.org/2000/svg">
<rect width="40" height="40" rx="1" fill="#567ABF"/>
<path fill-rule="evenodd" clip-rule="evenodd" d="M22.5793 10V15.4207H28V29.7574H11.8037V10H22.5793ZM15.2856 16.766C15.1801 16.766 15.0878 16.8584 15.0878 16.9639V17.7552C15.0878 17.8607 15.1801 17.9531 15.2856 17.9531H21.1153C21.2208 17.9531 21.3131 17.8607 21.3131 17.7552V16.9639C21.3131 16.8584 21.2208 16.766 21.1153 16.766H15.2856ZM24.3202 24.64C24.4257 24.64 24.5181 24.5476 24.5181 24.4421V23.6508C24.5181 23.5453 24.4257 23.4529 24.3202 23.4529H15.2856C15.1801 23.4529 15.0878 23.5453 15.0878 23.6508V24.4421C15.0878 24.5476 15.1801 24.64 15.2856 24.64H24.3202ZM24.3202 21.2767C24.4257 21.2767 24.5181 21.1844 24.5181 21.0789V20.2875C24.5181 20.182 24.4257 20.0897 24.3202 20.0897H15.2856C15.1801 20.0897 15.0878 20.182 15.0878 20.2875V21.0789C15.0878 21.1844 15.1801 21.2767 15.2856 21.2767H24.3202ZM23.3955 10.3957L27.6688 14.6162H23.4087L23.3955 10.3957Z" fill="white"/>
</svg>
