<svg width="40" height="40" viewBox="0 0 40 40" fill="none" xmlns="http://www.w3.org/2000/svg">
<rect width="40" height="40" rx="20" fill="#FFE2D1"/>
<g clip-path="url(#clip0_3615_71877)">
<path fill-rule="evenodd" clip-rule="evenodd" d="M25.8741 23.7458L29.4442 27.3263C29.6471 27.5291 29.6549 27.8656 29.4522 28.0683L28.0721 29.4484C27.8694 29.6511 27.5329 29.6434 27.33 29.4406L23.7784 25.8665C20.4729 28.2131 15.8613 27.906 12.8986 24.9433C9.59239 21.6371 9.59286 16.2767 12.8991 12.9705C16.2055 9.66412 21.5671 9.66514 24.8734 12.9714C27.8041 15.9021 28.1386 20.4484 25.8741 23.7458ZM12.3159 18.9863C12.3159 22.6308 15.2704 25.5854 18.915 25.5854C22.5595 25.5854 25.514 22.6308 25.514 18.9863C25.514 15.3418 22.5595 12.3873 18.915 12.3873C15.2704 12.3872 12.3159 15.3417 12.3159 18.9863ZM22.28 18.187C22.1738 17.9986 22.1181 17.786 22.1184 17.5698C22.1184 16.8741 22.6824 16.31 23.3781 16.3101C24.0738 16.3101 24.6378 16.8741 24.6378 17.5698C24.6378 18.2656 24.0738 18.8296 23.3781 18.8296C23.1722 18.8299 22.9695 18.7794 22.7877 18.6828L21.4693 20.0323C21.5622 20.2112 21.6105 20.4098 21.6103 20.6113C21.6103 21.307 21.0463 21.871 20.3506 21.871C19.6548 21.871 19.0908 21.307 19.0908 20.6113C19.0905 20.3985 19.1444 20.1892 19.2473 20.003L17.9256 18.6711C17.7385 18.7753 17.5279 18.8299 17.3138 18.8296C17.1082 18.8298 16.9058 18.7796 16.7242 18.6832L15.3908 20.0374C15.4868 20.2152 15.5414 20.4187 15.5414 20.6349C15.5414 21.3307 14.9774 21.8947 14.2816 21.8947C13.5859 21.8947 13.0219 21.3307 13.0219 20.6349C13.0219 19.9392 13.5859 19.3752 14.2816 19.3752C14.4951 19.3749 14.7051 19.4291 14.8917 19.5327L16.216 18.1877C16.1096 17.9992 16.0538 17.7863 16.054 17.5698C16.054 16.8741 16.618 16.3101 17.3138 16.3101C18.0095 16.3101 18.5736 16.8741 18.5736 17.5698C18.5736 17.7854 18.5193 17.9882 18.4239 18.1656L19.7511 19.5031C19.9294 19.4064 20.1336 19.3515 20.3506 19.3515C20.571 19.3513 20.7875 19.4091 20.9784 19.5193L22.28 18.187Z" fill="#FC762B"/>
</g>
<defs>
<clipPath id="clip0_3615_71877">
<rect width="20" height="20" fill="white" transform="translate(10 10)"/>
</clipPath>
</defs>
</svg>
