<svg width="20" height="20" viewBox="0 0 20 20" fill="none" xmlns="http://www.w3.org/2000/svg">
<circle cx="10" cy="10" r="10" fill="#FDB205" fill-opacity="0.13"/>
<path fill-rule="evenodd" clip-rule="evenodd" d="M11.4694 15.2194C10.9243 15.391 10.3441 15.4836 9.74236 15.4836C6.57094 15.4836 4 12.9129 4 9.74179C4 6.57069 6.57094 4 9.74236 4C12.9138 4 15.4847 6.57069 15.4847 9.74179C15.4847 10.343 15.3923 10.9227 15.2209 11.4673C14.7957 11.1904 14.2881 11.0295 13.7429 11.0295C12.2453 11.0295 11.0312 12.2435 11.0312 13.741C11.0312 14.2864 11.1922 14.7941 11.4694 15.2194ZM9.5647 6.69892C9.89277 6.69892 10.1587 6.96488 10.1587 7.29295V9.49592H12.1914C12.5195 9.49592 12.7854 9.76188 12.7854 10.0899C12.7854 10.418 12.5195 10.684 12.1914 10.684H9.5647H8.97067V10.0899V7.29295C8.97067 6.96488 9.23663 6.69892 9.5647 6.69892Z" fill="#FDB205"/>
<path d="M16.0117 13.7405C16.0117 14.9884 15 16 13.752 16C12.5039 16 11.4922 14.9884 11.4922 13.7405C11.4922 12.4926 12.5039 11.481 13.752 11.481C15 11.481 16.0117 12.4926 16.0117 13.7405Z" fill="#FDB205"/>
<g clip-path="url(#clip0_1995_246658)">
<rect width="2.2826" height="2.28237" transform="translate(12.6797 12.6729)" fill="#FDB205"/>
<path d="M13.6856 14.1564C13.6915 14.1884 13.7084 14.2174 13.7335 14.2382C13.7585 14.2591 13.79 14.2705 13.8226 14.2705C13.8552 14.2705 13.8867 14.2591 13.9117 14.2382C13.9368 14.2174 13.9537 14.1884 13.9595 14.1564L14.0509 12.9011C14.0507 12.8406 14.0266 12.7826 13.9839 12.7398C13.9411 12.6971 13.8831 12.673 13.8226 12.6729C13.7909 12.6736 13.7597 12.6808 13.7308 12.694C13.702 12.7072 13.6761 12.7261 13.6548 12.7496C13.6334 12.773 13.6171 12.8006 13.6067 12.8306C13.5963 12.8605 13.5921 12.8923 13.5943 12.9239L13.6856 14.1564ZM13.8226 14.4987C13.7774 14.4987 13.7333 14.5121 13.6958 14.5372C13.6582 14.5623 13.629 14.5979 13.6117 14.6396C13.5944 14.6813 13.5899 14.7272 13.5987 14.7715C13.6075 14.8158 13.6293 14.8564 13.6612 14.8884C13.6931 14.9203 13.7338 14.942 13.7781 14.9508C13.8223 14.9596 13.8682 14.9551 13.9099 14.9378C13.9517 14.9206 13.9873 14.8913 14.0124 14.8538C14.0375 14.8162 14.0509 14.7721 14.0509 14.727C14.0527 14.6965 14.048 14.666 14.0372 14.6375C14.0264 14.609 14.0097 14.5831 13.9881 14.5615C13.9665 14.5399 13.9406 14.5232 13.9121 14.5124C13.8835 14.5015 13.853 14.4969 13.8226 14.4987Z" fill="white"/>
</g>
<defs>
<clipPath id="clip0_1995_246658">
<rect width="2.2826" height="2.28237" fill="white" transform="translate(12.6797 12.6729)"/>
</clipPath>
</defs>
</svg>
