<svg width="14" height="14" viewBox="0 0 14 14" fill="none" xmlns="http://www.w3.org/2000/svg">
<path d="M7 0C3.1338 0 0 3.1338 0 7C0 10.8662 3.1338 14 7 14C10.8662 14 14 10.8662 14 7C14 3.1338 10.8662 0 7 0ZM11.1753 7.35965C11.1753 7.52448 11.0404 7.65935 10.8756 7.65935H7.29971C7.29596 7.65935 7.29409 7.65748 7.29034 7.65748C7.28659 7.65748 7.28472 7.65935 7.28097 7.65935H6.55981C6.39497 7.65935 6.2601 7.52448 6.2601 7.35965V2.56436C6.2601 2.39952 6.39497 2.26465 6.55981 2.26465H7.28097C7.44581 2.26465 7.58068 2.39765 7.58068 2.56436V6.34065H10.8774C11.0423 6.34065 11.1771 6.47551 11.1771 6.64035V7.35965H11.1753Z" fill="#C0C4CC"/>
</svg>
