<svg width="14" height="15" viewBox="0 0 14 15" fill="none" xmlns="http://www.w3.org/2000/svg">
<path fill-rule="evenodd" clip-rule="evenodd" d="M7.00005 0.5C3.13979 0.5 0 3.64005 0 7.49983C0 11.3599 3.13979 14.5 7.00005 14.5C10.8598 14.5 14 11.3599 14 7.49983C14 3.64004 10.8597 0.5 7.00005 0.5ZM7.00005 13.4955C3.69367 13.4955 1.00436 10.8055 1.00436 7.49988C1.00436 4.19401 3.69367 1.50459 7.00005 1.50459C10.3053 1.50459 12.9957 4.19398 12.9957 7.49988C12.9957 10.8055 10.3053 13.4955 7.00005 13.4955ZM6.36406 11.3188C5.72813 11.3188 5.72813 10.6828 5.72813 10.6828L6.36406 7.5C6.36406 7.5 6.36406 6.86406 5.72813 6.86406C5.72813 6.86406 5.09219 6.86406 5.09219 6.22813H7C7 6.22813 7.63594 6.22813 7.63594 6.86406C7.63594 7.5 7 9.40938 7 10.0453C7 10.6813 7.63594 10.6812 7.63594 10.6812H8.27188C8.27188 10.6812 8.27188 11.3188 6.36406 11.3188ZM7.63594 4.95469C7.28438 4.95469 7 4.67031 7 4.31875C7 3.96719 7.28438 3.68281 7.63594 3.68281C7.9875 3.68281 8.27188 3.96719 8.27188 4.31875C8.27344 4.67031 7.9875 4.95469 7.63594 4.95469Z" fill="#C0C4CC"/>
</svg>
