<svg width="16" height="16" viewBox="0 0 16 16" fill="none" xmlns="http://www.w3.org/2000/svg">
<path fill-rule="evenodd" clip-rule="evenodd" d="M8.00005 11.5055C7.58571 11.5055 7.24996 11.8413 7.24996 12.2555C7.24996 12.6696 7.58573 13.0056 8.00005 13.0056C8.41409 13.0056 8.74976 12.6696 8.74976 12.2555C8.74976 11.8413 8.41407 11.5055 8.00005 11.5055ZM8.00005 1C4.13979 1 1 4.14005 1 7.99983C1 11.8599 4.13979 15 8.00005 15C11.8598 15 15 11.8599 15 7.99983C15 4.14004 11.8597 1 8.00005 1ZM8.00005 13.9955C4.69367 13.9955 2.00436 11.3055 2.00436 7.99988C2.00436 4.69401 4.69367 2.00459 8.00005 2.00459C11.3053 2.00459 13.9957 4.69398 13.9957 7.99988C13.9957 11.3055 11.3053 13.9955 8.00005 13.9955ZM7.99975 3.51855C6.6215 3.51855 5.49968 4.63014 5.49968 5.99599C5.49968 6.27193 5.72401 6.49604 5.99974 6.49604C6.2761 6.49604 6.49985 6.27194 6.49985 5.99599C6.49985 5.1675 7.15918 4.51845 8.00006 4.51845C8.82678 4.51845 9.49996 5.19651 9.49996 6.03006C9.49996 6.36348 9.08165 6.78148 8.67697 7.18655C8.12488 7.73798 7.49987 8.36294 7.49987 9.18109V10.0265C7.49987 10.3026 7.7241 10.5266 8.00005 10.5266C8.27577 10.5266 8.49993 10.302 8.49993 10.026V9.18054C8.49993 8.77703 8.94898 8.32802 9.38399 7.89401C9.9324 7.3456 10.5001 6.77846 10.5001 6.0299C10.5001 4.64501 9.37878 3.51855 7.99975 3.51855Z" fill="#909399"/>
</svg>
