<svg width="12" height="12" viewBox="0 0 12 12" fill="none" xmlns="http://www.w3.org/2000/svg">
<path fill-rule="evenodd" clip-rule="evenodd" d="M6.00474 8.10352C5.75614 8.10352 5.55469 8.30504 5.55469 8.55352C5.55469 8.80201 5.75615 9.00361 6.00474 9.00361C6.25316 9.00361 6.45457 8.80203 6.45457 8.55352C6.45457 8.30502 6.25316 8.10352 6.00474 8.10352ZM6.00472 1.80029C3.68856 1.80029 1.80469 3.68432 1.80469 6.00019C1.80469 8.31622 3.68856 10.2003 6.00472 10.2003C8.32055 10.2003 10.2047 8.31622 10.2047 6.00019C10.2047 3.68431 8.32053 1.80029 6.00472 1.80029ZM6.00561 9.59763C4.02179 9.59763 2.4082 7.98361 2.4082 6.00025C2.4082 4.01673 4.02179 2.40308 6.00561 2.40308C7.9888 2.40308 9.60303 4.01671 9.60303 6.00025C9.60303 7.98363 7.9888 9.59763 6.00561 9.59763ZM6.0059 3.31128C5.17895 3.31128 4.50586 3.97823 4.50586 4.79774C4.50586 4.96331 4.64046 5.09777 4.80589 5.09777C4.97171 5.09777 5.10596 4.96332 5.10596 4.79774C5.10596 4.30065 5.50155 3.91122 6.00609 3.91122C6.50212 3.91122 6.90602 4.31805 6.90602 4.81819C6.90602 5.01824 6.65504 5.26904 6.41223 5.51208C6.08098 5.84294 5.70597 6.21791 5.70597 6.7088V7.21603C5.70597 7.38173 5.84051 7.51609 6.00608 7.51609C6.17151 7.51609 6.30601 7.38135 6.30601 7.21574V6.70847C6.30601 6.46637 6.57544 6.19696 6.83644 5.93655C7.16549 5.60751 7.50613 5.26723 7.50613 4.81809C7.50611 3.98715 6.83332 3.31128 6.0059 3.31128Z" fill="#666666"/>
</svg>
