<svg width="16" height="16" viewBox="0 0 16 16" fill="none" xmlns="http://www.w3.org/2000/svg">
<path fill-rule="evenodd" clip-rule="evenodd" d="M9.08414 8.00058L14.784 2.29806C15.072 2.00694 15.072 1.53836 14.784 1.24723L14.7524 1.21571C14.4619 0.928098 13.9938 0.928098 13.7033 1.21571L8.00237 6.92639L2.3037 1.21687C2.01321 0.929261 1.54511 0.929261 1.25461 1.21687L1.22191 1.24607C1.08003 1.3841 1 1.57359 1 1.77148C1 1.96937 1.08003 2.15886 1.22191 2.2969L6.92291 7.99942L1.22191 13.7031C0.933869 13.9942 0.933869 14.4628 1.22191 14.7539L1.25345 14.7843C1.54394 15.0719 2.01204 15.0719 2.30254 14.7843L8.00352 9.0806L13.7034 14.7843C13.9938 15.0719 14.4619 15.0719 14.7524 14.7843L14.784 14.7528C15.072 14.4616 15.072 13.9931 14.784 13.7019L9.08297 7.99942L9.08414 8.00058Z" fill="#909399"/>
</svg>
