<svg width="14" height="14" viewBox="0 0 14 14" fill="none" xmlns="http://www.w3.org/2000/svg">
<path d="M7.00001 5.65567L12.3773 0.278409C12.7485 -0.0928029 13.3504 -0.0928029 13.7216 0.278409C14.0928 0.649642 14.0928 1.2515 13.7216 1.62273L8.34431 6.99999L13.7216 12.3772C14.0928 12.7485 14.0928 13.3503 13.7216 13.7216C13.3504 14.0928 12.7485 14.0928 12.3773 13.7216L7.00001 8.34429L1.62275 13.7216C1.25152 14.0928 0.649665 14.0928 0.278431 13.7216C-0.0927806 13.3504 -0.0927806 12.7485 0.278431 12.3773L5.65571 6.99999L0.278409 1.62273C-0.0928029 1.2515 -0.0928029 0.649642 0.278409 0.278409C0.649642 -0.0928029 1.2515 -0.0928029 1.62273 0.278409L7.00001 5.65567Z" fill="#D0D0D0"/>
</svg>
