<svg width="44" height="44" viewBox="0 0 44 44" fill="none" xmlns="http://www.w3.org/2000/svg">
<rect x="0.5" y="0.5" width="43" height="43" rx="21.5" fill="#FDFEFF"/>
<path d="M18.5022 30.7959C18.5085 32.5659 20.0562 33.9999 22.0001 33.9999C23.9315 33.9999 25.498 32.5719 25.498 30.7959H18.5022Z" fill="#6897FF"/>
<circle cx="31" cy="13" r="3" fill="#467CF3"/>
<path fill-rule="evenodd" clip-rule="evenodd" d="M26.5408 13.6084C25.85 13.1225 25.0938 12.742 24.3026 12.49C24.3215 12.376 24.334 12.256 24.334 12.136C24.334 10.954 23.2834 10 22 10C20.7103 10 19.666 10.96 19.666 12.136C19.666 12.25 19.6785 12.37 19.6911 12.49C16.3002 13.516 13.8277 16.666 13.8277 20.404V23.368C13.8277 23.368 13.8277 27.604 12.6639 27.604C12.0222 27.604 11.5 28.078 11.5 28.672C11.5 29.26 12.0159 29.74 12.6639 29.74H31.3361C31.9778 29.74 32.5 29.266 32.5 28.672C32.5 28.084 31.9841 27.604 31.3047 27.604C30.166 27.568 30.166 23.338 30.166 23.338V20.398C30.166 19.283 29.9294 18.2191 29.5114 17.248C27.942 16.698 26.7698 15.3029 26.5408 13.6084Z" fill="#A3C0FF"/>
<rect x="0.5" y="0.5" width="43" height="43" rx="21.5" stroke="#CBDEFF"/>
</svg>
