<svg width="50" height="50" viewBox="0 0 50 50" fill="none" xmlns="http://www.w3.org/2000/svg">
<rect width="50" height="50" rx="4" fill="#ECF3FF"/>
<path d="M38.75 32.134V37.1877C38.7495 37.602 38.5848 37.9992 38.2918 38.2921C37.9989 38.585 37.6018 38.7498 37.1875 38.7502H18.3447L31.6346 25.4606C31.6932 25.402 31.7726 25.3691 31.8555 25.3691C31.9383 25.3691 32.0178 25.402 32.0764 25.4606L38.75 32.134ZM16.5771 38.7502H15.3125C14.8982 38.7498 14.5011 38.585 14.2082 38.2921C13.9152 37.9992 13.7505 37.602 13.75 37.1877V35.884L20.4041 29.2301C20.4627 29.1716 20.5422 29.1387 20.625 29.1387C20.7078 29.1387 20.7873 29.1716 20.8459 29.2301L23.4717 31.8557L16.5771 38.7502Z" fill="#467CF3"/>
<path d="M19.5201 28.3459C19.8134 28.0533 20.2107 27.889 20.625 27.889C21.0393 27.889 21.4366 28.0533 21.7299 28.3459L24.3555 30.9717L30.7506 24.5764C30.8957 24.4313 31.0679 24.3162 31.2575 24.2376C31.4471 24.1591 31.6503 24.1187 31.8555 24.1187C32.0607 24.1187 32.2639 24.1591 32.4534 24.2376C32.643 24.3162 32.8153 24.4313 32.9604 24.5764L38.75 30.3662V15.3125C38.7495 14.8982 38.5848 14.5011 38.2918 14.2082C37.9989 13.9152 37.6018 13.7505 37.1875 13.75H15.3125C14.8982 13.7505 14.5011 13.9152 14.2082 14.2082C13.9152 14.5011 13.7505 14.8982 13.75 15.3125V34.1162L19.5201 28.3459ZM20.625 17.5C22.348 17.5 23.75 18.902 23.75 20.625C23.75 22.348 22.348 23.75 20.625 23.75C18.902 23.75 17.5 22.348 17.5 20.625C17.5 18.902 18.902 17.5 20.625 17.5ZM11.875 30C11.7929 30 11.7117 29.9838 11.6358 29.9524C11.56 29.921 11.4911 29.875 11.4331 29.8169C11.375 29.7589 11.329 29.69 11.2976 29.6142C11.2662 29.5383 11.25 29.4571 11.25 29.375V12.8125C11.2505 12.3982 11.4152 12.0011 11.7082 11.7082C12.0011 11.4152 12.3982 11.2505 12.8125 11.25H29.375C29.5408 11.25 29.6997 11.3158 29.8169 11.4331C29.9342 11.5503 30 11.7092 30 11.875C30 12.0408 29.9342 12.1997 29.8169 12.3169C29.6997 12.4342 29.5408 12.5 29.375 12.5H12.8125C12.7296 12.5 12.6501 12.5329 12.5915 12.5915C12.5329 12.6501 12.5 12.7296 12.5 12.8125V29.375C12.5 29.4571 12.4838 29.5383 12.4524 29.6142C12.421 29.69 12.375 29.7589 12.3169 29.8169C12.2589 29.875 12.19 29.921 12.1142 29.9524C12.0383 29.9838 11.9571 30 11.875 30Z" fill="#467CF3"/>
<path d="M22.6 20.55C22.6 21.6822 21.6822 22.6 20.55 22.6C19.4178 22.6 18.5 21.6822 18.5 20.55C18.5 19.4178 19.4178 18.5 20.55 18.5C21.6822 18.5 22.6 19.4178 22.6 20.55Z" fill="#B5CBFA"/>
</svg>
