<svg width="20" height="20" viewBox="0 0 20 20" fill="none" xmlns="http://www.w3.org/2000/svg">
<path d="M18.625 16.5H18V7.75C18 6.375 16.875 5.25 15.5 5.25H11.75V15.875C11.75 16.225 11.475 16.5 11.125 16.5C10.775 16.5 10.5 16.225 10.5 15.875V4C10.5 2.625 9.375 1.5 8 1.5H4.25C2.875 1.5 1.75 2.625 1.75 4V16.5H1.125C0.775 16.5 0.5 16.775 0.5 17.125C0.5 17.475 0.775 17.75 1.125 17.75H18.625C18.975 17.75 19.25 17.475 19.25 17.125C19.25 16.775 18.975 16.5 18.625 16.5ZM7.375 14H4.875C4.525 14 4.25 13.725 4.25 13.375C4.25 13.025 4.525 12.75 4.875 12.75H7.375C7.725 12.75 8 13.025 8 13.375C8 13.725 7.725 14 7.375 14ZM7.375 10.25H4.875C4.525 10.25 4.25 9.975 4.25 9.625C4.25 9.275 4.525 9 4.875 9H7.375C7.725 9 8 9.275 8 9.625C8 9.975 7.725 10.25 7.375 10.25ZM7.375 6.5H4.875C4.525 6.5 4.25 6.225 4.25 5.875C4.25 5.525 4.525 5.25 4.875 5.25H7.375C7.725 5.25 8 5.525 8 5.875C8 6.225 7.725 6.5 7.375 6.5ZM16.125 14H13.625C13.275 14 13 13.725 13 13.375C13 13.025 13.275 12.75 13.625 12.75H16.125C16.475 12.75 16.75 13.025 16.75 13.375C16.75 13.725 16.475 14 16.125 14ZM16.125 10.25H13.625C13.275 10.25 13 9.975 13 9.625C13 9.275 13.275 9 13.625 9H16.125C16.475 9 16.75 9.275 16.75 9.625C16.75 9.975 16.475 10.25 16.125 10.25Z" fill="#467CF3"/>
</svg>
