<svg width="24" height="24" viewBox="0 0 24 24" fill="none" xmlns="http://www.w3.org/2000/svg">
<rect width="24" height="24" rx="2" fill="#467CF3"/>
<path fill-rule="evenodd" clip-rule="evenodd" d="M14 7.39971V7.82276C14 8.31875 13.5991 8.71991 13.0962 8.71991C12.6006 8.71991 12.1997 8.31875 12.1997 7.82276V7.39971C12.1997 7.06419 11.93 6.79431 11.5948 6.79431H6.39796C6.06268 6.79431 5.793 7.06419 5.793 7.39971V12.6003C5.793 12.9358 6.06268 13.2057 6.39796 13.2057H11.5948C11.93 13.2057 12.1997 12.9358 12.1997 12.6003V12.1772C12.1997 11.6813 12.6006 11.2801 13.0962 11.2801C13.5918 11.2801 13.9927 11.6813 13.9927 12.1772V12.6003C13.9927 13.9278 12.9213 15 11.5948 15H6.39796C5.07143 15 4 13.9278 4 12.6003V7.39971C4 6.07221 5.07143 5 6.39796 5H11.602C12.9286 5 14 6.07221 14 7.39971ZM10 16.6003V16.1772C10 15.6813 10.4012 15.2801 10.8972 15.2801C11.3931 15.2801 11.7943 15.6813 11.7943 16.1772V16.6003C11.7943 16.9358 12.0642 17.2057 12.3997 17.2057H17.6003C17.9358 17.2057 18.2057 16.9358 18.2057 16.6003V11.3997C18.2057 11.0642 17.9358 10.7943 17.6003 10.7943H12.3997C12.0642 10.7943 11.7943 11.0642 11.7943 11.3997V11.8228C11.7943 12.3187 11.3931 12.7199 10.8972 12.7199C10.4012 12.7199 10 12.3187 10 11.8228V11.3997C10 10.0722 11.0722 9 12.3997 9H17.6003C18.9278 9 20 10.0722 20 11.3997V16.6003C20 17.9278 18.9278 19 17.6003 19H12.3997C11.0722 19 10 17.9278 10 16.6003Z" fill="white"/>
</svg>
