<svg width="21" height="21" viewBox="0 0 21 21" fill="none" xmlns="http://www.w3.org/2000/svg">
<rect width="21" height="21" rx="10.5" fill="#467CF3"/>
<path fill-rule="evenodd" clip-rule="evenodd" d="M7.19888 6.65187C7.19888 7.48727 7.53076 8.28847 8.1215 8.87919C8.71224 9.46991 9.51345 9.80178 10.3489 9.80178C11.1843 9.80178 11.9855 9.46991 12.5763 8.87919C13.167 8.28847 13.4989 7.48727 13.4989 6.65187C13.4989 5.81646 13.167 5.01526 12.5763 4.42454C11.9855 3.83382 11.1843 3.50195 10.3489 3.50195C9.51345 3.50195 8.71224 3.83382 8.1215 4.42454C7.53076 5.01526 7.19888 5.81646 7.19888 6.65187ZM11.3487 9.88088H10.3489H9.34904C6.57791 10.3233 4.40881 12.5729 4.08946 15.3831C4.04457 15.7782 4.37124 16.102 4.76888 16.102H12.8756C12.6761 15.6768 12.5646 15.2022 12.5646 14.7016C12.5646 13.2702 13.4758 12.0517 14.7499 11.5946C13.8399 10.706 12.6619 10.0905 11.3487 9.88088Z" fill="white"/>
<path fill-rule="evenodd" clip-rule="evenodd" d="M15.4583 16.9141C16.908 16.9141 18.0833 15.7388 18.0833 14.2891C18.0833 12.8393 16.908 11.6641 15.4583 11.6641C14.0085 11.6641 12.8333 12.8393 12.8333 14.2891C12.8333 15.7388 14.0085 16.9141 15.4583 16.9141ZM17.2554 15.438V14.955H15.7434V14.7156H16.9488V12.792H16.3608L16.533 12.3636L15.9702 12.3216L15.8106 12.792H15.1596L15.0294 12.3174L14.454 12.3594L14.6052 12.792H14.0214V14.7156H15.231V14.955H13.7064V15.438H15.231V16.0512H15.7434V15.438H17.2554ZM14.5296 13.254H15.231V13.5396H14.5296V13.254ZM16.4364 13.254V13.5396H15.7434V13.254H16.4364ZM15.231 14.2578H14.5296V13.9932H15.231V14.2578ZM16.4364 14.2578H15.7434V13.9932H16.4364V14.2578Z" fill="white"/>
</svg>
