<svg width="20" height="20" viewBox="0 0 20 20" fill="none" xmlns="http://www.w3.org/2000/svg">
<g clip-path="url(#clip0_3520_66945)">
<path d="M10.7812 0.78125V4.29688C10.7812 4.50408 10.6989 4.70279 10.5524 4.8493C10.4059 4.99581 10.2072 5.07812 10 5.07812C9.7928 5.07812 9.59409 4.99581 9.44757 4.8493C9.30106 4.70279 9.21875 4.50408 9.21875 4.29688V0.78125C9.21875 0.57405 9.30106 0.375336 9.44757 0.228823C9.59409 0.08231 9.7928 0 10 0C10.2072 0 10.4059 0.08231 10.5524 0.228823C10.6989 0.375336 10.7812 0.57405 10.7812 0.78125Z" fill="#467CF3"/>
<path d="M10 15.4688C9.18152 15.4688 8.51562 16.1346 8.51562 16.9531C8.51562 17.7716 9.18152 18.4375 10 18.4375C10.8185 18.4375 11.4844 17.7716 11.4844 16.9531C11.4844 16.1346 10.8185 15.4688 10 15.4688ZM10 13.9062C11.6827 13.9062 13.0469 15.2704 13.0469 16.9531C13.0469 18.6359 11.6827 20 10 20C8.31727 20 6.95312 18.6359 6.95312 16.9531C6.95312 15.2704 8.31727 13.9062 10 13.9062Z" fill="#467CF3"/>
<path d="M17.0312 16.6016H2.96875V9.10156C2.96875 5.22453 6.12297 2.07031 10 2.07031C13.877 2.07031 17.0312 5.22453 17.0312 9.10156V16.6016Z" fill="#B5CBFA"/>
<path d="M10 2.85156C6.55375 2.85156 3.75 5.65531 3.75 9.10156V15.8203H16.25V9.10156C16.25 5.65531 13.4462 2.85156 10 2.85156ZM10 1.28906C14.3147 1.28906 17.8125 4.78684 17.8125 9.10156V17.3828H2.1875V9.10156C2.1875 4.78684 5.68527 1.28906 10 1.28906Z" fill="#467CF3"/>
<path d="M18.9062 17.3828H1.09375C0.88655 17.3828 0.687836 17.3005 0.541323 17.154C0.39481 17.0075 0.3125 16.8088 0.3125 16.6016C0.3125 16.3944 0.39481 16.1956 0.541323 16.0491C0.687836 15.9026 0.88655 15.8203 1.09375 15.8203H18.9062C19.1135 15.8203 19.3122 15.9026 19.4587 16.0491C19.6052 16.1956 19.6875 16.3944 19.6875 16.6016C19.6875 16.8088 19.6052 17.0075 19.4587 17.154C19.3122 17.3005 19.1135 17.3828 18.9062 17.3828Z" fill="#467CF3"/>
<path d="M14.9219 8.71094V12.2266C14.9219 12.4338 14.8396 12.6325 14.6931 12.779C14.5465 12.9255 14.3478 13.0078 14.1406 13.0078C13.9334 13.0078 13.7347 12.9255 13.5882 12.779C13.4417 12.6325 13.3594 12.4338 13.3594 12.2266V8.71094C13.3594 8.50374 13.4417 8.30502 13.5882 8.15851C13.7347 8.012 13.9334 7.92969 14.1406 7.92969C14.3478 7.92969 14.5465 8.012 14.6931 8.15851C14.8396 8.30502 14.9219 8.50374 14.9219 8.71094Z" fill="#467CF3"/>
</g>
<defs>
<clipPath id="clip0_3520_66945">
<rect width="20" height="20" fill="white"/>
</clipPath>
</defs>
</svg>
