<svg width="20" height="21" viewBox="0 0 20 21" fill="none" xmlns="http://www.w3.org/2000/svg">
<g clip-path="url(#clip0_2852_64743)">
<path fill-rule="evenodd" clip-rule="evenodd" d="M18.6156 2.28558C18.8327 2.46613 18.9675 2.72208 18.9949 3.00318C19.0223 3.28428 18.9378 3.56081 18.7572 3.77792L11.8921 12.0577C11.8235 12.14 11.7344 12.1994 11.6315 12.2314L9.30047 12.9536C9.23419 12.9765 9.16563 12.9856 9.09707 12.9856C8.93938 12.9856 8.78398 12.933 8.65828 12.8279C8.47774 12.6794 8.38633 12.4531 8.41375 12.22L8.69028 9.8021C8.70399 9.69698 8.74513 9.59642 8.81369 9.51415L15.6675 1.23889C16.0445 0.786392 16.721 0.722402 17.1758 1.0972L18.6156 2.28558ZM16.7096 4.52751L15.3224 3.37798L10.7105 8.94738L12.0977 10.0969L16.7096 4.52751ZM9.76439 10.0901L9.57699 11.7241L11.1539 11.235L11.3984 10.9425L10.0112 9.79296L9.76439 10.0901ZM16.0217 2.5324L17.4112 3.68422L17.8865 3.10602L16.497 1.95878L16.0217 2.5324ZM17.3243 7.62645C17.3243 7.3225 17.5689 7.07796 17.8728 7.07796C18.1768 7.07796 18.4213 7.32478 18.4259 7.62645V18.0682C18.4259 18.9092 17.7563 19.5925 16.9335 19.5925H3.61451C2.79178 19.5925 2.12217 18.9092 2.12217 18.0682V16.2079L1.5554 16.2148H1.54855C1.24917 16.2148 1.00235 15.9726 1.00006 15.6709C0.995493 15.3692 1.23774 15.1201 1.54169 15.1178L2.55182 15.1064C2.59067 15.0995 2.62952 15.095 2.66837 15.095C2.70494 15.095 2.73922 15.0973 2.7735 15.1041L3.73791 15.095C4.03958 15.0904 4.2864 15.3349 4.29097 15.6366C4.29554 15.9383 4.05329 16.1874 3.74934 16.1897L3.21685 16.1942V18.0659C3.21685 18.3013 3.39511 18.4933 3.61222 18.4933H16.929C17.1461 18.4933 17.3243 18.3013 17.3243 18.0659V7.62645ZM1.5554 5.42337H1.54855C1.24688 5.42337 1.00235 5.18112 1.00006 4.88174C0.995493 4.58007 1.23774 4.33097 1.54169 4.32869L2.11989 4.32183V2.44556C2.11989 1.56798 2.78949 0.854953 3.61222 0.854953H12.3148C12.6188 0.854953 12.8633 1.09949 12.8633 1.40344C12.8633 1.70739 12.6188 1.95192 12.3148 1.95192H3.61222C3.3974 1.95192 3.21685 2.17817 3.21685 2.44556V4.3104L3.73791 4.30583C4.03958 4.30126 4.28868 4.54351 4.29097 4.84746C4.29554 5.14913 4.05329 5.39823 3.74934 5.40052L1.5554 5.42337ZM1.5554 9.01823H1.54855C1.24688 9.01823 1.00235 8.77826 1.00006 8.47431C0.995493 8.17265 1.23774 7.92354 1.54169 7.92126L3.73563 7.8984H3.74248C4.04187 7.8984 4.28868 8.14065 4.29097 8.44232C4.29554 8.74398 4.05329 8.99309 3.74934 8.99537L1.5554 9.01823ZM1.5554 12.6154H1.54855C1.24688 12.6154 1.00235 12.3731 1.00235 12.0737C0.997778 11.7721 1.24003 11.523 1.54398 11.5207L3.73791 11.4978C4.03958 11.4933 4.2864 11.7378 4.29097 12.0395C4.29554 12.3411 4.05329 12.5902 3.74934 12.5925L1.5554 12.6154Z" fill="#616266"/>
</g>
<defs>
<clipPath id="clip0_2852_64743">
<rect width="20" height="20" fill="white" transform="translate(0 0.0703125)"/>
</clipPath>
</defs>
</svg>
