<svg width="18" height="17" viewBox="0 0 18 17" fill="none" xmlns="http://www.w3.org/2000/svg">
<path id="Union" fill-rule="evenodd" clip-rule="evenodd" d="M6.36328 0.5C6.36328 0.223858 6.13942 0 5.86328 0C5.58714 0 5.36328 0.223858 5.36328 0.5V2.64844C5.36328 2.92458 5.58714 3.14844 5.86328 3.14844C6.13942 3.14844 6.36328 2.92458 6.36328 2.64844V0.5ZM11.1484 0.5C11.1484 0.223858 10.9246 0 10.6484 0C10.3723 0 10.1484 0.223858 10.1484 0.5V2.64844C10.1484 2.92458 10.3723 3.14844 10.6484 3.14844C10.9246 3.14844 11.1484 2.92458 11.1484 2.64844V0.5ZM7.17578 0.986719C6.8168 0.986719 6.52578 1.27773 6.52578 1.63672C6.52578 1.9957 6.8168 2.28672 7.17578 2.28672H9.20962C9.5686 2.28672 9.85962 1.9957 9.85962 1.63672C9.85962 1.27773 9.5686 0.986719 9.20962 0.986719L7.17578 0.986719ZM1.60117 1.03906C1.24219 1.03906 0.951172 1.33008 0.951172 1.68906V16.0432C0.951172 16.4022 1.24219 16.6932 1.60117 16.6932H14.6245C14.9835 16.6932 15.2745 16.4022 15.2745 16.0432V11.4386L13.9745 13.5747V15.3932H2.25117V2.33906H4.49555C4.85454 2.33906 5.14556 2.04805 5.14556 1.68906C5.14556 1.33008 4.85454 1.03906 4.49555 1.03906H1.60117ZM13.9745 8.43074L15.2745 6.29467V1.68906C15.2745 1.33008 14.9835 1.03906 14.6245 1.03906H11.967C11.608 1.03906 11.317 1.33008 11.317 1.68906C11.317 2.04805 11.608 2.33906 11.967 2.33906H13.9745V8.43074ZM16.519 8.23668L15.0302 7.37711L12.3709 11.9811L12.578 13.3416L13.8597 12.8407L16.519 8.23668ZM15.8113 6.02384L17.2997 6.88322L16.7157 7.89471L15.2273 7.03533L15.8113 6.02384ZM4.48242 4.70312C4.20628 4.70312 3.98242 4.92698 3.98242 5.20312C3.98242 5.47927 4.20628 5.70312 4.48242 5.70312H11.9434C12.2195 5.70312 12.4434 5.47927 12.4434 5.20312C12.4434 4.92698 12.2195 4.70312 11.9434 4.70312H4.48242ZM3.98242 8.60547C3.98242 8.32933 4.20628 8.10547 4.48242 8.10547H11.9434C12.2195 8.10547 12.4434 8.32933 12.4434 8.60547C12.4434 8.88161 12.2195 9.10547 11.9434 9.10547H4.48242C4.20628 9.10547 3.98242 8.88161 3.98242 8.60547ZM4.48242 11.6992C4.20628 11.6992 3.98242 11.9231 3.98242 12.1992C3.98242 12.4754 4.20628 12.6992 4.48242 12.6992H9.85938C10.1355 12.6992 10.3594 12.4754 10.3594 12.1992C10.3594 11.9231 10.1355 11.6992 9.85938 11.6992H4.48242Z" fill="black"/>
</svg>
