<svg width="21" height="21" viewBox="0 0 21 21" fill="none" xmlns="http://www.w3.org/2000/svg">
<rect width="21" height="21" rx="10.5" fill="#467CF3"/>
<path fill-rule="evenodd" clip-rule="evenodd" d="M15.4584 16.916C16.9081 16.916 18.0834 15.7408 18.0834 14.291C18.0834 12.8413 16.9081 11.666 15.4584 11.666C14.0086 11.666 12.8334 12.8413 12.8334 14.291C12.8334 15.7408 14.0086 16.916 15.4584 16.916ZM16.6217 15.1995H17.2175V14.7977H16.6217V14.472H17.0686V14.0701H16.6217V13.7445H17.1205V13.3426H16.9058L17.0409 12.861L16.646 12.8333L16.5282 13.3426H16.3481L16.2615 12.8368L15.8632 12.8645L15.9775 13.3426H15.7766V13.7445H16.2234V14.0701H15.8147V14.472H16.2234V14.7977H15.7107V15.1995H16.2234V15.8924H16.6217V15.1995ZM15.7073 13.5401H15.5618V12.9234H14.2698V13.2941H14.5538C14.5538 13.3264 14.5527 13.3622 14.5504 13.4015C14.5504 13.4408 14.5492 13.487 14.5469 13.5401H14.1624V13.9108H14.5261C14.5215 13.9477 14.5169 13.9835 14.5123 14.0182C14.5076 14.0528 14.5019 14.0863 14.4949 14.1186H14.2559V14.4963H14.391C14.3495 14.6117 14.2987 14.7226 14.2386 14.8288C14.1809 14.9328 14.1128 15.0402 14.0343 15.151L14.3217 15.4351C14.3448 15.4028 14.3668 15.3716 14.3876 15.3416C14.4107 15.3092 14.4314 15.2781 14.4499 15.248V15.8093H15.5999V14.6695H14.7617C14.7732 14.6418 14.7824 14.614 14.7894 14.5863L14.8171 14.4963H15.5618V13.9108H15.7073V13.5401ZM14.9383 13.405C14.9383 13.3634 14.9395 13.3264 14.9418 13.2941H15.2016V13.5401H14.9314C14.936 13.4916 14.9383 13.4465 14.9383 13.405ZM14.9106 13.9108H15.2016V14.1186H14.8898L14.9106 13.9108ZM15.2327 15.4386H14.8205V15.0332H15.2327V15.4386Z" fill="white"/>
<path fill-rule="evenodd" clip-rule="evenodd" d="M7.19888 6.65187C7.19888 7.48727 7.53076 8.28847 8.1215 8.87919C8.71224 9.46991 9.51345 9.80178 10.3489 9.80178C11.1843 9.80178 11.9855 9.46991 12.5763 8.87919C13.167 8.28847 13.4989 7.48727 13.4989 6.65187C13.4989 5.81646 13.167 5.01526 12.5763 4.42454C11.9855 3.83382 11.1843 3.50195 10.3489 3.50195C9.51345 3.50195 8.71224 3.83382 8.1215 4.42454C7.53076 5.01526 7.19888 5.81646 7.19888 6.65187ZM11.3487 9.88088H10.3489H9.34904C6.57791 10.3233 4.40881 12.5729 4.08946 15.3831C4.04457 15.7782 4.37124 16.102 4.76888 16.102H12.8756C12.6761 15.6768 12.5646 15.2022 12.5646 14.7016C12.5646 13.2702 13.4758 12.0517 14.7499 11.5946C13.8399 10.706 12.6619 10.0905 11.3487 9.88088Z" fill="white"/>
</svg>
