<svg width="20" height="21" viewBox="0 0 20 21" fill="none" xmlns="http://www.w3.org/2000/svg">
<path fill-rule="evenodd" clip-rule="evenodd" d="M17.5 1.32019H5.0998C3.6574 1.32019 2.5 2.58582 2.5 4.13269C2.5 4.23957 2.5186 4.34144 2.5288 4.44519H2.5V15.6952C2.5 17.4146 3.7852 18.8202 5.386 18.8202H17.5V5.69519H5.0998C4.3336 5.69519 3.7 5.00207 3.7 4.13269C3.7 3.26332 4.3336 2.57019 5.0998 2.57019H17.5V1.32019ZM9.4 6.94519H12.7V10.3083L11.4214 9.25957C11.2038 9.08083 10.8968 9.08083 10.6792 9.25957L9.4 10.3083V6.94519ZM5.0998 6.94519H8.2V11.5958C8.19986 11.8353 8.33112 12.0538 8.53796 12.1584C8.74479 12.263 8.99082 12.2353 9.1714 12.0871L11.05 10.5458L12.9286 12.0871C13.1092 12.2353 13.3552 12.263 13.562 12.1584C13.7689 12.0538 13.9001 11.8353 13.9 11.5958V6.94519H16.3V17.5702H5.386C4.4614 17.5702 3.7 16.7371 3.7 15.6952V6.49644C4.1038 6.77707 4.582 6.94519 5.0998 6.94519ZM5.4958 3.50769H16.3V4.75769H5.4958V3.50769Z" fill="#616266"/>
</svg>
