<svg width="16" height="17" viewBox="0 0 16 17" fill="none" xmlns="http://www.w3.org/2000/svg">
<path id="Union" fill-rule="evenodd" clip-rule="evenodd" d="M0.626953 2.77891C0.626953 1.31535 1.8134 0.128906 3.27695 0.128906H15.6223V16.5695H3.0543C1.77312 16.5695 0.723765 15.577 0.633282 14.3188H0.626953V2.77891ZM14.3223 1.42891V11.7148H3.0543C2.64736 11.7148 2.26381 11.815 1.92695 11.992V2.77891C1.92695 2.03332 2.53137 1.42891 3.27695 1.42891H3.39023V8.83359C3.39023 9.11715 3.55015 9.37646 3.80353 9.50377C4.05691 9.63107 4.36041 9.60458 4.58791 9.43533L6.66505 7.88997L8.59734 9.42138C8.82281 9.60007 9.13061 9.63404 9.38962 9.50883C9.64863 9.38361 9.81318 9.12128 9.81318 8.83359V1.42891H14.3223ZM8.31318 1.42891V7.28221L7.14533 6.35665C6.87911 6.14567 6.50434 6.13994 6.23181 6.3427L4.89023 7.34081V1.42891H8.31318ZM3.0543 15.2695C2.43168 15.2695 1.92695 14.7648 1.92695 14.1422C1.92695 13.5196 2.43168 13.0148 3.0543 13.0148H14.3223V15.2695H3.0543Z" fill="#1F2329"/>
</svg>
