<svg width="20" height="22" viewBox="0 0 20 22" fill="none" xmlns="http://www.w3.org/2000/svg">
<g id="&#231;&#148;&#168;&#230;&#136;&#183;">
<path id="&#229;&#189;&#162;&#231;&#138;&#182;" fill-rule="evenodd" clip-rule="evenodd" d="M16.5635 6.40812C16.5635 8.80254 15.2679 10.891 13.3565 11.9909C17.2219 13.4031 20 17.1673 20 21.5913C20 21.6753 19.9945 21.7576 19.989 21.84C19.9854 21.8932 19.9818 21.9463 19.9797 22H18.5842C18.5864 21.9523 18.5897 21.9048 18.5929 21.8573C18.5989 21.7692 18.6048 21.681 18.6048 21.5913C18.6048 16.7527 14.7447 12.8162 10 12.8162C5.25525 12.8162 1.3952 16.7526 1.3952 21.5913C1.3952 21.6796 1.40097 21.7664 1.40675 21.853C1.41001 21.902 1.41326 21.9509 1.41547 22H0.0203056C0.0182025 21.9465 0.0146432 21.8935 0.0110866 21.8405C0.00554003 21.7579 0 21.6754 0 21.5913C0 17.0311 2.94628 13.1626 6.99783 11.8583C5.2055 10.7289 4.00523 8.71154 4.00523 6.40812C4.00523 2.8746 6.82168 0 10.2842 0C13.7467 0 16.5635 2.87457 16.5635 6.40812ZM10.2842 1.42906C7.59114 1.42906 5.40046 3.66263 5.40046 6.40812H5.40048C5.40048 9.15362 7.59114 11.3872 10.2842 11.3872C12.9774 11.3872 15.168 9.15362 15.168 6.40812C15.168 3.66265 12.9774 1.42906 10.2842 1.42906Z" fill="#646A73"/>
</g>
</svg>
