<svg width="24" height="24" viewBox="0 0 24 24" fill="none" xmlns="http://www.w3.org/2000/svg">
<path fill-rule="evenodd" clip-rule="evenodd" d="M6 7.5C6 4.18628 8.68628 1.5 12 1.5C15.3137 1.5 18 4.18628 18 7.5C18 10.8137 15.3137 13.5 12 13.5C8.68628 13.5 6 10.8137 6 7.5ZM8 7.5C8 9.70914 9.79083 11.5 12 11.5C14.2092 11.5 16 9.70914 16 7.5C16 5.29086 14.2092 3.5 12 3.5C9.79083 3.5 8 5.29086 8 7.5ZM18 20.5V22.5H20V20.5C20 17.7386 17.7614 15.5 15 15.5H8.99994C6.23853 15.5 3.99994 17.7386 4 20.5V22.5H6V20.5C6 18.8431 7.34314 17.5 9 17.5H15C16.6569 17.5 18 18.8431 18 20.5Z" fill="#909399"/>
</svg>
