<svg width="19" height="16" viewBox="0 0 19 16" fill="none" xmlns="http://www.w3.org/2000/svg">
<g id="Group 427319228">
<path id="Vector" d="M18.0024 9.02485L11.3588 15.6685C11.2893 15.738 11.1951 15.777 11.0969 15.777C10.9987 15.777 10.9045 15.738 10.835 15.6685C10.7655 15.599 10.7265 15.5048 10.7265 15.4066C10.7265 15.3084 10.7655 15.2142 10.835 15.1447L17.4787 8.50105C17.5134 8.46633 17.5328 8.41925 17.5328 8.37016C17.5328 8.32107 17.5134 8.27399 17.4787 8.23927L10.0943 0.854937C10.0249 0.785477 9.98584 0.691269 9.98584 0.593037C9.98584 0.494806 10.0249 0.400598 10.0943 0.331138C10.1638 0.261678 10.258 0.222656 10.3562 0.222656C10.4545 0.222656 10.5487 0.261678 10.6181 0.331138L18.0024 7.71547C18.1758 7.88925 18.2732 8.12469 18.2732 8.37016C18.2732 8.61562 18.1758 8.85107 18.0024 9.02485Z" fill="#E27A00"/>
<path id="Vector_2" d="M15.7801 7.71543L8.55845 0.493817C8.47267 0.407578 8.37064 0.339207 8.25827 0.292663C8.14589 0.246119 8.0254 0.222325 7.90376 0.22266H1.6529C1.40744 0.222935 1.1721 0.320568 0.998533 0.494139C0.824963 0.667709 0.72733 0.903042 0.727054 1.14851V7.39937C0.72672 7.521 0.750514 7.64149 0.797058 7.75387C0.843602 7.86625 0.911972 7.96828 0.998212 8.05406L8.21982 15.2757C8.3058 15.3616 8.40786 15.4298 8.5202 15.4764C8.63253 15.5229 8.75292 15.5469 8.87451 15.5469C8.9961 15.5469 9.1165 15.5229 9.22883 15.4764C9.34116 15.4298 9.44323 15.3616 9.5292 15.2757L15.7801 9.02481C15.9534 8.85103 16.0508 8.61558 16.0508 8.37012C16.0508 8.12465 15.9534 7.88921 15.7801 7.71543ZM6.65248 4.66673C6.65248 4.95971 6.5656 5.24612 6.40283 5.48973C6.24005 5.73333 6.0087 5.9232 5.73801 6.03532C5.46733 6.14744 5.16948 6.17678 4.88212 6.11962C4.59477 6.06246 4.33082 5.92138 4.12365 5.71421C3.91647 5.50703 3.77539 5.24308 3.71823 4.95573C3.66107 4.66837 3.69041 4.37052 3.80253 4.09984C3.91465 3.82916 4.10452 3.5978 4.34812 3.43503C4.59173 3.27225 4.87814 3.18537 5.17112 3.18537C5.56387 3.1858 5.94041 3.34201 6.21813 3.61972C6.49584 3.89744 6.65205 4.27398 6.65248 4.66673Z" fill="#EBAE00"/>
</g>
</svg>
