<svg width="40" height="40" viewBox="0 0 40 40" fill="none" xmlns="http://www.w3.org/2000/svg">
<rect width="40" height="40" rx="20" fill="#F8EEC6"/>
<path fill-rule="evenodd" clip-rule="evenodd" d="M15.9704 19.0948C16.2601 19.7942 16.7242 20.4053 17.3159 20.8712C16.88 21.0936 16.4701 21.3704 16.0965 21.6976C15.0048 22.6541 14.2996 23.9759 14.113 25.4153C14.0974 25.6775 14.0974 25.9403 14.113 26.2025C14.1116 26.3076 14.1313 26.412 14.1709 26.5094C14.2105 26.6068 14.2692 26.6953 14.3435 26.7696C14.4179 26.844 14.5064 26.9027 14.6038 26.9423C14.7012 26.9818 14.8055 27.0015 14.9107 27.0001H25.2799C25.4915 27.0001 25.6943 26.9161 25.8439 26.7665C25.9935 26.6169 26.0775 26.414 26.0775 26.2025C26.0601 25.9374 26.0215 25.6742 25.9621 25.4153C25.7758 23.9777 25.072 22.6573 23.9825 21.7011C23.6086 21.3729 23.1981 21.0954 22.7615 20.8724C22.8994 20.7641 23.0314 20.6471 23.1567 20.5218C23.9828 19.6958 24.4481 18.5762 24.4508 17.408C24.4508 16.5362 24.1923 15.6839 23.7079 14.959C23.2236 14.2341 22.5352 13.6692 21.7297 13.3355C20.9243 13.0019 20.038 12.9146 19.1829 13.0847C18.3278 13.2548 17.5424 13.6746 16.9259 14.2911C16.3095 14.9075 15.8897 15.693 15.7196 16.548C15.5495 17.4031 15.6368 18.2894 15.9704 19.0948ZM11.244 24.7101C11.4003 24.8617 11.6122 24.9468 11.8331 24.9468V24.9894C12.0541 24.9894 12.266 24.9042 12.4222 24.7526C12.5785 24.6011 12.6663 24.3955 12.6663 24.1812C12.6663 23.5437 12.9273 22.9324 13.3919 22.4817C13.8565 22.031 14.4867 21.7778 15.1437 21.7778C15.3647 21.7778 15.5765 21.6926 15.7327 21.541C15.889 21.3895 15.9767 21.1839 15.9767 20.9696C15.9767 20.7553 15.889 20.5497 15.7327 20.3981C15.5765 20.2466 15.3647 20.1614 15.1437 20.1614C14.7701 20.2685 14.3679 20.2274 14.0257 20.0469C13.6834 19.8664 13.429 19.5614 13.3185 19.199C13.208 18.8365 13.2505 18.4464 13.4365 18.1143C13.6226 17.7823 13.937 17.5355 14.3106 17.4283C14.4877 17.3186 14.6148 17.1473 14.6658 16.9495C14.7168 16.7518 14.6877 16.5426 14.5847 16.3649C14.4698 16.1951 14.2932 16.0734 14.0901 16.0241C13.887 15.9749 13.6722 16.0016 13.4884 16.099C13.0396 16.3685 12.6684 16.744 12.4096 17.1903C12.1509 17.6366 12.0129 18.1392 12.0085 18.6513C12.0003 19.4406 12.3067 20.2026 12.8636 20.7782C12.2917 21.146 11.8223 21.6453 11.4972 22.2316C11.172 22.8178 11.0013 23.4729 11 24.1386C11 24.353 11.0878 24.5585 11.244 24.7101ZM27.5558 24.6995C27.7121 24.851 27.924 24.9362 28.1449 24.9362L28.1669 25C28.3878 25 28.5997 24.9148 28.756 24.7633C28.9122 24.6117 29 24.4061 29 24.1918C28.9987 23.5261 28.828 22.871 28.5028 22.2847C28.1777 21.6985 27.7083 21.1992 27.1364 20.8313C27.7004 20.2601 28.0078 19.4953 27.9915 18.7045C27.991 18.1758 27.8514 17.656 27.5859 17.1944C27.313 16.7602 26.9372 16.3956 26.4896 16.1309C26.3962 16.0746 26.2922 16.0368 26.1836 16.0197C26.075 16.0026 25.964 16.0065 25.857 16.0312C25.75 16.0559 25.6491 16.101 25.5601 16.1637C25.4712 16.2265 25.3959 16.3057 25.3386 16.3968C25.2355 16.5745 25.2065 16.7837 25.2575 16.9814C25.3084 17.1792 25.4355 17.3505 25.6127 17.4602C25.8904 17.6213 26.1056 17.8668 26.2247 18.1586C26.3439 18.4504 26.3604 18.7723 26.2716 19.0741C26.1829 19.376 25.9939 19.641 25.734 19.828C25.4741 20.015 25.1579 20.1135 24.8343 20.1082C24.7249 20.1082 24.6166 20.1291 24.5155 20.1697C24.4144 20.2103 24.3225 20.2698 24.2451 20.3449C24.1678 20.4199 24.1064 20.509 24.0645 20.6071C24.0226 20.7051 24.0011 20.8103 24.0011 20.9164C24.0011 21.0226 24.0226 21.1277 24.0645 21.2257C24.1064 21.3238 24.1678 21.4129 24.2451 21.4879C24.3225 21.563 24.4144 21.6225 24.5155 21.6631C24.6166 21.7037 24.7249 21.7246 24.8343 21.7246C25.4914 21.7246 26.1216 21.9778 26.5862 22.4285C27.0508 22.8793 27.3118 23.4906 27.3118 24.128C27.3118 24.3423 27.3996 24.5479 27.5558 24.6995Z" fill="#FDBB0F"/>
</svg>
