<svg width="14" height="15" viewBox="0 0 14 15" fill="none" xmlns="http://www.w3.org/2000/svg">
<path d="M6.82867 0.983398C8.79203 0.983398 10.3836 2.54894 10.3836 4.47989C10.3836 6.41122 8.79204 7.97685 6.82867 7.97685C4.86538 7.97685 3.27388 6.41124 3.27388 4.47989C3.27387 2.5485 4.86591 0.983398 6.82867 0.983398ZM6.82867 0.983398C8.79203 0.983398 10.3836 2.54894 10.3836 4.47989C10.3836 6.41122 8.79204 7.97685 6.82867 7.97685C4.86538 7.97685 3.27388 6.41124 3.27388 4.47989C3.27387 2.5485 4.86591 0.983398 6.82867 0.983398ZM5.49569 9.14268H8.45865C10.9948 9.14268 13.0505 11.1644 13.0505 13.6592V13.9502C13.0505 14.9333 10.9944 14.9707 8.45865 14.9707H5.49569C2.95944 14.9707 0.903809 14.9693 0.903809 13.9502V13.6592C0.903841 11.1644 2.95946 9.14268 5.49569 9.14268Z" fill="#467CF3"/>
</svg>
