<svg width="22" height="12" viewBox="0 0 22 12" fill="none" xmlns="http://www.w3.org/2000/svg">
<path id="Vector" d="M8.25002 1.07143V10.9286C8.25036 11.2126 8.37119 11.485 8.586 11.6858C8.80081 11.8867 9.09206 11.9997 9.39585 12H20.8542C21.158 11.9997 21.4492 11.8867 21.664 11.6858C21.8788 11.485 21.9997 11.2126 22 10.9286V1.07143C21.9997 0.787366 21.8788 0.515029 21.664 0.314167C21.4492 0.113304 21.158 0.000319032 20.8542 0H9.39585C9.09206 0.000319032 8.80081 0.113304 8.586 0.314167C8.37119 0.515029 8.25036 0.787366 8.25002 1.07143ZM0.578955 0.144643C0.754368 0.0498707 0.953745 0.000801527 1.15633 0.00254457C1.35891 0.00428762 1.55728 0.0567792 1.7308 0.154554L5.8558 2.44473C6.02638 2.53993 6.1677 2.67481 6.26599 2.83624C6.36428 2.99766 6.41619 3.18014 6.41668 3.36589V8.63411C6.41622 8.81987 6.36432 9.00235 6.26602 9.16378C6.16773 9.32521 6.0264 9.46009 5.8558 9.55527L1.7308 11.8454C1.55684 11.942 1.35864 11.9938 1.15635 11.9955C0.954052 11.9973 0.754871 11.9489 0.57905 11.8553C0.403231 11.7617 0.25704 11.6263 0.155338 11.4628C0.0536366 11.2992 4.95911e-05 11.1135 2.28882e-05 10.9243V1.07571C-0.00128174 0.886302 0.0517349 0.700025 0.153553 0.536275C0.255373 0.372525 0.402269 0.237288 0.578955 0.144643Z" fill="#467CF3"/>
</svg>
