<svg width="16" height="16" viewBox="0 0 16 16" fill="none" xmlns="http://www.w3.org/2000/svg">
<path d="M4.90111 9.70736C4.90111 9.66321 4.95076 9.58603 5.04937 9.47564C5.14867 9.36525 5.25498 9.23524 5.36828 9.08513C5.48157 8.93516 5.58718 8.77197 5.68648 8.59552C5.78579 8.41908 5.83475 8.23821 5.83475 8.05293C5.83475 7.86748 5.78579 7.68891 5.68648 7.51686C5.58718 7.34466 5.48157 7.18816 5.36828 7.04703C5.25498 6.90574 5.14867 6.78881 5.04937 6.6961C4.95076 6.6037 4.90111 6.54401 4.90111 6.51751V5.12783C4.90111 4.97786 4.95985 4.80797 5.07805 4.61826C5.19554 4.42857 5.34172 4.24998 5.51656 4.08219C5.6907 3.91474 5.88442 3.77541 6.09704 3.6655C6.30894 3.55496 6.50966 3.5 6.69849 3.5H13.7313C13.9859 3.5 14.2195 3.54186 14.4314 3.62559C14.644 3.70932 14.83 3.82641 14.9909 3.97621C15.151 4.12633 15.2762 4.30262 15.3657 4.50573C15.4552 4.70867 15.5 4.92928 15.5 5.16739V10.872C15.5 11.0485 15.4573 11.2316 15.3727 11.4213C15.2874 11.611 15.1678 11.7852 15.0118 11.9442C14.8559 12.1029 14.672 12.2353 14.46 12.3412C14.2474 12.447 14.0145 12.5 13.7593 12.5H6.72645C6.47188 12.5 6.23341 12.4581 6.0117 12.3742C5.78999 12.2905 5.59697 12.1757 5.43191 12.0302C5.26686 11.8845 5.13678 11.7103 5.04237 11.5074C4.94795 11.3044 4.90108 11.0882 4.90108 10.8588L4.90111 9.70736ZM0.499999 10.9515V4.90279C0.499999 4.70867 0.554547 4.53663 0.662945 4.38668C0.771342 4.23657 0.934306 4.16166 1.1511 4.16166C1.22663 4.16166 1.32314 4.18816 1.44134 4.24113C1.56306 4.29598 1.68101 4.35786 1.79452 4.42641C1.91271 4.49689 2.02391 4.56754 2.12741 4.63819C2.23092 4.70867 2.30645 4.76607 2.35402 4.81005C2.4764 4.9072 2.66313 5.07497 2.91281 5.31307C3.16319 5.55135 3.41495 5.8205 3.67022 6.12044C3.92479 6.42052 4.14859 6.72927 4.34231 7.04701C4.53533 7.36459 4.63185 7.65585 4.63185 7.9206C4.63185 8.1852 4.52835 8.4874 4.32063 8.82706C4.1129 9.16672 3.86324 9.49983 3.57089 9.8264C3.27855 10.153 2.97154 10.4552 2.65124 10.733C2.33022 11.011 2.06167 11.2207 1.84418 11.3616C1.75955 11.4146 1.64415 11.4786 1.498 11.5536C1.35184 11.6287 1.22174 11.6661 1.10845 11.6661C0.853877 11.6661 0.688825 11.5999 0.613291 11.4676C0.537757 11.3353 0.499999 11.1719 0.499999 10.978V10.9515Z" fill="#467CF3"/>
</svg>
