<svg width="20" height="20" viewBox="0 0 20 20" fill="none" xmlns="http://www.w3.org/2000/svg">
<path d="M13.1797 1.50616C13.0959 1.41942 12.9955 1.35044 12.8845 1.30333C12.7734 1.25621 12.6541 1.23193 12.5334 1.23193C12.4128 1.23193 12.2935 1.25621 12.1824 1.30333C12.0714 1.35044 11.971 1.41942 11.8872 1.50616C11.7305 1.67281 11.6433 1.89292 11.6433 2.12164C11.6433 2.35036 11.7305 2.57048 11.8872 2.73712C13.7897 4.64337 14.8582 7.22657 14.8582 9.91978C14.8582 12.613 13.7897 15.1962 11.8872 17.1024C11.7143 17.2755 11.6172 17.5102 11.6172 17.7549C11.6172 17.9995 11.7143 18.2342 11.8872 18.4073C12.0603 18.5801 12.2949 18.6773 12.5396 18.6773C12.7843 18.6773 13.0189 18.5801 13.192 18.4073C15.4192 16.1578 16.6675 13.1196 16.6652 9.95418C16.6629 6.78871 15.4101 3.75233 13.1797 1.50616Z" fill="black"/>
<path d="M9.12993 4.74388C8.96067 4.59249 8.74154 4.50879 8.51445 4.50879C8.28736 4.50879 8.06823 4.59249 7.89897 4.74388C7.745 4.91188 7.65958 5.13148 7.65958 5.35936C7.65958 5.58724 7.745 5.80685 7.89897 5.97484C8.98893 7.07049 9.60079 8.5531 9.60079 10.0986C9.60079 11.644 8.98893 13.1266 7.89897 14.2223C7.74758 14.3915 7.66388 14.6107 7.66388 14.8378C7.66388 15.0649 7.74758 15.284 7.89897 15.4532C8.06697 15.6072 8.28657 15.6926 8.51445 15.6926C8.74233 15.6926 8.96194 15.6072 9.12993 15.4532C10.5212 14.0179 11.2992 12.0975 11.2992 10.0986C11.2992 8.09964 10.5212 6.17919 9.12993 4.74388ZM3.7137 8.94146C3.57079 9.08334 3.45736 9.2521 3.37995 9.43801C3.30255 9.62393 3.2627 9.82332 3.2627 10.0247C3.2627 10.2261 3.30255 10.4255 3.37995 10.6114C3.45736 10.7973 3.57079 10.9661 3.7137 11.108C3.92835 11.3245 4.2025 11.4724 4.50134 11.5328C4.80019 11.5933 5.11026 11.5636 5.39221 11.4476C5.67415 11.3315 5.91526 11.1343 6.08493 10.881C6.25461 10.6276 6.34519 10.3296 6.34519 10.0247C6.34519 9.7198 6.25461 9.42178 6.08493 9.16845C5.91526 8.91512 5.67415 8.71791 5.39221 8.60184C5.11026 8.48578 4.80019 8.4561 4.50134 8.51656C4.2025 8.57703 3.92835 8.72492 3.7137 8.94146Z" fill="black"/>
</svg>
