<svg width="20" height="20" viewBox="0 0 20 20" fill="none" xmlns="http://www.w3.org/2000/svg">
<path d="M6.8203 1.50641C6.90411 1.41967 7.00451 1.35068 7.11554 1.30357C7.22657 1.25646 7.34595 1.23218 7.46656 1.23218C7.58717 1.23218 7.70655 1.25646 7.81757 1.30357C7.9286 1.35068 8.02901 1.41967 8.11281 1.50641C8.26947 1.67306 8.35669 1.89317 8.35669 2.12189C8.35669 2.35061 8.26947 2.57072 8.11281 2.73737C6.21028 4.64362 5.14176 7.22681 5.14176 9.92003C5.14176 12.6132 6.21028 15.1964 8.11281 17.1027C8.2857 17.2758 8.38281 17.5104 8.38281 17.7551C8.38281 17.9998 8.2857 18.2344 8.11281 18.4075C7.93971 18.5804 7.70506 18.6775 7.4604 18.6775C7.21575 18.6775 6.9811 18.5804 6.80799 18.4075C4.58082 16.1581 3.33248 13.1199 3.33479 9.95442C3.33709 6.78896 4.58985 3.75258 6.8203 1.50641Z" fill="black"/>
<path d="M10.8701 4.74388C11.0393 4.59249 11.2585 4.50879 11.4855 4.50879C11.7126 4.50879 11.9318 4.59249 12.101 4.74388C12.255 4.91188 12.3404 5.13148 12.3404 5.35936C12.3404 5.58724 12.255 5.80685 12.101 5.97484C11.0111 7.07049 10.3992 8.5531 10.3992 10.0986C10.3992 11.644 11.0111 13.1266 12.101 14.2223C12.2524 14.3915 12.3361 14.6107 12.3361 14.8378C12.3361 15.0649 12.2524 15.284 12.101 15.4532C11.933 15.6072 11.7134 15.6926 11.4855 15.6926C11.2577 15.6926 11.0381 15.6072 10.8701 15.4532C9.47882 14.0179 8.70082 12.0975 8.70082 10.0986C8.70082 8.09964 9.47882 6.17919 10.8701 4.74388ZM16.2863 8.94146C16.4292 9.08334 16.5426 9.2521 16.62 9.43801C16.6975 9.62393 16.7373 9.82332 16.7373 10.0247C16.7373 10.2261 16.6975 10.4255 16.62 10.6114C16.5426 10.7973 16.4292 10.9661 16.2863 11.108C16.0716 11.3245 15.7975 11.4724 15.4987 11.5328C15.1998 11.5933 14.8897 11.5636 14.6078 11.4476C14.3258 11.3315 14.0847 11.1343 13.9151 10.881C13.7454 10.6276 13.6548 10.3296 13.6548 10.0247C13.6548 9.7198 13.7454 9.42178 13.9151 9.16845C14.0847 8.91512 14.3258 8.71791 14.6078 8.60184C14.8897 8.48578 15.1998 8.4561 15.4987 8.51656C15.7975 8.57703 16.0716 8.72492 16.2863 8.94146Z" fill="black"/>
</svg>
