<svg width="19" height="19" viewBox="0 0 19 19" fill="none" xmlns="http://www.w3.org/2000/svg">
<g id="&#230;&#179;&#168;&#230;&#132;&#143; 1" clip-path="url(#clip0_9_393)">
<path id="Vector" d="M9.5 0C6.935 0 4.56 0.95 2.755 2.755C1.045 4.56 0 6.935 0 9.405C0 14.725 4.18 19 9.405 19C14.725 19 19 14.82 19 9.595C19 4.275 14.82 0 9.5 0ZM9.5 17.765C4.845 17.765 1.14 14.06 1.235 9.405C1.235 4.845 4.94 1.14 9.5 1.235C14.06 1.235 17.765 4.94 17.765 9.5C17.765 14.155 14.155 17.765 9.5 17.765ZM8.55 7.885V10.925C8.55 11.59 8.93 11.78 9.595 11.78C10.26 11.78 10.26 11.4 10.26 10.925C10.355 9.12 10.355 7.315 10.45 5.51C10.545 4.845 10.45 4.37 9.5 4.37C8.55 4.37 8.455 4.75 8.455 5.51L8.55 7.885ZM10.735 14.155C10.64 14.915 10.165 15.295 9.5 15.295C8.835 15.295 8.36 14.915 8.265 14.25C8.17 13.49 8.645 13.11 9.405 13.11C10.165 13.015 10.545 13.49 10.735 14.155Z" fill="#FE5E00"/>
</g>
<defs>
<clipPath id="clip0_9_393">
<rect width="19" height="19" fill="white"/>
</clipPath>
</defs>
</svg>
