<svg width="35" height="36" viewBox="0 0 35 36" fill="none" xmlns="http://www.w3.org/2000/svg">
<circle cx="17.5" cy="18" r="17.5" fill="#FF9B3B"/>
<path d="M9.88 13.06H12.554V11.52H13.87V13.06H16.614V14.32H13.87V16.098H17.23V17.372H9.376V16.098H12.554V14.32H9.88V13.06ZM9.782 19.36H12.554V17.89H13.87V19.36H16.684V20.62H13.87V22.902H17.384V24.162H9.278V22.902H12.554V20.62H9.782V19.36ZM6.366 22.258V23.35H5.078V12.556H8.984V23.014H7.71V22.258H6.366ZM7.71 21.012V13.816H6.366V21.012H7.71ZM20.772 14.488H22.718V13.606H20.436V15.314H19.162V12.514H24.272C24.076 12.192 23.88 11.898 23.656 11.618L25.084 11.394C25.28 11.73 25.476 12.108 25.672 12.514H30.838V15.314H29.564V13.606H27.268V14.488H29.242V15.566H27.268V16.336H29.102V17.372H27.268V18.156H31.006V19.248H28.08C28.822 19.878 29.9 20.382 31.328 20.774L30.768 21.95C29.83 21.6 29.032 21.208 28.374 20.76V21.754H25.644V22.776H30.53V23.98H19.47V22.776H24.356V21.754H21.598V20.732C20.954 21.18 20.198 21.572 19.344 21.922L18.658 20.802C20.058 20.382 21.122 19.864 21.85 19.248H19.022V18.156H22.718V17.372H20.912V16.336H22.718V15.566H20.772V14.488ZM25.966 13.606H24.02V14.488H25.966V13.606ZM21.724 20.634H24.356V19.668H25.644V20.634H28.206C27.59 20.2 27.1 19.738 26.736 19.248H23.18C22.788 19.752 22.298 20.214 21.724 20.634ZM24.02 18.156H25.966V17.372H24.02V18.156ZM25.966 16.336V15.566H24.02V16.336H25.966Z" fill="#F2F2F2"/>
</svg>
