<svg width="248" height="181" viewBox="0 0 248 181" fill="none" xmlns="http://www.w3.org/2000/svg">
<path d="M136.263 56.3143C138.004 55.6482 139.08 53.6571 138.692 51.8361C137.164 43.9778 135.63 36.1199 134.1 28.263C133.862 27.483 133.455 26.6578 132.667 26.3118C131.778 25.8658 130.607 26.0912 129.974 26.8663C128.695 28.3368 127.43 29.8191 126.152 31.2897C120.435 26.6035 113.214 23.7853 105.833 23.3563C100.213 23.0164 94.562 24.0707 89.3226 26.0854C82.7365 28.6118 76.771 32.5383 71.3813 37.0474C70.9165 37.2963 71.1317 38.0512 71.6411 38.0432C72.4078 37.8667 73.1341 37.5577 73.8886 37.3374C79.3195 35.6665 85.0912 34.7733 90.7602 35.5442C94.7491 36.0627 98.6104 37.4188 102.098 39.4121C105.889 41.5455 109.231 44.3585 112.505 47.1944C111.153 48.7969 109.737 50.344 108.42 51.972C107.536 53.2832 108.542 55.2543 110.114 55.3344C117.767 55.751 125.424 56.1278 133.079 56.5291C134.142 56.5673 135.255 56.7641 136.263 56.3143Z" fill="#D66626"/>
<path d="M131.324 36.0755C131.689 36.4421 131.895 36.9386 131.895 37.4562C131.895 37.9738 131.689 38.4703 131.324 38.8369L127.176 42.9829L131.324 47.1367C131.68 47.5055 131.877 47.9995 131.873 48.5123C131.868 49.0251 131.663 49.5156 131.3 49.8782C130.937 50.2408 130.446 50.4464 129.933 50.4509C129.42 50.4553 128.926 50.2582 128.557 49.902L124.41 45.756L120.258 49.902C120.078 50.0888 119.862 50.2378 119.623 50.3403C119.384 50.4427 119.128 50.4967 118.868 50.4989C118.608 50.5012 118.351 50.4517 118.11 50.3534C117.87 50.2551 117.651 50.1098 117.468 49.9262C117.284 49.7426 117.139 49.5243 117.04 49.2839C116.942 49.0436 116.892 48.7861 116.895 48.5264C116.897 48.2667 116.951 48.0101 117.053 47.7715C117.156 47.5329 117.305 47.3171 117.492 47.1367L121.643 42.9829L117.492 38.8369C117.135 38.4681 116.938 37.9741 116.943 37.4613C116.947 36.9485 117.153 36.458 117.516 36.0954C117.878 35.7328 118.369 35.5272 118.882 35.5227C119.395 35.5183 119.889 35.7154 120.258 36.0716L124.41 40.2176L128.557 36.0716C128.924 35.705 129.422 35.499 129.94 35.499C130.459 35.499 130.957 35.7089 131.324 36.0755Z" fill="white"/>
<path d="M193.31 115.713L209.022 134.645C210.527 136.458 211.156 138.842 210.742 141.161L208.895 151.504C206.395 152.004 204.395 152.504 202.395 152.504C204.395 143.504 193.9 140.782 193.9 140.782L190.146 114.66L191.722 115.037C192.287 115.167 192.825 115.396 193.31 115.713Z" fill="#467CF3"/>
<path d="M152.06 87.2459C151.336 85.5742 150.606 83.8515 150.536 82.0203C150.465 80.189 151.221 78.1919 152.809 77.3816C154.27 76.6159 156.07 76.9732 157.626 76.4245C159.548 75.7418 160.752 73.8149 161.604 71.9262C162.456 70.0376 161.271 69.374 162.712 67.8746C164.634 65.9604 165.864 65.6478 168.279 66.8346C170.015 65.6095 176.055 63.3891 177.797 63.3316C180.359 63.2551 183.319 63.4592 185.125 65.3032C186.522 66.7325 187.412 68.5573 189.129 69.5846C191.492 71.001 194.503 69.7951 197.257 69.8972C197.541 69.8726 197.825 69.9248 198.081 70.0484C198.337 70.1719 198.555 70.3622 198.711 70.5991C198.775 70.8324 198.788 71.0767 198.749 71.3155C198.711 71.5543 198.621 71.7821 198.487 71.9837L196.348 76.3862C196.929 76.6511 197.563 76.7807 198.203 76.7652C198.842 76.7497 199.469 76.5896 200.037 76.2969C199.904 79.2163 198.745 81.9962 196.764 84.1514C196.896 84.0854 197.041 84.0475 197.188 84.0403C197.336 84.0332 197.484 84.0567 197.622 84.1096C197.76 84.1624 197.885 84.2434 197.99 84.3472C198.095 84.4511 198.177 84.5756 198.231 84.7128C198.429 85.2811 198.429 85.8993 198.231 86.4675C197.748 88.2421 196.888 89.8929 195.71 91.3085C194.533 92.7241 193.063 93.8716 191.402 94.6735C189.741 95.4754 187.927 95.9131 186.082 95.957C184.236 96.0009 182.403 95.6501 180.705 94.9281L165.512 96.0702C165.305 96.6556 164.958 97.1822 164.502 97.6045C164.046 98.0269 163.493 98.3325 162.892 98.4948C161.194 97.2187 160.919 96.536 160.919 96.536C159.875 97.3081 160.695 96.9188 159.875 97.3081C157.991 98.2013 155.205 97.1422 154.75 95.0493C154.646 94.2007 154.297 93.4004 153.745 92.746C153.071 92.2201 152.316 91.8064 151.509 91.5209C150.295 90.9038 149.318 89.9061 148.729 88.6815C149.354 88.6867 149.973 88.5617 150.547 88.3144C151.121 88.0672 151.636 87.7032 152.06 87.2459Z" fill="#2F2F2F"/>
<path d="M162.81 80.7567L162.42 112.021C162.355 117.33 163.348 125.146 171.784 124.872C179.087 124.081 181.027 117.215 181.079 112.238C181.079 109.884 181.136 107.925 181.156 107.683C181.156 107.683 189.15 107.045 189.822 99.1646C190.149 95.3681 190.181 87.4818 190.123 80.3547C190.099 76.6594 188.676 73.1094 186.138 70.4137C183.6 67.7181 180.135 66.0752 176.435 65.8134L175.672 65.756C167.416 65.6156 162.701 72.513 162.81 80.7567Z" fill="#FFBE9D"/>
<path d="M181.154 107.662C177.504 107.388 174.01 106.077 171.085 103.885C171.085 103.885 173.173 109.812 181.109 109.678L181.154 107.662Z" fill="#EB996E"/>
<path d="M176.625 83.5611C176.471 83.7206 175.555 82.9869 174.236 82.9231C172.916 82.8593 171.923 83.5611 171.783 83.3633C171.642 83.1655 171.879 82.9996 172.314 82.7253C172.895 82.3391 173.583 82.1449 174.281 82.1702C174.98 82.1848 175.654 82.4268 176.202 82.8593C176.574 83.191 176.702 83.4909 176.625 83.5611Z" fill="#263238"/>
<path d="M176.863 86.486C176.846 86.7636 176.721 87.0236 176.514 87.2098C176.306 87.396 176.034 87.4936 175.755 87.4814C175.619 87.4831 175.484 87.4575 175.358 87.406C175.232 87.3545 175.117 87.2783 175.022 87.1817C174.926 87.0852 174.851 86.9705 174.801 86.8444C174.751 86.7182 174.726 86.5833 174.73 86.4477C174.737 86.3086 174.772 86.1722 174.833 86.0465C174.893 85.9208 174.978 85.8082 175.082 85.7151C175.186 85.6221 175.307 85.5504 175.439 85.5042C175.571 85.458 175.711 85.4382 175.851 85.446C175.986 85.4468 176.12 85.4745 176.245 85.5274C176.369 85.5804 176.482 85.6575 176.576 85.7544C176.67 85.8512 176.744 85.9658 176.794 86.0914C176.843 86.217 176.866 86.3512 176.863 86.486Z" fill="#263238"/>
<path d="M179.938 92.7239C180.594 92.5771 181.265 92.5064 181.937 92.5134C182.251 92.5134 182.577 92.4687 182.616 92.2581C182.667 91.9406 182.618 91.615 182.475 91.3266L181.732 88.9083C180.707 85.4692 179.983 82.649 180.124 82.6107C180.265 82.5725 181.213 85.3225 182.238 88.768C182.481 89.6166 182.718 90.4205 182.942 91.199C183.108 91.5845 183.133 92.0157 183.013 92.4177C182.962 92.5239 182.887 92.6167 182.793 92.6887C182.7 92.7608 182.591 92.81 182.475 92.8324C182.3 92.8688 182.121 92.8817 181.943 92.8707C181.271 92.907 180.597 92.8577 179.938 92.7239Z" fill="#263238"/>
<path d="M176.063 78.6029C175.935 78.8964 174.878 78.6794 173.61 78.7432C172.342 78.807 171.297 79.0878 171.15 78.807C171.086 78.6731 171.285 78.4051 171.714 78.169C172.282 77.8518 172.918 77.6727 173.569 77.646C174.22 77.6194 174.868 77.7461 175.461 78.0159C175.903 78.2137 176.121 78.4689 176.063 78.6029Z" fill="#263238"/>
<path d="M188.624 81.0443C188.489 81.2804 187.458 81.0443 186.202 80.9805C184.947 80.9167 183.916 81.1017 183.781 80.8529C183.724 80.7317 183.935 80.5211 184.37 80.3297C184.956 80.0981 185.586 79.9958 186.215 80.0298C186.855 80.0458 187.484 80.1981 188.06 80.4764C188.489 80.6998 188.662 80.9295 188.624 81.0443Z" fill="#263238"/>
<path d="M163.039 86.6361C162.911 86.5723 157.729 84.6454 157.505 90.037C157.281 95.4285 162.764 94.5416 162.783 94.3885C162.802 94.2354 163.039 86.6361 163.039 86.6361Z" fill="#FFBE9D"/>
<path d="M161.203 92.2953C161.203 92.2953 161.106 92.3527 160.94 92.4229C160.714 92.5124 160.462 92.5124 160.235 92.4229C159.672 92.1868 159.23 91.2616 159.242 90.2918C159.247 89.8289 159.356 89.373 159.563 88.9582C159.62 88.7914 159.716 88.641 159.845 88.5198C159.973 88.3986 160.129 88.3104 160.299 88.2628C160.409 88.239 160.523 88.2541 160.622 88.3054C160.722 88.3566 160.8 88.4409 160.844 88.5435C160.914 88.6966 160.876 88.8051 160.901 88.8115C160.927 88.8179 161.023 88.7285 160.991 88.5052C160.966 88.3681 160.893 88.244 160.786 88.1543C160.715 88.0958 160.634 88.0522 160.546 88.0259C160.458 87.9996 160.365 87.9912 160.274 88.0012C160.049 88.0314 159.836 88.1205 159.657 88.2596C159.478 88.3986 159.339 88.5824 159.255 88.7924C159.003 89.25 158.868 89.7631 158.865 90.2854C158.865 91.3701 159.371 92.4101 160.146 92.6717C160.289 92.7199 160.441 92.7351 160.59 92.7163C160.74 92.6976 160.884 92.6452 161.01 92.5633C161.183 92.4037 161.222 92.2953 161.203 92.2953Z" fill="#EB996E"/>
<path d="M178.664 96.4609C178.721 96.3205 177.664 96.0078 176.915 95.0125C176.603 94.58 176.351 94.1079 176.166 93.6088C176.005 93.2132 175.89 92.9707 175.833 92.9707C175.775 92.9707 175.788 93.2514 175.877 93.6789C175.991 94.2489 176.23 94.787 176.576 95.2549C176.929 95.7255 177.405 96.0898 177.953 96.3077C178.369 96.4928 178.651 96.5055 178.664 96.4609Z" fill="#263238"/>
<path d="M155.828 77.9058C156.955 75.9916 157.218 73.7329 157.839 71.6082C158.46 69.4835 159.639 67.2885 161.727 66.542H161.778C163.655 65.7891 165.968 65.7764 167.505 67.0716C167.889 64.2705 170.355 62.0501 173.103 61.3291C175.851 60.6081 180.258 61.0356 182.891 62.0948C184.928 62.9115 186.894 64.5832 189.296 67.0397C190.306 68.0754 191.23 69.1914 192.057 70.3767L194.427 77.759C194.687 77.9442 194.914 78.1705 195.1 78.429C195.288 78.7042 195.371 79.038 195.333 79.3691C195.294 79.7002 195.137 80.0063 194.89 80.2313C194.643 80.4562 194.323 80.585 193.989 80.5938C193.654 80.6026 193.328 80.491 193.069 80.2793C192.826 80.6941 192.64 81.1152 192.429 81.5555L192.39 81.632C192.27 81.9006 192.135 82.1625 191.987 82.4168L190.142 90.5393C190.02 88.3252 190.187 80.6239 190.071 78.4162C188.399 78.3667 186.754 77.9812 185.235 77.2827C183.716 76.5843 182.355 75.5874 181.232 74.3518C180.021 73.0119 179.067 71.3338 177.44 70.5235C175.345 69.4898 172.853 70.2427 170.644 71.0084L170.74 70.9255C169.588 71.4556 168.548 72.2007 167.678 73.1204C168.176 77.4957 167.722 81.9267 166.346 86.1112C166.141 86.7492 165.577 88.0253 164.956 88.2742C163.738 88.7399 163.412 87.5085 162.682 86.8513C162.033 86.4105 161.246 86.2179 160.465 86.309C159.86 84.4745 159.364 82.606 158.979 80.7132C158.243 80.9392 157.465 80.9917 156.705 80.8664C156.942 80.3112 157.173 79.7561 157.41 79.1947C157.119 79.4065 156.788 79.5564 156.436 79.6349C156.26 79.6712 156.076 79.6521 155.911 79.5801C155.746 79.5081 155.607 79.3868 155.514 79.2329C155.315 78.7799 155.591 78.3014 155.828 77.9058Z" fill="#2F2F2F"/>
<path d="M169.99 68.0049C169.711 68.2267 169.448 68.4676 169.202 68.7259C168.576 69.4759 168.157 70.3752 167.985 71.3355C167.853 71.9952 167.787 72.6663 167.787 73.339C167.787 74.06 167.844 74.8384 167.896 75.6552C167.972 76.5037 167.991 77.3563 167.953 78.2074C167.93 78.6662 167.872 79.1226 167.78 79.5728C167.709 80.0526 167.517 80.5068 167.223 80.8936C167.085 81.0459 166.91 81.1601 166.715 81.225C166.519 81.2898 166.311 81.3032 166.109 81.2637C165.72 81.1918 165.367 80.9945 165.103 80.7022C164.673 80.1221 164.404 79.4402 164.321 78.7242H164.488C164.248 79.3179 163.925 79.8744 163.527 80.3768C163.14 80.8383 162.59 81.135 161.99 81.2062C161.711 81.2349 161.429 81.1863 161.176 81.0659C160.941 80.946 160.748 80.7566 160.625 80.5235C160.506 80.3115 160.449 80.0707 160.459 79.828C160.461 79.5921 160.55 79.365 160.709 79.19L160.792 79.2602C160.325 79.8022 159.746 80.2375 159.094 80.5363C158.921 80.6394 158.742 80.731 158.556 80.8106C158.497 80.8347 158.434 80.8498 158.371 80.8553C158.427 80.8223 158.487 80.7966 158.55 80.7787C158.665 80.7341 158.838 80.6639 159.056 80.5554C159.682 80.2419 160.239 79.8082 160.696 79.2793L160.779 79.3559C160.65 79.5211 160.576 79.7223 160.566 79.9315C160.557 80.1408 160.614 80.3477 160.728 80.5235C160.844 80.7284 161.018 80.8948 161.228 81.0021C161.457 81.1099 161.712 81.1519 161.964 81.1233C162.525 81.0517 163.036 80.7685 163.393 80.3321C163.78 79.8259 164.092 79.2673 164.321 78.6732L164.437 78.4179L164.488 78.6923C164.559 79.3819 164.809 80.0414 165.212 80.6065C165.448 80.8671 165.763 81.0441 166.109 81.1105C166.281 81.1431 166.458 81.1309 166.625 81.075C166.791 81.0191 166.939 80.9215 167.057 80.7915C167.333 80.4325 167.512 80.0083 167.575 79.5601C167.667 79.1206 167.725 78.6748 167.748 78.2265C167.785 77.3757 167.77 76.5234 167.703 75.6743C167.652 74.8576 167.595 74.0792 167.607 73.3454C167.612 72.6632 167.687 71.9832 167.832 71.3164C168.016 70.3422 168.458 69.4347 169.113 68.6876C169.363 68.4107 169.66 68.1797 169.99 68.0049Z" fill="#455A64"/>
<path d="M194.428 75.658L194.364 75.709L194.165 75.8558C194.058 75.9315 193.947 76.0018 193.832 76.0664C193.677 76.1584 193.516 76.2415 193.352 76.3152C192.293 76.7969 191.13 77.0053 189.97 76.9214C188.244 76.8115 186.588 76.204 185.204 75.1731C183.531 73.9012 182.138 72.3007 181.111 70.4706C180.534 69.5199 180.067 68.5565 179.548 67.6377C179.074 66.7599 178.476 65.9541 177.773 65.245C177.142 64.602 176.357 64.128 175.493 63.8668C175.104 63.7569 174.699 63.7116 174.295 63.7328C173.92 63.7523 173.549 63.8232 173.194 63.9433C172.581 64.1505 172.02 64.4855 171.547 64.9259C171.191 65.2613 170.89 65.6511 170.657 66.0808C170.474 66.4561 170.338 66.8526 170.253 67.2612C170.253 67.2612 170.253 67.2293 170.253 67.1783C170.253 67.1272 170.253 67.0315 170.253 66.9358C170.319 66.6297 170.42 66.3321 170.554 66.0489C170.797 65.6016 171.113 65.1982 171.49 64.8557C171.968 64.3936 172.54 64.039 173.168 63.8157C173.534 63.6907 173.915 63.6135 174.302 63.586C174.723 63.5651 175.144 63.6103 175.551 63.72C176.44 63.9852 177.248 64.4677 177.902 65.1237C178.617 65.8415 179.226 66.6581 179.708 67.5483C180.227 68.4607 180.694 69.4625 181.264 70.3749C182.283 72.1809 183.655 73.7648 185.3 75.0327C186.657 76.0534 188.28 76.6646 189.976 76.7937C191.118 76.8865 192.266 76.7004 193.32 76.2514C193.699 76.0722 194.069 75.8741 194.428 75.658Z" fill="#455A64"/>
<path d="M195.145 72.203C195.059 72.2801 194.964 72.3465 194.863 72.4008C194.593 72.5607 194.313 72.7014 194.024 72.8219C193.593 73.0054 193.147 73.1506 192.691 73.2558C191.574 73.517 190.415 73.5539 189.284 73.3642C188.824 73.2884 188.372 73.1731 187.932 73.0197C187.636 72.9145 187.347 72.7909 187.067 72.6496C186.964 72.599 186.865 72.5392 186.773 72.4709C186.773 72.4709 187.227 72.6624 187.97 72.8921C188.411 73.0269 188.86 73.1293 189.316 73.1983C189.869 73.2764 190.428 73.3106 190.987 73.3004C191.547 73.2768 192.105 73.2064 192.653 73.0899C193.102 72.9943 193.543 72.8641 193.972 72.7006C194.703 72.4199 195.125 72.1711 195.145 72.203Z" fill="#455A64"/>
<path d="M188.663 84.059C188.502 84.2185 187.593 83.4848 186.267 83.421C184.941 83.3572 183.961 84.059 183.82 83.8612C183.679 83.6634 183.916 83.4912 184.345 83.2232C184.926 82.8378 185.614 82.6437 186.312 82.6681C187.012 82.677 187.688 82.9196 188.233 83.3572C188.662 83.689 188.765 84.0016 188.663 84.059Z" fill="#263238"/>
<path d="M187.937 86.6638C187.919 86.9408 187.793 87.1999 187.586 87.3858C187.379 87.5717 187.108 87.6698 186.829 87.6592C186.693 87.6609 186.557 87.6353 186.431 87.5839C186.305 87.5325 186.19 87.4563 186.094 87.3599C185.998 87.2635 185.922 87.1488 185.871 87.0227C185.82 86.8965 185.795 86.7615 185.798 86.6256C185.815 86.3474 185.94 86.0868 186.147 85.8995C186.354 85.7123 186.627 85.6133 186.906 85.6238C187.043 85.6238 187.178 85.6508 187.304 85.7032C187.43 85.7556 187.544 85.8324 187.64 85.9292C187.736 86.0259 187.812 86.1407 187.863 86.2668C187.914 86.3929 187.939 86.5279 187.937 86.6638Z" fill="#263238"/>
<path d="M162.053 109.524C168.459 113.525 174.864 115.031 181.411 112.44L191.224 114.935L195.989 123.192C196.738 124.489 197.08 125.98 196.97 127.473L195.067 159.076L200.832 179.149L144.259 179.634L147.045 164.723L154.059 111.126L162.053 109.524Z" fill="#467CF3"/>
<path d="M153.431 135.186L155.199 110.991C155.199 110.991 141.882 112.216 137.475 121.577C133.766 129.463 122.621 152.388 121.526 155.63C118.323 165.156 124.229 179.053 144.963 178.293L147.327 165.347L153.431 135.186Z" fill="#467CF3"/>
<path d="M142.768 155.327C142.685 155.652 142.576 155.97 142.441 156.278C142.21 156.858 141.871 157.65 141.48 158.511L140.481 160.725C140.358 161.037 140.212 161.34 140.045 161.631C140.128 161.305 140.24 160.987 140.378 160.68C140.603 160.1 140.942 159.315 141.333 158.447C141.723 157.579 142.057 156.846 142.332 156.233C142.457 155.922 142.602 155.619 142.768 155.327Z" fill="#263238"/>
<path d="M150.14 136.284C150.095 136.284 150.057 134.752 150.057 132.864C150.057 130.975 150.095 129.438 150.14 129.438C150.185 129.438 150.217 130.969 150.217 132.864C150.217 134.759 150.178 136.284 150.14 136.284Z" fill="#263238"/>
<path d="M148.18 125.984C148.123 125.862 148.082 125.734 148.058 125.602C147.994 125.353 147.885 124.963 147.738 124.562C147.36 123.428 146.864 122.338 146.258 121.307C145.65 120.277 144.933 119.314 144.119 118.436C143.811 118.098 143.549 117.798 143.363 117.651C143.262 117.565 143.17 117.468 143.087 117.364C143.203 117.43 143.308 117.512 143.401 117.607C143.683 117.842 143.95 118.093 144.202 118.36C145.899 120.093 147.149 122.21 147.847 124.53C147.957 124.877 148.046 125.231 148.116 125.589C148.148 125.719 148.17 125.851 148.18 125.984Z" fill="#263238"/>
<path d="M195.157 124.481C195.099 124.741 195.073 125.007 195.08 125.273C195.08 125.783 195.041 126.549 195.08 127.436C195.08 129.26 195.291 131.774 195.515 134.544C195.729 136.9 195.823 139.266 195.797 141.632C195.797 142.538 195.746 143.279 195.701 143.783C195.676 144.046 195.676 144.311 195.701 144.574C195.782 144.321 195.832 144.06 195.848 143.795C195.932 143.291 196.002 142.558 196.053 141.645C196.147 139.268 196.085 136.887 195.868 134.518C195.643 131.743 195.419 129.241 195.336 127.423C195.291 126.517 195.265 125.783 195.253 125.273C195.246 125.006 195.214 124.742 195.157 124.481Z" fill="#263238"/>
<path d="M134.286 159.777C134.575 159.971 134.879 160.142 135.196 160.287C135.791 160.6 136.637 161.065 137.668 161.684C138.699 162.303 139.916 163.05 141.332 163.784C142.043 164.147 142.799 164.511 143.593 164.856L146.066 165.876L146.828 166.189L146.726 166.004C146.181 169.43 145.713 172.499 145.393 174.713C145.239 175.779 145.118 176.66 145.028 177.329C144.965 177.647 144.935 177.97 144.938 178.293C145.034 177.984 145.105 177.669 145.15 177.349C145.271 176.679 145.425 175.805 145.617 174.752C146.002 172.544 146.508 169.481 147.059 166.061V165.927L146.937 165.876L146.175 165.57L143.702 164.556C142.908 164.217 142.158 163.867 141.454 163.509C140.038 162.801 138.815 162.067 137.764 161.48C136.714 160.893 135.843 160.447 135.202 160.172C134.895 160.025 134.658 159.93 134.491 159.86C134.324 159.789 134.292 159.764 134.286 159.777Z" fill="#263238"/>
<path d="M131.269 155.63C131.269 155.687 131.941 155.815 132.979 156.204C134.326 156.711 135.58 157.433 136.694 158.342C137.803 159.256 138.754 160.347 139.506 161.57C140.083 162.508 140.339 163.153 140.396 163.134C140.381 162.97 140.338 162.81 140.268 162.661C140.115 162.243 139.928 161.838 139.711 161.449C138.267 158.853 135.889 156.899 133.056 155.981C132.638 155.842 132.209 155.738 131.775 155.668C131.609 155.628 131.438 155.615 131.269 155.63Z" fill="#263238"/>
<path d="M152.792 179.373L138.892 145.965C138.251 144.44 139.052 143.202 140.673 143.202H143.465C144.606 143.202 145.387 142.564 145.458 141.601L145.554 140.375C145.624 139.393 146.406 138.768 147.546 138.768H160.863C162.022 138.821 163.119 139.306 163.937 140.127L165.02 141.167C165.839 141.985 166.936 142.468 168.095 142.519H185.018C185.881 142.568 186.714 142.851 187.426 143.338C188.139 143.825 188.704 144.498 189.06 145.282L202.838 179.373H152.792Z" fill="#224287"/>
<g opacity="0.3">
<path d="M152.792 179.372L138.892 145.964C138.251 144.439 139.052 143.201 140.673 143.201H143.465C144.606 143.201 145.387 142.563 145.458 141.6L145.554 140.375C145.624 139.392 146.406 138.767 147.546 138.767H160.863C162.022 138.82 163.119 139.305 163.937 140.126L165.02 141.166C165.839 141.984 166.936 142.467 168.095 142.518H185.018C185.881 142.567 186.714 142.85 187.426 143.337C188.139 143.824 188.704 144.497 189.06 145.281L202.838 179.372H152.792Z" fill="#2D2D2D"/>
</g>
<path d="M150.524 168.029L145.278 147.835C144.932 146.507 145.81 145.174 147.027 145.174H188.118C188.536 145.193 188.935 145.351 189.252 145.623C189.569 145.895 189.786 146.265 189.867 146.673L197.496 177.064C197.835 178.397 197.297 179.201 196.08 179.189H154.713C154.302 179.166 153.909 179.007 153.597 178.738C153.285 178.469 153.072 178.105 152.99 177.702L150.524 168.029Z" fill="#E0E0E0"/>
<path d="M153.361 178.433L151.125 146.639C151.107 146.372 151.144 146.104 151.234 145.852C151.323 145.6 151.464 145.369 151.647 145.173C151.831 144.978 152.052 144.822 152.298 144.715C152.545 144.608 152.81 144.553 153.079 144.553H195.656V178.433H153.361Z" fill="#EBEBEB"/>
<path d="M152.887 179.189L157.916 146.406C158.035 145.883 158.33 145.417 158.752 145.084C159.174 144.751 159.697 144.571 160.235 144.574H203.337C203.724 144.57 204.106 144.662 204.449 144.842C204.791 145.022 205.083 145.284 205.299 145.604C205.514 145.924 205.646 146.293 205.683 146.677C205.72 147.061 205.66 147.448 205.509 147.803L196.208 177.791L152.887 179.189Z" fill="#FAFAFA"/>
<path d="M152.791 179.358L163.238 148.661C163.437 148.046 163.824 147.509 164.346 147.125C164.868 146.742 165.497 146.531 166.146 146.523H210.574C210.914 146.535 211.247 146.625 211.546 146.788C211.844 146.951 212.1 147.181 212.292 147.461C212.485 147.74 212.609 148.061 212.654 148.397C212.7 148.733 212.665 149.074 212.554 149.395L202.837 179.383L152.791 179.358Z" fill="#224287"/>
<g opacity="0.3">
<path d="M174.289 174.22C174.289 174.22 172.611 174.296 171.836 174.348C168.137 174.593 164.435 173.936 161.049 172.433C160.005 171.974 158.903 171.317 158.583 170.219C158.23 168.994 159.025 167.718 159.998 166.889C160.972 166.059 162.157 165.466 162.996 164.502C163.835 163.539 164.239 161.988 163.412 161.019L163.182 161.191C162.58 162.703 160.908 163.437 159.524 164.305C156.92 165.936 154.986 168.441 154.073 171.368C153.586 172.957 153.433 174.813 154.426 176.166C155.185 177.078 156.199 177.744 157.34 178.08C160.703 179.356 164.29 179.356 167.877 179.356C169.004 179.356 172.483 179.305 172.483 179.305C173.572 179.012 173.937 178.444 174.59 177.525C175.243 176.606 175.09 174.877 174.289 174.22Z" fill="black"/>
</g>
<path d="M174.289 174.219L162.708 172.483L158.224 169.931C157.928 169.768 157.679 169.534 157.498 169.249C157.318 168.965 157.213 168.64 157.192 168.304V168.221C157.182 167.805 157.299 167.395 157.528 167.046C157.757 166.698 158.087 166.426 158.474 166.269C159.902 165.669 162.157 164.878 163.124 163.193C164.508 160.775 163.124 160.277 163.124 160.277L153.452 164.106L146.604 168.751L145.201 176.516L154.758 179.623C154.758 179.623 165.398 180.223 168.338 179.898C171.278 179.572 171.272 178.207 171.272 178.207C171.816 178.034 172.924 177.071 172.918 176.171C174.346 174.838 174.289 174.212 174.289 174.212" fill="#FFBE9D"/>
<path d="M159.472 177.554C159.635 177.566 159.796 177.596 159.953 177.643C160.254 177.72 160.696 177.815 161.234 177.924C162.656 178.203 164.097 178.373 165.545 178.434C166.99 178.487 168.438 178.427 169.875 178.256C170.432 178.192 170.874 178.128 171.156 178.077C171.316 178.044 171.479 178.026 171.643 178.026C171.489 178.083 171.33 178.126 171.169 178.153C170.868 178.23 170.426 178.313 169.887 178.396C166.994 178.824 164.046 178.71 161.195 178.058C160.651 177.93 160.215 177.815 159.914 177.72C159.762 177.678 159.614 177.622 159.472 177.554Z" fill="#EB996E"/>
<path d="M160.534 175.767C160.697 175.785 160.858 175.817 161.015 175.862C161.322 175.932 161.771 176.035 162.296 176.137C163.742 176.412 165.206 176.574 166.677 176.622C168.147 176.664 169.618 176.596 171.078 176.417C171.642 176.354 172.09 176.29 172.404 176.239C172.564 176.202 172.727 176.183 172.891 176.181C172.738 176.24 172.579 176.283 172.417 176.309C172.109 176.386 171.661 176.468 171.097 176.558C169.632 176.773 168.151 176.858 166.671 176.813C165.19 176.773 163.716 176.591 162.27 176.271C161.838 176.179 161.41 176.066 160.989 175.932C160.831 175.897 160.678 175.841 160.534 175.767Z" fill="#EB996E"/>
<path d="M31.1757 109.435C29.2952 107.752 26.0782 109.213 24.5008 111.139C22.9234 113.066 21.8044 115.537 19.4033 116.511C17.0022 117.485 13.894 116.64 11.8815 118.187C9.1074 120.335 10.6615 125.234 7.66208 127.075C6.47319 127.791 4.90355 127.791 3.62918 128.393C0.629766 129.825 0.660847 133.714 1.12708 136.794C1.7798 141.091 2.48693 145.603 5.08228 149.256C7.67763 152.908 12.7052 155.486 17.1887 154.076C21.4936 152.722 23.7082 148.432 25.4566 144.564L32.7298 128.493C34.1362 125.392 35.5504 122.248 36.0089 118.917C36.4674 115.587 35.8457 111.992 33.5534 109.385" fill="#263238"/>
<path d="M26.0727 77.8021C26.0183 76.026 27.7978 74.658 29.585 74.0063C31.3722 73.3545 33.3692 73.111 34.97 72.1227C36.3842 71.2418 37.3011 69.8738 38.5289 68.7565C40.0058 67.3763 41.8547 66.3832 43.8857 65.8793C45.9167 65.3754 48.0566 65.3788 50.0857 65.8892C52.1148 66.3996 53.96 67.3986 55.4317 68.7835C56.9035 70.1685 57.9487 71.8895 58.4602 73.7699C59.144 76.2981 58.6778 79.2775 56.5176 80.9319C54.0077 82.88 50.3012 82.4431 47.0764 81.8415C43.8517 81.2399 40.2306 80.6383 37.5498 82.3715C35.9335 83.4243 35.001 85.1289 34.0142 86.6687C33.0273 88.2085 31.784 89.8629 29.9191 90.4574C28.0542 91.0518 25.5055 90.0277 25.4355 88.2014" fill="#263238"/>
<path d="M26.2032 78.7477C26.413 80.2303 25.2474 81.5624 24.0818 82.6152C22.9162 83.668 21.6108 84.7638 21.401 86.2607C21.1679 88.001 22.5433 89.7127 22.1781 91.4245C21.9294 92.5059 21.0125 93.3439 20.453 94.3322C19.7124 95.7547 19.5901 97.3843 20.1111 98.8873C20.5929 100.384 21.3544 103.729 22.4811 104.896C25.8857 108.29 30.2812 110.704 35.1393 111.85C39.7402 112.706 44.4507 112.947 49.1262 112.567C52.957 112.352 57.3552 112.517 60.5411 107.661C62.1962 105.147 63.0121 101.809 63.8902 98.9804C64.6672 96.5524 65.2966 93.967 64.5118 91.5247C64.0533 90.0923 63.1364 88.8533 62.6857 87.4424C62.1185 85.6734 62.3205 83.7826 62.0952 81.9563C61.8492 79.9662 61.0914 78.0589 59.8847 76.3931C58.6779 74.7273 57.0572 73.351 55.1572 72.3788C53.2572 71.4065 51.1329 70.8663 48.9608 70.8031C46.7887 70.74 44.6316 71.1556 42.6689 72.0155" fill="#263238"/>
<path d="M60.2206 84.8765C59.8631 79.813 56.2032 73.6107 50.7328 74.1335L33.6376 78.1514C32.8355 78.2302 32.0948 78.5839 31.5623 79.1424C31.0298 79.7008 30.7444 80.4233 30.7625 81.1666L32.6819 119.125H32.5653C32.5653 119.125 36.4506 129.868 47.7489 126.566C49.9868 125.915 51.0125 123.659 51.4554 121.338H51.572C51.572 121.059 51.572 120.801 51.572 120.543C51.7933 118.812 51.8167 117.065 51.6419 115.329C51.6419 112.257 51.6419 111.032 51.6419 111.032C51.6419 111.032 58.6354 109.943 60.0885 101.499C60.8577 97.3813 60.6169 90.4986 60.2206 84.8765Z" fill="#FFBE9D"/>
<path d="M59.3351 89.9289C59.3394 90.2109 59.224 90.4833 59.0135 90.688C58.8031 90.8927 58.5142 91.0135 58.2084 91.0247C58.0591 91.0354 57.909 91.0186 57.7669 90.9752C57.6248 90.9319 57.4934 90.8628 57.3805 90.7721C57.2677 90.6814 57.1756 90.5709 57.1096 90.4471C57.0436 90.3232 57.0051 90.1884 56.9962 90.0507C56.9919 89.7687 57.1073 89.4963 57.3178 89.2916C57.5283 89.0869 57.8172 88.9661 58.1229 88.9549C58.2724 88.9432 58.423 88.9593 58.5655 89.0023C58.7081 89.0453 58.8399 89.1142 58.953 89.2051C59.0661 89.296 59.1582 89.4069 59.2238 89.5312C59.2895 89.6556 59.3273 89.7908 59.3351 89.9289Z" fill="#263238"/>
<path d="M58.6054 88.4482C58.4655 88.5914 57.5719 87.9827 56.2743 87.9898C54.9766 87.997 54.0907 88.5771 53.9431 88.4339C53.7955 88.2907 54.0286 88.1188 54.4249 87.8466C54.9711 87.4945 55.6233 87.3091 56.2898 87.3166C56.9473 87.3124 57.5894 87.5004 58.1236 87.8538C58.551 88.1259 58.6831 88.3838 58.6054 88.4482Z" fill="#263238"/>
<path d="M46.5538 90.3303C46.5561 90.6129 46.439 90.8853 46.2273 91.0898C46.0155 91.2943 45.7258 91.4149 45.4193 91.4261C45.2701 91.4368 45.12 91.42 44.9778 91.3766C44.8357 91.3332 44.7044 91.2642 44.5915 91.1735C44.4786 91.0828 44.3865 90.9723 44.3205 90.8484C44.2545 90.7246 44.216 90.5898 44.2071 90.452C44.2029 90.17 44.3182 89.8977 44.5287 89.693C44.7392 89.4883 45.0281 89.3674 45.3339 89.3563C45.4838 89.3445 45.6347 89.3606 45.7777 89.4035C45.9208 89.4464 46.0531 89.5153 46.1668 89.6061C46.2805 89.6969 46.3733 89.8077 46.4398 89.9321C46.5063 90.0565 46.545 90.1919 46.5538 90.3303Z" fill="#263238"/>
<path d="M46.1882 88.6924C46.0484 88.8284 45.1548 88.2268 43.8571 88.234C42.5594 88.2412 41.6736 88.8213 41.5259 88.678C41.3783 88.5348 41.6036 88.3629 42.0077 88.0907C42.5539 87.7386 43.2061 87.5533 43.8726 87.5608C44.5275 87.558 45.1666 87.746 45.6987 88.0979C46.1261 88.3701 46.2582 88.6279 46.1882 88.6924Z" fill="#263238"/>
<path d="M50.7987 97.3141C51.4642 97.1209 52.1534 97.0054 52.8501 96.9703C53.1765 96.9703 53.4795 96.8772 53.5339 96.6767C53.5567 96.3697 53.481 96.0633 53.3163 95.7957L52.3528 93.5325C51.024 90.3096 50.0216 87.6597 50.2004 87.6167C50.3791 87.5738 51.5369 90.1378 52.8656 93.3463C53.1842 94.1413 53.4951 94.8933 53.7826 95.6167C53.9863 95.9753 54.0468 96.3885 53.9535 96.7841C53.9094 96.8903 53.8385 96.9854 53.7466 97.0614C53.6547 97.1374 53.5445 97.1921 53.4251 97.221C53.2479 97.2664 53.0651 97.2905 52.8812 97.2926C52.1906 97.3785 51.4912 97.3857 50.7987 97.3141Z" fill="#263238"/>
<path d="M51.7052 111.1C47.3948 111.174 43.1468 110.142 39.4355 108.12C39.4355 108.12 42.4194 113.914 51.5809 113.134L51.7052 111.1Z" fill="#EB996E"/>
<path d="M50.2676 100.137C50.0262 99.8592 49.7119 99.6422 49.3544 99.5069C48.9968 99.3716 48.6078 99.3224 48.2239 99.3639C47.946 99.3899 47.6764 99.4666 47.431 99.5896C47.1855 99.7126 46.969 99.8793 46.7942 100.08C46.6252 100.274 46.5249 100.512 46.5069 100.76C46.4888 101.009 46.5538 101.256 46.6931 101.47C46.8986 101.677 47.1658 101.825 47.4615 101.893C47.7571 101.962 48.0683 101.949 48.356 101.856C48.9499 101.656 49.4961 101.352 49.9645 100.961C50.1083 100.871 50.2301 100.754 50.322 100.617C50.3698 100.553 50.3953 100.477 50.3953 100.399C50.3953 100.321 50.3698 100.245 50.322 100.18" fill="#EB996E"/>
<path d="M47.0805 98.1427C47.2826 98.1427 47.2903 99.396 48.4637 100.291C49.637 101.187 51.0979 101.05 51.1134 101.222C51.129 101.394 50.7871 101.473 50.1732 101.487C49.3668 101.495 48.583 101.242 47.9586 100.771C47.3606 100.321 46.9761 99.6734 46.8863 98.9663C46.8319 98.4435 46.9873 98.1355 47.0805 98.1427Z" fill="#263238"/>
<path d="M46.7562 86.6324C46.6319 86.9475 45.3731 86.8042 43.8889 86.969C42.4048 87.1337 41.2081 87.5133 41.0138 87.2268C40.9206 87.0907 41.1304 86.7971 41.6122 86.5106C42.2556 86.1328 42.9841 85.8952 43.7421 85.8157C44.5002 85.7363 45.2679 85.8172 45.987 86.0522C46.5542 86.2528 46.8106 86.5034 46.7562 86.6324Z" fill="#263238"/>
<path d="M58.1398 85.0838C57.9144 85.3488 57.0441 85.0838 55.9951 85.0838C54.9461 85.0838 54.068 85.2629 53.8582 84.9907C53.7727 84.8546 53.9126 84.5896 54.2934 84.339C54.814 84.0385 55.4197 83.887 56.0337 83.9036C56.6478 83.9201 57.2427 84.1041 57.7435 84.4321C58.1087 84.6828 58.2097 84.9549 58.1398 85.0838Z" fill="#263238"/>
<path d="M27.2656 105.932C28.5302 106.166 29.8371 106.12 31.0784 105.797C32.3197 105.473 33.4597 104.882 34.4042 104.073C35.3487 103.263 36.0705 102.258 36.5101 101.14C36.9497 100.023 37.0944 98.8245 36.9321 97.6451C36.6524 95.5681 35.4402 93.4625 36.2173 91.5001C37.2507 88.9075 41.1904 88.1125 42.2394 85.5199C42.8455 84.0158 42.3016 82.2612 43.0165 80.7858C43.7313 79.3104 45.2466 78.6014 46.7852 78.0857C48.3237 77.5701 49.9788 77.2191 51.2687 76.2952C52.5587 75.3713 53.3668 73.6166 52.5353 72.3203C45.6959 73.076 38.9788 74.5811 32.5263 76.8037C31.0343 77.3122 29.4647 77.9353 28.5866 79.16C27.7086 80.3847 27.693 82.1251 27.8096 83.6792C28.1981 91.2566 28.5814 98.8316 28.9596 106.404" fill="#263238"/>
<path d="M84.5721 167.527L98.0617 143.871L91.449 137.317L74.4238 152.408L79.1949 164.526L84.5721 167.527Z" fill="#F49E13"/>
<path d="M53.5938 122.102C56.3794 123.026 58.94 124.448 61.1293 126.285C63.3186 128.122 65.0936 130.339 66.3529 132.809L83.7433 166.914L102.994 180.378H92.6825L73.7505 168.074L53.5938 122.102Z" fill="#E66D1E"/>
<path d="M92.793 180.5H79.1877L47.7016 150.649L29.7051 120.683L31.7876 115.111L45.7745 120.454L49.7918 125.117L51.8666 118.628L52.7602 119.795L54.2133 123.419C54.2133 123.419 67.8738 133.897 70.8266 142.205C73.2821 149.145 72.5128 163.469 74.0125 167.358L92.793 180.5Z" fill="#FAFAFA"/>
<path d="M26.3485 120.301C26.1387 120.881 12.8899 125.787 12.2605 130.063C11.6311 134.339 21.7794 167.398 21.7794 167.398L25.8064 180.505H37.8722H79.188L66.0791 157.88C63.2536 153.003 59.6814 148.526 55.4724 144.587C51.5871 140.963 46.9248 136.48 44.4771 133.809C41.8584 130.908 30.7544 117.336 30.7544 117.336L26.3485 120.301Z" fill="#E66D1E"/>
<path d="M34.6582 121.644C35.463 121.906 36.2428 122.229 36.9894 122.61C38.4114 123.255 40.3618 124.157 42.5064 125.182L44.9464 126.356L44.6666 126.528C44.5733 125.191 44.6594 123.849 44.923 122.532C44.9966 122.01 45.151 121.501 45.3815 121.021C45.3371 121.539 45.2645 122.056 45.1639 122.567C44.982 123.871 44.9429 125.188 45.0474 126.499V126.815L44.7443 126.671L42.2966 125.518C40.152 124.494 38.2249 123.549 36.8573 122.847C36.0925 122.497 35.3574 122.095 34.6582 121.644Z" fill="#263238"/>
<path d="M53.7862 123.434C53.5878 123.853 53.3262 124.243 53.0091 124.594L52.8459 124.809L52.7605 124.544C52.4963 123.735 52.1544 122.596 51.8124 121.329C51.8124 121.228 51.7581 121.135 51.727 121.042L52.1077 121.085C50.8644 123.234 50.1029 125.06 49.9941 125.024C50.3568 123.582 50.9485 122.196 51.7503 120.913L51.9912 120.483L52.1233 120.949C52.1233 121.042 52.1777 121.142 52.201 121.235C52.5506 122.503 52.8459 123.649 53.0324 124.48L52.7838 124.437C53.066 124.062 53.4034 123.724 53.7862 123.434Z" fill="#263238"/>
<path d="M66.5163 151.8C66.2688 151.494 66.0479 151.171 65.8558 150.833L64.1696 148.133C62.7554 145.848 60.7894 142.704 58.5593 139.259C56.3292 135.814 54.2622 132.728 52.7625 130.493L50.9908 127.843C50.7555 127.528 50.5501 127.195 50.377 126.848C50.6659 127.131 50.926 127.438 51.154 127.764C51.6047 128.366 52.2496 129.247 53.0345 130.35C54.5886 132.549 56.7022 135.621 58.9401 139.073C61.178 142.525 63.0973 145.691 64.4494 148.004C65.1332 149.164 65.6693 150.103 66.0035 150.762C66.209 151.092 66.3807 151.44 66.5163 151.8Z" fill="#263238"/>
<g opacity="0.3">
<path d="M60.1534 174.832C62.5545 175.211 65.0177 175.548 67.411 175.168C69.8043 174.789 72.151 173.356 72.897 171.222C73.0169 170.524 73.327 169.866 73.7984 169.31C74.7153 168.522 76.1917 169.009 77.4428 168.901C78.1395 168.804 78.8024 168.56 79.3794 168.187C79.9565 167.814 80.4319 167.323 80.7685 166.753C81.4358 165.612 81.9052 164.382 82.1595 163.107C82.3613 162.493 82.4454 161.851 82.4081 161.209C82.384 160.89 82.2731 160.582 82.0856 160.313C81.8982 160.044 81.6404 159.823 81.3358 159.67C80.3878 159.276 79.3232 159.849 78.4762 160.386C71.6615 164.912 65.4529 170.148 59.2598 175.376" fill="black"/>
</g>
<path d="M92.7574 156.37L112.735 113.842C112.735 113.842 101.15 127.213 95.0886 127.091C95.0886 127.091 88.3904 140.699 84.0778 151.5L77.5039 167.141L92.7574 156.37Z" fill="white"/>
<path d="M92.7577 156.385C92.6831 156.46 92.5997 156.527 92.509 156.585L91.732 157.151L88.7248 159.3L77.5741 167.249L77.1855 167.529L77.3643 167.106C79.5012 161.971 82.0266 155.848 84.8861 149.029C87.7457 142.211 91.1025 134.777 94.8945 127.021L94.9489 126.913H95.081C96.2773 126.847 97.4391 126.518 98.469 125.953C101.323 124.37 103.937 122.443 106.239 120.224C108.571 118.075 110.661 115.927 112.588 113.778L113.474 112.775L112.914 113.964C107.102 126.261 102.09 136.883 98.5156 144.453C96.7206 148.206 95.2986 151.199 94.3118 153.269C93.8222 154.279 93.4415 155.067 93.1695 155.618C93.0452 155.869 92.9441 156.07 92.8742 156.22C92.8043 156.37 92.7654 156.421 92.7577 156.413L92.8431 156.199C92.9131 156.041 93.0063 155.84 93.1151 155.575L94.203 153.198C95.1665 151.113 96.5341 148.098 98.3058 144.324C101.849 136.754 106.807 126.125 112.557 113.821L112.891 114C110.889 116.271 108.762 118.447 106.519 120.517C104.198 122.768 101.558 124.719 98.671 126.319C97.5819 126.921 96.3493 127.267 95.081 127.329L95.2675 127.214C91.5066 134.963 88.0876 142.383 85.2358 149.194C82.384 156.005 79.7964 162.121 77.6285 167.235L77.4187 167.092L88.6238 159.214L91.6776 157.101L92.4546 156.557C92.6566 156.442 92.7577 156.385 92.7577 156.385Z" fill="#263238"/>
<path d="M76.0279 148.748C76.0279 148.748 78.5611 143.383 79.9131 142.639C81.2652 141.894 89.5253 138.427 89.5253 138.427L88.6783 140.132L96.9072 135.605C97.0804 136.145 97.1129 136.715 97.0022 137.269C96.8915 137.823 96.6407 138.345 96.2701 138.793C94.9879 140.411 95.4153 140.268 95.4153 140.268C95.4153 140.268 96.8062 141.034 96.1069 142.18C95.537 143.062 94.909 143.911 94.2264 144.723C94.2264 144.723 95.5086 146.155 95.0035 147.516C95.3155 148.423 95.3796 149.388 95.19 150.323C94.8869 151.956 91.6855 155.065 91.6855 155.065L75.7015 162.076L69.2598 151.992L76.0279 148.748Z" fill="#FFBE9D"/>
<path d="M40.7737 140.179L50.3626 159.044L71.6227 150.528C71.6227 150.528 80.4422 155.277 79.2222 160.462L60.0679 174.965C58.2741 176.323 56.1996 177.331 53.9702 177.929C51.7409 178.526 49.4032 178.699 47.0989 178.439C44.6266 178.16 42.2498 177.388 40.1337 176.177C38.0175 174.966 36.2128 173.345 34.8448 171.427L20.9822 151.982L13.2117 140.301C11.9672 138.481 11.3343 136.362 11.3923 134.211C11.4504 132.06 12.1969 129.973 13.5381 128.212C14.2751 127.268 15.2041 126.465 16.2733 125.848C19.7545 123.907 30.0349 123.062 40.7737 140.179Z" fill="#E66D1E"/>
<path d="M79.6158 160.482L79.8256 160.367L80.4395 160.067L82.8406 158.964L91.5979 154.953H91.5591C92.5656 153.964 93.4757 152.895 94.2788 151.759C94.7269 151.174 94.9954 150.489 95.0558 149.775C95.129 149.029 95.0446 148.278 94.8072 147.562V147.497V147.447C94.9157 146.988 94.9054 146.511 94.7771 146.055C94.6489 145.6 94.4063 145.179 94.069 144.826L93.9757 144.711L94.069 144.604C94.6207 143.931 95.1724 143.214 95.6697 142.455C95.8136 142.303 95.9235 142.126 95.9928 141.934C96.0622 141.742 96.0897 141.54 96.0738 141.338C95.9564 140.944 95.6778 140.608 95.2967 140.4H95.4754C95.419 140.418 95.3574 140.418 95.301 140.4C95.2445 140.382 95.1964 140.346 95.1646 140.3C95.1439 140.241 95.1439 140.179 95.1646 140.12C95.1746 140.064 95.1902 140.009 95.2112 139.956C95.2579 139.87 95.2967 139.791 95.3433 139.712L95.6464 139.268C95.8484 138.982 96.0893 138.695 96.2836 138.423C96.6759 137.857 96.8811 137.197 96.8741 136.525C96.8775 136.224 96.8276 135.924 96.7265 135.637L97.0218 135.73L88.7928 140.249L88.2566 140.543L88.5131 140.02L89.3678 138.308L89.6165 138.545C86.0887 140.042 82.8173 141.41 80.082 142.684C79.5143 143.096 79.0437 143.611 78.6989 144.196C78.3181 144.754 77.984 145.306 77.681 145.836C77.0671 146.903 76.562 147.884 76.1269 148.744L72.6457 150.362L71.7365 150.778C71.6323 150.828 71.523 150.869 71.4102 150.899C71.5044 150.836 71.603 150.779 71.7054 150.727L72.599 150.276L76.0336 148.579L75.987 148.622C76.3988 147.748 76.8884 146.76 77.4867 145.685C77.782 145.141 78.1161 144.582 78.4891 144.017C78.6783 143.722 78.8858 143.437 79.1107 143.164C79.3374 142.859 79.6281 142.598 79.9655 142.398C82.7318 141.044 85.9721 139.698 89.4999 138.18L89.9661 137.986L89.7486 138.416C89.4766 138.975 89.1891 139.548 88.9016 140.128L88.6296 139.898L96.8508 135.365L97.0684 135.243L97.1461 135.458C97.2585 135.787 97.3187 136.13 97.3248 136.475C97.3296 137.221 97.1002 137.952 96.6643 138.581C96.439 138.896 96.2214 139.146 96.0194 139.433C95.9184 139.569 95.8251 139.712 95.7396 139.848C95.6963 139.915 95.6573 139.985 95.6231 140.056C95.6205 140.082 95.6205 140.109 95.6231 140.135H95.5065C95.4521 140.135 95.4521 140.135 95.421 140.135C95.421 140.235 95.3744 139.992 95.3822 140.02H95.5531C96.0301 140.284 96.3739 140.712 96.5089 141.209C96.5594 141.467 96.5297 141.733 96.4234 141.975C96.3146 142.187 96.1927 142.393 96.0582 142.591C95.5376 143.358 94.9859 144.067 94.4186 144.74V144.64C94.765 145.073 95.0278 145.557 95.1957 146.072C95.3665 146.576 95.3665 147.115 95.1957 147.619V147.497C95.4548 148.261 95.5446 149.065 95.4599 149.861C95.4363 150.25 95.3417 150.632 95.1801 150.992C95.0197 151.339 94.8273 151.672 94.6051 151.988C93.782 153.137 92.8483 154.216 91.8155 155.211L82.996 159.107L80.5638 160.16L79.9189 160.425C79.822 160.459 79.7196 160.478 79.6158 160.482Z" fill="#EB996E"/>
<path d="M89.2225 139.827C88.1904 140.646 87.0709 141.365 85.8812 141.976C84.7642 142.683 83.5748 143.287 82.3301 143.781C83.3622 142.962 84.4817 142.242 85.6714 141.632C86.7884 140.925 87.9778 140.321 89.2225 139.827Z" fill="#EB996E"/>
<path d="M95.6263 139.629C94.7321 140.699 93.7333 141.692 92.6425 142.594C91.6492 143.609 90.5538 144.534 89.3711 145.358C90.2663 144.287 91.265 143.292 92.355 142.386C93.3487 141.374 94.444 140.451 95.6263 139.629Z" fill="#EB996E"/>
<path d="M94.7703 144.189C94.4138 144.857 93.9414 145.467 93.3716 145.994C92.896 146.596 92.3188 147.123 91.6621 147.556C92.0165 146.887 92.4892 146.277 93.0608 145.751C93.5315 145.146 94.1094 144.618 94.7703 144.189Z" fill="#EB996E"/>
<path d="M95.0583 147.259C95.1438 147.324 94.7941 147.825 94.3434 148.419C93.8927 149.014 93.5042 149.486 93.4109 149.436C93.3177 149.386 93.5508 148.813 94.0093 148.205C94.4677 147.596 94.9806 147.187 95.0583 147.259Z" fill="#EB996E"/>
<path d="M56.8038 176.87C56.8038 176.87 56.8038 176.834 56.8971 176.784L57.2001 176.548L58.4046 175.652L63.0047 172.293L79.3927 160.397L79.3228 160.519C79.3296 159.537 79.1262 158.564 78.7245 157.654C78.2649 156.704 77.6719 155.813 76.9606 155.004C75.4077 153.314 73.5713 151.863 71.5212 150.707H71.6999L60.6891 155.119L50.4398 159.208L50.2688 159.28L50.1834 159.13C47.3627 154.009 44.744 149.196 42.1176 145.013C40.8044 142.915 39.5067 140.974 38.2789 139.162C37.0512 137.35 35.9478 135.674 34.79 134.227C33.086 131.896 30.8201 129.96 28.1695 128.569C27.711 128.319 27.2837 128.125 26.9184 127.961C26.5532 127.796 26.2347 127.66 25.9782 127.56C25.7218 127.459 25.5431 127.388 25.3954 127.323C25.3284 127.299 25.2635 127.27 25.2012 127.237C27.5012 127.946 29.6324 129.055 31.4797 130.503C32.8003 131.567 33.9816 132.768 34.9998 134.084C36.1654 135.517 37.3309 137.207 38.5431 139.004C39.7553 140.802 41.0919 142.75 42.4284 144.849C45.1015 149.031 47.7279 153.844 50.5563 158.958L50.2999 158.872L60.5415 154.768L71.5445 150.371L71.6378 150.335L71.7232 150.385C73.8126 151.566 75.681 153.051 77.2558 154.782C77.9821 155.623 78.5904 156.544 79.0664 157.525C79.4829 158.491 79.6914 159.523 79.6802 160.562V160.634L79.6103 160.684L63.1368 172.422L58.4745 175.702L57.239 176.562L56.9204 176.777L56.8038 176.87Z" fill="#263238"/>
<path d="M49.0702 164.983C48.9536 164.94 49.5442 163.593 49.8472 161.853C50.1503 160.112 50.158 158.659 50.2823 158.651C50.658 160.831 50.2196 163.063 49.0391 164.983H49.0702Z" fill="#263238"/>
<path d="M42.9083 176.207C42.5807 175.722 42.2203 175.275 41.8305 174.87L38.7666 171.391C36.1698 168.467 32.6028 164.411 28.7205 159.845C24.8382 155.279 21.3829 151.077 18.8828 148.03L15.9155 144.428C15.5713 143.96 15.1925 143.535 14.7832 143.157C15.0661 143.702 15.391 144.208 15.7538 144.667C16.4109 145.563 17.3783 146.85 18.5971 148.426C21.0305 151.55 24.4507 155.823 28.34 160.403C32.2293 164.984 35.841 168.971 38.4976 171.803C39.8281 173.233 40.9096 174.362 41.6837 175.087C42.0593 175.512 42.4693 175.887 42.9083 176.207Z" fill="#263238"/>
</svg>
