<svg width="50" height="50" viewBox="0 0 50 50" fill="none" xmlns="http://www.w3.org/2000/svg">
<rect width="50" height="50" rx="4" fill="#ECF3FF"/>
<path d="M28.4652 30.5651C28.4652 31.1801 27.9702 31.6751 27.3552 31.6751H12.7902C12.1752 31.6751 11.6802 31.1801 11.6802 30.5651V17.6051L17.3352 12.3701H27.3702C27.9852 12.3701 28.4802 12.8651 28.4802 13.4801V30.5651H28.4652Z" fill="#B5CBFA"/>
<path d="M17.2001 12.2197V17.4397H11.5601L17.2001 12.2197Z" fill="#467CF3"/>
<path d="M25.795 29.3648H15.7C15.565 29.3648 15.46 29.2598 15.46 29.1248V20.4998C15.46 20.3648 15.565 20.2598 15.7 20.2598H25.795C25.93 20.2598 26.035 20.3648 26.035 20.4998V29.1248C26.035 29.2598 25.93 29.3648 25.795 29.3648ZM15.94 28.8848H25.555V20.7398H15.94V28.8848Z" fill="#467CF3"/>
<path d="M18.1301 29.3648C17.9951 29.3648 17.8901 29.2598 17.8901 29.1248V20.4998C17.8901 20.3648 17.9951 20.2598 18.1301 20.2598C18.2651 20.2598 18.3701 20.3648 18.3701 20.4998V29.1248C18.3701 29.2598 18.2651 29.3648 18.1301 29.3648Z" fill="#467CF3"/>
<path d="M25.795 22.9302H15.7C15.565 22.9302 15.46 22.8252 15.46 22.6902C15.46 22.5552 15.565 22.4502 15.7 22.4502H25.795C25.93 22.4502 26.035 22.5552 26.035 22.6902C26.035 22.8252 25.93 22.9302 25.795 22.9302ZM25.795 25.0452H15.7C15.565 25.0452 15.46 24.9402 15.46 24.8052C15.46 24.6702 15.565 24.5652 15.7 24.5652H25.795C25.93 24.5652 26.035 24.6702 26.035 24.8052C26.035 24.9402 25.93 25.0452 25.795 25.0452ZM25.795 27.1002H15.7C15.565 27.1002 15.46 26.9952 15.46 26.8602C15.46 26.7252 15.565 26.6202 15.7 26.6202H25.795C25.93 26.6202 26.035 26.7252 26.035 26.8602C26.035 26.9952 25.93 27.1002 25.795 27.1002Z" fill="#467CF3"/>
<path d="M38.4401 36.6104C38.4401 37.2554 37.9151 37.7804 37.2701 37.7804H22.1051C21.4601 37.7804 20.9351 37.2554 20.9351 36.6104V23.1104L26.8301 17.6504H37.2851C37.9301 17.6504 38.4551 18.1754 38.4551 18.8204V36.6104H38.4401Z" fill="#467CF3"/>
<path d="M26.8151 17.6504V23.0954H20.9351L26.8151 17.6504Z" fill="#ECF3FF"/>
<path d="M34.69 28.9754H25.81C25.66 28.9754 25.54 28.8254 25.54 28.6454C25.54 28.4654 25.66 28.3154 25.81 28.3154H34.69C34.84 28.3154 34.96 28.4654 34.96 28.6454C34.96 28.8254 34.84 28.9754 34.69 28.9754ZM34.69 31.6004H25.81C25.66 31.6004 25.54 31.4504 25.54 31.2704C25.54 31.0904 25.66 30.9404 25.81 30.9404H34.69C34.84 30.9404 34.96 31.0904 34.96 31.2704C34.96 31.4504 34.84 31.6004 34.69 31.6004ZM30.25 34.2254H25.81C25.66 34.2254 25.54 34.0754 25.54 33.8954C25.54 33.7154 25.66 33.5654 25.81 33.5654H30.25C30.4 33.5654 30.52 33.7154 30.52 33.8954C30.52 34.0754 30.4 34.2254 30.25 34.2254Z" fill="#ECF3FF"/>
<path d="M34.7652 26.245H25.8852C25.7352 26.245 25.6152 26.095 25.6152 25.915C25.6152 25.735 25.7352 25.585 25.8852 25.585H34.7652C34.9152 25.585 35.0352 25.735 35.0352 25.915C35.0352 26.095 34.9152 26.245 34.7652 26.245Z" fill="#ECF3FF"/>
</svg>
