<svg width="18" height="14" viewBox="0 0 18 14" fill="none" xmlns="http://www.w3.org/2000/svg">
<path id="Vector" d="M11.7707 4.23585C11.9707 4.23585 12.168 4.25047 12.3634 4.27169C11.8311 1.82115 9.18005 0 6.15433 0C2.77133 0 0 2.27939 0 5.17353C0 6.84385 0.922202 8.21571 2.46268 9.27975L1.84724 11.1101L3.99844 10.0435C4.76867 10.1939 5.38597 10.3489 6.15433 10.3489C6.34736 10.3489 6.53849 10.3396 6.7287 10.3245C6.60833 9.91811 6.53849 9.49194 6.53849 9.05018C6.53851 6.39269 8.84732 4.23585 11.7707 4.23585ZM8.4622 2.58631C8.92565 2.58631 9.23242 2.88802 9.23242 3.34579C9.23242 3.80166 8.92565 4.10715 8.4622 4.10715C8.00061 4.10715 7.5381 3.80166 7.5381 3.34579C7.5381 2.88802 8.00063 2.58631 8.4622 2.58631ZM4.15512 4.10713C3.69353 4.10713 3.22818 3.80164 3.22818 3.34577C3.22818 2.888 3.69353 2.58629 4.15512 2.58629C4.6162 2.58629 4.92346 2.888 4.92346 3.34577C4.92346 3.80167 4.6162 4.10713 4.15512 4.10713ZM17.3879 8.9771C17.3879 6.54495 14.9257 4.56256 12.1605 4.56256C9.23242 4.56256 6.92645 6.54495 6.92645 8.9771C6.92645 11.4128 9.23242 13.3909 12.1605 13.3909C12.7731 13.3909 13.3913 13.2391 14.0067 13.0864L15.695 14L15.232 12.4801C16.4676 11.5636 17.3879 10.3489 17.3879 8.9771ZM10.4633 8.21571C10.157 8.21571 9.84788 7.91447 9.84788 7.60709C9.84788 7.30397 10.157 6.99895 10.4633 6.99895C10.9286 6.99895 11.2335 7.30397 11.2335 7.60709C11.2335 7.91447 10.9286 8.21571 10.4633 8.21571ZM13.8482 8.21571C13.5443 8.21571 13.237 7.91447 13.237 7.60709C13.237 7.30397 13.5443 6.99895 13.8482 6.99895C14.3098 6.99895 14.6184 7.30397 14.6184 7.60709C14.6184 7.91447 14.3098 8.21571 13.8482 8.21571Z" fill="#30C602"/>
</svg>
