<svg width="40" height="40" viewBox="0 0 40 40" fill="none" xmlns="http://www.w3.org/2000/svg">
<rect width="40" height="40" rx="1" fill="#689FF4"/>
<path d="M22.2296 15.46C23.6796 15.46 24.8596 16.55 24.8596 17.9C24.8596 18.32 24.7396 18.73 24.5196 19.1C24.1896 19.64 23.6596 20.04 23.0196 20.23C22.8496 20.28 22.7196 20.3 22.5996 20.3C22.3196 20.3 22.0996 20.08 22.0996 19.8C22.0996 19.52 22.3196 19.3 22.5996 19.3C22.6196 19.3 22.6596 19.3 22.7096 19.28C23.1396 19.16 23.4796 18.91 23.6696 18.58C23.7996 18.37 23.8596 18.14 23.8596 17.9C23.8596 17.11 23.1296 16.46 22.2396 16.46C21.9296 16.46 21.6296 16.54 21.3596 16.69C20.8896 16.96 20.6096 17.41 20.6096 17.9V22.09C20.6096 22.94 20.1396 23.72 19.3596 24.16C18.9396 24.4 18.4696 24.52 17.9896 24.52C16.5396 24.52 15.3596 23.43 15.3596 22.08C15.3596 21.66 15.4796 21.25 15.6996 20.88C16.0296 20.34 16.5596 19.94 17.1996 19.75C17.3796 19.7 17.4996 19.68 17.6196 19.68C17.8996 19.68 18.1196 19.9 18.1196 20.18C18.1196 20.46 17.8996 20.68 17.6196 20.68C17.5996 20.68 17.5596 20.68 17.5096 20.7C17.0796 20.83 16.7396 21.08 16.5496 21.4C16.4196 21.61 16.3596 21.84 16.3596 22.08C16.3596 22.87 17.0896 23.52 17.9896 23.52C18.2996 23.52 18.5996 23.44 18.8696 23.29C19.3396 23.02 19.6196 22.57 19.6196 22.08V17.9C19.6196 17.05 20.0896 16.27 20.8696 15.83C21.2796 15.58 21.7496 15.46 22.2296 15.46ZM12.0596 19.96C12.0596 24.38 15.6396 27.96 20.0596 27.96C24.4796 27.96 28.0596 24.38 28.0596 19.96C28.0596 15.54 24.4796 11.96 20.0596 11.96C15.6396 11.96 12.0596 15.54 12.0596 19.96ZM11.0596 19.96C11.0596 14.99 15.0896 10.96 20.0596 10.96C25.0296 10.96 29.0596 14.99 29.0596 19.96C29.0596 24.93 25.0296 28.96 20.0596 28.96C15.0896 28.96 11.0596 24.93 11.0596 19.96Z" fill="white"/>
</svg>
