<svg width="61" height="60" viewBox="0 0 61 60" fill="none" xmlns="http://www.w3.org/2000/svg">
<rect x="0.5" width="60" height="60" rx="2" fill="#7586DB"/>
<path d="M35.5786 18.0003C39.3955 18.0003 42.5 20.8899 42.5 24.4626C42.5 25.573 42.1813 26.6594 41.6063 27.6386C40.736 29.069 39.3439 30.1281 37.6597 30.6321C37.3024 30.7468 36.931 30.8088 36.5566 30.8161C36.3851 30.8193 36.2147 30.7874 36.0554 30.7223C35.8961 30.6572 35.7511 30.5602 35.6289 30.437C35.5066 30.3138 35.4097 30.1668 35.3436 30.0047C35.2776 29.8426 35.2438 29.6686 35.2442 29.493C35.2442 28.749 35.8223 28.1714 36.5566 28.1714C36.6082 28.1714 36.716 28.1714 36.8472 28.1202C37.9784 27.8002 38.8721 27.141 39.3721 26.2642C39.7127 25.7106 39.872 25.0962 39.872 24.4626C39.872 22.3666 37.9503 20.6499 35.6067 20.6499C34.7983 20.6511 34.0033 20.8602 33.2943 21.2579C32.0538 21.9715 31.3194 23.1618 31.3194 24.4626V35.5601C31.3194 37.8097 30.0805 39.8768 28.0275 41.0432C26.9244 41.6784 25.6839 42 24.4214 42C20.6061 42 17.5 39.1088 17.5 35.5361C17.5 34.4273 17.8203 33.3393 18.3937 32.3601C19.264 30.9297 20.6576 29.8706 22.3403 29.3682C22.8122 29.2354 23.1309 29.1842 23.4434 29.1842C24.1824 29.1842 24.7574 29.7682 24.7574 30.5057C24.7578 30.6814 24.724 30.8554 24.658 31.0175C24.5919 31.1796 24.4949 31.3266 24.3727 31.4498C24.2505 31.573 24.1054 31.67 23.9461 31.7351C23.7868 31.8002 23.6164 31.8321 23.4449 31.8289C23.3918 31.8289 23.284 31.8289 23.1543 31.8801C22.0216 32.2241 21.1295 32.8881 20.6295 33.7345C20.2873 34.2897 20.1295 34.9025 20.1295 35.5377C20.1295 37.6337 22.0513 39.3488 24.4168 39.3488C25.2255 39.3484 26.0211 39.1398 26.7307 38.7424C27.9697 38.0273 28.704 36.8369 28.704 35.5377V24.4674C28.704 22.2178 29.943 20.1523 31.996 18.9843C33.0805 18.3286 34.3192 17.9884 35.5786 18.0003Z" fill="white"/>
</svg>
