<svg width="40" height="40" viewBox="0 0 40 40" fill="none" xmlns="http://www.w3.org/2000/svg">
<rect width="40" height="40" rx="1" fill="#7ABBEB"/>
<path d="M28.625 14.5H20.3422C20.3148 14.5001 20.2877 14.4947 20.2624 14.4842C20.2371 14.4738 20.2142 14.4584 20.1949 14.4389L18.0611 12.3051C17.9646 12.208 17.8498 12.1311 17.7233 12.0788C17.5969 12.0264 17.4613 11.9996 17.3245 12H11.5417C11.2655 12.0003 11.0007 12.1102 10.8054 12.3054C10.6102 12.5007 10.5003 12.7655 10.5 13.0417V26.7917C10.5003 27.0678 10.6102 27.3326 10.8054 27.5279C11.0007 27.7232 11.2655 27.833 11.5417 27.8333H28.625C28.9012 27.833 29.1659 27.7232 29.3612 27.5279C29.5565 27.3326 29.6664 27.0678 29.6667 26.7917V15.5417C29.6664 15.2655 29.5565 15.0007 29.3612 14.8054C29.1659 14.6102 28.9012 14.5003 28.625 14.5ZM22.5833 21.1667H20.5V23.25C20.5 23.3605 20.4561 23.4665 20.378 23.5446C20.2998 23.6228 20.1938 23.6667 20.0833 23.6667C19.9728 23.6667 19.8668 23.6228 19.7887 23.5446C19.7106 23.4665 19.6667 23.3605 19.6667 23.25V21.1667H17.5833C17.4728 21.1667 17.3668 21.1228 17.2887 21.0446C17.2106 20.9665 17.1667 20.8605 17.1667 20.75C17.1667 20.6395 17.2106 20.5335 17.2887 20.4554C17.3668 20.3772 17.4728 20.3333 17.5833 20.3333H19.6667V18.25C19.6667 18.1395 19.7106 18.0335 19.7887 17.9554C19.8668 17.8772 19.9728 17.8333 20.0833 17.8333C20.1938 17.8333 20.2998 17.8772 20.378 17.9554C20.4561 18.0335 20.5 18.1395 20.5 18.25V20.3333H22.5833C22.6938 20.3333 22.7998 20.3772 22.878 20.4554C22.9561 20.5335 23 20.6395 23 20.75C23 20.8605 22.9561 20.9665 22.878 21.0446C22.7998 21.1228 22.6938 21.1667 22.5833 21.1667Z" fill="white"/>
</svg>
