<svg width="61" height="60" viewBox="0 0 61 60" fill="none" xmlns="http://www.w3.org/2000/svg">
<rect x="0.5" width="60" height="60" rx="1" fill="#4B9FDB"/>
<path d="M35.4175 21.0048V14.0146L43.4077 22.0048H36.4175C35.8652 22.0048 35.4175 21.5571 35.4175 21.0048Z" fill="white"/>
<path d="M18.822 14.0146C18.1431 14.0146 17.5928 14.565 17.5928 15.2439V44.7461C17.5928 45.425 18.1431 45.9754 18.822 45.9754H42.178C42.8569 45.9754 43.4072 45.425 43.4072 44.7461V22.6195H36.0317C35.3528 22.6195 34.8024 22.0691 34.8024 21.3902V14.0146H18.822Z" fill="white"/>
<path d="M30.6473 25.4385C31.7602 25.4385 32.6436 25.7425 33.2976 26.3506C33.9401 26.9357 34.2613 27.7446 34.2613 28.7771C34.2613 29.5458 34.0433 30.217 33.6074 30.7907C33.4123 31.0201 32.9477 31.4618 32.2134 32.1158C31.8462 32.4256 31.5766 32.7411 31.4045 33.0623C31.1865 33.4295 31.0776 33.8483 31.0776 34.3186V34.7145H29.7008V34.3186C29.7008 33.745 29.804 33.2459 30.0106 32.8214C30.2515 32.3051 30.8309 31.6397 31.7487 30.8251C32.07 30.5038 32.265 30.2973 32.3339 30.2055C32.678 29.7696 32.8501 29.3164 32.8501 28.846C32.8501 28.1691 32.6551 27.6356 32.265 27.2455C31.8749 26.8439 31.3127 26.6432 30.5785 26.6432C29.718 26.6432 29.0812 26.9242 28.6682 27.4864C28.2896 27.9683 28.1003 28.628 28.1003 29.4655H26.7407C26.7407 28.2494 27.0792 27.2856 27.7561 26.5743C28.4445 25.8171 29.4082 25.4385 30.6473 25.4385ZM30.3892 35.9191C30.6989 35.9191 30.9513 36.0167 31.1464 36.2117C31.3414 36.4068 31.439 36.6477 31.439 36.9345C31.439 37.2328 31.3357 37.4795 31.1292 37.6745C30.9112 37.8696 30.6645 37.9671 30.3892 37.9671C30.1138 37.9671 29.8671 37.8696 29.6492 37.6745C29.4541 37.4795 29.3566 37.2328 29.3566 36.9345C29.3566 36.6362 29.4541 36.3953 29.6492 36.2117C29.8442 36.0167 30.0909 35.9191 30.3892 35.9191Z" fill="#4B9FDB"/>
</svg>
