<svg width="48" height="48" viewBox="0 0 48 48" fill="none" xmlns="http://www.w3.org/2000/svg">
<rect width="48" height="48" rx="6" fill="#F2F3F5"/>
<path d="M34 16.5C34 15.9477 33.5523 15.5 33 15.5H15C14.4477 15.5 14 15.9477 14 16.5V30.0991C14 30.6514 14.4477 31.0991 15 31.0991H16.5C17.0523 31.0991 17.5 31.5468 17.5 32.0991L17.5 32.4181C17.5 33.2033 18.3636 33.6822 19.0297 33.2663L22.2569 31.2509C22.4158 31.1517 22.5993 31.0991 22.7866 31.0991H33C33.5523 31.0991 34 30.6514 34 30.0991L34 16.5Z" stroke="#4E5969" stroke-width="1.5" stroke-linecap="round" stroke-linejoin="round"/>
<path d="M27.5 20V20.9604" stroke="#4E5969" stroke-width="1.5" stroke-linecap="round" stroke-linejoin="round"/>
<path d="M20.5 20V20.9604" stroke="#4E5969" stroke-width="1.5" stroke-linecap="round" stroke-linejoin="round"/>
<path d="M27.3251 24.25C27.3251 24.25 26.3749 26.1032 23.9994 26.1032C21.624 26.1032 20.6738 24.25 20.6738 24.25" stroke="#4E5969" stroke-width="1.5" stroke-linecap="round" stroke-linejoin="round"/>
</svg>
