<svg width="30" height="30" viewBox="0 0 30 30" fill="none" xmlns="http://www.w3.org/2000/svg">
<rect width="30" height="30" rx="4" fill="#E2E2E2"/>
<path d="M9.744 15.176H4.808V17.384C4.808 17.6827 4.95467 17.832 5.248 17.832H9.264C9.40267 17.832 9.528 17.784 9.64 17.688C9.76267 17.5707 9.84533 17.0907 9.888 16.248L10.632 16.488C10.536 17.4907 10.4053 18.088 10.24 18.28C10.048 18.456 9.792 18.552 9.472 18.568H5.032C4.37067 18.568 4.04 18.2213 4.04 17.528V13.36H4.808V14.448H8.976V12.544H3.672V11.816H9.744V15.176ZM15.792 15.84C15.6747 16.0693 15.52 16.2907 15.328 16.504L14.888 15.968C15.2293 15.5947 15.456 15.1067 15.568 14.504L16.192 14.616C16.144 14.8507 16.1013 15.032 16.064 15.16H16.648V14.472H17.392V15.16H18.488V15.84H17.392V16.648H18.656V17.344H17.392V18.848H16.648V17.344H14.944V16.648H16.648V15.84H15.792ZM14.992 12.536V11.864H18.44C18.4347 13 18.3547 13.68 18.2 13.904C18.0507 14.128 17.7893 14.24 17.416 14.24C17.3147 14.24 17.088 14.2293 16.736 14.208L16.56 13.584C16.8427 13.6 17.0747 13.616 17.256 13.632C17.4533 13.6213 17.576 13.56 17.624 13.448C17.6667 13.352 17.696 13.048 17.712 12.536H16.696C16.6213 12.856 16.5067 13.1627 16.352 13.456C16.1387 13.7973 15.8267 14.1093 15.416 14.392L14.968 13.824C15.3093 13.6267 15.5627 13.4 15.728 13.144C15.8293 12.9787 15.9147 12.776 15.984 12.536H14.992ZM12.392 15.416V16.32H12.952V15.416H12.392ZM12.352 16.952C12.2827 17.72 12.104 18.3653 11.816 18.888L11.304 18.416C11.5867 17.8507 11.7333 17.128 11.744 16.248V13.864L11.336 13.368C11.784 12.8987 12.168 12.2453 12.488 11.408L13.176 11.568L13.008 11.992H14.368V12.512C14.208 12.8213 14.056 13.0827 13.912 13.296H14.768V18.136C14.768 18.552 14.5467 18.76 14.104 18.76H13.712L13.552 18.192V18.688H12.952V16.952H12.352ZM13.144 13.296C13.256 13.1307 13.3947 12.9013 13.56 12.608H12.712C12.5787 12.864 12.4427 13.0933 12.304 13.296H13.144ZM13.552 18.136C13.712 18.1573 13.824 18.168 13.888 18.168C14.048 18.168 14.128 18.0827 14.128 17.912V16.952H13.552V18.136ZM14.128 16.32V15.416H13.552V16.32H14.128ZM14.128 14.792V13.944H13.552V14.792H14.128ZM12.952 13.944H12.392V14.792H12.952V13.944ZM24.4 13.328C24.368 13.4453 24.3147 13.6107 24.24 13.824C24.416 14.6133 24.648 15.3147 24.936 15.928C25.2453 15.1707 25.4187 14.304 25.456 13.328H24.4ZM24.56 16.664C24.2667 16.0933 24.0213 15.4693 23.824 14.792C23.712 15 23.5787 15.2187 23.424 15.448L22.968 14.872C23.096 14.6533 23.216 14.4293 23.328 14.2H19.424V13.512H20.248V12.848H19.544V12.176H20.248V11.448H20.952V12.176H21.88V11.44H22.584V12.176H23.28V12.848H22.584V13.512H23.392V14.048C23.696 13.312 23.912 12.44 24.04 11.432L24.776 11.56C24.7227 11.9173 24.6587 12.264 24.584 12.6H26.576V13.328H26.152C26.0933 14.6453 25.8267 15.7653 25.352 16.688C25.7573 17.3333 26.2347 17.832 26.784 18.184L26.36 18.816C25.8267 18.4533 25.36 17.9653 24.96 17.352C24.5493 17.9387 24.0347 18.4347 23.416 18.84L23 18.192C23.6453 17.8027 24.1653 17.2933 24.56 16.664ZM20.952 13.512H21.88V12.848H20.952V13.512ZM20.648 16.36V16.832H22.2V16.36H20.648ZM22.2 15.728V15.24H20.648V15.728H22.2ZM20.648 17.464V18.8H19.92V14.576H22.92V18.032C22.92 18.5387 22.6667 18.792 22.16 18.792H21.464L21.28 18.112L21.928 18.144C22.1093 18.144 22.2 18.0533 22.2 17.872V17.464H20.648Z" fill="#777777"/>
</svg>
