<svg width="256" height="181" viewBox="0 0 256 181" fill="none" xmlns="http://www.w3.org/2000/svg">
<path d="M149.681 56.3182C151.422 55.6522 152.498 53.661 152.11 51.84C150.581 43.9817 149.048 36.1238 147.518 28.2669C147.28 27.4869 146.873 26.6617 146.085 26.3157C145.196 25.8697 144.025 26.0951 143.392 26.8702C142.113 28.3407 140.848 29.823 139.57 31.2936C133.853 26.6074 126.632 23.7893 119.251 23.3602C113.631 23.0203 107.98 24.0746 102.741 26.0893C96.1545 28.6157 90.189 32.5422 84.7993 37.0513C84.3344 37.3002 84.5497 38.0551 85.0591 38.0471C85.8258 37.8706 86.5521 37.5616 87.3066 37.3413C92.7374 35.6704 98.5092 34.7772 104.178 35.5481C108.167 36.0666 112.028 37.4228 115.516 39.416C119.306 41.5494 122.648 44.3625 125.923 47.1984C124.571 48.8008 123.155 50.3479 121.838 51.9759C120.954 53.2871 121.96 55.2582 123.532 55.3383C131.185 55.755 138.842 56.1318 146.497 56.533C147.56 56.5712 148.673 56.768 149.681 56.3182Z" fill="#56AA63"/>
<path d="M126.592 115.157L127.514 114.57C127.915 114.318 128.363 114.151 128.831 114.079C129.299 114.007 129.777 114.032 130.236 114.152C130.694 114.271 131.123 114.483 131.495 114.775C131.868 115.066 132.176 115.431 132.401 115.846C133.881 118.532 135.719 122.278 135.719 122.278L131.831 128.403L130.55 128.441C129.141 129.341 125.836 127.522 123.6 126.176C121.365 124.83 122.466 123.464 122.466 123.464C121.07 121.55 122.998 120.753 122.998 120.753C122.837 120.524 122.723 120.266 122.664 119.993C122.606 119.72 122.603 119.438 122.656 119.164C122.709 118.89 122.817 118.63 122.974 118.398C123.131 118.167 123.333 117.969 123.568 117.818" fill="#FFBE9D"/>
<path d="M104.227 140.145L96.746 101.268L124.534 95.9623L132.015 134.84L104.227 140.145Z" fill="white" stroke="#263238" stroke-width="0.3"/>
<path d="M101.264 110.126C101.264 110.037 105.882 109.08 111.615 107.982C117.348 106.885 122.011 106.068 122.03 106.164C122.049 106.26 117.438 107.217 111.673 108.308C105.908 109.399 101.276 110.216 101.264 110.126Z" fill="#263238"/>
<path d="M101.795 112.897C101.795 112.808 106.413 111.844 112.146 110.753C117.879 109.662 122.542 108.839 122.562 108.929C122.581 109.018 117.943 109.981 112.21 111.079C106.477 112.176 101.808 112.987 101.795 112.897Z" fill="#263238"/>
<path d="M102.326 115.657C102.326 115.568 106.945 114.611 112.677 113.514C118.41 112.416 123.08 111.599 123.093 111.695C123.106 111.791 118.474 112.748 112.742 113.839C107.009 114.93 102.339 115.747 102.326 115.657Z" fill="#263238"/>
<path d="M102.859 118.425C102.859 118.335 107.478 117.372 113.211 116.281C118.944 115.19 123.613 114.367 123.626 114.456C123.639 114.545 119.008 115.509 113.275 116.606C107.542 117.704 102.879 118.514 102.859 118.425Z" fill="#263238"/>
<path d="M103.391 121.189C103.391 121.099 108.009 120.142 113.742 119.045C119.475 117.947 124.144 117.131 124.157 117.226C124.17 117.322 119.545 118.279 113.806 119.37C108.067 120.461 103.41 121.278 103.391 121.189Z" fill="#263238"/>
<path d="M103.922 123.956C103.922 123.866 108.54 122.903 114.273 121.812C120.006 120.721 124.676 119.898 124.688 119.987C124.701 120.076 120.077 121.04 114.337 122.137C108.598 123.235 103.941 124.045 103.922 123.956Z" fill="#263238"/>
<path d="M104.453 126.724C104.453 126.635 109.071 125.677 114.804 124.58C120.537 123.483 125.207 122.666 125.226 122.762C125.245 122.857 120.64 123.814 114.875 124.905C109.11 125.996 104.472 126.813 104.453 126.724Z" fill="#263238"/>
<path d="M104.986 129.491C104.986 129.402 109.605 128.438 115.338 127.347C121.071 126.256 125.74 125.433 125.759 125.522C125.779 125.612 121.141 126.575 115.402 127.673C109.662 128.77 105.006 129.58 104.986 129.491Z" fill="#263238"/>
<path d="M105.518 132.251C105.518 132.162 110.136 131.205 115.869 130.107C121.602 129.01 126.271 128.193 126.291 128.289C126.31 128.385 121.672 129.342 115.933 130.433C110.194 131.524 105.537 132.341 105.518 132.251Z" fill="#263238"/>
<path d="M120.787 97.9732C120.886 98.1949 120.955 98.4288 120.992 98.6687L121.415 100.583C121.453 100.787 121.498 100.998 121.549 101.221C121.589 101.423 121.588 101.631 121.547 101.833C121.506 102.035 121.425 102.227 121.309 102.398C121.193 102.569 121.045 102.716 120.873 102.83C120.7 102.943 120.507 103.022 120.303 103.062C120.1 103.101 119.891 103.1 119.689 103.059C119.486 103.018 119.293 102.938 119.121 102.822C118.95 102.707 118.803 102.559 118.688 102.388C118.574 102.216 118.495 102.023 118.455 101.821L118.366 101.368C118.308 101.061 118.251 100.73 118.186 100.442C118.071 99.8257 117.956 99.2195 117.841 98.624C117.789 98.3305 117.732 98.0434 117.68 97.7626C117.608 97.4749 117.578 97.1784 117.591 96.8821C117.613 96.6028 117.692 96.3308 117.823 96.0829C117.954 95.8349 118.134 95.6162 118.353 95.4401C118.734 95.1359 119.21 94.9734 119.698 94.9807C120.046 94.9886 120.386 95.0862 120.684 95.264C120.983 95.4418 121.23 95.6938 121.402 95.9952C121.493 96.1559 121.555 96.3306 121.588 96.512C121.588 96.6333 121.588 96.6971 121.588 96.7035C121.498 96.4837 121.394 96.2704 121.274 96.0654C121.099 95.8053 120.863 95.592 120.586 95.444C120.309 95.2961 120 95.2181 119.685 95.2168C119.256 95.2216 118.842 95.375 118.513 95.6507C118.325 95.8091 118.172 96.0039 118.061 96.2233C117.951 96.4426 117.887 96.682 117.873 96.9268C117.869 97.1936 117.901 97.4597 117.969 97.718C118.02 98.0051 118.078 98.2922 118.135 98.5857C118.251 99.1727 118.366 99.7789 118.488 100.404C118.552 100.71 118.609 101.042 118.667 101.323L118.75 101.776C118.777 101.906 118.824 102.031 118.891 102.146C119.017 102.367 119.205 102.546 119.434 102.66C119.662 102.774 119.919 102.817 120.172 102.784C120.406 102.749 120.626 102.65 120.807 102.498C120.988 102.346 121.123 102.147 121.197 101.923C121.266 101.717 121.283 101.498 121.248 101.285C121.21 101.068 121.171 100.851 121.139 100.647C121.011 99.881 120.902 99.2302 120.819 98.7325C120.779 98.4814 120.769 98.2267 120.787 97.9732Z" fill="#263238"/>
<path d="M129.148 114.043C128.936 114.043 120.616 115.319 120.616 115.319C120.468 116.085 120.917 117.163 122.877 117.195C124.734 117.227 126.413 117.067 126.413 117.067C126.413 117.067 128.469 121.342 130.493 121.821C132.517 122.299 131.524 117.712 131.524 117.712L129.148 114.043Z" fill="#FFBE9D"/>
<path d="M182.626 115.709L154.057 134.334L136.653 120.813L131.234 129.37C131.234 129.37 141.368 141.053 145.121 145.021C148.875 148.99 151.386 151.102 154.339 150.725C157.292 150.349 182.036 140.778 182.036 140.778L185.79 114.656L184.214 115.033C183.649 115.163 183.111 115.392 182.626 115.709Z" fill="#467CF3"/>
<path d="M223.876 87.242C224.599 85.5703 225.33 83.8476 225.4 82.0164C225.471 80.1851 224.715 78.188 223.126 77.3777C221.666 76.612 219.866 76.9693 218.309 76.4206C216.388 75.7379 215.183 73.811 214.331 71.9223C213.479 70.0337 214.664 69.3701 213.223 67.8707C211.302 65.9565 210.072 65.6439 207.657 66.8306C205.921 65.6056 199.881 63.3851 198.138 63.3277C195.576 63.2512 192.617 63.4553 190.81 65.2993C189.414 66.7286 188.524 68.5534 186.807 69.5807C184.443 70.9971 181.433 69.7912 178.678 69.8933C178.395 69.8687 178.11 69.9209 177.854 70.0445C177.598 70.168 177.381 70.3583 177.224 70.5952C177.161 70.8285 177.148 71.0728 177.186 71.3116C177.225 71.5504 177.314 71.7782 177.449 71.9797L179.588 76.3823C179.006 76.6472 178.372 76.7768 177.733 76.7613C177.094 76.7458 176.466 76.5857 175.898 76.293C176.032 79.2124 177.19 81.9923 179.172 84.1475C179.039 84.0814 178.895 84.0436 178.747 84.0364C178.599 84.0292 178.452 84.0528 178.314 84.1057C178.176 84.1585 178.05 84.2395 177.945 84.3433C177.841 84.4472 177.759 84.5717 177.705 84.7089C177.507 85.2772 177.507 85.8954 177.705 86.4636C178.188 88.2382 179.047 89.889 180.225 91.3046C181.403 92.7202 182.872 93.8677 184.533 94.6696C186.194 95.4715 188.009 95.9091 189.854 95.9531C191.699 95.997 193.533 95.6461 195.23 94.9242L210.424 96.0663C210.631 96.6517 210.977 97.1783 211.434 97.6006C211.89 98.023 212.443 98.3285 213.044 98.4909C214.741 97.2148 215.017 96.5321 215.017 96.5321C216.061 97.3041 215.241 96.9149 216.061 97.3041C217.944 98.1974 220.73 97.1383 221.185 95.0454C221.289 94.1968 221.639 93.3965 222.191 92.7421C222.865 92.2162 223.62 91.8025 224.426 91.517C225.641 90.8999 226.618 89.9022 227.206 88.6776C226.581 88.6828 225.962 88.5578 225.389 88.3105C224.815 88.0633 224.3 87.6993 223.876 87.242Z" fill="#2F2F2F"/>
<path d="M213.127 80.7528L213.518 112.017C213.582 117.326 212.589 125.142 204.153 124.868C196.851 124.077 194.91 117.211 194.859 112.234C194.859 109.88 194.801 107.921 194.782 107.679C194.782 107.679 186.788 107.041 186.115 99.1607C185.789 95.3642 185.757 87.4779 185.814 80.3508C185.839 76.6555 187.262 73.1055 189.8 70.4098C192.337 67.7141 195.802 66.0713 199.503 65.8095L200.265 65.7521C208.522 65.6117 213.236 72.5091 213.127 80.7528Z" fill="#FFBE9D"/>
<path d="M194.781 107.658C198.431 107.384 201.926 106.073 204.851 103.881C204.851 103.881 202.762 109.808 194.826 109.674L194.781 107.658Z" fill="#EB996E"/>
<path d="M199.31 83.5572C199.464 83.7167 200.38 82.983 201.7 82.9192C203.019 82.8553 204.012 83.5572 204.153 83.3594C204.294 83.1616 204.057 82.9957 203.621 82.7214C203.041 82.3352 202.353 82.141 201.655 82.1662C200.956 82.1809 200.281 82.4229 199.733 82.8553C199.362 83.1871 199.234 83.487 199.31 83.5572Z" fill="#263238"/>
<path d="M199.073 86.4821C199.089 86.7597 199.215 87.0197 199.422 87.2059C199.629 87.3921 199.902 87.4897 200.181 87.4775C200.317 87.4792 200.452 87.4536 200.578 87.4021C200.704 87.3506 200.818 87.2743 200.914 87.1778C201.01 87.0813 201.085 86.9666 201.135 86.8404C201.185 86.7143 201.209 86.5794 201.206 86.4438C201.198 86.3047 201.163 86.1683 201.103 86.0426C201.043 85.9169 200.958 85.8043 200.854 85.7112C200.75 85.6181 200.628 85.5465 200.496 85.5003C200.364 85.4541 200.224 85.4343 200.085 85.4421C199.949 85.4429 199.815 85.4706 199.691 85.5235C199.566 85.5765 199.454 85.6536 199.359 85.7505C199.265 85.8473 199.191 85.9619 199.142 86.0875C199.093 86.2131 199.069 86.3473 199.073 86.4821Z" fill="#263238"/>
<path d="M195.999 92.72C195.344 92.5731 194.673 92.5025 194.001 92.5094C193.687 92.5094 193.36 92.4648 193.322 92.2542C193.271 91.9367 193.32 91.6111 193.463 91.3227L194.206 88.9044C195.231 85.4653 195.954 82.6451 195.814 82.6068C195.673 82.5686 194.725 85.3186 193.7 88.7641C193.456 89.6127 193.219 90.4166 192.995 91.1951C192.829 91.5806 192.804 92.0118 192.925 92.4137C192.976 92.52 193.051 92.6128 193.144 92.6848C193.238 92.7568 193.347 92.806 193.463 92.8285C193.637 92.8649 193.816 92.8778 193.994 92.8668C194.666 92.9031 195.34 92.8538 195.999 92.72Z" fill="#263238"/>
<path d="M199.874 78.599C200.002 78.8925 201.059 78.6755 202.328 78.7393C203.596 78.8031 204.64 79.0839 204.787 78.8031C204.851 78.6691 204.653 78.4012 204.224 78.1651C203.655 77.8479 203.02 77.6687 202.368 77.6421C201.717 77.6155 201.069 77.7422 200.476 78.0119C200.034 78.2097 199.817 78.465 199.874 78.599Z" fill="#263238"/>
<path d="M187.312 81.0404C187.446 81.2765 188.478 81.0404 189.733 80.9766C190.989 80.9128 192.02 81.0978 192.154 80.849C192.212 80.7278 192.001 80.5172 191.565 80.3258C190.979 80.0942 190.35 79.9919 189.72 80.0259C189.08 80.0419 188.451 80.1942 187.876 80.4725C187.446 80.6959 187.273 80.9256 187.312 81.0404Z" fill="#263238"/>
<path d="M212.896 86.6322C213.025 86.5684 218.207 84.6415 218.431 90.0331C218.655 95.4246 213.172 94.5377 213.153 94.3846C213.133 94.2315 212.896 86.6322 212.896 86.6322Z" fill="#FFBE9D"/>
<path d="M214.735 92.2914C214.735 92.2914 214.831 92.3488 214.998 92.419C215.224 92.5085 215.476 92.5085 215.702 92.419C216.266 92.1829 216.708 91.2577 216.695 90.2879C216.691 89.825 216.581 89.3691 216.375 88.9543C216.318 88.7875 216.221 88.6371 216.093 88.5159C215.964 88.3947 215.808 88.3065 215.638 88.2589C215.529 88.2351 215.415 88.2502 215.315 88.3015C215.216 88.3527 215.137 88.437 215.094 88.5396C215.023 88.6927 215.062 88.8012 215.036 88.8076C215.01 88.814 214.914 88.7246 214.946 88.5013C214.972 88.3642 215.044 88.2401 215.151 88.1504C215.222 88.0919 215.304 88.0483 215.392 88.022C215.48 87.9957 215.572 87.9872 215.664 87.9973C215.889 88.0275 216.101 88.1166 216.28 88.2556C216.459 88.3947 216.598 88.5785 216.682 88.7884C216.935 89.2461 217.069 89.7592 217.073 90.2815C217.073 91.3662 216.567 92.4062 215.792 92.6678C215.649 92.716 215.497 92.7312 215.347 92.7124C215.197 92.6937 215.054 92.6413 214.927 92.5593C214.754 92.3998 214.716 92.2914 214.735 92.2914Z" fill="#EB996E"/>
<path d="M197.274 96.457C197.216 96.3166 198.273 96.0039 199.022 95.0086C199.334 94.5761 199.586 94.104 199.772 93.6049C199.932 93.2093 200.047 92.9668 200.105 92.9668C200.163 92.9668 200.15 93.2475 200.06 93.675C199.946 94.245 199.708 94.7831 199.362 95.251C199.009 95.7216 198.532 96.0859 197.985 96.3038C197.568 96.4889 197.287 96.5016 197.274 96.457Z" fill="#263238"/>
<path d="M220.11 77.9019C218.982 75.9877 218.72 73.729 218.098 71.6043C217.477 69.4796 216.299 67.2846 214.21 66.5381H214.159C212.282 65.7852 209.97 65.7725 208.433 67.0677C208.048 64.2666 205.582 62.0462 202.834 61.3252C200.086 60.6042 195.679 61.0317 193.047 62.0909C191.01 62.9076 189.043 64.5793 186.641 67.0358C185.631 68.0715 184.708 69.1875 183.88 70.3728L181.51 77.7551C181.251 77.9402 181.024 78.1666 180.838 78.4251C180.649 78.7003 180.566 79.0341 180.605 79.3652C180.643 79.6963 180.801 80.0024 181.047 80.2274C181.294 80.4523 181.614 80.5811 181.949 80.5899C182.283 80.5987 182.61 80.4871 182.868 80.2754C183.112 80.6902 183.297 81.1113 183.509 81.5515L183.547 81.6281C183.668 81.8967 183.802 82.1586 183.951 82.4129L185.796 90.5354C185.917 88.3213 185.751 80.62 185.866 78.4123C187.538 78.3628 189.183 77.9773 190.702 77.2788C192.221 76.5804 193.583 75.5835 194.706 74.3479C195.916 73.008 196.871 71.3299 198.498 70.5196C200.592 69.4859 203.084 70.2388 205.294 71.0045L205.198 70.9216C206.35 71.4517 207.389 72.1968 208.26 73.1165C207.761 77.4918 208.215 81.9228 209.592 86.1073C209.797 86.7453 210.361 88.0214 210.982 88.2703C212.199 88.736 212.526 87.5046 213.256 86.8474C213.905 86.4066 214.692 86.214 215.472 86.3051C216.078 84.4706 216.574 82.6021 216.958 80.7093C217.694 80.9353 218.473 80.9878 219.232 80.8624C218.995 80.3073 218.765 79.7522 218.528 79.1907C218.818 79.4026 219.15 79.5525 219.501 79.631C219.678 79.6673 219.861 79.6482 220.027 79.5762C220.192 79.5042 220.331 79.3829 220.424 79.229C220.622 78.776 220.347 78.2975 220.11 77.9019Z" fill="#2F2F2F"/>
<path d="M205.947 68.001C206.226 68.2228 206.49 68.4637 206.735 68.722C207.361 69.4719 207.781 70.3713 207.952 71.3316C208.084 71.9913 208.151 72.6624 208.151 73.3351C208.151 74.0561 208.093 74.8345 208.042 75.6513C207.965 76.4997 207.946 77.3524 207.984 78.2035C208.007 78.6623 208.065 79.1187 208.157 79.5689C208.229 80.0487 208.421 80.5028 208.714 80.8897C208.852 81.042 209.027 81.1562 209.223 81.2211C209.418 81.2859 209.627 81.2993 209.829 81.2598C210.217 81.1879 210.571 80.9906 210.835 80.6983C211.264 80.1182 211.533 79.4363 211.616 78.7203H211.45C211.689 79.314 212.013 79.8705 212.41 80.3729C212.798 80.8344 213.348 81.1311 213.948 81.2023C214.227 81.231 214.508 81.1824 214.761 81.062C214.997 80.9421 215.189 80.7527 215.312 80.5196C215.431 80.3076 215.489 80.0668 215.479 79.8241C215.477 79.5881 215.388 79.3611 215.229 79.1861L215.146 79.2563C215.613 79.7983 216.192 80.2336 216.843 80.5324C217.016 80.6354 217.196 80.7271 217.381 80.8067C217.44 80.8308 217.503 80.8458 217.567 80.8514C217.511 80.8184 217.45 80.7927 217.387 80.7748C217.272 80.7302 217.099 80.66 216.881 80.5515C216.256 80.238 215.698 79.8043 215.242 79.2754L215.158 79.352C215.288 79.5172 215.362 79.7184 215.371 79.9276C215.38 80.1369 215.324 80.3438 215.21 80.5196C215.094 80.7245 214.92 80.8909 214.71 80.9982C214.481 81.106 214.225 81.148 213.973 81.1194C213.413 81.0478 212.902 80.7646 212.545 80.3282C212.158 79.822 211.845 79.2634 211.616 78.6693L211.501 78.414L211.45 78.6884C211.378 79.378 211.129 80.0375 210.726 80.6026C210.49 80.8632 210.175 81.0402 209.829 81.1066C209.657 81.1392 209.479 81.127 209.313 81.0711C209.147 81.0152 208.998 80.9175 208.881 80.7876C208.604 80.4286 208.426 80.0044 208.362 79.5561C208.27 79.1167 208.213 78.6709 208.189 78.2226C208.153 77.3718 208.167 76.5195 208.234 75.6704C208.285 74.8537 208.343 74.0753 208.33 73.3415C208.326 72.6593 208.25 71.9793 208.106 71.3125C207.921 70.3383 207.479 69.4308 206.825 68.6837C206.575 68.4068 206.278 68.1758 205.947 68.001Z" fill="#455A64"/>
<path d="M181.51 75.6541L181.574 75.7051L181.772 75.8519C181.88 75.9276 181.991 75.9979 182.105 76.0625C182.261 76.1545 182.421 76.2376 182.586 76.3113C183.644 76.793 184.807 77.0014 185.968 76.9174C187.693 76.8075 189.349 76.2001 190.734 75.1692C192.407 73.8973 193.8 72.2968 194.827 70.4667C195.403 69.516 195.871 68.5525 196.39 67.6338C196.864 66.7559 197.461 65.9502 198.164 65.241C198.796 64.5981 199.58 64.1241 200.444 63.8628C200.834 63.753 201.238 63.7077 201.642 63.7289C202.017 63.7484 202.388 63.8193 202.744 63.9394C203.357 64.1466 203.918 64.4816 204.39 64.922C204.747 65.2574 205.047 65.6472 205.281 66.0769C205.464 66.4522 205.599 66.8487 205.684 67.2573C205.684 67.2573 205.684 67.2254 205.684 67.1744C205.684 67.1233 205.684 67.0276 205.684 66.9319C205.618 66.6258 205.517 66.3282 205.383 66.045C205.141 65.5977 204.825 65.1943 204.448 64.8518C203.969 64.3897 203.397 64.035 202.77 63.8118C202.403 63.6868 202.022 63.6096 201.636 63.5821C201.215 63.5612 200.793 63.6064 200.387 63.7161C199.498 63.9813 198.69 64.4638 198.036 65.1198C197.32 65.8376 196.712 66.6542 196.23 67.5444C195.711 68.4568 195.243 69.4586 194.673 70.371C193.654 72.177 192.282 73.7609 190.638 75.0288C189.28 76.0495 187.657 76.6607 185.962 76.7898C184.819 76.8826 183.672 76.6964 182.618 76.2475C182.239 76.0683 181.869 75.8702 181.51 75.6541Z" fill="#455A64"/>
<path d="M180.791 72.1991C180.877 72.2762 180.971 72.3426 181.073 72.3969C181.342 72.5568 181.623 72.6975 181.912 72.818C182.342 73.0015 182.788 73.1466 183.244 73.2518C184.362 73.5131 185.52 73.55 186.652 73.3603C187.112 73.2844 187.564 73.1692 188.004 73.0158C188.299 72.9106 188.588 72.787 188.868 72.6457C188.972 72.5951 189.07 72.5353 189.163 72.467C189.163 72.467 188.708 72.6585 187.965 72.8882C187.525 73.023 187.075 73.1254 186.62 73.1944C186.066 73.2725 185.507 73.3066 184.948 73.2965C184.388 73.2729 183.831 73.2025 183.283 73.086C182.833 72.9903 182.392 72.8602 181.963 72.6967C181.233 72.416 180.81 72.1672 180.791 72.1991Z" fill="#455A64"/>
<path d="M187.275 84.0551C187.435 84.2146 188.345 83.4809 189.671 83.4171C190.997 83.3533 191.977 84.0551 192.118 83.8573C192.258 83.6595 192.021 83.4872 191.592 83.2193C191.011 82.8339 190.323 82.6398 189.626 82.6642C188.926 82.6731 188.249 82.9157 187.704 83.3533C187.275 83.685 187.173 83.9977 187.275 84.0551Z" fill="#263238"/>
<path d="M187.998 86.6599C188.016 86.9369 188.142 87.1959 188.349 87.3818C188.556 87.5677 188.828 87.6659 189.106 87.6553C189.243 87.657 189.378 87.6314 189.504 87.58C189.631 87.5286 189.745 87.4524 189.842 87.356C189.938 87.2596 190.014 87.1449 190.064 87.0187C190.115 86.8926 190.14 86.7576 190.138 86.6216C190.121 86.3435 189.996 86.0829 189.789 85.8956C189.581 85.7084 189.309 85.6094 189.029 85.6199C188.893 85.6199 188.758 85.6469 188.632 85.6993C188.506 85.7517 188.392 85.8285 188.296 85.9253C188.2 86.022 188.124 86.1368 188.073 86.2629C188.022 86.389 187.996 86.524 187.998 86.6599Z" fill="#263238"/>
<path d="M213.882 109.521C207.477 113.521 201.071 115.027 194.525 112.436L184.712 114.931L179.946 123.188C179.197 124.485 178.856 125.976 178.966 127.469L180.868 159.072L175.104 179.145L231.677 179.63L228.89 164.719L221.876 111.122L213.882 109.521Z" fill="#467CF3"/>
<path d="M222.504 135.182L220.736 110.987C220.736 110.987 234.053 112.212 238.46 121.573C242.169 129.459 253.315 152.384 254.41 155.626C257.613 165.152 251.707 179.049 230.972 178.289L228.609 165.343L222.504 135.182Z" fill="#467CF3"/>
<path d="M233.17 155.323C233.252 155.649 233.362 155.967 233.497 156.274C233.727 156.855 234.067 157.646 234.457 158.507L235.457 160.721C235.58 161.033 235.725 161.336 235.892 161.627C235.809 161.301 235.698 160.983 235.559 160.677C235.335 160.096 234.995 159.311 234.605 158.443C234.214 157.576 233.881 156.842 233.605 156.229C233.481 155.918 233.335 155.615 233.17 155.323Z" fill="#263238"/>
<path d="M225.798 136.28C225.842 136.28 225.881 134.749 225.881 132.86C225.881 130.971 225.842 129.434 225.798 129.434C225.753 129.434 225.721 130.965 225.721 132.86C225.721 134.755 225.759 136.28 225.798 136.28Z" fill="#263238"/>
<path d="M227.758 125.98C227.814 125.859 227.855 125.73 227.88 125.598C227.944 125.349 228.052 124.96 228.2 124.558C228.578 123.424 229.074 122.334 229.679 121.304C230.288 120.273 231.005 119.311 231.819 118.432C232.126 118.094 232.389 117.794 232.575 117.647C232.676 117.561 232.768 117.465 232.85 117.36C232.735 117.426 232.629 117.508 232.536 117.603C232.255 117.838 231.988 118.089 231.736 118.356C230.039 120.089 228.788 122.206 228.091 124.526C227.981 124.873 227.891 125.227 227.822 125.585C227.789 125.715 227.768 125.847 227.758 125.98Z" fill="#263238"/>
<path d="M180.779 124.478C180.836 124.737 180.862 125.003 180.856 125.269C180.856 125.779 180.894 126.545 180.856 127.432C180.856 129.257 180.644 131.771 180.42 134.54C180.207 136.896 180.113 139.262 180.138 141.628C180.138 142.534 180.19 143.275 180.235 143.779C180.26 144.042 180.26 144.307 180.235 144.57C180.153 144.318 180.104 144.056 180.087 143.791C180.004 143.287 179.933 142.554 179.882 141.641C179.788 139.264 179.85 136.883 180.068 134.514C180.292 131.739 180.516 129.237 180.6 127.419C180.644 126.513 180.67 125.779 180.683 125.269C180.69 125.003 180.722 124.738 180.779 124.478Z" fill="#263238"/>
<path d="M241.651 159.773C241.363 159.968 241.059 160.138 240.742 160.283C240.146 160.596 239.301 161.062 238.269 161.68C237.238 162.299 236.021 163.046 234.605 163.78C233.894 164.143 233.139 164.507 232.344 164.852L229.872 165.873L229.109 166.185L229.212 166C229.756 169.426 230.224 172.496 230.544 174.71C230.698 175.775 230.82 176.656 230.909 177.326C230.973 177.643 231.003 177.966 230.999 178.289C230.903 177.98 230.833 177.665 230.788 177.345C230.666 176.675 230.512 175.801 230.32 174.748C229.936 172.54 229.43 169.478 228.879 166.058V165.924L229.001 165.873L229.763 165.566L232.235 164.552C233.03 164.214 233.779 163.863 234.484 163.505C235.899 162.797 237.123 162.063 238.173 161.476C239.224 160.889 240.095 160.443 240.735 160.168C241.043 160.022 241.28 159.926 241.446 159.856C241.613 159.785 241.645 159.76 241.651 159.773Z" fill="#263238"/>
<path d="M244.667 155.626C244.667 155.684 243.994 155.811 242.957 156.2C241.61 156.707 240.355 157.429 239.241 158.338C238.132 159.252 237.182 160.343 236.429 161.566C235.853 162.504 235.597 163.149 235.539 163.13C235.554 162.966 235.598 162.806 235.667 162.657C235.821 162.239 236.007 161.834 236.224 161.445C237.668 158.849 240.047 156.895 242.88 155.977C243.298 155.839 243.726 155.734 244.161 155.664C244.326 155.624 244.497 155.611 244.667 155.626Z" fill="#263238"/>
<path d="M223.146 179.369L237.046 145.961C237.686 144.436 236.885 143.198 235.265 143.198H232.472C231.332 143.198 230.55 142.56 230.48 141.597L230.384 140.372C230.313 139.389 229.532 138.764 228.392 138.764H215.075C213.915 138.817 212.818 139.302 212 140.123L210.918 141.163C210.099 141.981 209.002 142.464 207.843 142.515H190.92C190.057 142.564 189.224 142.847 188.511 143.334C187.799 143.821 187.234 144.494 186.878 145.278L173.1 179.369H223.146Z" fill="#224287"/>
<g opacity="0.3">
<path d="M223.146 179.369L237.046 145.96C237.686 144.435 236.885 143.197 235.265 143.197H232.472C231.332 143.197 230.55 142.559 230.48 141.596L230.384 140.371C230.313 139.388 229.532 138.763 228.392 138.763H215.075C213.915 138.816 212.818 139.301 212 140.122L210.918 141.162C210.099 141.98 209.002 142.463 207.843 142.514H190.92C190.057 142.563 189.224 142.846 188.511 143.333C187.799 143.82 187.234 144.493 186.878 145.277L173.1 179.369H223.146Z" fill="#2D2D2D"/>
</g>
<path d="M225.413 168.025L230.659 147.831C231.005 146.503 230.128 145.17 228.911 145.17H187.819C187.402 145.189 187.002 145.347 186.685 145.619C186.368 145.891 186.152 146.261 186.071 146.669L178.442 177.06C178.102 178.393 178.64 179.197 179.857 179.185H221.224C221.636 179.162 222.029 179.003 222.34 178.734C222.652 178.465 222.866 178.101 222.947 177.698L225.413 168.025Z" fill="#E0E0E0"/>
<path d="M222.575 178.43L224.81 146.635C224.829 146.368 224.792 146.101 224.702 145.848C224.612 145.596 224.471 145.365 224.288 145.17C224.105 144.974 223.883 144.818 223.637 144.711C223.391 144.604 223.125 144.549 222.857 144.549H180.279V178.43H222.575Z" fill="#EBEBEB"/>
<path d="M223.048 179.185L218.02 146.402C217.9 145.879 217.605 145.413 217.184 145.08C216.762 144.747 216.239 144.567 215.701 144.57H172.598C172.211 144.566 171.829 144.658 171.487 144.838C171.144 145.018 170.852 145.28 170.637 145.6C170.421 145.92 170.289 146.289 170.253 146.673C170.216 147.057 170.276 147.444 170.427 147.799L179.728 177.788L223.048 179.185Z" fill="#FAFAFA"/>
<path d="M223.145 179.354L212.698 148.657C212.499 148.042 212.111 147.505 211.59 147.121C211.068 146.738 210.438 146.527 209.79 146.52H165.361C165.021 146.531 164.688 146.621 164.39 146.784C164.092 146.947 163.836 147.178 163.643 147.457C163.45 147.736 163.327 148.057 163.281 148.393C163.236 148.729 163.27 149.071 163.382 149.391L173.099 179.379L223.145 179.354Z" fill="#224287"/>
<g opacity="0.3">
<path d="M201.649 174.216C201.649 174.216 203.327 174.293 204.102 174.344C207.8 174.589 211.503 173.932 214.889 172.429C215.933 171.97 217.034 171.313 217.355 170.215C217.707 168.99 216.913 167.714 215.939 166.885C214.966 166.055 213.781 165.462 212.941 164.498C212.102 163.535 211.699 161.984 212.525 161.015L212.756 161.187C213.358 162.699 215.03 163.433 216.413 164.301C219.018 165.932 220.951 168.437 221.864 171.364C222.351 172.953 222.505 174.809 221.512 176.162C220.753 177.074 219.738 177.74 218.597 178.076C215.235 179.352 211.647 179.352 208.06 179.352C206.933 179.352 203.455 179.301 203.455 179.301C202.366 179.008 202.001 178.44 201.347 177.521C200.694 176.602 200.848 174.873 201.649 174.216Z" fill="black"/>
</g>
<path d="M201.649 174.215L213.23 172.479L217.714 169.927C218.009 169.764 218.259 169.53 218.439 169.246C218.619 168.961 218.725 168.636 218.745 168.3V168.217C218.755 167.801 218.638 167.391 218.41 167.042C218.181 166.694 217.851 166.422 217.464 166.265C216.035 165.665 213.781 164.874 212.814 163.189C211.43 160.771 212.814 160.273 212.814 160.273L222.486 164.102L229.333 168.747L230.736 176.512L221.179 179.619C221.179 179.619 210.54 180.219 207.599 179.894C204.659 179.568 204.666 178.203 204.666 178.203C204.121 178.03 203.013 177.067 203.02 176.167C201.591 174.834 201.649 174.209 201.649 174.209" fill="#FFBE9D"/>
<path d="M216.463 177.55C216.3 177.562 216.139 177.592 215.983 177.639C215.682 177.716 215.24 177.811 214.702 177.92C213.28 178.199 211.839 178.369 210.391 178.43C208.945 178.483 207.497 178.423 206.061 178.252C205.504 178.188 205.062 178.124 204.78 178.073C204.62 178.04 204.457 178.023 204.293 178.022C204.447 178.08 204.605 178.122 204.767 178.15C205.068 178.226 205.51 178.309 206.048 178.392C208.941 178.821 211.889 178.706 214.74 178.054C215.285 177.926 215.72 177.811 216.021 177.716C216.173 177.674 216.321 177.618 216.463 177.55Z" fill="#EB996E"/>
<path d="M215.401 175.763C215.239 175.781 215.078 175.813 214.921 175.858C214.613 175.929 214.165 176.031 213.64 176.133C212.194 176.408 210.729 176.57 209.258 176.618C207.788 176.66 206.317 176.592 204.858 176.414C204.294 176.35 203.846 176.286 203.532 176.235C203.372 176.198 203.209 176.179 203.045 176.177C203.198 176.236 203.357 176.279 203.519 176.305C203.826 176.382 204.275 176.465 204.838 176.554C206.303 176.769 207.785 176.855 209.265 176.809C210.746 176.769 212.219 176.587 213.665 176.267C214.098 176.175 214.525 176.062 214.946 175.929C215.104 175.893 215.257 175.837 215.401 175.763Z" fill="#EB996E"/>
<path d="M31.0546 109.431C29.1741 107.748 25.9571 109.209 24.3797 111.136C22.8023 113.062 21.6833 115.533 19.2822 116.507C16.8811 117.481 13.7729 116.636 11.7604 118.183C8.98631 120.332 10.5404 125.23 7.54099 127.071C6.3521 127.787 4.78245 127.787 3.50809 128.389C0.508673 129.821 0.539754 133.71 1.00598 136.79C1.65871 141.087 2.36583 145.599 4.96118 149.252C7.55654 152.904 12.5841 155.483 17.0676 154.072C21.3725 152.718 23.5871 148.428 25.3355 144.561L32.6087 128.489C34.0151 125.388 35.4294 122.244 35.8878 118.913C36.3463 115.583 35.7246 111.988 33.4323 109.381" fill="#263238"/>
<path d="M25.9516 77.7982C25.8972 76.0221 27.6767 74.6541 29.4639 74.0024C31.2511 73.3506 33.2481 73.1071 34.8489 72.1188C36.2631 71.2379 37.18 69.8699 38.4078 68.7526C39.8847 67.3724 41.7336 66.3793 43.7646 65.8754C45.7956 65.3715 47.9355 65.3749 49.9646 65.8853C51.9937 66.3957 53.8389 67.3947 55.3106 68.7796C56.7824 70.1646 57.8277 71.8856 58.3391 73.766C59.0229 76.2942 58.5567 79.2736 56.3965 80.928C53.8866 82.8761 50.1801 82.4392 46.9553 81.8376C43.7306 81.236 40.1095 80.6344 37.4287 82.3676C35.8124 83.4204 34.8799 85.125 33.8931 86.6648C32.9062 88.2046 31.663 89.859 29.798 90.4535C27.9331 91.0479 25.3844 90.0238 25.3145 88.1974" fill="#263238"/>
<path d="M26.0821 78.7438C26.2919 80.2264 25.1263 81.5585 23.9607 82.6113C22.7952 83.6641 21.4897 84.7599 21.2799 86.2568C21.0468 87.9971 22.4222 89.7088 22.057 91.4206C21.8083 92.502 20.8914 93.34 20.3319 94.3283C19.5913 95.7508 19.469 97.3804 19.99 98.8833C20.4718 100.38 21.2333 103.725 22.36 104.892C25.7646 108.286 30.1601 110.701 35.0182 111.847C39.6191 112.702 44.3296 112.943 49.0051 112.563C52.8359 112.348 57.2341 112.513 60.42 107.657C62.0751 105.143 62.891 101.805 63.7691 98.9765C64.5461 96.5485 65.1755 93.9631 64.3907 91.5208C63.9322 90.0884 63.0153 88.8494 62.5646 87.4385C61.9974 85.6695 62.1994 83.7787 61.9741 81.9524C61.7281 79.9623 60.9703 78.055 59.7636 76.3892C58.5569 74.7234 56.9361 73.3471 55.0361 72.3749C53.1362 71.4026 51.0118 70.8624 48.8397 70.7992C46.6676 70.736 44.5105 71.1517 42.5478 72.0116" fill="#263238"/>
<path d="M60.0995 84.8726C59.742 79.8091 56.0821 73.6068 50.6117 74.1296L33.5165 78.1475C32.7144 78.2263 31.9737 78.58 31.4412 79.1385C30.9087 79.6969 30.6233 80.4194 30.6414 81.1627L32.5608 119.121H32.4442C32.4442 119.121 36.3295 129.864 47.6278 126.563C49.8657 125.911 50.8914 123.655 51.3343 121.334H51.4509C51.4509 121.055 51.4509 120.797 51.4509 120.539C51.6722 118.808 51.6956 117.061 51.5208 115.325C51.5208 112.253 51.5208 111.028 51.5208 111.028C51.5208 111.028 58.5143 109.94 59.9674 101.496C60.7366 97.3774 60.4958 90.4947 60.0995 84.8726Z" fill="#FFBE9D"/>
<path d="M59.214 89.925C59.2183 90.207 59.1029 90.4794 58.8925 90.6841C58.682 90.8888 58.3931 91.0096 58.0873 91.0208C57.938 91.0315 57.7879 91.0147 57.6458 90.9713C57.5037 90.9279 57.3723 90.8589 57.2595 90.7682C57.1466 90.6775 57.0545 90.567 56.9885 90.4431C56.9225 90.3193 56.884 90.1845 56.8751 90.0468C56.8708 89.7648 56.9862 89.4924 57.1967 89.2877C57.4072 89.083 57.6961 88.9621 58.0018 88.951C58.1513 88.9393 58.3019 88.9554 58.4445 88.9984C58.5871 89.0414 58.7188 89.1103 58.8319 89.2012C58.945 89.2921 59.0371 89.403 59.1027 89.5273C59.1684 89.6517 59.2062 89.7869 59.214 89.925Z" fill="#263238"/>
<path d="M58.4843 88.4443C58.3445 88.5875 57.4508 87.9788 56.1532 87.9859C54.8555 87.9931 53.9697 88.5732 53.822 88.43C53.6744 88.2867 53.9075 88.1149 54.3038 87.8427C54.85 87.4906 55.5022 87.3052 56.1687 87.3127C56.8262 87.3085 57.4683 87.4965 58.0026 87.8499C58.4299 88.122 58.562 88.3798 58.4843 88.4443Z" fill="#263238"/>
<path d="M46.4328 90.3264C46.435 90.609 46.3179 90.8814 46.1062 91.0859C45.8944 91.2904 45.6047 91.411 45.2983 91.4222C45.149 91.4329 44.9989 91.4161 44.8567 91.3727C44.7146 91.3293 44.5833 91.2603 44.4704 91.1696C44.3575 91.0789 44.2654 90.9684 44.1994 90.8445C44.1334 90.7206 44.0949 90.5859 44.0861 90.4481C44.0818 90.1661 44.1972 89.8937 44.4076 89.689C44.6181 89.4843 44.907 89.3635 45.2128 89.3523C45.3627 89.3406 45.5136 89.3567 45.6566 89.3996C45.7997 89.4425 45.932 89.5114 46.0457 89.6022C46.1594 89.693 46.2522 89.8038 46.3187 89.9282C46.3852 90.0526 46.424 90.188 46.4328 90.3264Z" fill="#263238"/>
<path d="M46.0672 88.6885C45.9273 88.8245 45.0337 88.2229 43.736 88.2301C42.4383 88.2372 41.5525 88.8174 41.4048 88.6741C41.2572 88.5309 41.4825 88.359 41.8866 88.0868C42.4328 87.7347 43.0851 87.5494 43.7515 87.5569C44.4064 87.5541 45.0455 87.7421 45.5776 88.094C46.005 88.3662 46.1371 88.624 46.0672 88.6885Z" fill="#263238"/>
<path d="M50.6776 97.3102C51.3431 97.117 52.0323 97.0015 52.729 96.9664C53.0554 96.9664 53.3584 96.8733 53.4128 96.6727C53.4356 96.3658 53.3599 96.0594 53.1952 95.7918L52.2317 93.5286C50.9029 90.3057 49.9005 87.6558 50.0793 87.6128C50.258 87.5699 51.4158 90.1339 52.7445 93.3424C53.0631 94.1374 53.374 94.8894 53.6615 95.6128C53.8652 95.9714 53.9257 96.3846 53.8324 96.7802C53.7883 96.8864 53.7174 96.9815 53.6255 97.0575C53.5336 97.1335 53.4234 97.1882 53.304 97.2171C53.1268 97.2625 52.944 97.2866 52.7601 97.2887C52.0695 97.3746 51.3701 97.3818 50.6776 97.3102Z" fill="#263238"/>
<path d="M51.5841 111.096C47.2737 111.17 43.0257 110.138 39.3145 108.116C39.3145 108.116 42.2983 113.91 51.4598 113.13L51.5841 111.096Z" fill="#EB996E"/>
<path d="M50.1465 100.134C49.9051 99.8553 49.5908 99.6383 49.2333 99.503C48.8757 99.3677 48.4867 99.3185 48.1028 99.36C47.8249 99.386 47.5553 99.4627 47.3099 99.5857C47.0644 99.7087 46.8479 99.8754 46.6731 100.076C46.5041 100.271 46.4038 100.508 46.3858 100.756C46.3677 101.005 46.4327 101.252 46.572 101.466C46.7775 101.673 47.0447 101.821 47.3404 101.89C47.6361 101.958 47.9472 101.945 48.2349 101.852C48.8288 101.653 49.375 101.349 49.8434 100.957C49.9872 100.867 50.109 100.75 50.2009 100.613C50.2487 100.549 50.2742 100.473 50.2742 100.395C50.2742 100.317 50.2487 100.241 50.2009 100.176" fill="#EB996E"/>
<path d="M46.9594 98.1388C47.1615 98.1388 47.1692 99.3921 48.3426 100.287C49.5159 101.183 50.9768 101.047 50.9923 101.218C51.0079 101.39 50.666 101.469 50.0521 101.483C49.2457 101.491 48.4619 101.238 47.8375 100.767C47.2395 100.317 46.855 99.6695 46.7652 98.9624C46.7108 98.4396 46.8662 98.1316 46.9594 98.1388Z" fill="#263238"/>
<path d="M46.6351 86.6285C46.5108 86.9436 45.252 86.8003 43.7678 86.9651C42.2837 87.1298 41.087 87.5094 40.8927 87.2229C40.7995 87.0868 41.0093 86.7932 41.4911 86.5067C42.1345 86.1289 42.863 85.8913 43.621 85.8118C44.3791 85.7324 45.1468 85.8133 45.8659 86.0483C46.4331 86.2489 46.6895 86.4995 46.6351 86.6285Z" fill="#263238"/>
<path d="M58.0187 85.0799C57.7933 85.3449 56.923 85.0799 55.874 85.0799C54.825 85.0799 53.9469 85.259 53.7371 84.9868C53.6516 84.8507 53.7915 84.5857 54.1723 84.3351C54.6929 84.0346 55.2986 83.8831 55.9126 83.8997C56.5267 83.9162 57.1216 84.1002 57.6224 84.4282C57.9876 84.6789 58.0886 84.951 58.0187 85.0799Z" fill="#263238"/>
<path d="M27.1445 105.928C28.4091 106.162 29.716 106.116 30.9573 105.793C32.1986 105.469 33.3386 104.879 34.2831 104.069C35.2276 103.259 35.9495 102.254 36.389 101.136C36.8286 100.019 36.9733 98.8206 36.8111 97.6412C36.5313 95.5642 35.3191 93.4586 36.0962 91.4962C37.1296 88.9036 41.0693 88.1086 42.1183 85.516C42.7244 84.0119 42.1805 82.2573 42.8954 80.7819C43.6103 79.3065 45.1255 78.5975 46.6641 78.0818C48.2026 77.5661 49.8578 77.2152 51.1477 76.2913C52.4376 75.3674 53.2457 73.6127 52.4142 72.3164C45.5748 73.0721 38.8577 74.5772 32.4052 76.7998C30.9132 77.3083 29.3436 77.9314 28.4655 79.1561C27.5875 80.3808 27.5719 82.1212 27.6885 83.6753C28.077 91.2527 28.4603 98.8277 28.8385 106.4" fill="#263238"/>
<path d="M84.451 167.523L97.9406 143.867L91.3279 137.313L74.3027 152.404L79.0738 164.522L84.451 167.523Z" fill="#F49E13"/>
<path d="M53.4727 122.098C56.2583 123.022 58.8189 124.444 61.0082 126.281C63.1975 128.118 64.9725 130.335 66.2318 132.805L83.6222 166.91L102.873 180.374H92.5614L73.6294 168.07L53.4727 122.098Z" fill="#E66D1E"/>
<path d="M92.6719 180.496H79.0666L47.5805 150.645L29.584 120.679L31.6665 115.107L45.6534 120.45L49.6708 125.113L51.7455 118.624L52.6391 119.791L54.0922 123.415C54.0922 123.415 67.7527 133.893 70.7055 142.201C73.161 149.141 72.3917 163.465 73.8914 167.354L92.6719 180.496Z" fill="#FAFAFA"/>
<path d="M26.2274 120.297C26.0176 120.877 12.7689 125.783 12.1394 130.059C11.51 134.335 21.6583 167.394 21.6583 167.394L25.6853 180.501H37.7511H79.0669L65.958 157.876C63.1325 152.999 59.5603 148.522 55.3513 144.583C51.466 140.959 46.8037 136.476 44.356 133.805C41.7373 130.904 30.6333 117.332 30.6333 117.332L26.2274 120.297Z" fill="#E66D1E"/>
<path d="M34.5371 121.64C35.342 121.902 36.1217 122.225 36.8683 122.607C38.2903 123.251 40.2407 124.154 42.3853 125.178L44.8253 126.352L44.5455 126.524C44.4522 125.187 44.5383 123.845 44.802 122.528C44.8755 122.006 45.0299 121.498 45.2604 121.017C45.216 121.535 45.1434 122.052 45.0428 122.564C44.8609 123.867 44.8218 125.185 44.9263 126.496V126.811L44.6232 126.667L42.1755 125.514C40.0309 124.49 38.1038 123.545 36.7362 122.843C35.9714 122.493 35.2363 122.091 34.5371 121.64Z" fill="#263238"/>
<path d="M53.6651 123.43C53.4667 123.849 53.2051 124.239 52.888 124.59L52.7248 124.805L52.6394 124.54C52.3752 123.731 52.0333 122.592 51.6914 121.325C51.6914 121.224 51.637 121.131 51.6059 121.038L51.9866 121.081C50.7433 123.23 49.9818 125.056 49.873 125.02C50.2357 123.578 50.8274 122.192 51.6292 120.909L51.8701 120.479L52.0022 120.945C52.0022 121.038 52.0566 121.138 52.0799 121.232C52.4296 122.499 52.7248 123.645 52.9113 124.476L52.6627 124.433C52.9449 124.058 53.2823 123.72 53.6651 123.43Z" fill="#263238"/>
<path d="M66.3952 151.796C66.1477 151.49 65.9268 151.167 65.7347 150.829L64.0485 148.129C62.6343 145.845 60.6683 142.7 58.4382 139.255C56.2081 135.811 54.1411 132.724 52.6414 130.489L50.8697 127.839C50.6344 127.524 50.429 127.191 50.2559 126.844C50.5448 127.127 50.8049 127.434 51.0329 127.76C51.4836 128.362 52.1286 129.243 52.9134 130.346C54.4675 132.545 56.5811 135.617 58.819 139.069C61.0569 142.521 62.9762 145.687 64.3283 148C65.0121 149.161 65.5482 150.099 65.8824 150.758C66.0879 151.088 66.2596 151.436 66.3952 151.796Z" fill="#263238"/>
<g opacity="0.3">
<path d="M60.0323 174.828C62.4334 175.207 64.8966 175.544 67.2899 175.164C69.6833 174.785 72.0299 173.352 72.7759 171.218C72.8958 170.521 73.2059 169.863 73.6773 169.306C74.5942 168.518 76.0706 169.005 77.3217 168.898C78.0184 168.801 78.6813 168.556 79.2583 168.183C79.8354 167.81 80.3108 167.32 80.6474 166.749C81.3147 165.608 81.7841 164.378 82.0384 163.103C82.2402 162.489 82.3243 161.847 82.287 161.206C82.2629 160.887 82.152 160.578 81.9646 160.309C81.7772 160.04 81.5193 159.819 81.2147 159.666C80.2667 159.272 79.2021 159.845 78.3552 160.382C71.5404 164.908 65.3318 170.144 59.1387 175.372" fill="black"/>
</g>
<path d="M92.6363 156.366L112.614 113.838C112.614 113.838 101.028 127.209 94.9675 127.088C94.9675 127.088 88.2693 140.695 83.9567 151.496L77.3828 167.137L92.6363 156.366Z" fill="white"/>
<path d="M92.6366 156.381C92.562 156.456 92.4786 156.523 92.3879 156.581L91.6109 157.147L88.6037 159.296L77.453 167.246L77.0645 167.525L77.2432 167.102C79.3801 161.967 81.9055 155.844 84.765 149.025C87.6246 142.207 90.9814 134.773 94.7734 127.017L94.8278 126.909H94.96C96.1563 126.843 97.318 126.514 98.3479 125.95C101.202 124.366 103.816 122.439 106.118 120.22C108.45 118.071 110.54 115.923 112.467 113.774L113.353 112.771L112.793 113.96C106.981 126.257 101.969 136.879 98.3945 144.449C96.5995 148.202 95.1775 151.196 94.1907 153.265C93.7011 154.275 93.3204 155.063 93.0484 155.614C92.9241 155.865 92.823 156.066 92.7531 156.216C92.6832 156.366 92.6443 156.417 92.6366 156.409L92.722 156.195C92.792 156.037 92.8852 155.837 92.994 155.572L94.0819 153.194C95.0454 151.11 96.413 148.094 98.1847 144.32C101.728 136.75 106.686 126.121 112.436 113.817L112.77 113.996C110.768 116.267 108.641 118.443 106.398 120.514C104.077 122.764 101.437 124.715 98.5499 126.315C97.4608 126.917 96.2282 127.263 94.96 127.325L95.1464 127.21C91.3855 134.959 87.9665 142.379 85.1147 149.19C82.2629 156.001 79.6754 162.118 77.5074 167.231L77.2976 167.088L88.5027 159.21L91.5565 157.097L92.3335 156.553C92.5356 156.438 92.6366 156.381 92.6366 156.381Z" fill="#263238"/>
<path d="M75.9068 148.744C75.9068 148.744 78.44 143.379 79.792 142.635C81.1441 141.89 89.4042 138.423 89.4042 138.423L88.5572 140.128L96.7861 135.602C96.9593 136.142 96.9918 136.712 96.8811 137.265C96.7704 137.819 96.5196 138.341 96.149 138.789C94.8668 140.407 95.2942 140.264 95.2942 140.264C95.2942 140.264 96.6851 141.03 95.9858 142.176C95.4159 143.058 94.7879 143.907 94.1053 144.719C94.1053 144.719 95.3875 146.151 94.8824 147.512C95.1944 148.419 95.2585 149.384 95.0689 150.319C94.7658 151.952 91.5644 155.061 91.5644 155.061L75.5804 162.072L69.1387 151.988L75.9068 148.744Z" fill="#FFBE9D"/>
<path d="M40.6527 140.175L50.2415 159.04L71.5016 150.524C71.5016 150.524 80.3211 155.273 79.1011 160.458L59.9468 174.961C58.153 176.319 56.0785 177.328 53.8491 177.925C51.6198 178.522 49.2821 178.695 46.9779 178.435C44.5055 178.156 42.1287 177.384 40.0126 176.173C37.8964 174.963 36.0917 173.342 34.7237 171.423L20.8612 151.978L13.0906 140.297C11.8462 138.477 11.2132 136.358 11.2712 134.207C11.3293 132.056 12.0758 129.969 13.417 128.208C14.154 127.264 15.083 126.461 16.1522 125.844C19.6334 123.903 29.9138 123.058 40.6527 140.175Z" fill="#E66D1E"/>
<path d="M79.4947 160.478L79.7045 160.364L80.3184 160.063L82.7195 158.96L91.4769 154.949H91.438C92.4445 153.96 93.3546 152.891 94.1577 151.755C94.6058 151.17 94.8743 150.485 94.9347 149.771C95.0079 149.025 94.9235 148.274 94.6861 147.558V147.493V147.443C94.7946 146.984 94.7843 146.507 94.656 146.052C94.5278 145.596 94.2852 145.175 93.9479 144.822L93.8546 144.707L93.9479 144.6C94.4996 143.927 95.0513 143.211 95.5486 142.451C95.6925 142.299 95.8024 142.122 95.8717 141.93C95.9411 141.738 95.9686 141.536 95.9527 141.334C95.8353 140.94 95.5567 140.604 95.1756 140.396H95.3543C95.2979 140.414 95.2364 140.414 95.1799 140.396C95.1234 140.378 95.0754 140.342 95.0435 140.296C95.0228 140.237 95.0228 140.175 95.0435 140.117C95.0535 140.06 95.0691 140.005 95.0901 139.952C95.1368 139.866 95.1756 139.787 95.2222 139.708L95.5253 139.264C95.7273 138.978 95.9682 138.691 96.1625 138.419C96.5548 137.853 96.76 137.193 96.753 136.521C96.7564 136.22 96.7065 135.92 96.6054 135.633L96.9007 135.726L88.6717 140.245L88.1355 140.539L88.392 140.016L89.2467 138.305L89.4954 138.541C85.9676 140.038 82.6962 141.406 79.9609 142.681C79.3933 143.092 78.9226 143.607 78.5778 144.192C78.197 144.75 77.8629 145.302 77.5599 145.832C76.946 146.899 76.4409 147.88 76.0058 148.74L72.5246 150.358L71.6154 150.774C71.5112 150.824 71.4019 150.865 71.2891 150.895C71.3833 150.832 71.4819 150.775 71.5843 150.723L72.4779 150.272L75.9125 148.575L75.8659 148.618C76.2777 147.744 76.7673 146.756 77.3656 145.681C77.6609 145.137 77.995 144.578 78.368 144.013C78.5572 143.718 78.7647 143.433 78.9896 143.16C79.2164 142.855 79.507 142.595 79.8444 142.394C82.6107 141.04 85.851 139.694 89.3788 138.176L89.845 137.982L89.6275 138.412C89.3555 138.971 89.068 139.544 88.7805 140.124L88.5085 139.895L96.7297 135.361L96.9473 135.239L97.025 135.454C97.1374 135.783 97.1976 136.126 97.2037 136.471C97.2085 137.217 96.9791 137.948 96.5432 138.577C96.3179 138.892 96.1003 139.143 95.8983 139.429C95.7973 139.565 95.704 139.708 95.6185 139.844C95.5752 139.911 95.5362 139.981 95.502 140.052C95.4994 140.078 95.4994 140.105 95.502 140.131H95.3854C95.331 140.131 95.331 140.131 95.3 140.131C95.3 140.231 95.2533 139.988 95.2611 140.016H95.432C95.909 140.28 96.2528 140.708 96.3878 141.205C96.4383 141.463 96.4086 141.729 96.3023 141.972C96.1935 142.183 96.0716 142.389 95.9371 142.587C95.4165 143.354 94.8648 144.063 94.2976 144.736V144.636C94.6439 145.069 94.9067 145.553 95.0746 146.068C95.2454 146.572 95.2454 147.112 95.0746 147.615V147.493C95.3337 148.257 95.4235 149.061 95.3388 149.857C95.3152 150.246 95.2206 150.628 95.059 150.988C94.8986 151.335 94.7062 151.668 94.484 151.984C93.6609 153.133 92.7272 154.212 91.6944 155.207L82.8749 159.103L80.4427 160.156L79.7978 160.421C79.7009 160.455 79.5985 160.475 79.4947 160.478Z" fill="#EB996E"/>
<path d="M89.1014 139.823C88.0693 140.642 86.9498 141.362 85.7601 141.972C84.6431 142.679 83.4537 143.283 82.209 143.777C83.2411 142.958 84.3606 142.238 85.5503 141.628C86.6673 140.921 87.8567 140.317 89.1014 139.823Z" fill="#EB996E"/>
<path d="M95.5053 139.625C94.611 140.695 93.6122 141.688 92.5214 142.59C91.5281 143.605 90.4327 144.53 89.25 145.355C90.1452 144.283 91.1439 143.288 92.2339 142.382C93.2276 141.37 94.3229 140.447 95.5053 139.625Z" fill="#EB996E"/>
<path d="M94.6492 144.186C94.2928 144.853 93.8203 145.463 93.2505 145.99C92.7749 146.592 92.1977 147.119 91.541 147.552C91.8954 146.883 92.3681 146.273 92.9397 145.747C93.4104 145.142 93.9883 144.614 94.6492 144.186Z" fill="#EB996E"/>
<path d="M94.9372 147.255C95.0227 147.32 94.673 147.821 94.2223 148.415C93.7716 149.01 93.3831 149.483 93.2898 149.432C93.1966 149.382 93.4297 148.809 93.8882 148.201C94.3466 147.592 94.8595 147.184 94.9372 147.255Z" fill="#EB996E"/>
<path d="M56.6828 176.866C56.6828 176.866 56.6828 176.83 56.776 176.78L57.079 176.544L58.2835 175.648L62.8836 172.289L79.2716 160.393L79.2017 160.515C79.2085 159.533 79.0052 158.56 78.6034 157.65C78.1439 156.7 77.5508 155.809 76.8395 155C75.2866 153.31 73.4502 151.859 71.4001 150.703H71.5788L60.568 155.115L50.3187 159.205L50.1477 159.276L50.0623 159.126C47.2416 154.005 44.6229 149.192 41.9965 145.009C40.6833 142.911 39.3856 140.97 38.1579 139.158C36.9301 137.346 35.8267 135.67 34.6689 134.224C32.9649 131.892 30.6991 129.956 28.0484 128.566C27.5899 128.315 27.1626 128.121 26.7974 127.957C26.4321 127.792 26.1136 127.656 25.8571 127.556C25.6007 127.455 25.422 127.384 25.2743 127.319C25.2073 127.295 25.1424 127.266 25.0801 127.233C27.3801 127.942 29.5113 129.051 31.3587 130.499C32.6792 131.563 33.8605 132.764 34.8787 134.08C36.0443 135.513 37.2098 137.203 38.422 139.001C39.6342 140.798 40.9708 142.746 42.3073 144.845C44.9804 149.027 47.6068 153.84 50.4353 158.954L50.1788 158.868L60.4204 154.764L71.4234 150.367L71.5167 150.331L71.6021 150.381C73.6915 151.562 75.5599 153.047 77.1347 154.778C77.861 155.619 78.4693 156.541 78.9453 157.521C79.3618 158.487 79.5703 159.519 79.5591 160.558V160.63L79.4892 160.68L63.0157 172.418L58.3534 175.699L57.1179 176.558L56.7993 176.773L56.6828 176.866Z" fill="#263238"/>
<path d="M48.9491 164.979C48.8325 164.936 49.4231 163.589 49.7261 161.849C50.0292 160.109 50.0369 158.655 50.1613 158.647C50.5369 160.827 50.0985 163.059 48.918 164.979H48.9491Z" fill="#263238"/>
<path d="M42.7872 176.203C42.4596 175.719 42.0992 175.271 41.7094 174.866L38.6455 171.387C36.0487 168.463 32.4817 164.407 28.5994 159.841C24.7171 155.275 21.2618 151.073 18.7617 148.026L15.7944 144.424C15.4502 143.956 15.0714 143.531 14.6621 143.153C14.945 143.698 15.2699 144.204 15.6327 144.663C16.2898 145.559 17.2572 146.846 18.476 148.422C20.9094 151.546 24.3296 155.819 28.2189 160.399C32.1082 164.98 35.7199 168.967 38.3765 171.799C39.707 173.229 40.7886 174.358 41.5626 175.083C41.9382 175.508 42.3482 175.883 42.7872 176.203Z" fill="#263238"/>
</svg>
