<svg width="36" height="36" viewBox="0 0 36 36" fill="none" xmlns="http://www.w3.org/2000/svg">
<circle cx="18" cy="17.8477" r="17.5" fill="#A14CF5"/>
<path d="M8.406 11.3817H9.694V12.5157H11.696V13.6917H9.694V15.2177C10.366 15.0917 11.038 14.9657 11.71 14.8257V16.0297L11.122 16.1557L12.046 16.8417C11.276 17.4017 10.478 17.8777 9.638 18.2697C10.534 18.1857 11.416 18.1017 12.284 18.0317C12.844 17.7097 13.418 17.3597 13.992 16.9957L15.098 17.7237C13.446 18.7597 11.612 19.5857 9.624 20.2297C11.416 20.1597 13.194 20.0617 14.93 19.9497C14.65 19.6697 14.37 19.4037 14.09 19.1237L15.112 18.4797C16.19 19.4737 17.016 20.3417 17.604 21.0697L16.54 21.8257C16.288 21.4897 16.022 21.1677 15.728 20.8317L12.214 21.0417V22.9037C12.214 23.7997 11.766 24.2477 10.87 24.2477H9.624L9.33 22.9457C9.708 23.0017 10.072 23.0297 10.408 23.0297C10.716 23.0297 10.87 22.8757 10.87 22.5677V21.1117C9.19 21.1957 7.636 21.2517 6.194 21.2937L5.928 20.1317C6.32 20.1597 6.698 20.1737 7.062 20.1737C8.098 19.9217 9.204 19.5437 10.352 19.0257L7.174 19.1937L6.936 18.0877C7.482 18.0877 7.874 18.0457 8.112 17.9617C8.994 17.5277 9.932 16.9397 10.926 16.1977C9.176 16.5337 7.328 16.8417 5.382 17.0937L5.06 15.8197L6.138 15.7077V12.2217H7.398V15.5677L8.406 15.4277V11.3817ZM13.558 21.4897C15.056 21.8957 16.414 22.3857 17.646 22.9737L16.904 24.1217C15.588 23.4497 14.244 22.9177 12.872 22.5257L13.558 21.4897ZM9.204 21.4757L10.03 22.4277C8.854 23.0857 7.412 23.6457 5.718 24.0937L5.144 22.8757C6.796 22.5117 8.14 22.0497 9.204 21.4757ZM15.756 16.6317H13.586C12.648 16.6317 12.186 16.1137 12.186 15.0917V11.3817H13.46V12.5997C14.79 12.4037 15.882 12.2217 16.722 12.0257L17.142 13.2017C16.064 13.4117 14.832 13.6077 13.46 13.7897V14.8257C13.46 15.2457 13.628 15.4557 13.978 15.4557H15.504C15.728 15.4557 15.882 15.3997 15.994 15.2877C16.12 15.1757 16.204 14.8117 16.246 14.2097L17.52 14.6157C17.408 15.5957 17.226 16.1697 16.946 16.3657C16.68 16.5337 16.288 16.6317 15.756 16.6317ZM19.172 13.9997H20.936V11.3817H22.238V13.9997H23.568V15.2737H22.238V15.9037C22.812 16.5337 23.386 17.2197 23.96 17.9617L23.204 19.0957C22.84 18.3677 22.518 17.7657 22.238 17.2617V24.2197H20.936V18.0177C20.544 19.1377 20.082 20.1877 19.536 21.1397L18.962 19.6697C19.844 18.3817 20.488 16.9257 20.908 15.2737H19.172V13.9997ZM24.548 17.5137H30.778V21.0137H24.548V17.5137ZM29.532 19.9217V18.6057H25.794V19.9217H29.532ZM23.792 22.7497H25.738C25.514 22.3437 25.262 21.9657 24.968 21.6017L26.172 21.1677C26.48 21.6157 26.76 22.1337 27.012 22.7497H28.356C28.692 22.2457 28.986 21.7137 29.238 21.1677L30.428 21.5877C30.204 22.0077 29.952 22.3997 29.686 22.7497H31.632V23.9397H23.792V22.7497ZM25.836 15.8057C25.318 16.4217 24.702 16.9397 23.988 17.3737L23.232 16.3797C23.876 16.0157 24.422 15.5957 24.898 15.1057C24.576 14.7977 24.198 14.4757 23.764 14.1397L24.562 13.3697C24.926 13.6637 25.262 13.9577 25.57 14.2657C25.836 13.8597 26.06 13.4257 26.242 12.9777H24.17V11.8577H27.376V12.7957C27.124 13.7617 26.732 14.6157 26.2 15.3437H29.35C28.636 14.3497 28.09 13.2437 27.712 12.0257L28.65 11.4937C28.762 11.8577 28.888 12.1937 29.028 12.5157C29.42 12.1937 29.756 11.8437 30.036 11.4657L30.904 12.2077C30.498 12.6837 30.036 13.1177 29.504 13.4817C29.644 13.7337 29.812 13.9857 29.98 14.2237C30.456 13.8457 30.876 13.4397 31.226 12.9917L32.094 13.7477C31.674 14.2377 31.198 14.6717 30.666 15.0637C31.072 15.5117 31.52 15.9037 32.01 16.2537L31.142 17.2617C30.582 16.7857 30.078 16.2817 29.658 15.7497V16.5057H25.836V15.8057Z" fill="#F2F2F2"/>
</svg>
