<svg width="40" height="40" viewBox="0 0 40 40" fill="none" xmlns="http://www.w3.org/2000/svg">
<rect width="40" height="40" rx="1" fill="#6588B8"/>
<g clip-path="url(#clip0_2416_45688)">
<path fill-rule="evenodd" clip-rule="evenodd" d="M18.1816 10H11.8182C10.6061 10 10 10.6061 10 11.8182V28.1818C10 29.3939 10.6061 30 11.8182 30H28.1818C29.3939 30 30 29.3939 30 28.1818V11.8182C30 10.6061 29.3939 10 28.1818 10H20.0037V11.813H21.818V13.6261H20.0037V15.4166H21.818V17.2075H20.0037V18.998H18.1816V17.2075H19.996V15.4166H18.1816V13.6261H19.996V11.813H18.1816V10ZM21.7878 19.1323H19.981V20.9302H21.7878V19.1323ZM18.1816 24.635V21.0536H21.818V24.635C21.8179 24.7527 21.7947 24.8691 21.7494 24.9778C21.7042 25.0864 21.638 25.185 21.5546 25.268C21.3857 25.4359 21.1569 25.5302 20.9182 25.5302H19.0814C18.843 25.5303 18.6143 25.436 18.4453 25.268C18.3618 25.185 18.2955 25.0864 18.2503 24.9778C18.2051 24.8692 18.1817 24.7527 18.1816 24.635ZM19.0816 24.9036H20.9182H20.9185V23.1055H19.0816V24.9036Z" fill="white"/>
</g>
<defs>
<clipPath id="clip0_2416_45688">
<rect width="20" height="20" fill="white" transform="translate(10 10)"/>
</clipPath>
</defs>
</svg>
